<?xml version="1.0" encoding="UTF-8"?>
<!DOCTYPE svg PUBLIC "-//W3C//DTD SVG 1.1//EN" "http://www.w3.org/Graphics/SVG/1.1/DTD/svg11.dtd">
<svg xmlns="http://www.w3.org/2000/svg" version="1.1" viewBox="0 0 400 349" style="shape-rendering:geometricPrecision; text-rendering:geometricPrecision; image-rendering:optimizeQuality; fill-rule:evenodd; clip-rule:evenodd" xmlns:xlink="http://www.w3.org/1999/xlink">
<g><path style="opacity:0.932" fill="#050607" d="M 185.5,-0.5 C 195.833,-0.5 206.167,-0.5 216.5,-0.5C 266.846,9.6749 298.679,39.6749 312,89.5C 319.442,140.437 301.942,180.27 259.5,209C 213.657,233.248 169.99,229.914 128.5,199C 89.6881,162.919 78.8547,119.753 96,69.5C 113.746,30.5743 143.579,7.24096 185.5,-0.5 Z"/></g>
<g><path style="opacity:1" fill="#9a9a9b" d="M 210.5,2.5 C 207.375,3.47944 204.042,3.81277 200.5,3.5C 198.143,3.33669 195.81,3.50335 193.5,4C 190.335,6.57652 187.668,9.57652 185.5,13C 166.945,45.3622 139.111,63.5289 102,67.5C 100.815,69.3772 99.8147,71.3772 99,73.5C 98.5357,72.9056 98.369,72.2389 98.5,71.5C 99.0749,68.0884 100.408,65.0884 102.5,62.5C 102.81,63.7383 103.31,63.7383 104,62.5C 104.667,61.1667 105.333,59.8333 106,58.5C 128.564,55.52 147.898,45.8533 164,29.5C 168.551,24.2838 172.717,18.7838 176.5,13C 176.167,12.6667 175.833,12.3333 175.5,12C 178.029,9.97145 180.696,8.13812 183.5,6.5C 184.641,5.57451 184.641,4.74117 183.5,4C 182.207,3.50999 180.873,3.34332 179.5,3.5C 189.641,1.30476 199.974,0.971427 210.5,2.5 Z"/></g>
<g><path style="opacity:1" fill="#8e8e8f" d="M 200.5,3.5 C 192.855,14.9626 184.855,26.296 176.5,37.5C 163.928,49.9058 149.595,59.7391 133.5,67C 127.95,68.598 122.45,70.4313 117,72.5C 110.419,72.1014 104.086,73.4348 98,76.5C 97.5357,75.9056 97.369,75.2389 97.5,74.5C 97.2627,73.209 97.596,72.209 98.5,71.5C 98.369,72.2389 98.5357,72.9056 99,73.5C 99.8147,71.3772 100.815,69.3772 102,67.5C 139.111,63.5289 166.945,45.3622 185.5,13C 187.668,9.57652 190.335,6.57652 193.5,4C 195.81,3.50335 198.143,3.33669 200.5,3.5 Z"/></g>
<g><path style="opacity:1" fill="#818182" d="M 210.5,2.5 C 212.861,2.67412 215.194,3.00745 217.5,3.5C 211.755,3.23112 206.922,5.23112 203,9.5C 194.943,24.3971 184.776,37.7304 172.5,49.5C 169.783,49.974 167.45,50.974 165.5,52.5C 165.5,57.5 165.5,62.5 165.5,67.5C 164.698,66.0484 164.198,64.3817 164,62.5C 156.687,69.1354 148.353,74.1354 139,77.5C 135.088,76.3177 131.088,75.651 127,75.5C 123.537,75.2512 121.037,75.9179 119.5,77.5C 119.158,78.3382 118.492,78.6716 117.5,78.5C 117.265,77.9033 116.765,77.5699 116,77.5C 113.106,78.6968 110.273,80.0301 107.5,81.5C 104.09,80.2491 100.423,80.2491 96.5,81.5C 96.1667,86.8333 95.8333,86.8333 95.5,81.5C 95.4095,78.8478 96.0762,76.5145 97.5,74.5C 97.369,75.2389 97.5357,75.9056 98,76.5C 104.086,73.4348 110.419,72.1014 117,72.5C 122.45,70.4313 127.95,68.598 133.5,67C 149.595,59.7391 163.928,49.9058 176.5,37.5C 184.855,26.296 192.855,14.9626 200.5,3.5C 204.042,3.81277 207.375,3.47944 210.5,2.5 Z"/></g>
<g><path style="opacity:1" fill="#a7a8a8" d="M 175.5,4.5 C 176.568,3.56552 177.901,3.23219 179.5,3.5C 180.873,3.34332 182.207,3.50999 183.5,4C 184.641,4.74117 184.641,5.57451 183.5,6.5C 180.696,8.13812 178.029,9.97145 175.5,12C 175.833,12.3333 176.167,12.6667 176.5,13C 172.717,18.7838 168.551,24.2838 164,29.5C 147.898,45.8533 128.564,55.52 106,58.5C 105.333,59.8333 104.667,61.1667 104,62.5C 103.31,63.7383 102.81,63.7383 102.5,62.5C 102.75,60.326 103.75,58.6594 105.5,57.5C 107.47,55.3533 109.303,53.02 111,50.5C 111.333,50.8333 111.667,51.1667 112,51.5C 115.103,49.697 117.937,47.5303 120.5,45C 123.276,44.5845 125.943,43.7512 128.5,42.5C 129.086,42.7093 129.586,43.0426 130,43.5C 137.709,38.7355 145.543,33.4022 153.5,27.5C 156.893,23.7767 159.893,19.7767 162.5,15.5C 166.004,13.5823 169.337,11.4157 172.5,9C 173.833,8.33333 173.833,7.66667 172.5,7C 174.5,6.33333 176.5,5.66667 178.5,5C 177.552,4.51722 176.552,4.35055 175.5,4.5 Z"/></g>
<g><path style="opacity:1" fill="#6a6b6b" d="M 217.5,3.5 C 220.598,3.75556 223.598,4.42222 226.5,5.5C 224.645,6.6896 222.812,8.02294 221,9.5C 212.26,25.2441 201.593,39.5774 189,52.5C 188.517,53.448 188.351,54.448 188.5,55.5C 187.833,55.1667 187.167,54.8333 186.5,54.5C 185.495,62.7773 185.162,72.444 185.5,83.5C 184.501,73.9167 184.168,63.5834 184.5,52.5C 178.5,52.5 172.5,52.5 166.5,52.5C 166.167,52.5 165.833,52.5 165.5,52.5C 167.45,50.974 169.783,49.974 172.5,49.5C 184.776,37.7304 194.943,24.3971 203,9.5C 206.922,5.23112 211.755,3.23112 217.5,3.5 Z"/></g>
<g><path style="opacity:1" fill="#b6b6b6" d="M 175.5,4.5 C 176.552,4.35055 177.552,4.51722 178.5,5C 176.5,5.66667 174.5,6.33333 172.5,7C 173.833,7.66667 173.833,8.33333 172.5,9C 169.337,11.4157 166.004,13.5823 162.5,15.5C 159.893,19.7767 156.893,23.7767 153.5,27.5C 145.543,33.4022 137.709,38.7355 130,43.5C 129.586,43.0426 129.086,42.7093 128.5,42.5C 125.943,43.7512 123.276,44.5845 120.5,45C 117.937,47.5303 115.103,49.697 112,51.5C 111.667,51.1667 111.333,50.8333 111,50.5C 109.303,53.02 107.47,55.3533 105.5,57.5C 107.087,53.3171 109.421,49.6505 112.5,46.5C 120.672,37.1628 129.672,28.6628 139.5,21C 139.272,20.6012 138.938,20.4346 138.5,20.5C 149.457,12.1931 161.79,6.85974 175.5,4.5 Z"/></g>
<g><path style="opacity:1" fill="#4d4d4e" d="M 226.5,5.5 C 230.579,6.63732 234.579,7.97065 238.5,9.5C 237.282,10.1614 235.949,10.8281 234.5,11.5C 222.6,29.2908 209.267,45.9575 194.5,61.5C 190.813,61.1467 188.813,59.1467 188.5,55.5C 188.351,54.448 188.517,53.448 189,52.5C 201.593,39.5774 212.26,25.2441 221,9.5C 222.812,8.02294 224.645,6.6896 226.5,5.5 Z"/></g>
<g><path style="opacity:1" fill="#3d3d3d" d="M 238.5,9.5 C 240.284,9.89254 241.95,10.5592 243.5,11.5C 240.229,14.0015 237.396,17.0015 235,20.5C 223.93,36.0816 211.764,50.9149 198.5,65C 193.92,65.4572 190.42,63.6239 188,59.5C 187.722,60.4158 187.222,61.0825 186.5,61.5C 186.5,59.1667 186.5,56.8333 186.5,54.5C 187.167,54.8333 187.833,55.1667 188.5,55.5C 188.813,59.1467 190.813,61.1467 194.5,61.5C 209.267,45.9575 222.6,29.2908 234.5,11.5C 235.949,10.8281 237.282,10.1614 238.5,9.5 Z"/></g>
<g><path style="opacity:1" fill="#303030" d="M 243.5,11.5 C 246.971,12.2002 248.971,14.2002 249.5,17.5C 247.726,16.119 246.226,16.4523 245,18.5C 231.727,37.657 216.56,55.3237 199.5,71.5C 198.5,70.1667 197.5,70.1667 196.5,71.5C 191.79,66.4131 188.623,67.4131 187,74.5C 186.501,70.1794 186.334,65.8461 186.5,61.5C 187.222,61.0825 187.722,60.4158 188,59.5C 190.42,63.6239 193.92,65.4572 198.5,65C 211.764,50.9149 223.93,36.0816 235,20.5C 237.396,17.0015 240.229,14.0015 243.5,11.5 Z"/></g>
<g><path style="opacity:1" fill="#262626" d="M 249.5,17.5 C 249.533,21.8689 249.2,26.2022 248.5,30.5C 247.778,30.0825 247.278,29.4158 247,28.5C 241.667,35.1667 236.333,41.8333 231,48.5C 222.512,56.9238 214.346,65.7572 206.5,75C 203.5,75.3333 200.5,75.6667 197.5,76C 201.025,76.1787 204.359,76.6787 207.5,77.5C 199.148,76.1248 191.815,78.1248 185.5,83.5C 185.162,72.444 185.495,62.7773 186.5,54.5C 186.5,56.8333 186.5,59.1667 186.5,61.5C 186.334,65.8461 186.501,70.1794 187,74.5C 188.623,67.4131 191.79,66.4131 196.5,71.5C 197.5,70.1667 198.5,70.1667 199.5,71.5C 216.56,55.3237 231.727,37.657 245,18.5C 246.226,16.4523 247.726,16.119 249.5,17.5 Z"/></g>
<g><path style="opacity:1" fill="#e4e4e4" d="M 138.5,20.5 C 138.938,20.4346 139.272,20.6012 139.5,21C 129.672,28.6628 120.672,37.1628 112.5,46.5C 119.479,36.1879 128.145,27.5212 138.5,20.5 Z"/></g>
<g><path style="opacity:1" fill="#151616" d="M 248.5,30.5 C 247.856,39.9178 245.69,48.9178 242,57.5C 233.792,65.4996 226.292,73.4996 219.5,81.5C 215.697,79.5658 211.697,78.2324 207.5,77.5C 204.359,76.6787 201.025,76.1787 197.5,76C 200.5,75.6667 203.5,75.3333 206.5,75C 214.346,65.7572 222.512,56.9238 231,48.5C 236.333,41.8333 241.667,35.1667 247,28.5C 247.278,29.4158 247.778,30.0825 248.5,30.5 Z"/></g>
<g><path style="opacity:1" fill="#f9f9f9" d="M 166.5,52.5 C 172.5,52.5 178.5,52.5 184.5,52.5C 184.168,63.5834 184.501,73.9167 185.5,83.5C 191.815,78.1248 199.148,76.1248 207.5,77.5C 211.697,78.2324 215.697,79.5658 219.5,81.5C 233.475,90.7246 239.142,103.725 236.5,120.5C 228.781,140.539 214.114,149.039 192.5,146C 188.328,144.412 184.328,142.579 180.5,140.5C 174.517,135.007 170.35,128.34 168,120.5C 166.601,110.232 166.101,99.8983 166.5,89.5C 166.5,77.1667 166.5,64.8333 166.5,52.5 Z"/></g>
<g><path style="opacity:1" fill="#626263" d="M 165.5,67.5 C 165.666,73.8421 165.5,80.1754 165,86.5C 164.667,86.1667 164.333,85.8333 164,85.5C 161.276,86.6883 158.943,88.355 157,90.5C 152.833,85.1613 147.666,81.1613 141.5,78.5C 140.893,78.6236 140.56,78.9569 140.5,79.5C 133.649,77.7163 126.649,77.0496 119.5,77.5C 121.037,75.9179 123.537,75.2512 127,75.5C 131.088,75.651 135.088,76.3177 139,77.5C 148.353,74.1354 156.687,69.1354 164,62.5C 164.198,64.3817 164.698,66.0484 165.5,67.5 Z"/></g>
<g><path style="opacity:1" fill="#f9f9f9" d="M 119.5,77.5 C 126.649,77.0496 133.649,77.7163 140.5,79.5C 149.553,83.8865 156.22,90.5531 160.5,99.5C 160.892,101.179 161.392,102.846 162,104.5C 162.5,118.163 162.667,131.829 162.5,145.5C 156.5,145.5 150.5,145.5 144.5,145.5C 144.799,143.396 144.466,141.396 143.5,139.5C 136.092,146.191 127.425,148.358 117.5,146C 108.457,142.497 101.457,136.664 96.5,128.5C 94.9487,125.164 93.6154,121.831 92.5,118.5C 91.5898,110.062 92.9232,102.062 96.5,94.5C 101.765,86.9034 108.765,81.57 117.5,78.5C 118.492,78.6716 119.158,78.3382 119.5,77.5 Z"/></g>
<g><path style="opacity:1" fill="#f8f8f8" d="M 302.5,134.5 C 292.683,144.827 280.683,148.66 266.5,146C 253.918,141.585 245.584,133.085 241.5,120.5C 238.281,99.5495 246.615,85.3828 266.5,78C 288.508,74.6597 302.841,83.493 309.5,104.5C 303.158,104.666 296.825,104.5 290.5,104C 282.724,94.4322 273.724,93.0989 263.5,100C 255.092,111.941 257.425,121.274 270.5,128C 278.615,129.94 284.949,127.44 289.5,120.5C 296.167,119.167 302.833,119.167 309.5,120.5C 308.208,125.752 305.874,130.418 302.5,134.5 Z"/></g>
<g><path style="opacity:1" fill="#6a6b6c" d="M 117.5,78.5 C 108.765,81.57 101.765,86.9034 96.5,94.5C 94.1163,93.5749 93.1163,91.7415 93.5,89C 93.6462,86.2402 94.3128,83.7402 95.5,81.5C 95.8333,86.8333 96.1667,86.8333 96.5,81.5C 100.423,80.2491 104.09,80.2491 107.5,81.5C 110.273,80.0301 113.106,78.6968 116,77.5C 116.765,77.5699 117.265,77.9033 117.5,78.5 Z"/></g>
<g><path style="opacity:1" fill="#292b2c" d="M 165.5,52.5 C 165.833,52.5 166.167,52.5 166.5,52.5C 166.5,64.8333 166.5,77.1667 166.5,89.5C 165.833,94.6813 165.167,100.015 164.5,105.5C 163.293,102.721 161.96,100.721 160.5,99.5C 156.22,90.5531 149.553,83.8865 140.5,79.5C 140.56,78.9569 140.893,78.6236 141.5,78.5C 147.666,81.1613 152.833,85.1613 157,90.5C 158.943,88.355 161.276,86.6883 164,85.5C 164.333,85.8333 164.667,86.1667 165,86.5C 165.5,80.1754 165.666,73.8421 165.5,67.5C 165.5,62.5 165.5,57.5 165.5,52.5 Z"/></g>
<g><path style="opacity:1" fill="#5e5f60" d="M 125.5,97.5 C 127.857,97.3367 130.19,97.5034 132.5,98C 127.678,102.372 122.678,106.205 117.5,109.5C 114.098,108.442 113.598,106.442 116,103.5C 118.297,100.02 121.464,98.0201 125.5,97.5 Z"/></g>
<g><path style="opacity:1" fill="#3d4042" d="M 128.5,95.5 C 131.649,95.4152 134.316,96.4152 136.5,98.5C 136.062,98.4346 135.728,98.6012 135.5,99C 136.833,100.333 138.167,101.667 139.5,103C 137.507,105.747 135.007,107.914 132,109.5C 131.517,110.448 131.351,111.448 131.5,112.5C 126.404,112.956 121.738,111.956 117.5,109.5C 122.678,106.205 127.678,102.372 132.5,98C 130.19,97.5034 127.857,97.3367 125.5,97.5C 126.5,96.8333 127.5,96.1667 128.5,95.5 Z"/></g>
<g><path style="opacity:1" fill="#0d1113" d="M 196.5,95.5 C 214.585,95.0652 221.085,103.399 216,120.5C 207.061,130.698 197.727,131.032 188,121.5C 182.584,110.023 185.417,101.356 196.5,95.5 Z"/></g>
<g><path style="opacity:1" fill="#13171a" d="M 128.5,95.5 C 127.5,96.1667 126.5,96.8333 125.5,97.5C 121.464,98.0201 118.297,100.02 116,103.5C 113.598,106.442 114.098,108.442 117.5,109.5C 121.738,111.956 126.404,112.956 131.5,112.5C 131.351,111.448 131.517,110.448 132,109.5C 135.007,107.914 137.507,105.747 139.5,103C 138.167,101.667 136.833,100.333 135.5,99C 135.728,98.6012 136.062,98.4346 136.5,98.5C 143.057,103.202 145.224,109.536 143,117.5C 138.843,126.114 132.01,129.614 122.5,128C 109.425,121.274 107.092,111.941 115.5,100C 119.251,96.7899 123.584,95.2899 128.5,95.5 Z"/></g>
<g><path style="opacity:1" fill="#151c21" d="M 166.5,89.5 C 166.101,99.8983 166.601,110.232 168,120.5C 170.35,128.34 174.517,135.007 180.5,140.5C 178.284,139.797 176.451,138.464 175,136.5C 170.716,137.382 168.55,140.049 168.5,144.5C 167.5,144.5 166.5,144.5 165.5,144.5C 165.657,143.127 165.49,141.793 165,140.5C 165.013,146.151 162.18,148.651 156.5,148C 155.079,149.421 153.245,151.255 151,153.5C 150.667,153.167 150.333,152.833 150,152.5C 147.531,156.488 144.031,159.155 139.5,160.5C 138.099,162.277 136.599,163.944 135,165.5C 134.586,165.043 134.086,164.709 133.5,164.5C 132.147,165.685 130.98,167.019 130,168.5C 127.891,167.965 127.391,166.965 128.5,165.5C 128.062,164.494 127.396,164.494 126.5,165.5C 125.719,164.271 125.219,162.938 125,161.5C 124.213,162.711 123.546,163.711 123,164.5C 122.333,163.167 121.667,161.833 121,160.5C 119.838,161.187 118.672,161.353 117.5,161C 116.359,160.259 116.359,159.425 117.5,158.5C 116.151,156.83 114.985,155.164 114,153.5C 112.807,154.978 112.307,156.312 112.5,157.5C 110.931,156.286 110.098,154.619 110,152.5C 109.667,153.167 109.333,153.833 109,154.5C 108.167,153 107,151.833 105.5,151C 104.551,150.383 103.718,150.549 103,151.5C 102.544,150.256 103.044,149.423 104.5,149C 102.047,147.12 100.047,144.787 98.5,142C 98.8333,141.667 99.1667,141.333 99.5,141C 96.9651,138.742 96.6317,136.575 98.5,134.5C 97.2485,132.999 96.2485,131.332 95.5,129.5C 95.6236,128.893 95.9569,128.56 96.5,128.5C 101.457,136.664 108.457,142.497 117.5,146C 127.425,148.358 136.092,146.191 143.5,139.5C 144.466,141.396 144.799,143.396 144.5,145.5C 150.5,145.5 156.5,145.5 162.5,145.5C 162.667,131.829 162.5,118.163 162,104.5C 161.392,102.846 160.892,101.179 160.5,99.5C 161.96,100.721 163.293,102.721 164.5,105.5C 165.167,100.015 165.833,94.6813 166.5,89.5 Z"/></g>
<g><path style="opacity:1" fill="#19232a" d="M 241.5,120.5 C 245.584,133.085 253.918,141.585 266.5,146C 280.683,148.66 292.683,144.827 302.5,134.5C 302.704,137.408 303.371,140.574 304.5,144C 303.496,148.856 301.83,153.356 299.5,157.5C 294.156,153.056 288.49,149.723 282.5,147.5C 279.194,148.163 275.861,148.663 272.5,149C 273.833,149.333 275.167,149.667 276.5,150C 269.855,151.931 262.855,152.431 255.5,151.5C 252.869,151.782 250.369,152.449 248,153.5C 245.425,152.411 242.759,152.411 240,153.5C 239.311,152.643 238.478,151.977 237.5,151.5C 234.731,152.296 232.064,152.629 229.5,152.5C 227.714,150.979 225.881,150.646 224,151.5C 219.995,149.734 216.162,149.068 212.5,149.5C 211.252,150.04 210.085,150.707 209,151.5C 206.974,150.981 204.974,150.647 203,150.5C 199.257,151.238 195.423,152.571 191.5,154.5C 189.694,153.141 188.194,153.475 187,155.5C 183.25,153.041 179.417,150.708 175.5,148.5C 172.839,152.489 170.672,156.822 169,161.5C 165.197,162.89 162.197,165.223 160,168.5C 159.667,168.167 159.333,167.833 159,167.5C 157.773,169.726 155.939,171.226 153.5,172C 153.833,172.333 154.167,172.667 154.5,173C 153.24,174.113 152.073,174.28 151,173.5C 145.812,179.023 140.978,184.857 136.5,191C 137.634,192.016 137.301,192.683 135.5,193C 137.446,196.881 140.112,200.214 143.5,203C 142.944,203.383 142.611,203.883 142.5,204.5C 111.358,184.212 94.6912,155.545 92.5,118.5C 93.6154,121.831 94.9487,125.164 96.5,128.5C 95.9569,128.56 95.6236,128.893 95.5,129.5C 96.2485,131.332 97.2485,132.999 98.5,134.5C 96.6317,136.575 96.9651,138.742 99.5,141C 99.1667,141.333 98.8333,141.667 98.5,142C 100.047,144.787 102.047,147.12 104.5,149C 103.044,149.423 102.544,150.256 103,151.5C 103.718,150.549 104.551,150.383 105.5,151C 107,151.833 108.167,153 109,154.5C 109.333,153.833 109.667,153.167 110,152.5C 110.098,154.619 110.931,156.286 112.5,157.5C 112.307,156.312 112.807,154.978 114,153.5C 114.985,155.164 116.151,156.83 117.5,158.5C 116.359,159.425 116.359,160.259 117.5,161C 118.672,161.353 119.838,161.187 121,160.5C 121.667,161.833 122.333,163.167 123,164.5C 123.546,163.711 124.213,162.711 125,161.5C 125.219,162.938 125.719,164.271 126.5,165.5C 127.396,164.494 128.062,164.494 128.5,165.5C 127.391,166.965 127.891,167.965 130,168.5C 130.98,167.019 132.147,165.685 133.5,164.5C 134.086,164.709 134.586,165.043 135,165.5C 136.599,163.944 138.099,162.277 139.5,160.5C 144.031,159.155 147.531,156.488 150,152.5C 150.333,152.833 150.667,153.167 151,153.5C 153.245,151.255 155.079,149.421 156.5,148C 162.18,148.651 165.013,146.151 165,140.5C 165.49,141.793 165.657,143.127 165.5,144.5C 166.5,144.5 167.5,144.5 168.5,144.5C 168.55,140.049 170.716,137.382 175,136.5C 176.451,138.464 178.284,139.797 180.5,140.5C 184.328,142.579 188.328,144.412 192.5,146C 214.114,149.039 228.781,140.539 236.5,120.5C 236.369,121.239 236.536,121.906 237,122.5C 238.186,115.602 239.186,115.268 240,121.5C 240.383,120.944 240.883,120.611 241.5,120.5 Z"/></g>
<g><path style="opacity:1" fill="#273845" d="M 295.5,166.5 C 295.25,168.674 294.25,170.341 292.5,171.5C 292.141,169.629 291.141,168.129 289.5,167C 286.654,164.827 283.488,163.327 280,162.5C 256.373,165.16 233.539,170.993 211.5,180C 207.579,180.974 203.746,182.141 200,183.5C 199.667,183.167 199.333,182.833 199,182.5C 197.332,185.491 194.999,186.491 192,185.5C 190.796,186.471 190.296,187.471 190.5,188.5C 188.482,187.187 187.315,187.853 187,190.5C 186.51,189.207 186.343,187.873 186.5,186.5C 185.325,186.281 184.325,186.614 183.5,187.5C 181.054,191.554 178.721,195.721 176.5,200C 177.833,202.333 177.833,204.667 176.5,207C 177.717,208.648 178.55,210.481 179,212.5C 181.913,215.703 184.746,218.203 187.5,220C 192.434,221.16 197.434,221.66 202.5,221.5C 204.833,221.5 207.167,221.5 209.5,221.5C 195.131,223.33 181.131,221.663 167.5,216.5C 166.047,215.175 166.381,214.342 168.5,214C 165.624,212.972 163.29,211.305 161.5,209C 160.167,208.333 158.833,207.667 157.5,207C 160.943,206.779 161.276,205.779 158.5,204C 160.878,203.026 160.544,202.359 157.5,202C 160.943,197.42 164.443,192.253 168,186.5C 169.067,185.809 170.234,185.309 171.5,185C 170.72,183.927 170.887,182.76 172,181.5C 175.555,178.628 177.389,174.961 177.5,170.5C 179.107,168.162 181.44,166.496 184.5,165.5C 185.82,167.27 187.32,167.603 189,166.5C 189.324,168.569 190.158,168.902 191.5,167.5C 192.503,169.542 193.837,169.875 195.5,168.5C 196.333,169.5 197.167,170.5 198,171.5C 198.333,171.167 198.667,170.833 199,170.5C 200.085,171.293 201.252,171.96 202.5,172.5C 205.568,172.367 208.568,172.367 211.5,172.5C 212.5,171.833 213.5,171.167 214.5,170.5C 214.833,171.167 215.167,171.833 215.5,172.5C 216.719,171.737 217.719,170.737 218.5,169.5C 219.906,170.668 221.072,170.335 222,168.5C 222.414,168.957 222.914,169.291 223.5,169.5C 225.621,168.65 227.788,167.65 230,166.5C 232.867,166.566 235.7,166.566 238.5,166.5C 240.434,166.099 241.934,165.099 243,163.5C 247.543,163.861 252.043,163.028 256.5,161C 262.038,160.764 267.538,160.264 273,159.5C 273.772,159.645 274.439,159.978 275,160.5C 276.821,158.713 278.988,157.38 281.5,156.5C 282.799,157.09 283.632,158.09 284,159.5C 285.613,158.378 286.78,158.878 287.5,161C 291.484,161.142 294.15,162.975 295.5,166.5 Z"/></g>
<g><path style="opacity:1" fill="#23323d" d="M 297.5,162.5 C 297.34,164.153 296.674,165.486 295.5,166.5C 294.15,162.975 291.484,161.142 287.5,161C 286.78,158.878 285.613,158.378 284,159.5C 283.632,158.09 282.799,157.09 281.5,156.5C 278.988,157.38 276.821,158.713 275,160.5C 274.439,159.978 273.772,159.645 273,159.5C 267.538,160.264 262.038,160.764 256.5,161C 252.043,163.028 247.543,163.861 243,163.5C 241.934,165.099 240.434,166.099 238.5,166.5C 235.7,166.566 232.867,166.566 230,166.5C 227.788,167.65 225.621,168.65 223.5,169.5C 222.914,169.291 222.414,168.957 222,168.5C 221.072,170.335 219.906,170.668 218.5,169.5C 217.719,170.737 216.719,171.737 215.5,172.5C 215.167,171.833 214.833,171.167 214.5,170.5C 213.5,171.167 212.5,171.833 211.5,172.5C 208.568,172.367 205.568,172.367 202.5,172.5C 201.252,171.96 200.085,171.293 199,170.5C 198.667,170.833 198.333,171.167 198,171.5C 197.167,170.5 196.333,169.5 195.5,168.5C 193.837,169.875 192.503,169.542 191.5,167.5C 190.158,168.902 189.324,168.569 189,166.5C 187.32,167.603 185.82,167.27 184.5,165.5C 181.44,166.496 179.107,168.162 177.5,170.5C 177.389,174.961 175.555,178.628 172,181.5C 170.887,182.76 170.72,183.927 171.5,185C 170.234,185.309 169.067,185.809 168,186.5C 164.443,192.253 160.943,197.42 157.5,202C 160.544,202.359 160.878,203.026 158.5,204C 161.276,205.779 160.943,206.779 157.5,207C 158.833,207.667 160.167,208.333 161.5,209C 163.29,211.305 165.624,212.972 168.5,214C 166.381,214.342 166.047,215.175 167.5,216.5C 164.843,216.065 162.509,215.065 160.5,213.5C 161.317,211.692 160.65,210.192 158.5,209C 154.071,206.898 149.905,204.398 146,201.5C 146.046,199.687 145.88,198.021 145.5,196.5C 147.833,190.807 151.166,185.807 155.5,181.5C 159.71,179.684 163.544,177.351 167,174.5C 167.333,174.833 167.667,175.167 168,175.5C 169.587,173.368 171.087,171.202 172.5,169C 172.167,168.667 171.833,168.333 171.5,168C 172.667,165.5 173.833,163 175,160.5C 176.028,158.639 177.528,157.305 179.5,156.5C 183.955,158.944 188.621,160.944 193.5,162.5C 196.856,160.791 200.356,159.457 204,158.5C 205.416,161.195 207.416,161.861 210,160.5C 211.309,162.891 212.309,162.891 213,160.5C 213.85,161.424 214.85,161.424 216,160.5C 218,162.585 220,162.252 222,159.5C 227.928,159.412 233.762,159.745 239.5,160.5C 241.286,158.979 243.119,158.646 245,159.5C 247.925,158.249 250.925,157.249 254,156.5C 255.343,157.214 256.676,156.88 258,155.5C 261.744,156.626 265.577,156.793 269.5,156C 273.547,154.446 277.713,153.28 282,152.5C 288.668,154.672 293.834,158.005 297.5,162.5 Z"/></g>
<g><path style="opacity:1" fill="#324557" d="M 291.5,173.5 C 290.66,175.853 289.326,177.853 287.5,179.5C 284.648,175.49 280.814,172.823 276,171.5C 246.173,174.216 220.34,185.55 198.5,205.5C 199.975,209.261 201.642,212.927 203.5,216.5C 205.167,217.333 206.833,218.167 208.5,219C 208.167,219.333 207.833,219.667 207.5,220C 210.146,220.497 212.813,220.664 215.5,220.5C 213.735,221.461 211.735,221.795 209.5,221.5C 207.167,221.5 204.833,221.5 202.5,221.5C 200.708,220.691 198.708,220.191 196.5,220C 196.833,219.667 197.167,219.333 197.5,219C 195.552,218.017 193.718,216.85 192,215.5C 189.943,211.121 188.11,206.621 186.5,202C 208.721,183.764 234.721,172.598 264.5,168.5C 269.569,167.862 274.569,166.862 279.5,165.5C 283.813,167.834 287.813,170.5 291.5,173.5 Z"/></g>
<g><path style="opacity:1" fill="#2b3d4d" d="M 292.5,171.5 C 292.672,172.492 292.338,173.158 291.5,173.5C 287.813,170.5 283.813,167.834 279.5,165.5C 274.569,166.862 269.569,167.862 264.5,168.5C 234.721,172.598 208.721,183.764 186.5,202C 188.11,206.621 189.943,211.121 192,215.5C 193.718,216.85 195.552,218.017 197.5,219C 197.167,219.333 196.833,219.667 196.5,220C 198.708,220.191 200.708,220.691 202.5,221.5C 197.434,221.66 192.434,221.16 187.5,220C 184.746,218.203 181.913,215.703 179,212.5C 178.55,210.481 177.717,208.648 176.5,207C 177.833,204.667 177.833,202.333 176.5,200C 178.721,195.721 181.054,191.554 183.5,187.5C 184.325,186.614 185.325,186.281 186.5,186.5C 186.343,187.873 186.51,189.207 187,190.5C 187.315,187.853 188.482,187.187 190.5,188.5C 190.296,187.471 190.796,186.471 192,185.5C 194.999,186.491 197.332,185.491 199,182.5C 199.333,182.833 199.667,183.167 200,183.5C 203.746,182.141 207.579,180.974 211.5,180C 233.539,170.993 256.373,165.16 280,162.5C 283.488,163.327 286.654,164.827 289.5,167C 291.141,168.129 292.141,169.629 292.5,171.5 Z"/></g>
<g><path style="opacity:1" fill="#425a75" d="M 281.5,186.5 C 279.833,188.833 277.833,190.833 275.5,192.5C 275.175,190.868 274.175,189.868 272.5,189.5C 269.417,191.372 266.084,192.705 262.5,193.5C 259.43,193.102 256.097,193.102 252.5,193.5C 250.399,193.632 248.899,194.632 248,196.5C 246.984,195.366 246.317,195.699 246,197.5C 245.586,197.043 245.086,196.709 244.5,196.5C 238.775,201.578 233.441,207.078 228.5,213C 231.167,214.333 231.167,215.667 228.5,217C 229.448,217.483 230.448,217.649 231.5,217.5C 228.456,219.011 225.122,219.678 221.5,219.5C 219.907,216.736 217.74,214.403 215,212.5C 214.405,211.101 214.572,209.768 215.5,208.5C 222.856,199.991 231.522,193.157 241.5,188C 250.176,184.598 258.343,182.765 266,182.5C 272.404,179.047 277.571,180.38 281.5,186.5 Z"/></g>
<g><path style="opacity:1" fill="#1e2c35" d="M 299.5,157.5 C 299.598,159.553 298.931,161.22 297.5,162.5C 293.834,158.005 288.668,154.672 282,152.5C 277.713,153.28 273.547,154.446 269.5,156C 265.577,156.793 261.744,156.626 258,155.5C 256.676,156.88 255.343,157.214 254,156.5C 250.925,157.249 247.925,158.249 245,159.5C 243.119,158.646 241.286,158.979 239.5,160.5C 233.762,159.745 227.928,159.412 222,159.5C 220,162.252 218,162.585 216,160.5C 214.85,161.424 213.85,161.424 213,160.5C 212.309,162.891 211.309,162.891 210,160.5C 207.416,161.861 205.416,161.195 204,158.5C 200.356,159.457 196.856,160.791 193.5,162.5C 188.621,160.944 183.955,158.944 179.5,156.5C 177.528,157.305 176.028,158.639 175,160.5C 173.833,163 172.667,165.5 171.5,168C 171.833,168.333 172.167,168.667 172.5,169C 171.087,171.202 169.587,173.368 168,175.5C 167.667,175.167 167.333,174.833 167,174.5C 163.544,177.351 159.71,179.684 155.5,181.5C 151.166,185.807 147.833,190.807 145.5,196.5C 145.88,198.021 146.046,199.687 146,201.5C 149.905,204.398 154.071,206.898 158.5,209C 160.65,210.192 161.317,211.692 160.5,213.5C 153.949,211.558 147.949,208.558 142.5,204.5C 142.611,203.883 142.944,203.383 143.5,203C 140.112,200.214 137.446,196.881 135.5,193C 137.301,192.683 137.634,192.016 136.5,191C 140.978,184.857 145.812,179.023 151,173.5C 152.073,174.28 153.24,174.113 154.5,173C 154.167,172.667 153.833,172.333 153.5,172C 155.939,171.226 157.773,169.726 159,167.5C 159.333,167.833 159.667,168.167 160,168.5C 162.197,165.223 165.197,162.89 169,161.5C 170.672,156.822 172.839,152.489 175.5,148.5C 179.417,150.708 183.25,153.041 187,155.5C 188.194,153.475 189.694,153.141 191.5,154.5C 195.423,152.571 199.257,151.238 203,150.5C 204.974,150.647 206.974,150.981 209,151.5C 210.085,150.707 211.252,150.04 212.5,149.5C 216.162,149.068 219.995,149.734 224,151.5C 225.881,150.646 227.714,150.979 229.5,152.5C 232.064,152.629 234.731,152.296 237.5,151.5C 238.478,151.977 239.311,152.643 240,153.5C 242.759,152.411 245.425,152.411 248,153.5C 250.369,152.449 252.869,151.782 255.5,151.5C 262.855,152.431 269.855,151.931 276.5,150C 275.167,149.667 273.833,149.333 272.5,149C 275.861,148.663 279.194,148.163 282.5,147.5C 288.49,149.723 294.156,153.056 299.5,157.5 Z"/></g>
<g><path style="opacity:1" fill="#3a5066" d="M 287.5,179.5 C 286.2,182.432 284.2,184.766 281.5,186.5C 277.571,180.38 272.404,179.047 266,182.5C 258.343,182.765 250.176,184.598 241.5,188C 231.522,193.157 222.856,199.991 215.5,208.5C 214.572,209.768 214.405,211.101 215,212.5C 217.74,214.403 219.907,216.736 221.5,219.5C 219.735,220.461 217.735,220.795 215.5,220.5C 212.813,220.664 210.146,220.497 207.5,220C 207.833,219.667 208.167,219.333 208.5,219C 206.833,218.167 205.167,217.333 203.5,216.5C 201.642,212.927 199.975,209.261 198.5,205.5C 220.34,185.55 246.173,174.216 276,171.5C 280.814,172.823 284.648,175.49 287.5,179.5 Z"/></g>
<g><path style="opacity:1" fill="#4b6285" d="M 275.5,192.5 C 263.315,204.933 248.648,213.267 231.5,217.5C 230.448,217.649 229.448,217.483 228.5,217C 231.167,215.667 231.167,214.333 228.5,213C 233.441,207.078 238.775,201.578 244.5,196.5C 245.086,196.709 245.586,197.043 246,197.5C 246.317,195.699 246.984,195.366 248,196.5C 248.899,194.632 250.399,193.632 252.5,193.5C 256.097,193.102 259.43,193.102 262.5,193.5C 266.084,192.705 269.417,191.372 272.5,189.5C 274.175,189.868 275.175,190.868 275.5,192.5 Z"/></g>
<g><path style="opacity:0.908" fill="#000000" d="M 399.5,309.5 C 399.5,314.833 399.5,320.167 399.5,325.5C 394.47,337.866 385.47,345.533 372.5,348.5C 365.5,348.5 358.5,348.5 351.5,348.5C 344.958,345.743 338.291,345.41 331.5,347.5C 330.295,339.477 328.962,331.477 327.5,323.5C 328.833,323.5 330.167,323.5 331.5,323.5C 334.836,333.661 341.836,339.828 352.5,342C 360.348,343.088 368.015,342.421 375.5,340C 384.356,334.664 386.856,327.164 383,317.5C 380.489,314.657 377.656,312.157 374.5,310C 363.685,305.095 353.352,299.428 343.5,293C 329.663,281.087 327.83,267.587 338,252.5C 345.336,246.369 353.836,243.369 363.5,243.5C 371.796,244.042 379.962,245.376 388,247.5C 390.086,246.582 392.253,245.915 394.5,245.5C 394.201,252.891 394.535,260.224 395.5,267.5C 394.167,268.833 392.833,268.833 391.5,267.5C 386.037,253.427 375.703,247.593 360.5,250C 349.902,251.253 345.402,257.086 347,267.5C 347.883,270.102 349.383,272.269 351.5,274C 363.719,280.293 375.719,286.96 387.5,294C 392.923,298.233 396.923,303.4 399.5,309.5 Z"/></g>
<g><path style="opacity:0.903" fill="#000000" d="M -0.5,245.5 C 10.1823,246.338 20.849,246.505 31.5,246C 51.9631,269.465 72.7964,292.632 94,315.5C 94.9397,295.123 94.6063,274.79 93,254.5C 91.661,251.906 89.4944,250.406 86.5,250C 83.5184,249.502 80.5184,249.335 77.5,249.5C 77.5,248.167 77.5,246.833 77.5,245.5C 89.1768,246.539 100.844,246.539 112.5,245.5C 112.5,246.833 112.5,248.167 112.5,249.5C 109.312,249.618 106.312,250.451 103.5,252C 102.809,253.067 102.309,254.234 102,255.5C 101.5,286.498 101.333,317.498 101.5,348.5C 100.167,348.5 98.8333,348.5 97.5,348.5C 72.8741,320.704 48.0407,293.037 23,265.5C 22.3333,288.833 22.3333,312.167 23,335.5C 23.5163,338.034 24.683,340.2 26.5,342C 30.7305,343.29 35.0638,343.79 39.5,343.5C 39.5,344.833 39.5,346.167 39.5,347.5C 26.8333,347.5 14.1667,347.5 1.5,347.5C 1.5,346.167 1.5,344.833 1.5,343.5C 4.6074,343.649 7.6074,343.149 10.5,342C 12.3333,341.5 13.5,340.333 14,338.5C 14.8332,310.827 14.6665,283.161 13.5,255.5C 9.76745,251.3 5.10078,249.3 -0.5,249.5C -0.5,248.167 -0.5,246.833 -0.5,245.5 Z"/></g>
<g><path style="opacity:0.901" fill="#000000" d="M 117.5,245.5 C 142.499,246.792 167.499,246.792 192.5,245.5C 192.5,253.167 192.5,260.833 192.5,268.5C 191.325,268.719 190.325,268.386 189.5,267.5C 189.327,261.44 186.66,256.94 181.5,254C 170.898,252.597 160.231,252.097 149.5,252.5C 149.5,265.167 149.5,277.833 149.5,290.5C 157.507,290.666 165.507,290.5 173.5,290C 178.684,288.146 181.684,284.48 182.5,279C 183.793,278.51 185.127,278.343 186.5,278.5C 186.5,289.167 186.5,299.833 186.5,310.5C 185.022,310.762 183.689,310.429 182.5,309.5C 182.028,304.712 179.694,301.212 175.5,299C 166.916,297.59 158.25,297.09 149.5,297.5C 149.333,310.504 149.5,323.504 150,336.5C 151.214,338.049 152.714,339.215 154.5,340C 162.5,340.667 170.5,340.667 178.5,340C 186.903,338.639 192.903,334.139 196.5,326.5C 197.968,324.667 199.635,324.334 201.5,325.5C 198.759,332.723 196.425,340.057 194.5,347.5C 168.833,347.5 143.167,347.5 117.5,347.5C 117.5,346.167 117.5,344.833 117.5,343.5C 121.273,343.737 124.94,343.237 128.5,342C 129.191,340.933 129.691,339.766 130,338.5C 130.667,310.5 130.667,282.5 130,254.5C 129.505,252.01 128.005,250.51 125.5,250C 122.854,249.503 120.187,249.336 117.5,249.5C 117.5,248.167 117.5,246.833 117.5,245.5 Z"/></g>
<g><path style="opacity:0.905" fill="#000000" d="M 292.5,348.5 C 290.5,348.5 288.5,348.5 286.5,348.5C 280.071,331.299 273.905,313.966 268,296.5C 261.33,313.679 255.163,331.012 249.5,348.5C 247.5,348.5 245.5,348.5 243.5,348.5C 232.047,318.311 220.88,287.977 210,257.5C 208.553,253.215 205.719,250.548 201.5,249.5C 201.5,248.167 201.5,246.833 201.5,245.5C 212.5,246.833 223.5,246.833 234.5,245.5C 234.5,246.833 234.5,248.167 234.5,249.5C 232.738,249.357 231.071,249.691 229.5,250.5C 228.348,253.106 228.182,255.773 229,258.5C 236.47,279.244 244.137,299.911 252,320.5C 255.888,309.058 260.055,297.725 264.5,286.5C 260.765,276.128 256.932,265.795 253,255.5C 250.115,250.975 245.948,248.975 240.5,249.5C 240.5,248.167 240.5,246.833 240.5,245.5C 254.83,246.713 269.163,246.713 283.5,245.5C 283.5,246.833 283.5,248.167 283.5,249.5C 280.15,249.335 276.817,249.502 273.5,250C 271.82,250.347 270.82,251.347 270.5,253C 278.33,275.822 286.163,298.656 294,321.5C 301.641,299.911 308.474,278.078 314.5,256C 314.604,253.855 313.937,252.021 312.5,250.5C 309.579,249.593 306.579,249.26 303.5,249.5C 303.5,248.167 303.5,246.833 303.5,245.5C 312.496,246.751 321.496,246.751 330.5,245.5C 330.762,246.978 330.429,248.311 329.5,249.5C 327.742,250.128 326.242,251.128 325,252.5C 313.669,284.327 302.835,316.327 292.5,348.5 Z"/></g>
</svg>
