<?xml version="1.0" encoding="UTF-8"?>
<!DOCTYPE svg PUBLIC "-//W3C//DTD SVG 1.1//EN" "http://www.w3.org/Graphics/SVG/1.1/DTD/svg11.dtd">
<svg xmlns="http://www.w3.org/2000/svg" version="1.1" viewBox="0 0 1200 406" style="shape-rendering:geometricPrecision; text-rendering:geometricPrecision; image-rendering:optimizeQuality; fill-rule:evenodd; clip-rule:evenodd" xmlns:xlink="http://www.w3.org/1999/xlink">
<g><path style="opacity:0.968" fill="#d4a10e" d="M 125.5,-0.5 C 127.5,-0.5 129.5,-0.5 131.5,-0.5C 130.027,2.35418 127.86,4.68751 125,6.5C 119.392,17.2121 119.058,28.2121 124,39.5C 126.493,45.1572 129.493,50.4905 133,55.5C 152.05,79.5484 170.716,103.882 189,128.5C 209.421,156.334 225.421,186.667 237,219.5C 244.097,241.8 245.764,264.466 242,287.5C 232.521,330.32 206.021,349.154 162.5,344C 157.823,343.386 153.489,341.886 149.5,339.5C 149.069,338.707 148.735,337.873 148.5,337C 149.386,332.849 150.22,328.682 151,324.5C 151.113,322.026 152.113,320.026 154,318.5C 193.197,324.545 217.864,308.212 228,269.5C 229.505,259.212 229.838,248.878 229,238.5C 223.149,214.801 213.483,192.801 200,172.5C 176.542,137.705 151.542,104.039 125,71.5C 118.077,83.7366 119.41,95.07 129,105.5C 143.791,120.618 157.457,136.618 170,153.5C 178.927,167.139 182.094,181.973 179.5,198C 179.85,199.257 180.517,199.591 181.5,199C 186.667,193.833 191.833,188.667 197,183.5C 205.336,204.521 207.669,226.188 204,248.5C 202,252.5 200,256.5 198,260.5C 183.04,278.462 167.707,296.129 152,313.5C 150.046,317.981 148.713,322.648 148,327.5C 145.491,348.242 142.491,368.909 139,389.5C 136.289,397.376 131.122,402.709 123.5,405.5C 118.5,405.5 113.5,405.5 108.5,405.5C 99.3287,402.316 91.4953,396.983 85,389.5C 79.2714,381.878 74.4381,373.712 70.5,365C 72.6297,362.086 75.2964,361.253 78.5,362.5C 83.0562,373.223 90.7228,380.723 101.5,385C 108.665,386.39 114.499,384.223 119,378.5C 122.436,372.956 124.77,366.956 126,360.5C 128.009,345.448 130.342,330.448 133,315.5C 136.09,302.319 142.09,290.652 151,280.5C 164.064,268.105 176.397,255.105 188,241.5C 192.823,234.52 195.99,226.853 197.5,218.5C 197.267,217.068 196.6,216.568 195.5,217C 187.455,224.047 179.122,230.713 170.5,237C 166.65,240.549 163.15,244.383 160,248.5C 155.329,240.813 153.329,232.48 154,223.5C 157.75,216.998 161.75,210.665 166,204.5C 172.189,189.306 170.189,175.306 160,162.5C 150.744,150.573 140.744,139.24 130,128.5C 129.384,141.976 127.718,155.309 125,168.5C 117.609,186.948 109.943,205.282 102,223.5C 99.439,233.695 97.7723,244.028 97,254.5C 95.3333,255.833 93.6667,257.167 92,258.5C 87.9393,236.475 90.6059,215.142 100,194.5C 108.988,175.535 115.988,155.869 121,135.5C 121.667,131.167 121.667,126.833 121,122.5C 118.953,115.405 116.62,108.405 114,101.5C 110.824,88.3725 112.991,76.2059 120.5,65C 117.603,58.309 115.103,51.4757 113,44.5C 112.333,35.8333 112.333,27.1667 113,18.5C 115.039,10.6535 119.205,4.32017 125.5,-0.5 Z"/></g>
<g><path style="opacity:0.96" fill="#d4a10e" d="M -0.5,252.5 C -0.5,243.5 -0.5,234.5 -0.5,225.5C 4.4915,201.374 17.1582,182.207 37.5,168C 53.8333,157.667 70.1667,147.333 86.5,137C 93.9165,132.254 99.0832,125.754 102,117.5C 102.667,115.5 102.667,113.5 102,111.5C 97.8864,114.494 93.3864,115.161 88.5,113.5C 88.1667,113.833 87.8333,114.167 87.5,114.5C 92.1438,121.824 91.1438,128.324 84.5,134C 73.4407,137.64 66.7741,133.807 64.5,122.5C 67.1135,111.692 73.7802,107.858 84.5,111C 78.5293,102.557 79.8626,95.5571 88.5,90C 100.226,87.7072 107.06,92.5406 109,104.5C 113.659,126.375 111.993,147.708 104,168.5C 91.1831,193.287 80.5164,218.954 72,245.5C 64.1449,274.841 62.4782,304.508 67,334.5C 65.5557,336.155 63.7224,336.822 61.5,336.5C 52.94,292.356 56.7734,249.356 73,207.5C 80.1192,190.594 87.7858,173.927 96,157.5C 98,152.167 100,146.833 102,141.5C 102.667,140.167 102.667,138.833 102,137.5C 98.8689,141.633 95.3689,145.466 91.5,149C 78.8333,157.667 66.1667,166.333 53.5,175C 37.1773,185.825 24.6773,199.992 16,217.5C 10.05,231.759 8.54996,246.425 11.5,261.5C 13.8278,256 17.1612,251.167 21.5,247C 30.7117,242.845 38.2117,245.011 44,253.5C 54.3859,269.135 56.7192,285.802 51,303.5C 49.8333,304.667 48.6667,305.833 47.5,307C 39.6554,309.625 32.3221,308.625 25.5,304C 23.2953,301.46 20.7953,299.293 18,297.5C 17.452,313.528 22.6186,327.362 33.5,339C 48.8343,347.123 61.6676,344.29 72,330.5C 75.4527,324.141 78.1193,317.474 80,310.5C 82.8939,295.468 85.8939,280.468 89,265.5C 99.6418,255.191 109.975,244.524 120,233.5C 122.778,241.95 123.778,250.617 123,259.5C 122,261.167 121,262.833 120,264.5C 112.03,271.469 104.364,278.802 97,286.5C 94.9124,301.533 92.579,316.533 90,331.5C 83.8482,361.656 66.6816,370.823 38.5,359C 20.9974,345.166 11.4974,327 10,304.5C 9.59849,296.477 8.93182,288.477 8,280.5C 4.52314,271.234 1.6898,261.901 -0.5,252.5 Z M 32.5,267.5 C 41.0661,267.981 44.2328,272.315 42,280.5C 36.2088,286.999 29.3754,288.166 21.5,284C 20.9781,283.439 20.6448,282.772 20.5,282C 22.5558,275.454 26.5558,270.62 32.5,267.5 Z"/></g>
<g><path style="opacity:0.924" fill="#d4a10e" d="M 152.5,178.5 C 153.496,178.414 154.329,178.748 155,179.5C 155.667,182.167 155.667,184.833 155,187.5C 145.333,198.5 135.667,209.5 126,220.5C 124,216.5 124,212.5 126,208.5C 135.076,198.656 143.909,188.656 152.5,178.5 Z"/></g>
<g><path style="opacity:0.903" fill="#d4a10e" d="M 55.5,190.5 C 56.7562,190.461 57.7562,190.961 58.5,192C 54.3333,196.833 50.1667,201.667 46,206.5C 43.826,209.546 43.1593,212.88 44,216.5C 47.7364,219.523 49.9031,218.523 50.5,213.5C 51.325,212.614 52.325,212.281 53.5,212.5C 54.3298,219.205 51.9965,224.372 46.5,228C 40.0121,228.343 37.0121,225.176 37.5,218.5C 37.9543,210.259 41.121,203.259 47,197.5C 50.0228,195.302 52.8562,192.969 55.5,190.5 Z"/></g>
<g><path style="opacity:0.986" fill="#00519c" d="M 311.5,210.5 C 322.833,210.5 334.167,210.5 345.5,210.5C 358.5,249.167 371.5,287.833 384.5,326.5C 373.813,326.832 363.146,326.499 352.5,325.5C 350.5,319.167 348.5,312.833 346.5,306.5C 334.18,305.334 321.847,305.167 309.5,306C 306.864,312.74 304.531,319.573 302.5,326.5C 292.145,326.832 281.812,326.499 271.5,325.5C 285.239,287.282 298.572,248.948 311.5,210.5 Z M 327.5,246.5 C 331.039,256.945 334.705,267.445 338.5,278C 331.5,278.667 324.5,278.667 317.5,278C 321.537,267.724 324.87,257.224 327.5,246.5 Z"/></g>
<g><path style="opacity:0.969" fill="#00529b" d="M 496.5,210.5 C 506.5,210.5 516.5,210.5 526.5,210.5C 526.968,254.534 526.468,298.534 525,342.5C 521.087,359.916 510.253,369.25 492.5,370.5C 486.426,369.805 480.426,368.639 474.5,367C 471.343,366.258 468.677,364.758 466.5,362.5C 468.7,354.355 471.2,346.355 474,338.5C 484.679,343.936 492.013,340.936 496,329.5C 496.5,289.835 496.667,250.168 496.5,210.5 Z"/></g>
<g><path style="opacity:0.987" fill="#00519c" d="M 583.5,210.5 C 594.853,210.168 606.186,210.501 617.5,211.5C 631.104,249.645 644.104,287.979 656.5,326.5C 645.813,326.832 635.146,326.499 624.5,325.5C 622.573,318.954 620.573,312.454 618.5,306C 606.167,305.333 593.833,305.333 581.5,306C 579.073,312.445 576.74,318.945 574.5,325.5C 564.167,326.833 553.833,326.833 543.5,325.5C 557.239,287.282 570.572,248.948 583.5,210.5 Z M 599.5,246.5 C 603.44,256.817 607.107,267.317 610.5,278C 603.842,278.5 597.175,278.666 590.5,278.5C 593.502,267.827 596.502,257.161 599.5,246.5 Z"/></g>
<g><path style="opacity:0.99" fill="#00519b" d="M 783.5,210.5 C 808.167,210.5 832.833,210.5 857.5,210.5C 857.5,218.833 857.5,227.167 857.5,235.5C 842.5,235.5 827.5,235.5 812.5,235.5C 812.5,242.833 812.5,250.167 812.5,257.5C 825.167,257.5 837.833,257.5 850.5,257.5C 850.5,265.5 850.5,273.5 850.5,281.5C 837.833,281.5 825.167,281.5 812.5,281.5C 812.5,288.5 812.5,295.5 812.5,302.5C 828.833,302.5 845.167,302.5 861.5,302.5C 861.5,310.5 861.5,318.5 861.5,326.5C 835.5,326.5 809.5,326.5 783.5,326.5C 783.5,287.833 783.5,249.167 783.5,210.5 Z"/></g>
<g><path style="opacity:0.986" fill="#00519c" d="M 1199.5,322.5 C 1199.5,323.833 1199.5,325.167 1199.5,326.5C 1188.83,326.5 1178.17,326.5 1167.5,326.5C 1165.68,319.535 1164.01,312.535 1162.5,305.5C 1149.82,305.168 1137.15,305.501 1124.5,306.5C 1122.26,313.055 1119.93,319.555 1117.5,326C 1107.51,326.5 1097.51,326.666 1087.5,326.5C 1100.13,287.773 1113.46,249.273 1127.5,211C 1138.74,210.18 1149.91,210.347 1161,211.5C 1173.37,248.785 1186.2,285.785 1199.5,322.5 Z M 1142.5,247.5 C 1143.12,247.611 1143.62,247.944 1144,248.5C 1147.01,258.22 1150.18,267.887 1153.5,277.5C 1146.87,278.497 1140.2,278.83 1133.5,278.5C 1136.7,268.226 1139.7,257.892 1142.5,247.5 Z"/></g>
<g><path style="opacity:0.988" fill="#00519c" d="M 403.5,210.5 C 413.5,210.5 423.5,210.5 433.5,210.5C 433.5,240.5 433.5,270.5 433.5,300.5C 445.5,300.5 457.5,300.5 469.5,300.5C 469.5,308.833 469.5,317.167 469.5,325.5C 447.5,325.5 425.5,325.5 403.5,325.5C 403.5,287.167 403.5,248.833 403.5,210.5 Z"/></g>
<g><path style="opacity:0.993" fill="#00529c" d="M 677.5,210.5 C 703.833,210.5 730.167,210.5 756.5,210.5C 756.667,221.172 756.5,231.839 756,242.5C 742.71,261.58 729.543,280.746 716.5,300C 730.496,300.5 744.496,300.667 758.5,300.5C 758.5,309.167 758.5,317.833 758.5,326.5C 730.833,326.5 703.167,326.5 675.5,326.5C 675.334,316.494 675.5,306.494 676,296.5C 689.71,276.246 703.543,256.08 717.5,236C 704.171,235.5 690.837,235.333 677.5,235.5C 677.5,227.167 677.5,218.833 677.5,210.5 Z"/></g>
<g><path style="opacity:0.99" fill="#00519b" d="M 885.5,210.5 C 910.5,210.5 935.5,210.5 960.5,210.5C 960.5,218.833 960.5,227.167 960.5,235.5C 945.5,235.5 930.5,235.5 915.5,235.5C 915.5,242.833 915.5,250.167 915.5,257.5C 928.167,257.5 940.833,257.5 953.5,257.5C 953.5,265.5 953.5,273.5 953.5,281.5C 940.5,281.5 927.5,281.5 914.5,281.5C 914.5,288.5 914.5,295.5 914.5,302.5C 930.833,302.5 947.167,302.5 963.5,302.5C 963.5,310.5 963.5,318.5 963.5,326.5C 937.5,326.5 911.5,326.5 885.5,326.5C 885.5,287.833 885.5,249.167 885.5,210.5 Z"/></g>
<g><path style="opacity:0.989" fill="#00519c" d="M 988.5,210.5 C 1009.55,210.058 1030.55,210.558 1051.5,212C 1064.66,217.948 1071.32,228.281 1071.5,243C 1071.52,249.764 1069.68,255.931 1066,261.5C 1062.33,264.342 1058.83,267.342 1055.5,270.5C 1057.58,272.993 1059.41,275.659 1061,278.5C 1067.07,294.206 1073.24,309.873 1079.5,325.5C 1069.16,326.579 1058.83,326.413 1048.5,325C 1043.34,311.524 1037.51,298.357 1031,285.5C 1030.25,284.874 1029.42,284.374 1028.5,284C 1024.85,283.501 1021.18,283.335 1017.5,283.5C 1017.5,297.833 1017.5,312.167 1017.5,326.5C 1007.83,326.5 998.167,326.5 988.5,326.5C 988.5,287.833 988.5,249.167 988.5,210.5 Z M 1017.5,236.5 C 1023.18,236.334 1028.84,236.501 1034.5,237C 1040.11,240.277 1041.94,245.11 1040,251.5C 1038.83,254 1037,255.833 1034.5,257C 1028.84,257.499 1023.18,257.666 1017.5,257.5C 1017.5,250.5 1017.5,243.5 1017.5,236.5 Z"/></g>
<g><path style="opacity:0.95" fill="#d4a20e" d="M 137.5,247.5 C 143.618,249.725 149.285,252.725 154.5,256.5C 152.099,262.971 148.933,268.971 145,274.5C 140.083,272.527 135.25,270.361 130.5,268C 129.978,267.439 129.645,266.772 129.5,266C 132.592,259.987 135.258,253.82 137.5,247.5 Z"/></g>
<g><path style="opacity:0.956" fill="#d4a10e" d="M 104.5,281.5 C 107.828,282.7 110.328,285.033 112,288.5C 118.887,295.387 125.721,302.221 132.5,309C 131.132,314.833 129.632,320.666 128,326.5C 115.245,315.907 105.745,302.907 99.5,287.5C 100.465,284.872 102.132,282.872 104.5,281.5 Z"/></g>
<g><path style="opacity:0.951" fill="#d4a10e" d="M 189.5,281.5 C 195.527,283.346 201.194,286.013 206.5,289.5C 203.628,295.924 200.295,301.924 196.5,307.5C 191.051,305.276 185.718,302.776 180.5,300C 183.37,293.761 186.37,287.594 189.5,281.5 Z"/></g>
<g><path style="opacity:0.949" fill="#d4a10e" d="M 107.5,322.5 C 109.255,323.072 110.922,323.906 112.5,325C 116.314,327.647 119.647,330.813 122.5,334.5C 118.156,339.873 113.823,345.206 109.5,350.5C 104.617,346.897 99.9508,343.064 95.5,339C 99.7284,333.614 103.728,328.114 107.5,322.5 Z"/></g>
<g><path style="opacity:0.941" fill="#d4a10e" d="M 104.5,350.5 C 105.552,350.351 106.552,350.517 107.5,351C 111.864,354.368 115.864,358.034 119.5,362C 115.392,367.779 110.892,373.279 106,378.5C 101.326,374.657 96.8257,370.657 92.5,366.5C 96.509,361.137 100.509,355.804 104.5,350.5 Z"/></g>
<g><path style="opacity:0.918" fill="#d4a10e" d="M 155.5,354.5 C 156.496,354.414 157.329,354.748 158,355.5C 159.603,359.987 161.77,364.154 164.5,368C 168.07,369.105 170.07,367.771 170.5,364C 171.449,363.383 172.282,363.549 173,364.5C 174.779,367.613 175.945,370.946 176.5,374.5C 175.398,378.767 172.731,380.267 168.5,379C 162.043,374.96 157.876,369.127 156,361.5C 154.952,359.079 154.786,356.746 155.5,354.5 Z"/></g>
</svg>
