<?xml version="1.0" encoding="UTF-8"?>
<!DOCTYPE svg PUBLIC "-//W3C//DTD SVG 1.1//EN" "http://www.w3.org/Graphics/SVG/1.1/DTD/svg11.dtd">
<svg xmlns="http://www.w3.org/2000/svg" version="1.1" viewBox="0 0 2560 649" style="shape-rendering:geometricPrecision; text-rendering:geometricPrecision; image-rendering:optimizeQuality; fill-rule:evenodd; clip-rule:evenodd" xmlns:xlink="http://www.w3.org/1999/xlink">
<g><path style="opacity:0.995" fill="#212121" d="M 1690.5,-0.5 C 1708.17,-0.5 1725.83,-0.5 1743.5,-0.5C 1853.49,10.0951 1938.99,61.0951 2000,152.5C 2046.61,231.731 2058.95,316.065 2037,405.5C 2004.84,514.998 1935.34,589.831 1828.5,630C 1799.77,639.712 1770.44,645.878 1740.5,648.5C 1723.5,648.5 1706.5,648.5 1689.5,648.5C 1580.19,638.455 1494.69,588.455 1433,498.5C 1382.51,415.232 1370.17,326.565 1396,232.5C 1426.42,137.736 1486.92,69.5697 1577.5,28C 1613.74,12.3559 1651.41,2.85594 1690.5,-0.5 Z M 1699.5,148.5 C 1762.39,145.034 1812.55,168.367 1850,218.5C 1891.11,282.012 1894.11,347.345 1859,414.5C 1814.58,484.279 1751.75,510.446 1670.5,493C 1625.47,478.74 1591.63,450.906 1569,409.5C 1540.05,351.333 1540.38,293.333 1570,235.5C 1599.1,185.571 1642.26,156.571 1699.5,148.5 Z"/></g>
<g><path style="opacity:0.993" fill="#212121" d="M 2559.5,425.5 C 2559.5,438.5 2559.5,451.5 2559.5,464.5C 2549.41,527.202 2517.07,574.702 2462.5,607C 2419.09,630.645 2372.59,642.145 2323,641.5C 2277.38,641.975 2233.54,633.475 2191.5,616C 2121.49,581.954 2079.33,526.454 2065,449.5C 2064.24,447.231 2064.41,445.064 2065.5,443C 2112.14,431.973 2158.81,421.139 2205.5,410.5C 2211.68,461.046 2239.35,492.88 2288.5,506C 2314.16,512.699 2339.5,511.699 2364.5,503C 2393.73,489.373 2404.9,466.873 2398,435.5C 2392.05,423.55 2382.88,415.05 2370.5,410C 2362.69,407.047 2354.69,404.713 2346.5,403C 2308.67,396.101 2271,388.434 2233.5,380C 2189.42,368.06 2152.59,344.893 2123,310.5C 2095.48,273.783 2084.15,232.45 2089,186.5C 2094.57,140.517 2114.07,101.684 2147.5,70C 2196.11,27.565 2252.94,6.39834 2318,6.5C 2371.84,5.33116 2421.34,19.1645 2466.5,48C 2513.4,81.9267 2540.73,127.76 2548.5,185.5C 2502.71,197.697 2457.05,210.363 2411.5,223.5C 2397.61,157.223 2357.28,129.723 2290.5,141C 2257.81,150.915 2242.98,172.748 2246,206.5C 2250.29,221.928 2259.79,232.761 2274.5,239C 2280.02,241.13 2285.69,242.797 2291.5,244C 2323.19,249.871 2354.86,255.871 2386.5,262C 2429.38,270.28 2467.71,287.946 2501.5,315C 2534.96,344.419 2554.29,381.252 2559.5,425.5 Z"/></g>
<g><path style="opacity:0.996" fill="#3b6ae2" d="M 272.5,18.5 C 299.636,80.5709 326.97,142.571 354.5,204.5C 290.942,345.291 227.609,486.291 164.5,627.5C 109.504,628.5 54.504,628.833 -0.5,628.5C -0.5,627.5 -0.5,626.5 -0.5,625.5C 89.8101,423.602 180.143,221.602 270.5,19.5C 270.957,18.7025 271.624,18.3691 272.5,18.5 Z"/></g>
<g><path style="opacity:0.994" fill="#212122" d="M 272.5,18.5 C 327.738,18.1691 382.905,18.5025 438,19.5C 506.576,173.649 575.409,327.649 644.5,481.5C 682.747,426.674 720.747,371.674 758.5,316.5C 689.833,217.5 621.167,118.5 552.5,19.5C 615.831,18.3334 679.164,18.1667 742.5,19C 778.126,78.4173 813.626,137.917 849,197.5C 885.876,138.251 922.376,78.7506 958.5,19C 1021.17,18.3333 1083.83,18.3333 1146.5,19C 1078.6,118.054 1010.94,217.221 943.5,316.5C 1013.55,420.72 1084.21,524.553 1155.5,628C 1095.5,628.833 1035.5,628.667 975.5,627.5C 933.53,563.698 891.363,500.031 849,436.5C 806.5,500.333 764,564.167 721.5,628C 662.164,628.833 602.831,628.667 543.5,627.5C 480.214,486.597 417.214,345.597 354.5,204.5C 326.97,142.571 299.636,80.5709 272.5,18.5 Z"/></g>
<g><path style="opacity:0.996" fill="#222222" d="M 1183.5,18.5 C 1234.5,18.5 1285.5,18.5 1336.5,18.5C 1336.5,221.833 1336.5,425.167 1336.5,628.5C 1285.5,628.5 1234.5,628.5 1183.5,628.5C 1183.5,425.167 1183.5,221.833 1183.5,18.5 Z"/></g>
</svg>
