<?xml version="1.0" encoding="UTF-8"?>
<!DOCTYPE svg PUBLIC "-//W3C//DTD SVG 1.1//EN" "http://www.w3.org/Graphics/SVG/1.1/DTD/svg11.dtd">
<svg xmlns="http://www.w3.org/2000/svg" version="1.1" viewBox="0 0 520 320" style="shape-rendering:geometricPrecision; text-rendering:geometricPrecision; image-rendering:optimizeQuality; fill-rule:evenodd; clip-rule:evenodd" xmlns:xlink="http://www.w3.org/1999/xlink">
<g><path style="opacity:0.941" fill="#000000" d="M -0.5,103.5 C -0.5,95.1667 -0.5,86.8333 -0.5,78.5C 5.9188,49.9106 23.2521,31.4106 51.5,23C 87.97,16.8191 114.803,29.9858 132,62.5C 144.976,101.356 134.142,131.523 99.5,153C 64.9544,166.898 35.7878,159.731 12,131.5C 5.88167,122.939 1.715,113.605 -0.5,103.5 Z M 63.5,49.5 C 93.7245,49.5176 116.224,62.5176 131,88.5C 131.667,89.8333 131.667,91.1667 131,92.5C 117.788,116.705 97.2879,129.705 69.5,131.5C 39.7391,130.363 18.0724,116.696 4.5,90.5C 14.2656,70.5768 29.9323,57.7435 51.5,52C 55.6653,51.2946 59.6653,50.4613 63.5,49.5 Z"/></g>
<g><path style="opacity:0.953" fill="#000000" d="M 206.5,25.5 C 231.698,23.1066 252.698,31.2733 269.5,50C 263.319,56.3481 256.986,62.5148 250.5,68.5C 233.202,49.1805 213.535,46.3472 191.5,60C 178.731,71.5663 174.564,85.733 179,102.5C 187.515,123.347 203.015,132.18 225.5,129C 235.865,125.97 244.699,120.47 252,112.5C 257.895,117.973 263.561,123.64 269,129.5C 269.667,130.5 269.667,131.5 269,132.5C 247.55,154.238 222.05,160.738 192.5,152C 157.672,136.511 143.838,110.011 151,72.5C 160.247,45.7419 178.747,30.0752 206.5,25.5 Z"/></g>
<g><path style="opacity:0.952" fill="#000000" d="M 421.5,25.5 C 435.937,23.9546 449.604,26.4546 462.5,33C 466.929,35.2614 470.596,38.428 473.5,42.5C 467.833,48.8333 461.833,54.8333 455.5,60.5C 444.578,50.1851 432.245,48.0184 418.5,54C 413.18,59.2924 413.18,64.6258 418.5,70C 432.022,75.925 445.689,81.5916 459.5,87C 473.104,95.7749 478.604,108.275 476,124.5C 470.299,142.284 458.132,152.451 439.5,155C 416.625,158.263 396.958,151.93 380.5,136C 386.667,129.833 392.833,123.667 399,117.5C 412.261,130.944 427.428,133.778 444.5,126C 448.787,119.993 448.454,114.326 443.5,109C 429.867,103.342 416.201,97.6754 402.5,92C 388.717,82.6549 383.551,69.8216 387,53.5C 393.02,37.3041 404.52,27.9707 421.5,25.5 Z"/></g>
<g><path style="opacity:0.951" fill="#000000" d="M 306.5,27.5 C 318.824,28.1187 331.157,28.6187 343.5,29C 366.876,35.2593 375.709,50.0926 370,73.5C 366.88,78.9539 362.713,83.4539 357.5,87C 378.783,98.2674 383.949,114.767 373,136.5C 364.699,146.901 353.866,152.401 340.5,153C 319.927,153.826 299.427,153.659 279,152.5C 278.5,111.168 278.333,69.8347 278.5,28.5C 288.015,28.8269 297.348,28.4936 306.5,27.5 Z M 306.5,52.5 C 316.172,52.3335 325.839,52.5002 335.5,53C 343.878,57.0475 345.711,63.2142 341,71.5C 339.421,73.0412 337.587,74.2078 335.5,75C 325.839,75.4998 316.172,75.6665 306.5,75.5C 306.5,67.8333 306.5,60.1667 306.5,52.5 Z M 306.5,100.5 C 317.838,100.333 329.172,100.5 340.5,101C 349.83,106.282 351.996,113.782 347,123.5C 345.048,125.894 342.548,127.394 339.5,128C 328.505,128.5 317.505,128.667 306.5,128.5C 306.5,119.167 306.5,109.833 306.5,100.5 Z"/></g>
<g><path style="opacity:0.968" fill="#000000" d="M 62.5,53.5 C 85.4879,52.6743 99.6545,63.3409 105,85.5C 104.816,114.351 90.3158,128.184 61.5,127C 39.2941,120.447 29.4608,105.614 32,82.5C 36.5347,66.7962 46.7014,57.1295 62.5,53.5 Z"/></g>
<g><path style="opacity:0.948" fill="#000000" d="M 519.5,257.5 C 519.5,261.5 519.5,265.5 519.5,269.5C 513.491,289.647 499.825,300.481 478.5,302C 456.954,304.099 438.621,297.599 423.5,282.5C 429.196,275.97 435.362,269.97 442,264.5C 454.505,276.834 469.005,280 485.5,274C 492.079,267.633 492.079,261.3 485.5,255C 471.672,249.724 458.005,244.057 444.5,238C 428.989,226.483 424.822,211.649 432,193.5C 437.096,184.403 444.596,178.237 454.5,175C 477.354,167.835 497.854,172.002 516,187.5C 516.667,188.5 516.667,189.5 516,190.5C 510.319,196.348 504.485,202.015 498.5,207.5C 488.618,197.357 476.952,194.523 463.5,199C 455.555,205.157 455.555,211.49 463.5,218C 474.755,222.53 486.089,226.863 497.5,231C 509.496,236.146 516.83,244.98 519.5,257.5 Z"/></g>
<g><path style="opacity:0.971" fill="#000000" d="M 12.5,174.5 C 20.84,174.334 29.1733,174.5 37.5,175C 56.8791,200.257 76.3791,225.424 96,250.5C 96.5,225.169 96.6666,199.836 96.5,174.5C 105.5,174.5 114.5,174.5 123.5,174.5C 123.5,216.167 123.5,257.833 123.5,299.5C 115.16,299.666 106.827,299.5 98.5,299C 79,274.167 59.5,249.333 40,224.5C 39.5,249.498 39.3334,274.498 39.5,299.5C 30.5,299.5 21.5,299.5 12.5,299.5C 12.5,257.833 12.5,216.167 12.5,174.5 Z"/></g>
<g><path style="opacity:0.952" fill="#000000" d="M 140.5,174.5 C 171.833,174.5 203.167,174.5 234.5,174.5C 234.5,183.167 234.5,191.833 234.5,200.5C 212.5,200.5 190.5,200.5 168.5,200.5C 168.5,208.167 168.5,215.833 168.5,223.5C 185.5,223.5 202.5,223.5 219.5,223.5C 219.5,231.833 219.5,240.167 219.5,248.5C 202.5,248.5 185.5,248.5 168.5,248.5C 168.5,256.833 168.5,265.167 168.5,273.5C 190.833,273.5 213.167,273.5 235.5,273.5C 235.5,282.167 235.5,290.833 235.5,299.5C 203.833,299.5 172.167,299.5 140.5,299.5C 140.5,257.833 140.5,216.167 140.5,174.5 Z"/></g>
<g><path style="opacity:0.955" fill="#000000" d="M 241.5,174.5 C 251.083,174.182 260.583,174.515 270,175.5C 278.178,202.546 286.512,229.546 295,256.5C 303.92,230.071 312.253,203.404 320,176.5C 324.246,175.201 328.746,174.534 333.5,174.5C 338.081,174.514 342.581,174.847 347,175.5C 355.337,202.511 363.671,229.511 372,256.5C 381.194,229.416 389.694,202.082 397.5,174.5C 407.19,174.168 416.856,174.502 426.5,175.5C 412.901,216.463 399.401,257.463 386,298.5C 376.917,299.485 367.751,299.818 358.5,299.5C 350.441,272.822 342.274,246.155 334,219.5C 325.271,245.689 316.937,272.022 309,298.5C 299.893,299.817 290.727,299.817 281.5,298.5C 267.555,257.333 254.222,216 241.5,174.5 Z"/></g>
</svg>
