<?xml version="1.0" encoding="UTF-8"?>
<!DOCTYPE svg PUBLIC "-//W3C//DTD SVG 1.1//EN" "http://www.w3.org/Graphics/SVG/1.1/DTD/svg11.dtd">
<svg xmlns="http://www.w3.org/2000/svg" version="1.1" viewBox="0 0 960 457" style="shape-rendering:geometricPrecision; text-rendering:geometricPrecision; image-rendering:optimizeQuality; fill-rule:evenodd; clip-rule:evenodd" xmlns:xlink="http://www.w3.org/1999/xlink">
<g><path style="opacity:0.986" fill="#ec1b2d" d="M 387.5,-0.5 C 396.167,-0.5 404.833,-0.5 413.5,-0.5C 438.186,5.32742 458.352,18.3274 474,38.5C 508.675,95.1756 542.342,152.509 575,210.5C 575.333,165.5 575.667,120.5 576,75.5C 578.847,44.6929 593.681,21.8596 620.5,7C 628.03,3.70916 635.696,1.20916 643.5,-0.5C 651.5,-0.5 659.5,-0.5 667.5,-0.5C 692.298,4.65635 712.465,17.323 728,37.5C 734.164,45.8249 739.831,54.4916 745,63.5C 773.414,112.664 802.081,161.664 831,210.5C 831.5,140.501 831.667,70.5008 831.5,0.5C 850.167,0.5 868.833,0.5 887.5,0.5C 887.667,123.167 887.5,245.834 887,368.5C 885.163,378.537 879.996,380.87 871.5,375.5C 807.739,274.565 744.573,173.232 682,71.5C 669.792,56.66 655.959,54.8267 640.5,66C 635.624,71.5882 632.79,78.0882 632,85.5C 631.667,180.833 631.333,276.167 631,371.5C 626.099,380.464 620.433,380.798 614,372.5C 552,272.5 490,172.5 428,72.5C 415.535,56.6286 401.201,54.6286 385,66.5C 379.589,72.7978 376.922,80.1311 377,88.5C 376.667,181.833 376.333,275.167 376,368.5C 374.373,373.062 371.206,375.895 366.5,377C 315.5,377.667 264.5,377.667 213.5,377C 145.639,371.346 100.472,336.513 78,272.5C 63.2946,217.692 73.2946,168.026 108,123.5C 136.276,92.6152 171.443,76.1152 213.5,74C 244.165,73.5 274.832,73.3334 305.5,73.5C 305.5,91.8333 305.5,110.167 305.5,128.5C 279.165,128.333 252.831,128.5 226.5,129C 165.476,133.357 132.142,166.024 126.5,227C 129.45,272.918 152.783,302.918 196.5,317C 203.065,318.846 209.731,320.18 216.5,321C 247.146,322.566 277.813,322.9 308.5,322C 314.588,320.91 318.421,317.41 320,311.5C 320.333,232.833 320.667,154.167 321,75.5C 323.698,46.5794 337.198,24.4127 361.5,9C 369.882,4.70954 378.548,1.54287 387.5,-0.5 Z"/></g>
<g><path style="opacity:0.988" fill="#ec1b2d" d="M 959.5,0.5 C 959.5,129.833 959.5,259.167 959.5,388.5C 953.367,426.632 931.367,449.299 893.5,456.5C 886.5,456.5 879.5,456.5 872.5,456.5C 841.597,451.125 817.764,435.125 801,408.5C 769.333,355.833 737.667,303.167 706,250.5C 705.667,293.5 705.333,336.5 705,379.5C 702.534,422.45 680.367,448.117 638.5,456.5C 631.833,456.5 625.167,456.5 618.5,456.5C 591.842,452.251 570.009,439.584 553,418.5C 519,362.5 485,306.5 451,250.5C 450.944,293.855 450.278,337.188 449,380.5C 442.582,419.917 419.749,443.084 380.5,450C 329.519,451.615 278.519,451.948 227.5,451C 160.553,449.926 103.72,425.76 57,378.5C 23.7702,340.331 4.60355,295.997 -0.5,245.5C -0.5,231.167 -0.5,216.833 -0.5,202.5C 5.61841,142.761 30.9517,92.9281 75.5,53C 117.86,19.6528 166.193,2.31951 220.5,1C 248.831,0.500023 277.165,0.333356 305.5,0.5C 305.5,19.1667 305.5,37.8333 305.5,56.5C 274.832,56.3334 244.165,56.5 213.5,57C 152.552,60.5324 106.719,88.3658 76,140.5C 48.499,195.025 47.499,250.025 73,305.5C 103.73,360.646 150.896,390.146 214.5,394C 265.5,394.667 316.5,394.667 367.5,394C 380.898,390.935 389.398,382.768 393,369.5C 393.333,275.167 393.667,180.833 394,86.5C 395.191,76.8218 400.358,73.6551 409.5,77C 473.626,178.079 537.126,279.579 600,381.5C 610.994,396.213 624.16,398.713 639.5,389C 644.043,384.415 646.876,378.915 648,372.5C 648.333,276.833 648.667,181.167 649,85.5C 651.227,75.8029 656.727,73.3029 665.5,78C 729.458,180.083 793.292,282.249 857,384.5C 870.413,398.709 884.08,399.042 898,385.5C 901.384,380.351 903.384,374.684 904,368.5C 904.5,245.834 904.667,123.167 904.5,0.5C 922.833,0.5 941.167,0.5 959.5,0.5 Z"/></g>
</svg>
