<?xml version="1.0" encoding="UTF-8"?>
<!DOCTYPE svg PUBLIC "-//W3C//DTD SVG 1.1//EN" "http://www.w3.org/Graphics/SVG/1.1/DTD/svg11.dtd">
<svg xmlns="http://www.w3.org/2000/svg" version="1.1" viewBox="0 0 1200 1200" style="shape-rendering:geometricPrecision; text-rendering:geometricPrecision; image-rendering:optimizeQuality; fill-rule:evenodd; clip-rule:evenodd" xmlns:xlink="http://www.w3.org/1999/xlink">
<g><path style="opacity:0.988" fill="#000080" d="M 202.5,3.5 C 196.707,31.9634 190.707,60.4634 184.5,89C 124.244,97.2308 65.5774,111.731 8.5,132.5C 6.95819,133.301 5.29152,133.634 3.5,133.5C 2.53716,89.1815 2.20383,44.8481 2.5,0.5C 69.1667,0.5 135.833,0.5 202.5,0.5C 202.5,1.5 202.5,2.5 202.5,3.5 Z"/></g>
<g><path style="opacity:0.992" fill="#010080" d="M 464.5,3.5 C 452.506,30.6097 440.006,57.6097 427,84.5C 424.589,85.1394 422.089,85.4728 419.5,85.5C 383.936,81.6398 348.27,79.4732 312.5,79C 311.941,78.2753 311.608,77.4419 311.5,76.5C 318.971,52.087 326.638,27.7537 334.5,3.5C 340.084,1.70481 346.084,0.871475 352.5,1C 384.833,0.333333 417.167,0.333333 449.5,1C 454.933,0.881596 459.933,1.71493 464.5,3.5 Z"/></g>
<g><path style="opacity:0.998" fill="#010080" d="M 1195.5,693.5 C 1185.89,671.614 1175.72,649.947 1165,628.5C 1163.81,626.441 1162.65,626.274 1161.5,628C 1172.57,653.726 1183.9,679.226 1195.5,704.5C 1196.04,706.593 1196.88,708.593 1198,710.5C 1198.5,812.166 1198.67,913.833 1198.5,1015.5C 810.833,1015.5 423.167,1015.5 35.5,1015.5C 27.6841,1014.51 19.6841,1014.17 11.5,1014.5C 12.0922,1011.31 13.2589,1008.31 15,1005.5C 68.7262,915.947 122.226,826.28 175.5,736.5C 176.498,710.005 176.831,683.339 176.5,656.5C 181.695,656.821 186.695,656.487 191.5,655.5C 202.748,655.821 213.915,655.487 225,654.5C 282.333,558.5 339.667,462.5 397,366.5C 398.485,335.588 398.985,304.588 398.5,273.5C 416.743,273.826 434.91,273.492 453,272.5C 483.748,220.668 514.748,169.001 546,117.5C 546.725,116.941 547.558,116.608 548.5,116.5C 664.537,148.189 770.204,200.022 865.5,272C 868.217,274.076 871.217,274.743 874.5,274C 777.823,199.41 670.323,145.243 552,111.5C 551.365,109.365 551.699,107.365 553,105.5C 572.995,71.3523 593.162,37.3523 613.5,3.5C 613.414,2.5041 613.748,1.67076 614.5,1C 809.166,0.5 1003.83,0.333334 1198.5,0.5C 1198.67,213.167 1198.5,425.834 1198,638.5C 1197.67,657.167 1197.33,675.833 1197,694.5C 1196.62,693.944 1196.12,693.611 1195.5,693.5 Z"/></g>
<g><path style="opacity:0.999" fill="#fdfdfe" d="M 202.5,3.5 C 246.5,3.5 290.5,3.5 334.5,3.5C 326.638,27.7537 318.971,52.087 311.5,76.5C 311.608,77.4419 311.941,78.2753 312.5,79C 348.27,79.4732 383.936,81.6398 419.5,85.5C 422.089,85.4728 424.589,85.1394 427,84.5C 440.006,57.6097 452.506,30.6097 464.5,3.5C 514.167,3.5 563.833,3.5 613.5,3.5C 593.162,37.3523 572.995,71.3523 553,105.5C 551.699,107.365 551.365,109.365 552,111.5C 670.323,145.243 777.823,199.41 874.5,274C 871.217,274.743 868.217,274.076 865.5,272C 770.204,200.022 664.537,148.189 548.5,116.5C 547.558,116.608 546.725,116.941 546,117.5C 514.748,169.001 483.748,220.668 453,272.5C 434.91,273.492 416.743,273.826 398.5,273.5C 398.985,304.588 398.485,335.588 397,366.5C 339.667,462.5 282.333,558.5 225,654.5C 213.915,655.487 202.748,655.821 191.5,655.5C 186.167,655.5 180.833,655.5 175.5,655.5C 175.5,682.5 175.5,709.5 175.5,736.5C 122.226,826.28 68.7262,915.947 15,1005.5C 13.2589,1008.31 12.0922,1011.31 11.5,1014.5C 19.6841,1014.17 27.6841,1014.51 35.5,1015.5C 26.3178,1015.83 17.3178,1015.49 8.5,1014.5C 146.541,707.414 284.875,400.414 423.5,93.5C 416.596,91.823 409.596,90.6563 402.5,90C 378.869,88.0707 355.202,86.904 331.5,86.5C 323.1,86.5164 314.934,87.1831 307,88.5C 207.961,391.781 108.461,694.781 8.5,997.5C 8.5,993.833 8.5,990.167 8.5,986.5C 8.83453,981.823 9.33453,977.156 10,972.5C 68.0294,680.186 125.863,387.853 183.5,95.5C 123.862,104.66 65.5282,118.993 8.5,138.5C 8.5,136.5 8.5,134.5 8.5,132.5C 65.5774,111.731 124.244,97.2308 184.5,89C 190.707,60.4634 196.707,31.9634 202.5,3.5 Z"/></g>
<g><path style="opacity:1" fill="#020180" d="M 8.5,1014.5 C 7.29208,1015.23 5.95875,1015.57 4.5,1015.5C 5.21473,1009.36 6.54806,1003.36 8.5,997.5C 108.461,694.781 207.961,391.781 307,88.5C 314.934,87.1831 323.1,86.5164 331.5,86.5C 355.202,86.904 378.869,88.0707 402.5,90C 409.596,90.6563 416.596,91.823 423.5,93.5C 284.875,400.414 146.541,707.414 8.5,1014.5 Z"/></g>
<g><path style="opacity:0.994" fill="#000080" d="M 8.5,986.5 C 7.47823,989.881 6.1449,993.214 4.5,996.5C 4.16667,986 3.83333,975.5 3.5,965C 2.16969,690.167 2.33635,415.333 4,140.5C 5.47049,139.733 6.97049,139.067 8.5,138.5C 65.5282,118.993 123.862,104.66 183.5,95.5C 125.863,387.853 68.0294,680.186 10,972.5C 9.33453,977.156 8.83453,981.823 8.5,986.5 Z"/></g>
<g><path style="opacity:1" fill="#fefefe" d="M 587.5,422.5 C 587.5,450.167 587.5,477.833 587.5,505.5C 581.31,505.177 575.31,505.51 569.5,506.5C 546.167,506.5 522.833,506.5 499.5,506.5C 499.5,541.5 499.5,576.5 499.5,611.5C 470.593,611.829 441.76,611.495 413,610.5C 412.5,503.167 412.333,395.834 412.5,288.5C 475.523,288.181 538.523,288.515 601.5,289.5C 604.4,317.766 606.4,346.1 607.5,374.5C 571.833,374.5 536.167,374.5 500.5,374.5C 500.5,389.5 500.5,404.5 500.5,419.5C 526.502,419.333 552.502,419.5 578.5,420C 581.167,420.333 583.833,420.667 586.5,421C 587.056,421.383 587.389,421.883 587.5,422.5 Z"/></g>
<g><path style="opacity:1" fill="#fefefe" d="M 882.5,288.5 C 913.502,288.333 944.502,288.5 975.5,289C 986.46,307.752 997.293,326.585 1008,345.5C 1010.1,348.712 1012.43,351.712 1015,354.5C 1018.02,352.132 1020.35,349.132 1022,345.5C 1032.42,326.993 1042.59,308.327 1052.5,289.5C 1083.83,288.5 1115.16,288.167 1146.5,288.5C 1144.23,295.037 1141.4,301.371 1138,307.5C 1112.86,352.813 1088.36,398.479 1064.5,444.5C 1094.9,499.624 1125.56,554.624 1156.5,609.5C 1124.83,610.833 1093.17,610.833 1061.5,609.5C 1047.09,583.008 1031.92,557.008 1016,531.5C 1000.79,557.423 985.954,583.59 971.5,610C 940.495,610.833 909.495,610.667 878.5,609.5C 904.333,561.833 930.167,514.167 956,466.5C 959.8,459.236 963.3,451.903 966.5,444.5C 962.966,436.43 959.133,428.43 955,420.5C 930.028,376.884 905.861,332.884 882.5,288.5 Z"/></g>
<g><path style="opacity:1" fill="#fefefe" d="M 748.5,288.5 C 803.13,286.905 847.964,306.905 883,348.5C 924.411,405.902 929.745,466.569 899,530.5C 872.192,578.007 831.692,605.84 777.5,614C 711.863,616.77 662.03,590.27 628,534.5C 606.192,495.04 600.526,453.373 611,409.5C 632.025,340.77 677.858,300.437 748.5,288.5 Z"/></g>
<g><path style="opacity:1" fill="#010080" d="M 754.5,349.5 C 771.999,347.203 783.832,354.203 790,370.5C 790.667,422.5 790.667,474.5 790,526.5C 782.483,544.237 769.317,550.737 750.5,546C 739.596,541.03 734.096,532.53 734,520.5C 733.333,471.5 733.333,422.5 734,373.5C 737.083,362.254 743.916,354.254 754.5,349.5 Z"/></g>
<g><path style="opacity:1" fill="#a9a8d4" d="M 587.5,422.5 C 588.498,450.328 588.831,478.328 588.5,506.5C 582.167,506.5 575.833,506.5 569.5,506.5C 575.31,505.51 581.31,505.177 587.5,505.5C 587.5,477.833 587.5,450.167 587.5,422.5 Z"/></g>
<g><path style="opacity:0.976" fill="#f1f1f8" d="M 1195.5,693.5 C 1195.5,697.167 1195.5,700.833 1195.5,704.5C 1183.9,679.226 1172.57,653.726 1161.5,628C 1162.65,626.274 1163.81,626.441 1165,628.5C 1175.72,649.947 1185.89,671.614 1195.5,693.5 Z"/></g>
<g><path style="opacity:1" fill="#3d3d9e" d="M 191.5,655.5 C 186.695,656.487 181.695,656.821 176.5,656.5C 176.831,683.339 176.498,710.005 175.5,736.5C 175.5,709.5 175.5,682.5 175.5,655.5C 180.833,655.5 186.167,655.5 191.5,655.5 Z"/></g>
<g><path style="opacity:1" fill="#fdfdfe" d="M 1049.5,659.5 C 1104.44,654.783 1141.44,678.117 1160.5,729.5C 1160.02,730.478 1159.36,731.311 1158.5,732C 1140.28,739.128 1121.95,745.962 1103.5,752.5C 1099.71,745.097 1095.04,738.263 1089.5,732C 1079.35,724.63 1068.01,721.963 1055.5,724C 1038.99,728.506 1033.16,739.006 1038,755.5C 1039.46,757.96 1041.29,760.127 1043.5,762C 1069.22,770.462 1094.89,779.129 1120.5,788C 1146.8,800.755 1162.3,821.588 1167,850.5C 1172.12,907.134 1147.95,944.634 1094.5,963C 1053.02,972.71 1016.02,964.043 983.5,937C 967.827,920.153 958.16,900.32 954.5,877.5C 972.479,873.339 990.479,869.172 1008.5,865C 1012.15,864.501 1015.82,864.335 1019.5,864.5C 1025.5,887.987 1040.66,899.654 1065,899.5C 1088.71,899.485 1097.71,888.152 1092,865.5C 1089.5,863 1087,860.5 1084.5,858C 1065.51,851.67 1046.51,845.337 1027.5,839C 1007.31,831.679 990.475,819.845 977,803.5C 965.684,783.983 961.684,762.983 965,740.5C 971.67,703.161 992.837,677.995 1028.5,665C 1035.59,662.98 1042.59,661.147 1049.5,659.5 Z"/></g>
<g><path style="opacity:1" fill="#fefefe" d="M 235.5,962.5 C 220.5,962.5 205.5,962.5 190.5,962.5C 190.806,959.615 190.473,956.948 189.5,954.5C 189.5,859.5 189.5,764.5 189.5,669.5C 215.502,669.333 241.502,669.5 267.5,670C 293.046,713.589 318.213,757.422 343,801.5C 346.02,806.887 349.52,811.887 353.5,816.5C 354.332,806.183 354.832,795.849 355,785.5C 355.5,746.835 355.667,708.168 355.5,669.5C 377.503,669.333 399.503,669.5 421.5,670C 422,670.5 422.5,671 423,671.5C 423.5,768.833 423.667,866.166 423.5,963.5C 401.49,963.833 379.49,963.5 357.5,962.5C 327.827,911.158 298.66,859.491 270,807.5C 267.068,802.623 263.901,797.957 260.5,793.5C 259.914,793.709 259.414,794.043 259,794.5C 258.5,850.499 258.333,906.499 258.5,962.5C 250.833,962.5 243.167,962.5 235.5,962.5 Z"/></g>
<g><path style="opacity:1" fill="#fdfdfe" d="M 563.5,782.5 C 576.323,783.495 589.323,783.829 602.5,783.5C 602.5,803.167 602.5,822.833 602.5,842.5C 591.986,842.172 581.653,842.506 571.5,843.5C 551.833,843.5 532.167,843.5 512.5,843.5C 512.5,861.167 512.5,878.833 512.5,896.5C 549.54,896.032 586.54,896.532 623.5,898C 624.494,919.758 624.827,941.591 624.5,963.5C 564.262,963.831 504.095,963.498 444,962.5C 442.881,911.512 442.381,860.512 442.5,809.5C 442.515,762.818 442.848,716.152 443.5,669.5C 502.834,669.333 562.168,669.5 621.5,670C 622.494,692.091 622.827,714.258 622.5,736.5C 585.833,736.5 549.167,736.5 512.5,736.5C 512.5,751.833 512.5,767.167 512.5,782.5C 529.5,782.5 546.5,782.5 563.5,782.5 Z"/></g>
<g><path style="opacity:1" fill="#fdfdfe" d="M 641.5,669.5 C 664.075,669.173 686.575,669.506 709,670.5C 720.796,727.148 732.463,783.815 744,840.5C 747.427,829.369 750.094,818.036 752,806.5C 760.919,760.9 769.419,715.233 777.5,669.5C 797.076,669.174 816.576,669.507 836,670.5C 848.229,725.979 859.563,781.646 870,837.5C 870.414,837.957 870.914,838.291 871.5,838.5C 874.098,832.45 875.931,826.117 877,819.5C 887.077,769.781 897.411,720.114 908,670.5C 926,669.167 944,669.167 962,670.5C 962.518,674.551 962.184,678.551 961,682.5C 940.221,775.527 919.554,868.527 899,961.5C 897.56,963.046 895.727,963.879 893.5,964C 874.833,964.667 856.167,964.667 837.5,964C 825.448,909.409 814.282,854.575 804,799.5C 803.131,796.237 801.797,795.904 800,798.5C 789.481,853.469 779.147,908.469 769,963.5C 749.573,964.659 730.073,964.826 710.5,964C 708.744,963.798 707.078,963.298 705.5,962.5C 688.034,886.26 670.867,809.927 654,733.5C 649.381,712.24 645.215,690.907 641.5,669.5 Z"/></g>
<g><path style="opacity:1" fill="#c8c7e3" d="M 563.5,782.5 C 576.833,782.5 590.167,782.5 603.5,782.5C 603.5,802.833 603.5,823.167 603.5,843.5C 592.833,843.5 582.167,843.5 571.5,843.5C 581.653,842.506 591.986,842.172 602.5,842.5C 602.5,822.833 602.5,803.167 602.5,783.5C 589.323,783.829 576.323,783.495 563.5,782.5 Z"/></g>
<g><path style="opacity:1" fill="#c4c3e1" d="M 189.5,954.5 C 190.473,956.948 190.806,959.615 190.5,962.5C 205.5,962.5 220.5,962.5 235.5,962.5C 220.342,963.496 205.009,963.83 189.5,963.5C 189.5,960.5 189.5,957.5 189.5,954.5 Z"/></g>
<g><path style="opacity:0.983" fill="#fe0000" d="M 2.5,1038.5 C 401.167,1038.5 799.833,1038.5 1198.5,1038.5C 1198.5,1091.5 1198.5,1144.5 1198.5,1197.5C 799.833,1197.5 401.167,1197.5 2.5,1197.5C 2.5,1144.5 2.5,1091.5 2.5,1038.5 Z M 227.5,1070.5 C 236.445,1070.35 245.279,1071.02 254,1072.5C 255.062,1084.03 255.896,1095.53 256.5,1107C 257.5,1107.67 258.5,1107.67 259.5,1107C 277.511,1094.36 296.178,1093.36 315.5,1104C 322.065,1110.02 324.898,1117.52 324,1126.5C 324.5,1141.83 324.667,1157.16 324.5,1172.5C 313.585,1172.82 302.752,1172.49 292,1171.5C 291.104,1153.84 290.438,1136.18 290,1118.5C 288.5,1117 287,1115.5 285.5,1114C 276.38,1111.3 267.714,1112.3 259.5,1117C 258.54,1118.42 257.707,1119.92 257,1121.5C 255.775,1138.47 254.942,1155.47 254.5,1172.5C 244.167,1172.5 233.833,1172.5 223.5,1172.5C 222.188,1138.82 222.188,1105.15 223.5,1071.5C 225.099,1071.77 226.432,1071.43 227.5,1070.5 Z M 1142.5,1070.5 C 1150.19,1070.46 1157.85,1070.79 1165.5,1071.5C 1166.8,1105.18 1166.8,1138.85 1165.5,1172.5C 1155.25,1172.82 1145.08,1172.49 1135,1171.5C 1133.18,1138.18 1133.02,1104.85 1134.5,1071.5C 1137.39,1071.81 1140.05,1071.47 1142.5,1070.5 Z M 79.5,1096.5 C 97.7819,1094.21 114.782,1097.71 130.5,1107C 135.203,1110.91 138.536,1115.74 140.5,1121.5C 130.541,1123 120.541,1123.5 110.5,1123C 103.047,1112.06 93.0474,1109.06 80.5,1114C 76.0619,1117.03 73.2286,1121.2 72,1126.5C 67.6029,1153.85 78.4363,1163.35 104.5,1155C 106.657,1153.02 108.324,1150.69 109.5,1148C 119.167,1147.33 128.833,1147.33 138.5,1148C 139.167,1148.33 139.833,1148.67 140.5,1149C 133.966,1162.29 123.299,1170.29 108.5,1173C 91.3116,1176.21 74.6449,1174.54 58.5,1168C 38.6144,1156.34 33.1144,1139.84 42,1118.5C 51.1405,1105.35 63.6405,1098.02 79.5,1096.5 Z M 445.5,1096.5 C 456.954,1096.57 468.287,1097.73 479.5,1100C 488.822,1102.33 495.322,1107.83 499,1116.5C 500.46,1133.78 501.46,1151.12 502,1168.5C 502.465,1169.93 503.299,1171.1 504.5,1172C 494.161,1173.9 483.827,1173.9 473.5,1172C 471.984,1170.1 471.317,1167.94 471.5,1165.5C 469.801,1165.34 468.134,1165.51 466.5,1166C 450.195,1175.67 433.195,1177.33 415.5,1171C 403.491,1165.49 399.991,1156.65 405,1144.5C 407.921,1140.91 411.421,1138.08 415.5,1136C 422.008,1133.71 428.674,1132.04 435.5,1131C 445.898,1129.71 456.231,1128.04 466.5,1126C 470.142,1122.03 470.475,1117.7 467.5,1113C 458.486,1109.81 449.486,1109.81 440.5,1113C 438.5,1115 436.5,1117 434.5,1119C 425.173,1119.5 415.839,1119.67 406.5,1119.5C 408.984,1109.52 415.317,1103.35 425.5,1101C 432.276,1099.38 438.943,1097.88 445.5,1096.5 Z M 649.5,1096.5 C 661.247,1095.82 672.247,1098.32 682.5,1104C 685.871,1107.24 688.371,1111.07 690,1115.5C 690.5,1134.5 690.667,1153.5 690.5,1172.5C 680.167,1172.5 669.833,1172.5 659.5,1172.5C 658.897,1154.83 658.064,1137.17 657,1119.5C 653.502,1114.27 648.502,1111.94 642,1112.5C 634.474,1112.11 628.474,1114.77 624,1120.5C 621.919,1137.75 621.086,1155.09 621.5,1172.5C 610.918,1172.82 600.418,1172.49 590,1171.5C 589.5,1147.17 589.333,1122.84 589.5,1098.5C 599.172,1098.33 608.839,1098.5 618.5,1099C 619.416,1099.37 620.25,1099.87 621,1100.5C 621.333,1102.83 621.667,1105.17 622,1107.5C 622.561,1108.02 623.228,1108.36 624,1108.5C 631.477,1102.18 639.977,1098.18 649.5,1096.5 Z M 834.5,1096.5 C 845.085,1096.12 855.085,1098.29 864.5,1103C 872.716,1109.93 875.882,1118.77 874,1129.5C 874.438,1143.84 874.271,1158.17 873.5,1172.5C 863.167,1172.5 852.833,1172.5 842.5,1172.5C 841.735,1154.52 841.235,1136.52 841,1118.5C 837.033,1114.06 832.033,1112.39 826,1113.5C 819.454,1112.46 813.787,1114.13 809,1118.5C 808.333,1119.83 807.667,1121.17 807,1122.5C 805.876,1139.15 805.376,1155.82 805.5,1172.5C 794.918,1172.82 784.418,1172.49 774,1171.5C 773.5,1147.17 773.333,1122.84 773.5,1098.5C 782.839,1098.33 792.173,1098.5 801.5,1099C 802.416,1099.37 803.25,1099.87 804,1100.5C 804.333,1102.5 804.667,1104.5 805,1106.5C 805.388,1107.43 806.055,1108.09 807,1108.5C 815.282,1102.25 824.449,1098.25 834.5,1096.5 Z M 996.5,1096.5 C 1017.72,1093.84 1036.56,1099.18 1053,1112.5C 1058.95,1120.52 1061.78,1129.52 1061.5,1139.5C 1036.83,1140 1012.16,1140.66 987.5,1141.5C 987.95,1146.22 989.45,1150.56 992,1154.5C 994.379,1156.88 997.213,1158.38 1000.5,1159C 1009.17,1160.34 1017.5,1159.34 1025.5,1156C 1026.88,1154.29 1028.54,1152.95 1030.5,1152C 1039.52,1151.36 1048.52,1151.52 1057.5,1152.5C 1057.65,1153.55 1057.48,1154.55 1057,1155.5C 1047.13,1166.85 1034.63,1173.02 1019.5,1174C 999.632,1176.9 981.632,1172.56 965.5,1161C 949.869,1141.75 951.202,1123.75 969.5,1107C 977.876,1101.6 986.876,1098.1 996.5,1096.5 Z"/></g>
<g><path style="opacity:0.901" fill="#fe0000" d="M 999.5,1110.5 C 1007.24,1110.14 1014.9,1110.64 1022.5,1112C 1029.07,1115.98 1031.74,1121.81 1030.5,1129.5C 1016.15,1129.63 1001.82,1129.3 987.5,1128.5C 987.962,1120.05 991.962,1114.05 999.5,1110.5 Z"/></g>
<g><path style="opacity:0.914" fill="#fe0000" d="M 464.5,1136.5 C 466.144,1136.29 467.644,1136.62 469,1137.5C 472.241,1154.76 465.074,1162.76 447.5,1161.5C 434.603,1162.45 430.27,1156.95 434.5,1145C 444.413,1141.46 454.413,1138.63 464.5,1136.5 Z"/></g>
</svg>
