<?xml version="1.0" encoding="UTF-8"?>
<svg version="1.1" xmlns="http://www.w3.org/2000/svg" viewBox="0 0 560 560">
<path d="M0 0 C5.28976286 0.04000342 10.57912127 0.00436951 15.86889839 -0.02135074 C26.20639723 -0.05973384 36.54256456 -0.02898585 46.87994295 0.02613869 C58.92842614 0.08800638 70.97660723 0.08269726 83.02521294 0.07539354 C104.5231672 0.06484293 126.02049531 0.11799818 147.51825142 0.20595944 C168.36347168 0.29122065 189.20801822 0.32654534 210.05340767 0.3084985 C232.78298111 0.28890516 255.5122697 0.29402321 278.24180555 0.34470314 C279.4439461 0.34738084 280.64608664 0.35005854 281.88465568 0.35281739 C284.29879914 0.35819888 286.71294249 0.36363162 289.12708572 0.36911624 C297.52042463 0.38676741 305.91367126 0.38773586 314.307024 0.3829366 C324.53301812 0.37793134 334.75845423 0.4025949 344.98427016 0.46444287 C350.19903459 0.49536662 355.41301352 0.5137639 360.62786293 0.49752438 C365.40487914 0.48306593 370.18024785 0.50576527 374.95699042 0.55769966 C376.68132754 0.57006987 378.40582466 0.56912256 380.13013297 0.55323585 C391.17853804 0.46115041 397.72132725 2.13233942 406.26434517 9.62612545 C407.58616267 10.31534292 408.9178799 10.98639622 410.26434517 11.62612545 C411.9779316 13.24451264 413.63511777 14.92284226 415.26434517 16.62612545 C415.85215767 17.19331295 416.43997017 17.76050045 417.04559517 18.34487545 C422.60574849 23.72851597 427.45139499 29.57375013 432.26434517 35.62612545 C432.96946236 36.47819577 433.67457954 37.33026608 434.40106392 38.2081567 C436.03023223 40.32231851 437.20645923 42.22044829 438.32684517 44.62612545 C439.37140026 46.84972771 440.37931714 48.78845303 441.80443519 50.80056041 C443.64840651 54.36945231 443.64369101 56.88595981 443.65024853 60.8976661 C443.65550764 61.62306329 443.66076675 62.34846048 443.66618523 63.09583941 C443.6801734 65.53361147 443.67276733 67.97084735 443.66548347 70.40864193 C443.67108705 72.1712493 443.67798887 73.93385294 443.68607944 75.69645065 C443.70446261 80.545764 443.70402928 85.39492243 443.70049632 90.2442627 C443.69988502 95.47211489 443.71643375 100.69991699 443.73066902 105.92774594 C443.75560713 116.17277206 443.76383441 126.41774641 443.76550616 136.66280033 C443.76693092 144.99021619 443.77309156 153.31761493 443.78260803 161.64502537 C443.80903412 185.24929884 443.82286535 208.85353136 443.82061661 232.45781972 C443.82049674 233.73079958 443.82037687 235.00377944 443.82025337 236.31533444 C443.82013073 237.58986695 443.82000809 238.86439946 443.81988173 240.17755417 C443.8186625 260.8311032 443.84736547 281.4844881 443.88966847 302.13798966 C443.93275155 323.33950062 443.95347943 344.54093152 443.95088714 365.74248737 C443.94989086 377.64766079 443.9581478 389.5526622 443.9904213 401.45779622 C444.0177258 411.59505662 444.02427111 421.73206708 444.00389303 431.86934831 C443.99409128 437.04130246 443.99394794 442.21277698 444.01995277 447.38468564 C444.04352614 452.12176914 444.0392781 456.85799217 444.01310038 461.59505448 C444.00849033 463.30638097 444.0139635 465.01777142 444.0306806 466.72902247 C444.12009879 476.53371861 443.43323795 483.57112278 437.26434517 491.62612545 C436.36715767 493.32768795 436.36715767 493.32768795 435.45184517 495.06362545 C426.78732787 510.22653074 411.67389006 524.48523382 396.26434517 532.62612545 C395.19414346 533.31172209 394.12394174 533.99731872 393.02130967 534.70369101 C389.25910918 536.84870168 386.20101514 537.12914243 381.84041309 537.13507664 C381.12283845 537.1414896 380.40526381 537.14790255 379.66594449 537.15450984 C377.2666686 537.17108419 374.86839468 537.15927223 372.46910286 537.14751828 C370.72951597 537.15356092 368.9899344 537.16133969 367.25036222 537.17070341 C362.47392798 537.19128658 357.69779359 537.18689406 352.92133462 537.17834222 C347.76849265 537.17341189 342.61572326 537.19143092 337.46290779 537.2064172 C327.36920239 537.23192751 317.27560335 537.23549653 307.18187114 537.23081668 C298.9774963 537.22725167 290.77315378 537.23074673 282.56878281 537.23926556 C281.40141602 537.24045594 280.23404924 537.24164632 279.0313077 537.24287277 C276.65984175 537.24529626 274.2883758 537.24772452 271.91690985 537.25015752 C249.67235957 537.27191512 227.42786991 537.26758055 205.18331621 537.25538783 C184.83381514 537.24505025 164.48450558 537.26755709 144.13504239 537.30558427 C123.24082506 537.34433011 102.34669835 537.36085491 81.45244485 537.35333776 C69.72168859 537.34951183 57.99109531 537.35450717 46.26036835 537.38276684 C36.27319722 537.40658264 26.28628937 537.40941785 16.29911467 537.38518651 C11.20411057 537.37340018 6.10958816 537.37123326 1.01461601 537.39519131 C-3.6520865 537.41688034 -8.31790435 537.41073861 -12.98456522 537.38266794 C-14.67025582 537.3773659 -16.35601542 537.38213309 -18.04163835 537.39813967 C-27.84747169 537.48477195 -34.62711692 536.64285414 -42.73565483 530.62612545 C-44.15683602 529.9054962 -45.5925969 529.21201856 -47.04815483 528.56362545 C-50.66456847 526.80233817 -52.9798139 524.58865446 -55.73565483 521.62612545 C-57.05818712 520.44722884 -58.39243452 519.28139516 -59.73565483 518.12612545 C-67.80845558 511.09254719 -75.17867924 503.42362298 -79.73565483 493.62612545 C-80.41128464 492.90075693 -81.08691444 492.1753884 -81.78301787 491.42803901 C-84.21656835 487.93604423 -84.28978971 485.21075006 -84.22784615 481.1080085 C-84.23246152 480.35597811 -84.2370769 479.60394772 -84.24183214 478.82912853 C-84.25244835 476.30067227 -84.23445306 473.77322804 -84.2166729 471.24482358 C-84.21841672 469.41734411 -84.22191816 467.58986561 -84.22702956 465.76239246 C-84.23599042 460.73406597 -84.21995059 455.70607909 -84.19991732 450.67779589 C-84.18267273 445.25792855 -84.1884869 439.83808098 -84.19152641 434.41819394 C-84.19362567 425.02570874 -84.18105629 415.63333454 -84.15857506 406.24087727 C-84.12609199 392.66091316 -84.11565182 379.08100283 -84.11062309 365.50100408 C-84.10186464 343.4693572 -84.07523414 321.43776949 -84.03741264 299.40615475 C-84.00070679 278.0021864 -83.9723419 256.5982342 -83.95538139 235.19424069 C-83.9543305 233.87530226 -83.95327961 232.55636383 -83.95219687 231.19745757 C-83.94697679 224.58085135 -83.94192194 217.96424502 -83.93694925 211.34763861 C-83.8954701 156.44042668 -83.82500669 101.5332789 -83.73565483 46.62612545 C-83.07565483 46.62612545 -82.41565483 46.62612545 -81.73565483 46.62612545 C-81.45850639 45.8990942 -81.18135796 45.17206295 -80.89581108 44.42300045 C-77.69788425 36.71352027 -73.26591972 30.69852699 -67.17706108 25.02456295 C-65.16405405 23.04698485 -63.36591959 21.05185878 -61.54079247 18.90746224 C-43.85388088 -1.19540946 -25.13418436 -0.25823466 0 0 Z " fill="#010101" transform="translate(108.73565483093262,23.37387454509735)"/>
<path d="M0 0 C3.51837651 0.89494864 5.45211475 3.50468156 7.58300781 6.24804688 C13.72223723 13.79568775 20.48575516 18.57672708 30.36181641 19.79443359 C32.79765837 19.93251542 35.20611755 19.95706515 37.64550781 19.93554688 C38.86850586 19.96551758 38.86850586 19.96551758 40.11621094 19.99609375 C45.51152941 19.99173213 48.7403557 19.17191366 52.95800781 15.49804688 C54.19250853 12.51304546 54.19250853 12.51304546 53.95800781 9.49804688 C52.54134115 7.91471354 52.54134115 7.91471354 50.95800781 6.49804688 C50.77050781 3.81054687 50.77050781 3.81054687 50.95800781 1.49804688 C53.27050781 0.81054688 53.27050781 0.81054688 55.95800781 0.49804688 C57.59863281 1.53710938 57.59863281 1.53710938 58.95800781 3.49804688 C60.56627102 15.45135446 57.92081668 24.416689 51.20800781 34.24804688 C43.88106684 43.81078234 34.59896551 48.58780745 22.95800781 51.49804688 C18.00800781 51.49804688 13.05800781 51.49804688 7.95800781 51.49804688 C7.95800781 97.36804688 7.95800781 143.23804688 7.95800781 190.49804688 C12.57800781 190.49804688 17.19800781 190.49804688 21.95800781 190.49804688 C25.75428026 191.13032706 29.31426091 191.8102032 33.02050781 192.74804688 C33.95789795 192.97331055 34.89528809 193.19857422 35.86108398 193.43066406 C55.75579773 198.2958368 55.75579773 198.2958368 57.95800781 200.49804688 C60.37338619 200.91521966 60.37338619 200.91521966 62.95800781 200.49804688 C65.55688162 197.89917307 66.72145181 194.92235582 67.95800781 191.49804688 C69.27800781 191.49804688 70.59800781 191.49804688 71.95800781 191.49804688 C71.38673985 195.49692262 70.08517209 198.09458403 67.95800781 201.49804688 C67.66925781 202.26117188 67.38050781 203.02429688 67.08300781 203.81054688 C65.75451181 206.9841762 63.98481163 209.67746548 62.07910156 212.53320312 C60.9413987 214.52715622 60.40234328 216.25639938 59.95800781 218.49804688 C59.29800781 218.49804688 58.63800781 218.49804688 57.95800781 218.49804688 C57.70148438 219.35140625 57.44496094 220.20476562 57.18066406 221.08398438 C55.89371622 224.67757037 54.26149677 227.79621061 52.39550781 231.12304688 C49.56270018 236.07675563 49.56270018 236.07675563 47.95800781 241.49804688 C44.38247495 240.91891127 41.63659944 239.96796974 38.45800781 238.24804688 C2.78502395 219.82412557 -40.33891371 222.96057809 -78.04199219 233.49804688 C-81.47289647 234.64902439 -84.75927821 236.02814608 -88.03027344 237.58007812 C-90.04199219 238.49804688 -90.04199219 238.49804688 -92.04199219 238.49804688 C-92.04199219 239.15804687 -92.04199219 239.81804687 -92.04199219 240.49804688 C-93.36199219 240.82804688 -94.68199219 241.15804687 -96.04199219 241.49804688 C-96.04199219 237.49804688 -96.04199219 237.49804688 -94.36230469 235.35742188 C-93.63785156 234.66132813 -92.91339844 233.96523438 -92.16699219 233.24804688 C-91.44769531 232.54164063 -90.72839844 231.83523438 -89.98730469 231.10742188 C-88.04199219 229.49804688 -88.04199219 229.49804688 -86.04199219 229.49804688 C-85.77902344 228.923125 -85.51605469 228.34820312 -85.24511719 227.75585938 C-83.97242566 225.36749671 -82.50571193 223.46502007 -80.79199219 221.37304688 C-67.12671147 203.8520023 -62.0996183 181.5874324 -64.04199219 159.49804688 C-65.35901691 149.86536813 -67.36610573 140.51025917 -71.04199219 131.49804688 C-71.40421875 130.59957031 -71.76644531 129.70109375 -72.13964844 128.77539062 C-72.45804688 128.00324219 -72.77644531 127.23109375 -73.10449219 126.43554688 C-74.25175207 123.5955375 -75.21185944 120.89289478 -76.04199219 117.93554688 C-76.85569557 115.13844149 -77.77515236 112.75441578 -78.97949219 110.12304688 C-87.12146518 92.25931509 -88.55180834 68.70122309 -82.20996094 50.06445312 C-80.99975379 47.40523542 -79.56337851 44.98947244 -78.04199219 42.49804688 C-77.67074219 41.46679688 -77.29949219 40.43554688 -76.91699219 39.37304688 C-71.22410546 25.8451047 -57.62861406 15.82096095 -45.54199219 8.31054688 C-44.75187744 7.81619141 -43.9617627 7.32183594 -43.14770508 6.8125 C-42.40125732 6.36455078 -41.65480957 5.91660156 -40.88574219 5.45507812 C-39.88317383 4.85143433 -39.88317383 4.85143433 -38.86035156 4.2355957 C-37.04199219 3.49804688 -37.04199219 3.49804688 -34.04199219 4.49804688 C-34.63051654 7.74556682 -35.62187707 9.46521386 -37.85449219 11.87304688 C-43.36567681 18.08301806 -47.77593521 24.5316499 -48.22949219 32.99804688 C-48.16761719 33.82304688 -48.10574219 34.64804688 -48.04199219 35.49804688 C-47.38199219 35.49804688 -46.72199219 35.49804688 -46.04199219 35.49804688 C-46.04199219 34.83804688 -46.04199219 34.17804688 -46.04199219 33.49804688 C-43.95135464 31.73576594 -41.84955528 30.07701329 -39.66699219 28.43554688 C-34.39565151 24.39026919 -29.38224124 20.19640698 -24.48730469 15.69726562 C-20.1472669 11.7940048 -15.59138205 8.15293305 -11.04199219 4.49804688 C-10.275 3.75167969 -9.50800781 3.0053125 -8.71777344 2.23632812 C-5.59027893 0.20459811 -3.67656835 -0.19668174 0 0 Z " fill="#FAFAFA" transform="translate(182.0419921875,88.501953125)"/>
<path d="M0 0 C1.22348056 1.0238331 2.43262118 2.06510772 3.625 3.125 C4.79017608 4.08514509 5.95671684 5.04363797 7.125 6 C7.95 6.70125 8.775 7.4025 9.625 8.125 C9.975625 7.42375 10.32625 6.7225 10.6875 6 C13.89898576 1.23456951 17.41528868 -2.31252803 23.0625 -3.75 C24.3309375 -3.811875 24.3309375 -3.811875 25.625 -3.875 C25.17133883 -0.92620241 24.42470681 0.3859881 22.5625 2.8125 C18.540758 9.68838148 20.76764671 16.67520872 22.67578125 24.03515625 C23.61839044 27.10348492 24.7015197 30.07704118 25.84643555 33.07397461 C27.07903476 36.3210947 28.22469357 39.59801019 29.375 42.875 C29.63394043 43.61121582 29.89288086 44.34743164 30.15966797 45.10595703 C30.7087349 46.66782764 31.25739381 48.22984174 31.80566406 49.79199219 C32.58475862 52.01041518 33.36636729 54.22793712 34.1484375 56.4453125 C38.50530081 68.82248807 42.75749098 81.23520943 47.00805664 93.64916992 C50.22380489 103.04067825 53.44866651 112.42892118 56.6875 121.8125 C59.47413919 129.88643657 62.2604108 137.96048834 65.03300476 146.03926086 C66.18797214 149.40395791 67.34695594 152.76714757 68.51538086 156.12719727 C70.61321913 162.17315173 72.6768576 168.22167457 74.58416748 174.33087158 C75.42176034 177.00631426 76.28212047 179.67418721 77.14428711 182.34179688 C77.73163137 184.19213251 78.28533789 186.05304109 78.83789062 187.9140625 C81.06514141 194.76472451 83.21051494 198.58217941 89.43701172 202.36279297 C92.02802946 203.26539924 93.11402812 203.18125921 95.625 202.125 C97.31162458 200.47853315 98.98011706 198.81316933 100.625 197.125 C101.285 197.125 101.945 197.125 102.625 197.125 C103.3671875 199.38671875 103.3671875 199.38671875 103.625 202.125 C102.1328125 204.01953125 102.1328125 204.01953125 99.75 205.9375 C98.38101563 207.08798828 98.38101563 207.08798828 96.984375 208.26171875 C96.45908203 208.70177246 95.93378906 209.14182617 95.39257812 209.59521484 C91.81626525 212.69040497 88.42539801 215.98998414 85 219.25 C82.90760376 221.23866284 80.81170844 223.22220702 78.69824219 225.18847656 C77.28155717 226.51173911 75.88174915 227.85324258 74.49707031 229.20996094 C73.80967773 229.8599707 73.12228516 230.50998047 72.4140625 231.1796875 C71.8051416 231.76991699 71.1962207 232.36014648 70.56884766 232.96826172 C68.625 234.125 68.625 234.125 66.03393555 233.90258789 C63.10468121 232.95704466 61.23656312 231.58475885 58.8125 229.6875 C53.43591531 225.62942382 47.85107481 222.05572445 42.1081543 218.53930664 C38.83125096 216.52757013 35.64746896 214.51360079 32.625 212.125 C33.82881448 209.63138429 35.07928722 207.44356917 36.625 205.125 C37.50845922 198.12382317 34.93311631 191.78703623 32.8125 185.1875 C32.45607422 184.04603516 32.09964844 182.90457031 31.73242188 181.72851562 C30.2233618 176.9355193 28.68449693 172.18029046 26.86328125 167.49609375 C25.625 164.125 25.625 164.125 25.625 161.125 C-13.48 161.62 -13.48 161.62 -53.375 162.125 C-55.685 169.055 -57.995 175.985 -60.375 183.125 C-61.365 185.765 -62.355 188.405 -63.375 191.125 C-62.45460938 191.07859375 -61.53421875 191.0321875 -60.5859375 190.984375 C-52.15066913 190.74385818 -45.54554165 191.51944524 -37.49609375 194.25 C-34.30274913 195.14525556 -31.67294871 195.28369828 -28.375 195.125 C-26.725 192.155 -25.075 189.185 -23.375 186.125 C-22.055 186.455 -20.735 186.785 -19.375 187.125 C-20.30467809 191.33166755 -22.21065608 194.86570717 -24.234375 198.63671875 C-24.62063049 199.36437943 -25.00688599 200.0920401 -25.40484619 200.8417511 C-26.64082559 203.16752732 -27.88291723 205.48997866 -29.125 207.8125 C-29.94569423 209.35591687 -30.76601069 210.89953468 -31.5859375 212.44335938 C-35.44960458 219.70807177 -39.3419859 226.95246477 -43.375 234.125 C-47.17520428 233.7249785 -50.38098196 232.78275511 -53.875 231.3125 C-70.96164047 224.33992474 -88.48346307 222.3924172 -106.0234375 229.14453125 C-108.85470127 230.50905729 -111.14635821 231.89635821 -113.375 234.125 C-114.365 234.125 -115.355 234.125 -116.375 234.125 C-115.86954054 222.75216213 -107.88942429 213.09746992 -100.375 205.125 C-90.66631364 196.47400792 -81.36015543 191.89665883 -68.375 191.125 C-64.95550898 182.18261971 -61.69715045 173.22077353 -58.703125 164.125 C-52.73600254 146.06138457 -46.01802549 128.26207179 -39.37402344 110.43994141 C-35.6525876 100.44778668 -32.04912432 90.42289466 -28.58349609 80.33886719 C-26.66254631 74.76467425 -24.68416291 69.21540706 -22.64453125 63.68359375 C-22.17984215 62.41472451 -21.71540444 61.14576318 -21.2512207 59.87670898 C-20.35136677 57.42362129 -19.44270238 54.97374292 -18.52416992 52.52758789 C-14.94289892 43.22403987 -14.94289892 43.22403987 -16.29296875 33.6484375 C-20.41950205 26.66507346 -24.35761556 21.62460605 -32.375 19.125 C-35.3245476 18.6744511 -38.2068549 18.59972691 -41.1875 18.625 C-41.97922607 18.63144531 -42.77095215 18.63789062 -43.58666992 18.64453125 C-51.02956423 18.87643039 -56.77376517 20.40839381 -62.08203125 25.88671875 C-65.26030184 30.20321296 -66.18151768 34.41608824 -65.953125 39.734375 C-65.10597824 43.23744132 -63.15598896 45.0999511 -60.6484375 47.58984375 C-59.375 49.125 -59.375 49.125 -59.4375 52 C-60.375 54.125 -60.375 54.125 -61.375 55.125 C-63.6875 55.5625 -63.6875 55.5625 -66.375 55.125 C-73.08575175 46.92297008 -72.3012646 36.21640906 -71.375 26.125 C-68.69613762 14.19426168 -60.06846684 5.05375373 -50.0078125 -1.46875 C-36.5261229 -8.66965246 -12.64535863 -9.20525169 0 0 Z " fill="#FAFAFA" transform="translate(364.375,96.875)"/>
<path d="M0 0 C0.99 0.33 1.98 0.66 3 1 C3.62272262 12.65875128 3.62272262 12.65875128 1.375 17.5 C-3.93970328 23.09442451 -5.9986424 24.85694891 -14 26 C-14 48.44 -14 70.88 -14 94 C-5.83207719 88.49728444 -5.83207719 88.49728444 -1.25 80.4375 C-0.93198076 77.74519354 -0.93198076 77.74519354 -1 74 C0.485 74.495 0.485 74.495 2 75 C2.72253988 84.75428844 -0.75618172 92.45045991 -6.97265625 99.90234375 C-16.38217753 109.63820681 -28.16453924 114.07001034 -41.48095703 114.64306641 C-54.91750764 114.84082253 -64.80116112 112.59044783 -75.4375 103.875 C-84.83374536 94.66420685 -90.010961 83.05444665 -90.3125 69.9375 C-89.90900516 57.41302031 -86.51590626 47.43436749 -77.75 38.1875 C-68.82758644 29.83206255 -58.0787056 24.78355156 -46 23 C-53.07779938 20.66848961 -59.83619484 19.68024674 -67.25 19.625 C-68.36544189 19.60469727 -68.36544189 19.60469727 -69.50341797 19.58398438 C-76.14435369 19.6370529 -81.45813509 21.25246788 -87 25.0625 C-89.88087309 29.29378235 -89.4343096 33.02956793 -89 38 C-89.99 37.67 -90.98 37.34 -92 37 C-92.86775478 27.20401268 -90.71758456 18.45654644 -84.625 10.5625 C-77.38239957 3.49234244 -72.2701769 1.73926901 -62.12915039 1.67431641 C-50.95214299 1.83997496 -39.09106639 3.78597709 -28.421875 7.1171875 C-23.99290021 8.25982255 -19.86510134 8.2924485 -15.3125 8.25 C-14.05083008 8.26160156 -14.05083008 8.26160156 -12.76367188 8.2734375 C-11.95091797 8.27085937 -11.13816406 8.26828125 -10.30078125 8.265625 C-9.20503784 8.26224121 -9.20503784 8.26224121 -8.0871582 8.25878906 C-5.63777934 7.95508786 -4.06719491 7.34670315 -2 6 C-0.70768358 2.95800528 -0.70768358 2.95800528 0 0 Z " fill="#F2F2F2" transform="translate(177,354)"/>
<path d="M0 0 C2.62866933 1.20094108 3.77415647 2.76622903 5.5546875 5.03515625 C11.50151901 11.99161773 18.94442479 17.10060371 27.9921875 18.91015625 C27.9921875 19.57015625 27.9921875 20.23015625 27.9921875 20.91015625 C30.6321875 21.24015625 33.2721875 21.57015625 35.9921875 21.91015625 C35.9921875 68.11015625 35.9921875 114.31015625 35.9921875 161.91015625 C31.0421875 162.24015625 26.0921875 162.57015625 20.9921875 162.91015625 C17.7389787 163.39330607 14.62529163 163.89658888 11.4296875 164.59765625 C10.23581421 164.85385742 10.23581421 164.85385742 9.01782227 165.11523438 C1.54934798 166.82471348 -5.067273 169.67358954 -12.0078125 172.91015625 C-13.75369216 173.56704659 -15.50340504 174.21389355 -17.2578125 174.84765625 C-22.02692662 176.70318906 -25.90392639 179.45216608 -29.9765625 182.51953125 C-32.0078125 183.91015625 -32.0078125 183.91015625 -34.0078125 183.91015625 C-32.63769879 180.74519357 -31.16980882 178.95621062 -28.5078125 176.78515625 C-12.81467261 163.41064244 5.16448649 144.53692657 7.3984375 122.9921875 C7.84451071 110.73093012 5.02241801 100.39815349 0.9921875 88.91015625 C0.45965478 87.33506852 -0.07162744 85.75955736 -0.6015625 84.18359375 C-2.52875268 78.52651555 -4.46731278 72.88958954 -7.0078125 67.47265625 C-10.09364579 60.88608771 -12.12697374 53.82661452 -14.34912109 46.9128418 C-14.90094651 45.23507165 -15.5032014 43.57400167 -16.1171875 41.91796875 C-17.28802416 37.96382741 -17.71836948 34.0661303 -18.1328125 29.97265625 C-18.21917969 29.19986328 -18.30554688 28.42707031 -18.39453125 27.63085938 C-18.63297409 25.39214606 -18.82963737 23.15439923 -19.0078125 20.91015625 C-19.15863281 19.02296875 -19.15863281 19.02296875 -19.3125 17.09765625 C-19.0078125 13.91015625 -19.0078125 13.91015625 -17.3203125 11.6875 C-16.5571875 11.08035156 -15.7940625 10.47320312 -15.0078125 9.84765625 C-14.18925781 9.18765625 -13.37070313 8.52765625 -12.52734375 7.84765625 C-11.69589844 7.20828125 -10.86445313 6.56890625 -10.0078125 5.91015625 C-9.26917969 5.29140625 -8.53054687 4.67265625 -7.76953125 4.03515625 C-2.66317287 -0.11916921 -2.66317287 -0.11916921 0 0 Z " fill="#030303" transform="translate(151.0078125,117.08984375)"/>
<path d="M0 0 C2.2385849 1.2018632 3.67785957 2.53648963 5.40625 4.3984375 C7.34243863 6.43872229 9.05019592 8.12678329 11.34375 9.7734375 C11.859375 10.1859375 12.375 10.5984375 12.90625 11.0234375 C12.90625 12.0134375 12.90625 13.0034375 12.90625 14.0234375 C14.42839023 12.81675088 15.94888436 11.6079878 17.46875 10.3984375 C18.38011719 9.67527344 19.29148437 8.95210938 20.23046875 8.20703125 C22.49523913 6.35884637 24.6379239 4.44549871 26.78125 2.4609375 C29.90625 0.0234375 29.90625 0.0234375 31.86499023 0.23266602 C33.98844272 1.05527846 35.77053821 2.01622318 37.69140625 3.23828125 C38.73458008 3.89666992 38.73458008 3.89666992 39.79882812 4.56835938 C40.51490234 5.02791016 41.23097656 5.48746094 41.96875 5.9609375 C42.68869141 6.41662109 43.40863281 6.87230469 44.15039062 7.34179688 C47.09031663 9.20620677 50.00950797 11.09227615 52.90625 13.0234375 C56.14568375 12.69198656 57.87806401 11.44919454 60.21875 9.265625 C60.81945312 8.72292969 61.42015625 8.18023437 62.0390625 7.62109375 C63.28775491 6.46905745 64.53253632 5.31276808 65.7734375 4.15234375 C66.37414062 3.61222656 66.97484375 3.07210938 67.59375 2.515625 C68.40392578 1.76321533 68.40392578 1.76321533 69.23046875 0.99560547 C70.90625 0.0234375 70.90625 0.0234375 72.77441406 0.15649414 C75.53150867 1.27770841 77.84443713 2.7603501 80.328125 4.40234375 C81.35292969 5.07587891 82.37773437 5.74941406 83.43359375 6.44335938 C85.02880859 7.50393555 85.02880859 7.50393555 86.65625 8.5859375 C88.27466797 9.65231445 88.27466797 9.65231445 89.92578125 10.74023438 C92.58931375 12.49628014 95.24926872 14.25750156 97.90625 16.0234375 C97.57625 16.6834375 97.24625 17.3434375 96.90625 18.0234375 C96.7909894 19.60501957 96.73677069 21.19125159 96.71337891 22.77685547 C96.68928452 24.25881912 96.68928452 24.25881912 96.66470337 25.77072144 C96.62032623 30.28610599 96.57920041 34.80134309 96.55615234 39.31689453 C96.53957499 41.70110828 96.51226195 44.08527198 96.47412109 46.46923828 C96.41947274 49.90163019 96.39749736 53.33285719 96.3828125 56.765625 C96.34880844 58.36577957 96.34880844 58.36577957 96.31411743 59.9982605 C96.21463651 65.91474656 96.21463651 65.91474656 99.30615234 70.73876953 C101.74351976 72.22341497 101.74351976 72.22341497 104.03125 71.8359375 C104.65 71.5678125 105.26875 71.2996875 105.90625 71.0234375 C106.89625 70.6934375 107.88625 70.3634375 108.90625 70.0234375 C108.90625 71.0134375 108.90625 72.0034375 108.90625 73.0234375 C106.7109375 75.07421875 106.7109375 75.07421875 103.78125 77.3359375 C99.52514357 80.69688865 95.63527392 84.09284472 91.90625 88.0234375 C87.71806189 86.04224343 84.29582313 83.42288119 80.65625 80.5859375 C80.0065625 80.09544922 79.356875 79.60496094 78.6875 79.09960938 C77.03481257 77.81322136 75.46315163 76.42423269 73.90625 75.0234375 C73.90625 72.0234375 73.90625 72.0234375 74.90625 70.0234375 C75.65868473 63.95927806 75.69101963 57.78028756 75.8605957 51.67797852 C75.93218103 49.6314139 76.03430058 47.58566939 76.16821289 45.54223633 C77.24471282 34.19093367 77.24471282 34.19093367 73.32928467 23.95330811 C69.27189569 20.1574001 64.27913938 16.63666273 58.90625 15.0234375 C57.91625 15.3534375 56.92625 15.6834375 55.90625 16.0234375 C55.77957564 23.64044458 55.69195104 31.25718056 55.6315918 38.875 C55.60643245 41.46690013 55.57230149 44.05872922 55.52905273 46.65039062 C55.46846769 50.37387611 55.44005354 54.09642445 55.41796875 57.8203125 C55.39216232 58.98085144 55.3663559 60.14139038 55.33976746 61.33709717 C55.1532084 67.66848123 55.1532084 67.66848123 58.43676758 72.78613281 C59.25169678 73.19444336 60.06662598 73.60275391 60.90625 74.0234375 C59.34041404 78.06065311 56.46451135 80.49414332 53.28125 83.2734375 C52.5078125 83.96179688 52.5078125 83.96179688 51.71875 84.6640625 C50.4527898 85.78936046 49.18017058 86.90715927 47.90625 88.0234375 C43.94655824 86.35114049 40.8901299 83.66038756 37.65625 80.8984375 C36.82480469 80.19654297 36.82480469 80.19654297 35.9765625 79.48046875 C34.61677674 78.33168422 33.26109835 77.17804097 31.90625 76.0234375 C32.22633026 75.45629532 32.54641052 74.88915314 32.87619019 74.30482483 C33.96961686 71.88309192 34.23798321 70.16095167 34.38720703 67.52124023 C34.46444504 66.19351845 34.46444504 66.19351845 34.54324341 64.838974 C34.71323327 60.78414256 34.84334927 56.72994786 34.93603516 52.67260742 C34.99917618 50.54281207 35.09456193 48.41371302 35.22314453 46.28686523 C36.33219063 34.51912012 36.33219063 34.51912012 32.27770996 23.93292236 C27.97780226 20.03051689 23.16107584 17.42618381 17.90625 15.0234375 C15.92625 16.0134375 15.92625 16.0134375 13.90625 17.0234375 C13.75423196 24.49794483 13.64908975 31.97205433 13.57666016 39.44775391 C13.54646993 41.99119971 13.50551319 44.53454128 13.45361328 47.07763672 C13.38090256 50.73170669 13.34681469 54.38440166 13.3203125 58.0390625 C13.28934479 59.17772766 13.25837708 60.31639282 13.22647095 61.48956299 C12.99746131 66.95655213 12.99746131 66.95655213 15.28192139 71.65222168 C17.07971292 72.94237018 17.07971292 72.94237018 19.90625 74.0234375 C18.61202038 77.90612636 16.7137544 79.05079292 13.53125 81.5859375 C12.55414063 82.37097656 11.57703125 83.15601563 10.5703125 83.96484375 C8.73240676 85.38504364 6.83884067 86.73504372 4.90625 88.0234375 C3.89304688 87.20939453 3.89304688 87.20939453 2.859375 86.37890625 C1.96734375 85.66347656 1.0753125 84.94804687 0.15625 84.2109375 C-0.72546875 83.50324219 -1.6071875 82.79554688 -2.515625 82.06640625 C-4.68367929 80.34838748 -6.87103901 78.66969774 -9.09375 77.0234375 C-8.93240067 76.30728775 -8.77105133 75.591138 -8.60481262 74.85328674 C-8.1054589 72.08827187 -7.94742266 69.55214505 -7.91674805 66.74584961 C-7.89749519 65.20416359 -7.89749519 65.20416359 -7.87785339 63.6313324 C-7.87046646 62.53225052 -7.86307953 61.43316864 -7.85546875 60.30078125 C-7.847397 59.16314835 -7.83932526 58.02551544 -7.83100891 56.85340881 C-7.81720038 54.45201123 -7.80646383 52.05059428 -7.79858398 49.64916992 C-7.78129644 45.9708188 -7.73737185 42.29334953 -7.69335938 38.61523438 C-7.68323833 36.2812566 -7.67472039 33.9472712 -7.66796875 31.61328125 C-7.64170662 29.96162209 -7.64170662 29.96162209 -7.61491394 28.27659607 C-7.61930229 26.73963829 -7.61930229 26.73963829 -7.6237793 25.17163086 C-7.61791306 24.27181992 -7.61204681 23.37200897 -7.60600281 22.44493103 C-8.25830273 19.20649099 -9.48311665 17.99190422 -12.09375 16.0234375 C-15.78807511 16.16956645 -15.78807511 16.16956645 -19.09375 17.0234375 C-17.81116712 13.17568886 -16.01755914 12.13487086 -12.84375 9.6484375 C-9.81563878 7.26686894 -7.08918127 5.01844473 -4.484375 2.171875 C-2.09375 0.0234375 -2.09375 0.0234375 0 0 Z " fill="#F9F9F9" transform="translate(238.09375,374.9765625)"/>
<path d="M0 0 C0.99 0.33 1.98 0.66 3 1 C3.64857356 6.18858849 3.53131256 9.95490193 0.4375 14.3125 C-2.62386485 17.96286854 -5.72833783 19.94631627 -10 22 C-10.99 22.495 -10.99 22.495 -12 23 C-18.90189113 23.76968073 -23.36220549 23.05921205 -29 19 C-30.32 17.68 -31.64 16.36 -33 15 C-33 21.27 -33 27.54 -33 34 C-25.83156675 38.66886891 -25.83156675 38.66886891 -21 37 C-20.34 36.34 -19.68 35.68 -19 35 C-14.2627831 35.27561989 -10.42561767 37.73735028 -6.375 40 C-1.3375344 42.82283291 -1.3375344 42.82283291 4 45 C3.67 45.99 3.34 46.98 3 48 C2.91941418 49.44603881 2.89238015 50.89550173 2.90234375 52.34375 C2.90556641 53.17777344 2.90878906 54.01179688 2.91210938 54.87109375 C2.92048828 55.73863281 2.92886719 56.60617187 2.9375 57.5 C2.94201172 58.36753906 2.94652344 59.23507812 2.95117188 60.12890625 C2.95988856 61.74024825 2.9706578 63.35158137 2.98413086 64.96289062 C2.99721027 66.64188447 3 68.32095521 3 70 C1.99582031 70.4846875 0.99164063 70.969375 -0.04296875 71.46875 C-15.10963132 78.64871233 -15.10963132 78.64871233 -28.61328125 88.296875 C-31 90 -31 90 -33.0625 89.91015625 C-35.18374678 88.91368347 -37.04846018 87.73483045 -39 86.4375 C-44.49953844 83.26222573 -49.79518291 83.32240687 -56 84 C-56.99 84.495 -56.99 84.495 -58 85 C-57.67 87.64 -57.34 90.28 -57 93 C-60.875 92.125 -60.875 92.125 -62 91 C-62.8478214 85.15945256 -62.36626017 81.82782521 -59 76.9375 C-52.74141039 68.9782067 -45.27500232 62.01688269 -38 55 C-38.65374351 51.87179833 -38.65374351 51.87179833 -41.07421875 50.9375 C-41.93660156 50.628125 -42.79898437 50.31875 -43.6875 50 C-47.61156064 48.53621841 -51.29663822 46.94913778 -55 45 C-55 42.7942397 -54.98628101 40.58846862 -54.96484375 38.3828125 C-54.95555881 36.96354277 -54.94645036 35.54427188 -54.9375 34.125 C-54.92912109 33.41730469 -54.92074219 32.70960938 -54.91210938 31.98046875 C-54.89444468 28.18609178 -55.08176712 24.6873919 -56 21 C-54.99582031 20.57589844 -53.99164063 20.15179688 -52.95703125 19.71484375 C-41.41516128 14.78717308 -30.01442141 9.6854862 -20 2 C-17.46627181 3.16941301 -15.56661971 4.35083166 -13.375 6.125 C-8.83041945 8.64976697 -5.08372527 8.36168796 0 8 C-0.185625 6.865625 -0.37125 5.73125 -0.5625 4.5625 C-0.706875 3.386875 -0.85125 2.21125 -1 1 C-0.67 0.67 -0.34 0.34 0 0 Z " fill="#F8F8F8" transform="translate(468,372)"/>
<path d="M0 0 C3.51837651 0.89494864 5.45211475 3.50468156 7.58300781 6.24804688 C13.72223723 13.79568775 20.48575516 18.57672708 30.36181641 19.79443359 C32.79765837 19.93251542 35.20611755 19.95706515 37.64550781 19.93554688 C38.86850586 19.96551758 38.86850586 19.96551758 40.11621094 19.99609375 C45.51152941 19.99173213 48.7403557 19.17191366 52.95800781 15.49804688 C54.19250853 12.51304546 54.19250853 12.51304546 53.95800781 9.49804688 C52.54134115 7.91471354 52.54134115 7.91471354 50.95800781 6.49804688 C50.77050781 3.81054688 50.77050781 3.81054688 50.95800781 1.49804688 C53.27050781 0.81054688 53.27050781 0.81054688 55.95800781 0.49804688 C57.59863281 1.53710938 57.59863281 1.53710938 58.95800781 3.49804688 C60.56627102 15.45135446 57.92081668 24.416689 51.20800781 34.24804688 C43.88106684 43.81078234 34.59896551 48.58780745 22.95800781 51.49804688 C18.00800781 51.49804688 13.05800781 51.49804688 7.95800781 51.49804688 C7.95800781 97.03804687 7.95800781 142.57804687 7.95800781 189.49804688 C6.96800781 189.49804688 5.97800781 189.49804688 4.95800781 189.49804688 C4.95800781 143.62804687 4.95800781 97.75804687 4.95800781 50.49804688 C2.31800781 50.16804688 -0.32199219 49.83804688 -3.04199219 49.49804688 C-3.04199219 48.83804688 -3.04199219 48.17804688 -3.04199219 47.49804688 C-4.30011719 47.33304688 -5.55824219 47.16804688 -6.85449219 46.99804688 C-16.64398172 44.80890118 -24.06099387 37.17332117 -30.04199219 29.49804688 C-33.90417877 30.02501188 -35.99312987 30.92360513 -38.85449219 33.56054688 C-39.4590625 34.10839844 -40.06363281 34.65625 -40.68652344 35.22070312 C-41.35748047 35.85298828 -41.35748047 35.85298828 -42.04199219 36.49804688 C-43.36199219 35.50804687 -44.68199219 34.51804688 -46.04199219 33.49804688 C-45.14738281 32.80839844 -44.25277344 32.11875 -43.33105469 31.40820312 C-36.8404286 26.37465636 -30.53855176 21.25922045 -24.48730469 15.69726562 C-20.1472669 11.7940048 -15.59138205 8.15293305 -11.04199219 4.49804688 C-9.89150391 3.37849609 -9.89150391 3.37849609 -8.71777344 2.23632812 C-5.59027893 0.20459811 -3.67656835 -0.19668174 0 0 Z " fill="#F3F3F3" transform="translate(182.0419921875,88.501953125)"/>
<path d="M0 0 C0.99 0.33 1.98 0.66 3 1 C3.62272262 12.65875128 3.62272262 12.65875128 1.375 17.5 C-6.51839626 25.80883817 -6.51839626 25.80883817 -12.00537109 26.11010742 C-13.12806396 26.10781128 -13.12806396 26.10781128 -14.2734375 26.10546875 C-15.5109375 26.12770508 -15.5109375 26.12770508 -16.7734375 26.15039062 C-18.49983223 26.17501638 -20.22661459 26.18040321 -21.953125 26.16601562 C-26.60794183 26.24011609 -26.60794183 26.24011609 -30.68945312 28.2265625 C-34.16383294 32.13337586 -34.87358699 35.20778395 -34.6171875 40.22265625 C-32.98394902 47.57222939 -27.88935888 53.7120234 -23.6875 59.8125 C-19.84814058 65.49475194 -18.18477174 71.12879039 -19 78 C-21.52444073 85.37371525 -25.19357705 90.19493329 -32 94 C-36.24478773 96.05974017 -40.21714522 97.44839264 -45 97 C-44.71125 96.443125 -44.4225 95.88625 -44.125 95.3125 C-41.20854397 89.3175626 -39.76224139 84.34762712 -41.625 77.8046875 C-43.91015148 71.62253663 -47.10623714 65.85732968 -50.26953125 60.08959961 C-53.05990634 54.99942825 -54.17038235 51.4238186 -54.25 45.625 C-54.27578125 44.50351562 -54.3015625 43.38203125 -54.328125 42.2265625 C-53.67794636 35.83313921 -49.74185962 32.48441391 -45.07421875 28.515625 C-42.52325503 26.65164398 -40.07461387 25.69178812 -37 25 C-38.32 24.67 -39.64 24.34 -41 24 C-41 23.34 -41 22.68 -41 22 C-41.94875 22.04125 -42.8975 22.0825 -43.875 22.125 C-46.85560175 22.13680436 -49.42335575 21.7110199 -52.3125 21 C-57.26174077 19.94324967 -62.08320058 19.74106493 -67.125 19.6875 C-68.2528894 19.66139648 -68.2528894 19.66139648 -69.40356445 19.63476562 C-76.11163628 19.64064281 -81.39612999 21.20983937 -87 25.0625 C-89.88087309 29.29378235 -89.4343096 33.02956793 -89 38 C-89.99 37.67 -90.98 37.34 -92 37 C-92.86775478 27.20401268 -90.71758456 18.45654644 -84.625 10.5625 C-77.38239957 3.49234244 -72.2701769 1.73926901 -62.12915039 1.67431641 C-50.95214299 1.83997496 -39.09106639 3.78597709 -28.421875 7.1171875 C-23.99290021 8.25982255 -19.86510134 8.2924485 -15.3125 8.25 C-14.05083008 8.26160156 -14.05083008 8.26160156 -12.76367188 8.2734375 C-11.95091797 8.27085937 -11.13816406 8.26828125 -10.30078125 8.265625 C-9.20503784 8.26224121 -9.20503784 8.26224121 -8.0871582 8.25878906 C-5.63777934 7.95508786 -4.06719491 7.34670315 -2 6 C-0.70768358 2.95800528 -0.70768358 2.95800528 0 0 Z " fill="#F8F8F8" transform="translate(177,354)"/>
<path d="M0 0 C1.65696234 2.4854435 2.47983243 4.0907591 3.3671875 6.84375 C3.61090088 7.58955322 3.85461426 8.33535645 4.10571289 9.10375977 C4.35957764 9.89451904 4.61344238 10.68527832 4.875 11.5 C6.52364693 16.55475248 8.17920613 21.58906681 10.0625 26.5625 C11.99944004 31.78661213 13.55373483 37.10405673 15.07446289 42.46118164 C16.85977989 48.70567059 18.91781259 54.84896365 21 61 C22.58603728 65.68659381 24.16919112 70.37414011 25.75 75.0625 C26.16121094 76.27099609 26.57242188 77.47949219 26.99609375 78.72460938 C27.38410156 79.87896484 27.77210938 81.03332031 28.171875 82.22265625 C28.6992627 83.78125366 28.6992627 83.78125366 29.23730469 85.37133789 C30 88 30 88 30 91 C9.54 91 -10.92 91 -32 91 C-31.32384413 86.2669089 -30.8384421 83.02400932 -29.2578125 78.75 C-28.91363281 77.8115625 -28.56945312 76.873125 -28.21484375 75.90625 C-27.85519531 74.9471875 -27.49554688 73.988125 -27.125 73 C-26.77308594 72.0409375 -26.42117188 71.081875 -26.05859375 70.09375 C-24.61018546 66.17389411 -23.13093098 62.30041018 -21.4609375 58.46875 C-19.53483594 53.89554629 -18.02831792 49.21843132 -16.5 44.5 C-13.21020284 34.34328998 -13.21020284 34.34328998 -11.375 30.15234375 C-10.19993533 27.45837445 -9.28925706 24.88597317 -8.5 22.0625 C-6.2720839 14.42063233 -3.30056274 7.23778226 0 0 Z " fill="#040404" transform="translate(352,144)"/>
<path d="M0 0 C3.62032767 1.45929943 5.19712518 3.26912809 7.3828125 6.46484375 C7.99253906 7.34720703 8.60226562 8.22957031 9.23046875 9.13867188 C9.85566406 10.06228516 10.48085938 10.98589844 11.125 11.9375 C11.75792969 12.85724609 12.39085937 13.77699219 13.04296875 14.72460938 C20 24.84997014 20 24.84997014 20 28 C17.87771416 29.4828198 15.81650594 30.74603247 13.5625 32 C12.19355752 32.78732098 10.82644196 33.57782493 9.4609375 34.37109375 C8.37570801 35.00120361 8.37570801 35.00120361 7.26855469 35.64404297 C2.56739723 38.4540116 -1.98083395 41.50993105 -6.53881836 44.54492188 C-11.78878238 48 -11.78878238 48 -14 48 C-14 53.61 -14 59.22 -14 65 C-12.02 65.66 -10.04 66.32 -8 67 C-5.69556683 68.01311071 -3.40375409 69.05538074 -1.125 70.125 C0.02742188 70.66382813 1.17984375 71.20265625 2.3671875 71.7578125 C3.23601562 72.16773438 4.10484375 72.57765625 5 73 C8.57287561 70.16980078 11.85644352 67.5519286 14.25 63.625 C14.8275 62.75875 15.405 61.8925 16 61 C16.99 61 17.98 61 19 61 C17.69484881 68.45092643 10.49061032 73.54797994 5 78.19140625 C1.68984864 81.18476578 -1.15129422 84.57265086 -4 88 C-7.4923779 87.42673297 -10.22456828 86.54656326 -13.328125 84.85546875 C-14.52888672 84.21061523 -14.52888672 84.21061523 -15.75390625 83.55273438 C-16.57761719 83.10220703 -17.40132813 82.65167969 -18.25 82.1875 C-24.39875767 78.84834213 -30.5602905 75.74316154 -37 73 C-36.67 72.01 -36.34 71.02 -36 70 C-35.91284334 68.40492591 -35.88232459 66.80643247 -35.88647461 65.20898438 C-35.88655014 64.2378772 -35.88662567 63.26677002 -35.88670349 62.26623535 C-35.89186478 61.21931519 -35.89702606 60.17239502 -35.90234375 59.09375 C-35.9037587 58.01750366 -35.90517365 56.94125732 -35.90663147 55.83239746 C-35.91223399 52.38823686 -35.92477948 48.94414097 -35.9375 45.5 C-35.94251533 43.17838636 -35.94707818 40.8567717 -35.95117188 38.53515625 C-35.96101516 33.42368739 -35.97523423 28.31225192 -35.99327087 23.20080566 C-35.99857147 21.46721043 -36 19.73360334 -36 18 C-35.41661865 17.78230957 -34.8332373 17.56461914 -34.23217773 17.34033203 C-27.24418806 14.64889577 -20.67438776 11.37917262 -14.0625 7.875 C-13.03576172 7.33746094 -12.00902344 6.79992187 -10.95117188 6.24609375 C-5.36430745 3.31294426 -5.36430745 3.31294426 0 0 Z " fill="#F6F6F6" transform="translate(386,375)"/>
<path d="M0 0 C4 0 4 0 5.921875 1.734375 C6.60765625 2.48203125 7.2934375 3.2296875 8 4 C9.73226184 5.43830225 11.48280295 6.85484444 13.25 8.25 C14.14203125 8.95640625 15.0340625 9.6628125 15.953125 10.390625 C16.62859375 10.92171875 17.3040625 11.4528125 18 12 C17.67 12.66 17.34 13.32 17 14 C16.88194823 15.5107757 16.82303551 17.02638831 16.79467773 18.54150391 C16.77473251 19.48232819 16.75478729 20.42315247 16.73423767 21.39248657 C16.70916893 22.91910416 16.70916893 22.91910416 16.68359375 24.4765625 C16.66281265 25.51694672 16.64203156 26.55733093 16.62062073 27.62924194 C16.55510128 30.96109249 16.49622908 34.2930235 16.4375 37.625 C16.39431706 39.88021674 16.35070285 42.13542527 16.30664062 44.390625 C16.19941748 49.92699764 16.09765554 55.46345078 16 61 C22.35318894 63.75790043 22.35318894 63.75790043 29 63 C25.41157029 66.69495081 21.66828129 70.04758217 17.6875 73.3125 C16.86282227 73.9940918 16.86282227 73.9940918 16.02148438 74.68945312 C14.68287784 75.79525852 13.34170769 76.89795939 12 78 C7.27156386 76.42686828 3.6566157 73.79358765 -0.3125 70.875 C-1.28026367 70.17310547 -1.28026367 70.17310547 -2.26757812 69.45703125 C-3.84848894 68.3094071 -5.42472301 67.15534523 -7 66 C-6.67 65.01 -6.34 64.02 -6 63 C-5.89403304 61.49736757 -5.84149875 59.99062562 -5.82299805 58.484375 C-5.80374519 57.11780762 -5.80374519 57.11780762 -5.78410339 55.72363281 C-5.77671646 54.74233398 -5.76932953 53.76103516 -5.76171875 52.75 C-5.753647 51.7403418 -5.74557526 50.73068359 -5.73725891 49.69042969 C-5.72343002 47.55535597 -5.71270252 45.42026025 -5.70483398 43.28515625 C-5.68756648 40.01260011 -5.64366322 36.74104007 -5.59960938 33.46875 C-5.58948712 31.39584077 -5.58096956 29.32292295 -5.57421875 27.25 C-5.55671066 26.26870117 -5.53920258 25.28740234 -5.52116394 24.27636719 C-5.52408951 23.36532227 -5.52701508 22.45427734 -5.5300293 21.515625 C-5.52416306 20.71415039 -5.51829681 19.91267578 -5.51225281 19.08691406 C-5.84303677 16.83450826 -5.84303677 16.83450826 -7.82624817 15.19824219 C-10.83627154 13.53902013 -12.74959841 14.1873996 -16 15 C-14.93261837 11.79785512 -14.43506653 11.28971025 -11.875 9.3359375 C-11.25109375 8.85382813 -10.6271875 8.37171875 -9.984375 7.875 C-9.32953125 7.38 -8.6746875 6.885 -8 6.375 C-6.70806586 5.3831608 -5.41638595 4.39099034 -4.125 3.3984375 C-3.09375 2.60695313 -2.0625 1.81546875 -1 1 C-0.67 0.67 -0.34 0.34 0 0 Z " fill="#F5F5F5" transform="translate(195,385)"/>
<path d="M0 0 C-0.65226562 0.29132813 -1.30453125 0.58265625 -1.9765625 0.8828125 C-7.72850978 3.58062848 -11.87899976 6.13933305 -16 11 C-18.57272207 18.71816622 -17.84710111 26.00514837 -14.33178711 33.23950195 C-12.95713318 35.8737124 -11.53473146 38.47633267 -10.07617188 41.06494141 C-8.9434565 43.10167054 -7.85806582 45.15558164 -6.796875 47.23046875 C-6.47557617 47.85719482 -6.15427734 48.4839209 -5.82324219 49.12963867 C-3.85568207 53.5998279 -3.46922753 58.1578652 -4 63 C-5.56435288 67.0226217 -6.38723663 68.59149109 -10 71 C-14.5337769 71.8749394 -16.6571804 71.86732269 -20.5703125 69.33984375 C-26.49769685 64.32368416 -30.22395877 59.22498067 -33 52 C-33.433125 50.88625 -33.86625 49.7725 -34.3125 48.625 C-36.69218285 36.07758134 -34.09486007 24.5306884 -26.94921875 13.96875 C-20.91147605 6.84785985 -9.99025516 -2.9120531 0 0 Z " fill="#080808" transform="translate(141,379)"/>
<path d="M0 0 C5.14463639 0.46769422 8.0271485 2.51357425 13 5 C13.495 17.375 13.495 17.375 14 30 C10.7 31.98 7.4 33.96 4 36 C3.05125 36.804375 2.1025 37.60875 1.125 38.4375 C-1 40 -1 40 -2.8828125 39.7578125 C-5.20258468 38.92748814 -6.95059485 37.79988865 -9 36.4375 C-14.49953844 33.26222573 -19.79518291 33.32240687 -26 34 C-26.99 34.495 -26.99 34.495 -28 35 C-27.67 37.64 -27.34 40.28 -27 43 C-30.875 42.125 -30.875 42.125 -32 41 C-32.8478214 35.15945256 -32.36626017 31.82782521 -29 26.9375 C-24.29467268 20.92797869 -18.80990213 15.64681502 -13.28515625 10.39428711 C-12.60324219 9.73823486 -11.92132813 9.08218262 -11.21875 8.40625 C-10.59935547 7.82166016 -9.97996094 7.23707031 -9.34179688 6.63476562 C-7.68277802 4.96600188 -7.68277802 4.96600188 -8 2 C-7.34 2 -6.68 2 -6 2 C-6 2.66 -6 3.32 -6 4 C-2.81765895 2.24545615 -2.81765895 2.24545615 0 0 Z " fill="#F6F6F6" transform="translate(438,422)"/>
<path d="M0 0 C0 22.77 0 45.54 0 69 C-12.72680071 73.62792753 -12.72680071 73.62792753 -19.5625 73.375 C-20.25923828 73.37371094 -20.95597656 73.37242187 -21.67382812 73.37109375 C-26.71677956 73.28322044 -26.71677956 73.28322044 -29 71 C-27.71416016 70.54560547 -27.71416016 70.54560547 -26.40234375 70.08203125 C-14.12665713 65.74079119 -14.12665713 65.74079119 -6.0625 56.125 C-2.77009392 48.72253732 -3.75517921 43.29654019 -6.58984375 35.91015625 C-8.60569327 31.75002358 -11.24318779 28.22697288 -14.09765625 24.60546875 C-17.9482869 19.33160706 -19.72900256 14.98720314 -19.453125 8.484375 C-17.43505776 -2.58020055 -10.58902483 -0.81454037 0 0 Z " fill="#090909" transform="translate(161,381)"/>
<path d="M0 0 C2.43633448 1.6647791 3.72188901 3.39959423 5.38720703 5.83447266 C5.99693359 6.71683594 6.60666016 7.59919922 7.23486328 8.50830078 C8.17265625 9.8937207 8.17265625 9.8937207 9.12939453 11.30712891 C9.76232422 12.226875 10.39525391 13.14662109 11.04736328 14.09423828 C18.00439453 24.21959905 18.00439453 24.21959905 18.00439453 27.36962891 C15.56996532 29.08439109 13.20367075 30.58443622 10.62939453 32.05712891 C9.93072266 32.47285156 9.23205078 32.88857422 8.51220703 33.31689453 C3.2989989 36.36962891 3.2989989 36.36962891 1.00439453 36.36962891 C-0.3684082 34.68896484 -0.3684082 34.68896484 -1.92919922 32.35400391 C-2.49574219 31.51482422 -3.06228516 30.67564453 -3.64599609 29.81103516 C-4.23574219 28.92287109 -4.82548828 28.03470703 -5.43310547 27.11962891 C-6.59777941 25.38479005 -7.76312138 23.65039944 -8.92919922 21.91650391 C-9.44538818 21.14145508 -9.96157715 20.36640625 -10.4934082 19.56787109 C-11.5094649 18.0810233 -12.57661634 16.62804135 -13.68725586 15.21044922 C-14.99560547 13.36962891 -14.99560547 13.36962891 -14.99560547 11.36962891 C-16.64560547 11.03962891 -18.29560547 10.70962891 -19.99560547 10.36962891 C-16.51302428 7.62709622 -12.80242612 5.3149399 -8.99560547 3.05712891 C-8.37943359 2.67234375 -7.76326172 2.28755859 -7.12841797 1.89111328 C-2.55037276 -0.80561077 -2.55037276 -0.80561077 0 0 Z " fill="#F6F6F6" transform="translate(387.99560546875,375.63037109375)"/>
<path d="M0 0 C0.99 0.33 1.98 0.66 3 1 C3.64857356 6.18858849 3.53131256 9.95490193 0.4375 14.3125 C-2.62386485 17.96286854 -5.72833783 19.94631627 -10 22 C-10.66 22.33 -11.32 22.66 -12 23 C-18.90189113 23.76968073 -23.36220549 23.05921205 -29 19 C-30.32 17.68 -31.64 16.36 -33 15 C-33.33 20.94 -33.66 26.88 -34 33 C-34.33 33 -34.66 33 -35 33 C-35 26.73 -35 20.46 -35 14 C-35.99 13.67 -36.98 13.34 -38 13 C-37.28714844 12.62488281 -36.57429688 12.24976563 -35.83984375 11.86328125 C-30.26424715 8.88412667 -25.04428098 5.81123452 -20 2 C-17.46627181 3.16941301 -15.56661971 4.35083166 -13.375 6.125 C-8.83041945 8.64976697 -5.08372527 8.36168796 0 8 C-0.185625 6.865625 -0.37125 5.73125 -0.5625 4.5625 C-0.706875 3.386875 -0.85125 2.21125 -1 1 C-0.67 0.67 -0.34 0.34 0 0 Z " fill="#F3F3F3" transform="translate(468,372)"/>
<path d="M0 0 C3.28671838 1.13290476 6.46988361 2.54924421 9.6652832 3.91870117 C9.6652832 11.83870117 9.6652832 19.75870117 9.6652832 27.91870117 C5.6652832 25.91870117 5.6652832 25.91870117 3.7980957 24.62963867 C-3.62931328 19.68766616 -11.66058523 19.90221236 -20.2565918 21.44213867 C-20.94237305 21.5994043 -21.6281543 21.75666992 -22.3347168 21.91870117 C-19.97084957 16.49399776 -15.62300705 12.75861427 -11.5222168 8.60620117 C-10.71461914 7.75735352 -9.90702148 6.90850586 -9.07495117 6.03393555 C-8.28797852 5.23665039 -7.50100586 4.43936523 -6.69018555 3.61791992 C-5.61740356 2.51710083 -5.61740356 2.51710083 -4.52294922 1.39404297 C-2.3347168 -0.08129883 -2.3347168 -0.08129883 0 0 Z " fill="#0E0E0E" transform="translate(440.334716796875,422.081298828125)"/>
<path d="M0 0 C0.515625 0.70125 1.03125 1.4025 1.5625 2.125 C5.31329601 6.54901581 8.70244762 10.41516849 14.4375 11.875 C15.283125 11.91625 16.12875 11.9575 17 12 C15.87688937 16.77322016 13.14726832 19.10852521 9.28515625 21.828125 C5.48822786 23.77526776 2.13973103 23.7819492 -2 23 C-5.16813504 21.76794748 -7.28632729 20.83261817 -9.5 18.25 C-9.995 17.8375 -10.49 17.425 -11 17 C-14.14921909 17.23283149 -14.14921909 17.23283149 -17 18 C-16.50187156 13.85519543 -14.39006383 12.2168413 -11.3125 9.5625 C-10.41402344 8.78132813 -9.51554688 8.00015625 -8.58984375 7.1953125 C-7.73519531 6.47085937 -6.88054687 5.74640625 -6 5 C-5.01193359 4.16082031 -5.01193359 4.16082031 -4.00390625 3.3046875 C-2.67840217 2.1921541 -1.34091766 1.09390651 0 0 Z " fill="#F3F3F3" transform="translate(199,358)"/>
<path d="M0 0 C0.144375 0.598125 0.28875 1.19625 0.4375 1.8125 C0.8872439 3.56150404 1.42892341 5.28677023 2 7 C0.67822568 12.68670346 -1.17136443 18.35539555 -3.5625 23.6875 C-4.75653212 26.43896532 -5.619572 29.00345707 -6.4375 31.875 C-7.38793382 35.16686715 -8.48122155 38.2122197 -9.9375 41.3125 C-11.58070548 44.85314275 -12.77307844 48.3802956 -13.875 52.125 C-15.49864617 57.5921211 -17.46727259 62.82522357 -19.63476562 68.09838867 C-22.70906236 75.62944279 -25.34662236 83.31273215 -28 91 C-28.99 91 -29.98 91 -31 91 C-32 89 -32 89 -30.8125 85.31640625 C-30.21576235 83.72895832 -29.61097987 82.14452097 -29 80.5625 C-28.34232976 78.81905498 -27.68478089 77.07556418 -27.02734375 75.33203125 C-26.68815918 74.44080566 -26.34897461 73.54958008 -25.99951172 72.63134766 C-24.49825456 68.67908835 -23.02658329 64.71615814 -21.5625 60.75 C-21.13094604 59.58210938 -21.13094604 59.58210938 -20.69067383 58.390625 C-18.1089919 51.36765338 -15.65275307 44.30321372 -13.20922852 37.23120117 C-10.35734337 28.98989421 -7.43788438 20.7734297 -4.5 12.5625 C-4.16154556 11.61650436 -4.16154556 11.61650436 -3.81625366 10.65139771 C-2.54548305 7.10046033 -1.27333746 3.55001767 0 0 Z " fill="#E7E7E7" transform="translate(349,140)"/>
<path d="M0 0 C4.27454813 4.27454813 7.45611456 8.2046913 10.8125 13.125 C11.31458984 13.84042969 11.81667969 14.55585938 12.33398438 15.29296875 C13.04458008 16.32744141 13.04458008 16.32744141 13.76953125 17.3828125 C14.19854736 18.00559082 14.62756348 18.62836914 15.06958008 19.27001953 C16 21 16 21 16 24 C13.5445853 25.71081241 11.15415488 27.21427461 8.5625 28.6875 C7.85544922 29.10322266 7.14839844 29.51894531 6.41992188 29.94726562 C1.18165025 33 1.18165025 33 0 33 C0 22.11 0 11.22 0 0 Z " fill="#080808" transform="translate(372,388)"/>
<path d="M0 0 C0.144375 0.598125 0.28875 1.19625 0.4375 1.8125 C0.8872439 3.56150404 1.42892341 5.28677023 2 7 C0.67822568 12.68670346 -1.17136443 18.35539555 -3.5625 23.6875 C-5.44134666 28.01701621 -6.71343333 32.4650806 -8 37 C-9.32 36.34 -10.64 35.68 -12 35 C-11.82476807 34.4750293 -11.64953613 33.95005859 -11.46899414 33.40917969 C-10.05664862 29.17537716 -8.64838648 24.94026849 -7.24609375 20.703125 C-6.64324098 18.88541275 -6.0403763 17.06770445 -5.4375 15.25 C-5.13392578 14.33089844 -4.83035156 13.41179687 -4.51757812 12.46484375 C-4.22173828 11.57410156 -3.92589844 10.68335938 -3.62109375 9.765625 C-3.3573999 8.96930664 -3.09370605 8.17298828 -2.82202148 7.35253906 C-1.95427025 4.86912627 -0.99386176 2.43537981 0 0 Z " fill="#D7D7D7" transform="translate(349,140)"/>
<path d="M0 0 C0.33 0.66 0.66 1.32 1 2 C1.99 1.67 2.98 1.34 4 1 C1.33333333 9 -1.33333333 17 -4 25 C-4.99 25 -5.98 25 -7 25 C-7.66 25.33 -8.32 25.66 -9 26 C-7.29672706 19.93531605 -5.31597994 14.09849149 -2.91796875 8.2734375 C-1.81982162 5.553771 -0.88305139 2.79632939 0 0 Z " fill="#DCDCDC" transform="translate(306,260)"/>
<path d="M0 0 C0.99 0.495 0.99 0.495 2 1 C2 11.56 2 22.12 2 33 C6.29 30.36 10.58 27.72 15 25 C15.66 25 16.32 25 17 25 C17.33 24.34 17.66 23.68 18 23 C18.33 23.99 18.66 24.98 19 26 C16.40643371 27.70424172 13.79864964 29.38534714 11.1875 31.0625 C10.44951172 31.54783203 9.71152344 32.03316406 8.95117188 32.53320312 C8.23896484 32.98759766 7.52675781 33.44199219 6.79296875 33.91015625 C6.1383667 34.33433838 5.48376465 34.75852051 4.80932617 35.19555664 C3 36 3 36 0 35 C0 23.45 0 11.9 0 0 Z " fill="#A1A1A1" transform="translate(371,387)"/>
<path d="M0 0 C1.47192444 3.86851935 0.48854933 6.52472708 -0.75 10.375 C-1.09546875 11.47585937 -1.4409375 12.57671875 -1.796875 13.7109375 C-2.98278858 16.95294799 -4.39496874 19.94675089 -6 23 C-6.99 23 -7.98 23 -9 23 C-7.84672731 15.2197126 -5.60516769 8.01389997 -2 1 C-1.34 0.67 -0.68 0.34 0 0 Z " fill="#E0E0E0" transform="translate(339,174)"/>
<path d="M0 0 C0.66 0.33 1.32 0.66 2 1 C-0.31 3.31 -2.62 5.62 -5 8 C-4.34 8.66 -3.68 9.32 -3 10 C-7 12.66666667 -11 15.33333333 -15 18 C-15.99 17.01 -16.98 16.02 -18 15 C-17.03578125 14.25234375 -16.0715625 13.5046875 -15.078125 12.734375 C-13.80197191 11.73972627 -12.52593644 10.74492663 -11.25 9.75 C-10.61578125 9.25886719 -9.9815625 8.76773438 -9.328125 8.26171875 C-6.01312568 5.67187553 -2.89407236 3.06947068 0 0 Z " fill="#D6D6D6" transform="translate(154,107)"/>
<path d="M0 0 C0.99 0.33 1.98 0.66 3 1 C2.35125916 1.55407532 1.70251831 2.10815063 1.03411865 2.67901611 C-1.37616045 5.42920915 -1.51030843 6.54115111 -1.54589844 10.13574219 C-1.56561707 11.15649841 -1.58533569 12.17725464 -1.60565186 13.22894287 C-1.60688049 14.32386047 -1.60810913 15.41877808 -1.609375 16.546875 C-1.62591125 17.6732135 -1.64244751 18.799552 -1.65948486 19.96002197 C-1.7080613 23.55673625 -1.72935809 27.15302742 -1.75 30.75 C-1.77815147 33.18882348 -1.80807773 35.62762717 -1.83984375 38.06640625 C-1.91382293 44.04419377 -1.96540894 50.02186183 -2 56 C-2.33 56 -2.66 56 -3 56 C-3.07593983 48.5069832 -3.12855332 41.01406529 -3.16479492 33.52075195 C-3.17990005 30.97058402 -3.20038533 28.42044214 -3.22631836 25.87036133 C-3.26262504 22.20908181 -3.27970915 18.54814515 -3.29296875 14.88671875 C-3.30845261 13.7428923 -3.32393646 12.59906586 -3.33988953 11.420578 C-3.34011612 10.35970474 -3.34034271 9.29883148 -3.34057617 8.20581055 C-3.34723801 7.27093307 -3.35389984 6.3360556 -3.36076355 5.37284851 C-2.93775161 2.59057391 -2.16798187 1.72216628 0 0 Z " fill="#343434" transform="translate(254,389)"/>
<path d="M0 0 C0.99 0.33 1.98 0.66 3 1 C2.27087654 1.5842852 2.27087654 1.5842852 1.52702332 2.18037415 C-0.49139588 4.58555533 -0.39464876 5.99798799 -0.43237305 9.11401367 C-0.45216721 10.15486618 -0.47196136 11.19571869 -0.49235535 12.26811218 C-0.49874527 13.39006485 -0.50513519 14.51201752 -0.51171875 15.66796875 C-0.52966995 16.81791824 -0.54762115 17.96786774 -0.56611633 19.15266418 C-0.62036261 22.83090532 -0.65416171 26.50901564 -0.6875 30.1875 C-0.72066034 32.67905472 -0.75514878 35.17059215 -0.79101562 37.66210938 C-0.87609735 43.77462228 -0.94438656 49.88715182 -1 56 C-1.33 56 -1.66 56 -2 56 C-2.05057791 48.34622001 -2.08568184 40.69248287 -2.10986328 33.03857422 C-2.11994064 30.43308909 -2.1336027 27.82761531 -2.15087891 25.22216797 C-2.17505102 21.48402101 -2.1864656 17.74602315 -2.1953125 14.0078125 C-2.20563507 12.83695099 -2.21595764 11.66608948 -2.22659302 10.45974731 C-2.22674408 9.37877777 -2.22689514 8.29780823 -2.22705078 7.18408203 C-2.231492 6.22921906 -2.23593323 5.27435608 -2.24050903 4.29055786 C-2 2 -2 2 0 0 Z " fill="#141414" transform="translate(295,389)"/>
<path d="M0 0 C0.66 0 1.32 0 2 0 C2 0.66 2 1.32 2 2 C2.66 2.33 3.32 2.66 4 3 C3.54560547 3.43868408 3.09121094 3.87736816 2.62304688 4.3293457 C0.57425281 6.31588795 -1.46291556 8.31395499 -3.5 10.3125 C-4.21542969 11.00279297 -4.93085938 11.69308594 -5.66796875 12.40429688 C-6.34472656 13.07138672 -7.02148438 13.73847656 -7.71875 14.42578125 C-8.34716797 15.03848877 -8.97558594 15.65119629 -9.62304688 16.2824707 C-11.31275311 18.02321925 -11.31275311 18.02321925 -11 21 C-12.65 20.67 -14.3 20.34 -16 20 C-11.63372818 14.71451306 -6.94817747 9.95667595 -1.9765625 5.234375 C0.33128694 3.1226947 0.33128694 3.1226947 0 0 Z " fill="#D6D6D6" transform="translate(430,424)"/>
<path d="M0 0 C0 3 0 3 -1.96875 5.15625 C-3.65625 6.71875 -5.34375 8.28125 -7.03125 9.84375 C-9.33713468 11.88260489 -9.33713468 11.88260489 -9 15 C-10.8984375 16.60546875 -10.8984375 16.60546875 -13.375 18.1875 C-14.18710938 18.71730469 -14.99921875 19.24710937 -15.8359375 19.79296875 C-18 21 -18 21 -20 21 C-18.62988629 17.83503732 -17.16199632 16.04605437 -14.5 13.875 C-9.36862079 9.54539879 -4.7007809 4.78747563 0 0 Z " fill="#303030" transform="translate(137,280)"/>
<path d="M0 0 C0.99 0 1.98 0 3 0 C2.40762384 3.57026711 1.02819396 5.45816451 -1.375 8.125 C-1.98085938 8.80820312 -2.58671875 9.49140625 -3.2109375 10.1953125 C-5 12 -5 12 -8 14 C-10.6875 13.625 -10.6875 13.625 -13 13 C-12.46375 12.79375 -11.9275 12.5875 -11.375 12.375 C-7.04755053 9.86963452 -3.83420022 6.42123001 -1.3125 2.125 C-0.879375 1.42375 -0.44625 0.7225 0 0 Z " fill="#BFBFBF" transform="translate(402,436)"/>
<path d="M0 0 C2.35159273 3.31989562 2.0349019 6.04201669 1.42578125 9.9609375 C0.84748315 12.7304018 -0.00755995 15.3534932 -1 18 C-2.32 17.34 -3.64 16.68 -5 16 C-4.80664062 15.43152344 -4.61328125 14.86304688 -4.4140625 14.27734375 C-2.81863577 9.54635062 -1.33099414 4.81205575 0 0 Z " fill="#CDCDCD" transform="translate(342,159)"/>
<path d="M0 0 C0.66 0.33 1.32 0.66 2 1 C1.43410156 1.38027344 0.86820313 1.76054688 0.28515625 2.15234375 C-3.77641636 5.4144504 -6.11511068 8.08098645 -6.75390625 13.31640625 C-7.05625397 17.54705448 -7.07707883 21.76066417 -7 26 C-7.33 26 -7.66 26 -8 26 C-10.33452915 10.05022422 -10.33452915 10.05022422 -7.0625 5.0234375 C-4.79612617 3.07577249 -2.60751539 1.45370254 0 0 Z " fill="#3A3A3A" transform="translate(141,123)"/>
<path d="M0 0 C0.66 0.33 1.32 0.66 2 1 C-3.61 6.61 -9.22 12.22 -15 18 C-15.66 17.67 -16.32 17.34 -17 17 C-15.29657414 15.09955869 -13.58752883 13.20471126 -11.875 11.3125 C-11.400625 10.78205078 -10.92625 10.25160156 -10.4375 9.70507812 C-7.18500869 6.12294242 -3.77952775 3.02250068 0 0 Z " fill="#D6D6D6" transform="translate(127,103)"/>
<path d="M0 0 C0.66 0.33 1.32 0.66 2 1 C1.4225 1.54269531 0.845 2.08539063 0.25 2.64453125 C-0.4925 3.35996094 -1.235 4.07539063 -2 4.8125 C-2.7425 5.52019531 -3.485 6.22789062 -4.25 6.95703125 C-6.32527608 8.93139369 -6.32527608 8.93139369 -6 12 C-7.98 12.66 -9.96 13.32 -12 14 C-11.53122115 9.73215918 -9.14980148 8.01936065 -6 5.3125 C-5.0925 4.52488281 -4.185 3.73726563 -3.25 2.92578125 C-2.5075 2.29027344 -1.765 1.65476562 -1 1 C-0.67 0.67 -0.34 0.34 0 0 Z " fill="#C9C9C9" transform="translate(194,362)"/>
<path d="M0 0 C0.66 0.33 1.32 0.66 2 1 C1.01 3.97 0.02 6.94 -1 10 C-1.99 10 -2.98 10 -4 10 C-4.33 9.34 -4.66 8.68 -5 8 C-2.51612903 1.25806452 -2.51612903 1.25806452 0 0 Z " fill="#CFCFCF" transform="translate(331,196)"/>
<path d="M0 0 C2.35119399 3.52679099 2.21443452 5.02879485 2.125 9.1875 C2.10695313 10.27417969 2.08890625 11.36085938 2.0703125 12.48046875 C2.03550781 13.72763672 2.03550781 13.72763672 2 15 C1.01 14.67 0.02 14.34 -1 14 C-1.02705729 12.22925083 -1.04642195 10.45838289 -1.0625 8.6875 C-1.07410156 7.70136719 -1.08570312 6.71523438 -1.09765625 5.69921875 C-1 3 -1 3 0 0 Z " fill="#D1D1D1" transform="translate(86,377)"/>
<path d="M0 0 C-0.68707031 0.33773438 -1.37414062 0.67546875 -2.08203125 1.0234375 C-2.98308594 1.46945312 -3.88414062 1.91546875 -4.8125 2.375 C-6.15248047 3.03628906 -6.15248047 3.03628906 -7.51953125 3.7109375 C-10.14556381 5.01866905 -10.14556381 5.01866905 -13 7 C-13 6.34 -13 5.68 -13 5 C-13.66 4.67 -14.32 4.34 -15 4 C-10.09898364 0.82875412 -5.81668157 -1.75125897 0 0 Z " fill="#474747" transform="translate(141,379)"/>
<path d="M0 0 C0.12375 0.556875 0.2475 1.11375 0.375 1.6875 C0.96881058 4.06253025 0.96881058 4.06253025 2 6.5 C2.86681405 8.66703512 3.49490316 10.72706421 4 13 C0.125 12.125 0.125 12.125 -1 11 C-1.09823996 9.52351124 -1.12973519 8.04224583 -1.125 6.5625 C-1.12757813 5.75941406 -1.13015625 4.95632813 -1.1328125 4.12890625 C-1 2 -1 2 0 0 Z " fill="#BFBFBF" transform="translate(407,452)"/>
<path d="M0 0 C0.99 0.33 1.98 0.66 3 1 C3.28571429 9.57142857 3.28571429 9.57142857 1 13 C-0.54272906 10.54978326 -1.06214316 9.41428772 -0.625 6.5 C-0.41875 5.675 -0.2125 4.85 0 4 C0 2.68 0 1.36 0 0 Z " fill="#C9C9C9" transform="translate(176,428)"/>
<path d="M0 0 C0.33 0 0.66 0 1 0 C0.25 6.625 0.25 6.625 -2 10 C-2.99 10 -3.98 10 -5 10 C-4.34 7.69 -3.68 5.38 -3 3 C-2.34 3 -1.68 3 -1 3 C-0.67 2.01 -0.34 1.02 0 0 Z " fill="#E7E7E7" transform="translate(322,221)"/>
<path d="M0 0 C0.99 0.33 1.98 0.66 3 1 C2.67 7.6 2.34 14.2 2 21 C1.67 21 1.34 21 1 21 C1 14.73 1 8.46 1 2 C0.01 1.67 -0.98 1.34 -2 1 C-1.34 0.67 -0.68 0.34 0 0 Z " fill="#E8E8E8" transform="translate(432,384)"/>
<path d="M0 0 C0.99 0 1.98 0 3 0 C2.65120368 3.25543229 1.97866739 4.01873107 -0.5625 6.25 C-1.366875 6.8275 -2.17125 7.405 -3 8 C-2.25 2.25 -2.25 2.25 0 0 Z " fill="#E1E1E1" transform="translate(402,436)"/>
<path d="M0 0 C0.99 0.33 1.98 0.66 3 1 C3 3.97 3 6.94 3 10 C-0.29980516 6.70019484 -0.60974014 5.48798839 -1 1 C-0.67 0.67 -0.34 0.34 0 0 Z " fill="#C1C1C1" transform="translate(468,372)"/>
<path d="M0 0 C0.66 0.33 1.32 0.66 2 1 C-1.3 4.3 -4.6 7.6 -8 11 C-8 7.0234755 -6.61988497 5.9109833 -4 3 C-1.75 1.1875 -1.75 1.1875 0 0 Z " fill="#D1D1D1" transform="translate(99,359)"/>
<path d="M0 0 C1.0326802 2.78823655 1.04509293 3.8677274 0.0625 6.75 C-0.288125 7.4925 -0.63875 8.235 -1 9 C-1.99 9 -2.98 9 -4 9 C-3.67 7.02 -3.34 5.04 -3 3 C-2.34 3 -1.68 3 -1 3 C-0.67 2.01 -0.34 1.02 0 0 Z " fill="#EDEDED" transform="translate(334,188)"/>
<path d="M0 0 C0.33 0.99 0.66 1.98 1 3 C-1.31 3.66 -3.62 4.32 -6 5 C-5.625 3.0625 -5.625 3.0625 -5 1 C-3 0 -3 0 0 0 Z " fill="#C7C7C7" transform="translate(136,376)"/>
<path d="M0 0 C0 3 0 3 -1.5 4.6875 C-1.995 5.120625 -2.49 5.55375 -3 6 C-2.34 6.66 -1.68 7.32 -1 8 C-2.32 8.33 -3.64 8.66 -5 9 C-5 5 -5 5 -2.5 2.25 C-1.675 1.5075 -0.85 0.765 0 0 Z " fill="#AAAAAA" transform="translate(91,321)"/>
<path d="M0 0 C0.66 0.33 1.32 0.66 2 1 C-0.64 3.64 -3.28 6.28 -6 9 C-6 6 -6 6 -3.5625 3.375 C-2.716875 2.59125 -1.87125 1.8075 -1 1 C-0.67 0.67 -0.34 0.34 0 0 Z " fill="#252525" transform="translate(307,118)"/>
<path d="M0 0 C1.04449911 3.13349732 0.93423645 3.98968256 0 7 C-1.65 6.67 -3.3 6.34 -5 6 C-3.35 4.02 -1.7 2.04 0 0 Z " fill="#C1C1C1" transform="translate(419,438)"/>
<path d="M0 0 C0.66 0.99 1.32 1.98 2 3 C-0.31 4.32 -2.62 5.64 -5 7 C-5.66 6.34 -6.32 5.68 -7 5 C-2.25 2 -2.25 2 0 2 C0 1.34 0 0.68 0 0 Z " fill="#BABABA" transform="translate(388,410)"/>
<path d="M0 0 C0.66 0.33 1.32 0.66 2 1 C1.375 2.875 1.375 2.875 0 5 C-3.125 6.25 -3.125 6.25 -6 7 C-4.77065985 3.31197956 -3.06140622 2.27643027 0 0 Z " fill="#CBCBCB" transform="translate(185,393)"/>
<path d="M0 0 C2.1519437 3.22791555 2.20086443 4.28400809 2 8 C1.34 7.67 0.68 7.34 0 7 C-0.66 7.66 -1.32 8.32 -2 9 C-1.51421457 5.87709365 -1.0013988 3.00419641 0 0 Z " fill="#CBCBCB" transform="translate(322,215)"/>
<path d="M0 0 C-0.33 0.33 -0.66 0.66 -1 1 C-0.34 1.66 0.32 2.32 1 3 C-0.65 3.33 -2.3 3.66 -4 4 C-4 3.34 -4 2.68 -4 2 C-5.65 2 -7.3 2 -9 2 C-9 1.67 -9 1.34 -9 1 C-2.25 -1.125 -2.25 -1.125 0 0 Z " fill="#C4C4C4" transform="translate(134,449)"/>
<path d="M0 0 C0.66 0.33 1.32 0.66 2 1 C-0.31 3.31 -2.62 5.62 -5 8 C-5.33 7.01 -5.66 6.02 -6 5 C-4.02 3.35 -2.04 1.7 0 0 Z " fill="#2B2B2B" transform="translate(141,123)"/>
<path d="M0 0 C0.99 0.99 1.98 1.98 3 3 C0.35261084 4.4606285 -0.89448334 5 -4 5 C-3 2 -3 2 0 0 Z " fill="#C0C0C0" transform="translate(223,387)"/>
<path d="M0 0 C0.66 0.33 1.32 0.66 2 1 C-0.31 3.31 -2.62 5.62 -5 8 C-5.33 7.34 -5.66 6.68 -6 6 C-4 4 -2 2 0 0 Z " fill="#333333" transform="translate(93,376)"/>
</svg>
