<?xml version="1.0" encoding="UTF-8"?>
<!DOCTYPE svg PUBLIC "-//W3C//DTD SVG 1.1//EN" "http://www.w3.org/Graphics/SVG/1.1/DTD/svg11.dtd">
<svg xmlns="http://www.w3.org/2000/svg" version="1.1" viewBox="0 0 1200 912" style="shape-rendering:geometricPrecision; text-rendering:geometricPrecision; image-rendering:optimizeQuality; fill-rule:evenodd; clip-rule:evenodd" xmlns:xlink="http://www.w3.org/1999/xlink">
<g><path style="opacity:0.996" fill="#ee143f" d="M 441.5,-0.5 C 452.167,-0.5 462.833,-0.5 473.5,-0.5C 525.257,7.75544 559.423,36.7554 576,86.5C 579.824,104.7 580.49,123.034 578,141.5C 557.704,283.571 537.038,425.571 516,567.5C 457.806,435.25 399.806,302.916 342,170.5C 325.326,124.885 331.326,82.5515 360,43.5C 381.393,18.219 408.56,3.55233 441.5,-0.5 Z"/></g>
<g><path style="opacity:0.994" fill="#6e54dc" d="M 725.5,-0.5 C 736.167,-0.5 746.833,-0.5 757.5,-0.5C 803.597,5.96268 836.431,30.296 856,72.5C 869.47,105.058 869.803,137.725 857,170.5C 798.806,302.75 740.806,435.084 683,567.5C 665.331,450.815 648.497,333.981 632.5,217C 632.82,206.041 636.32,196.208 643,187.5C 660.378,168.554 681.211,154.721 705.5,146C 700.265,138.11 692.932,133.443 683.5,132C 662.169,131.5 640.836,131.333 619.5,131.5C 615.983,79.6939 636.316,40.5272 680.5,14C 694.874,6.81846 709.874,1.98512 725.5,-0.5 Z"/></g>
<g><path style="opacity:0.997" fill="#ff7012" d="M 204.5,173.5 C 267.704,170.673 312.204,198.007 338,255.5C 392.667,380.167 447.333,504.833 502,629.5C 502.667,630.5 502.667,631.5 502,632.5C 384.167,554 266.333,475.5 148.5,397C 96.1415,355.403 82.9748,303.57 109,241.5C 128.726,201.956 160.559,179.289 204.5,173.5 Z"/></g>
<g><path style="opacity:0.997" fill="#059de0" d="M 966.5,173.5 C 1044.12,171.621 1089.29,208.955 1102,285.5C 1105.58,327.098 1091.75,361.598 1060.5,389C 939.764,470.786 818.597,551.953 697,632.5C 697.019,629.756 697.686,627.089 699,624.5C 751.528,505.25 803.861,385.916 856,266.5C 866.297,237.228 883.797,213.395 908.5,195C 926.34,183.556 945.674,176.389 966.5,173.5 Z"/></g>
<g><path style="opacity:0.996" fill="#fccc11" d="M -0.5,589.5 C -0.5,578.5 -0.5,567.5 -0.5,556.5C 9.71921,496.444 44.7192,459.944 104.5,447C 138.447,442.903 169.447,450.57 197.5,470C 309.833,545 422.167,620 534.5,695C 395.5,695.667 256.5,695.667 117.5,695C 66.6576,690.857 30.1576,666.024 8,620.5C 4.04425,610.331 1.21091,599.998 -0.5,589.5 Z"/></g>
<g><path style="opacity:0.994" fill="#04ac40" d="M 1199.5,558.5 C 1199.5,568.5 1199.5,578.5 1199.5,588.5C 1188.63,646.203 1154.3,681.036 1096.5,693C 1091.53,693.886 1086.53,694.552 1081.5,695C 942.5,695.667 803.5,695.667 664.5,695C 777.833,619.333 891.167,543.667 1004.5,468C 1053.34,437.394 1101.67,438.061 1149.5,470C 1179.01,492.189 1195.68,521.689 1199.5,558.5 Z"/></g>
<g><path style="opacity:0.963" fill="#000000" d="M 420.5,911.5 C 415.167,911.5 409.833,911.5 404.5,911.5C 371.632,907.467 348.132,890.467 334,860.5C 321.524,820.93 332.024,789.097 365.5,765C 399.354,746.462 432.354,747.795 464.5,769C 468.981,772.314 472.981,776.148 476.5,780.5C 468.472,789.362 459.972,797.695 451,805.5C 431.191,786.099 409.025,782.932 384.5,796C 362.555,813.39 359.055,833.89 374,857.5C 387.993,872.608 405.159,878.108 425.5,874C 431.883,872.65 437.883,870.317 443.5,867C 448.5,863.167 453.5,859.333 458.5,855.5C 465.99,863.792 473.49,872.126 481,880.5C 481.63,882.903 480.797,884.737 478.5,886C 461.87,900.819 442.537,909.319 420.5,911.5 Z"/></g>
<g><path style="opacity:0.964" fill="#000000" d="M 1199.5,851.5 C 1199.5,858.5 1199.5,865.5 1199.5,872.5C 1193.9,891.594 1181.23,903.427 1161.5,908C 1154.71,909.297 1148.04,910.464 1141.5,911.5C 1136.17,911.5 1130.83,911.5 1125.5,911.5C 1100.16,907.885 1076.49,899.385 1054.5,886C 1060.64,877.027 1066.97,868.194 1073.5,859.5C 1097.03,873.505 1122.36,879.005 1149.5,876C 1156.63,874.783 1161.29,870.783 1163.5,864C 1162.28,857.782 1158.62,853.782 1152.5,852C 1133.1,848.371 1113.76,844.371 1094.5,840C 1072.01,831.204 1062.18,814.704 1065,790.5C 1069.76,772.408 1081.26,760.908 1099.5,756C 1120.16,750.097 1140.83,750.097 1161.5,756C 1172.77,758.869 1183.77,762.536 1194.5,767C 1195.45,767.718 1195.62,768.551 1195,769.5C 1189.4,778.376 1183.57,787.043 1177.5,795.5C 1162.84,789.001 1147.51,785.335 1131.5,784.5C 1120.12,783.572 1110.28,786.905 1102,794.5C 1099.73,803.442 1103.23,808.942 1112.5,811C 1128.11,813.624 1143.78,815.957 1159.5,818C 1172.71,821.02 1183.87,827.52 1193,837.5C 1196.03,841.877 1198.19,846.544 1199.5,851.5 Z"/></g>
<g><path style="opacity:0.967" fill="#000000" d="M 4.5,755.5 C 16.8378,755.333 29.1712,755.5 41.5,756C 65,787.5 88.5,819 112,850.5C 112.5,818.835 112.667,787.168 112.5,755.5C 123.833,755.5 135.167,755.5 146.5,755.5C 146.5,806.167 146.5,856.833 146.5,907.5C 134.495,907.667 122.495,907.5 110.5,907C 86.6667,875.167 62.8333,843.333 39,811.5C 38.5,843.498 38.3334,875.498 38.5,907.5C 27.1667,907.5 15.8333,907.5 4.5,907.5C 4.5,856.833 4.5,806.167 4.5,755.5 Z"/></g>
<g><path style="opacity:0.962" fill="#000000" d="M 174.5,755.5 C 207.862,755.058 241.195,755.558 274.5,757C 303.44,764.705 314.606,783.205 308,812.5C 306.333,814.833 304.667,817.167 303,819.5C 300.167,821.667 297.333,823.833 294.5,826C 309.036,832.903 316.036,844.403 315.5,860.5C 314.515,889.986 299.182,905.486 269.5,907C 237.595,907.829 205.762,907.662 174,906.5C 173.172,856.096 173.338,805.763 174.5,755.5 Z M 206.5,785.5 C 226.169,785.333 245.836,785.5 265.5,786C 272.188,787.695 275.522,792.028 275.5,799C 274.652,806.183 270.652,810.516 263.5,812C 244.503,812.5 225.503,812.667 206.5,812.5C 206.5,803.5 206.5,794.5 206.5,785.5 Z M 206.5,841.5 C 226.879,841.06 247.212,841.56 267.5,843C 278.217,846.26 282.384,853.426 280,864.5C 277.304,870.847 272.47,874.681 265.5,876C 245.836,876.5 226.169,876.667 206.5,876.5C 206.5,864.833 206.5,853.167 206.5,841.5 Z"/></g>
<g><path style="opacity:0.967" fill="#000000" d="M 537.5,755.5 C 549.851,755.168 562.185,755.501 574.5,756.5C 598.192,787.692 621.692,819.025 645,850.5C 645.5,818.835 645.667,787.168 645.5,755.5C 656.833,755.5 668.167,755.5 679.5,755.5C 679.5,806.167 679.5,856.833 679.5,907.5C 667.495,907.667 655.495,907.5 643.5,907C 619.667,875.167 595.833,843.333 572,811.5C 571.5,843.498 571.333,875.498 571.5,907.5C 560.167,907.5 548.833,907.5 537.5,907.5C 537.5,856.833 537.5,806.167 537.5,755.5 Z"/></g>
<g><path style="opacity:0.964" fill="#000000" d="M 706.5,755.5 C 748.833,755.5 791.167,755.5 833.5,755.5C 833.5,765.833 833.5,776.167 833.5,786.5C 802.167,786.5 770.833,786.5 739.5,786.5C 739.5,795.167 739.5,803.833 739.5,812.5C 766.5,812.5 793.5,812.5 820.5,812.5C 820.5,822.833 820.5,833.167 820.5,843.5C 793.5,843.5 766.5,843.5 739.5,843.5C 739.5,853.833 739.5,864.167 739.5,874.5C 771.5,874.5 803.5,874.5 835.5,874.5C 835.5,885.5 835.5,896.5 835.5,907.5C 792.5,907.5 749.5,907.5 706.5,907.5C 706.5,856.833 706.5,806.167 706.5,755.5 Z"/></g>
<g><path style="opacity:0.962" fill="#000000" d="M 846.5,755.5 C 857.415,755.18 868.248,755.513 879,756.5C 888,788.167 897,819.833 906,851.5C 915.532,819.903 924.865,788.237 934,756.5C 945.753,755.512 957.586,755.179 969.5,755.5C 978.663,787.481 987.829,819.481 997,851.5C 1006.32,819.884 1015.49,788.217 1024.5,756.5C 1035.15,755.501 1045.81,755.168 1056.5,755.5C 1043.32,805.562 1029.82,855.562 1016,905.5C 1004.42,907.466 992.586,908.133 980.5,907.5C 971.31,876.428 961.81,845.428 952,814.5C 942.135,845.095 932.469,875.761 923,906.5C 911.247,907.488 899.414,907.821 887.5,907.5C 874.147,856.753 860.48,806.086 846.5,755.5 Z"/></g>
</svg>
