<?xml version="1.0" encoding="UTF-8"?>
<svg version="1.1" xmlns="http://www.w3.org/2000/svg" width="600" height="600">
<path d="M0 0 C0.88742386 -0.0071553 1.77484772 -0.01431061 2.68916321 -0.02168274 C3.66529572 -0.02437164 4.64142822 -0.02706055 5.6471405 -0.02983093 C7.18634911 -0.03968773 7.18634911 -0.03968773 8.75665283 -0.04974365 C12.16310188 -0.06950536 15.56950679 -0.0811452 18.97599792 -0.09111023 C20.71806298 -0.09722352 20.71806298 -0.09722352 22.49532127 -0.10346031 C28.64130349 -0.12433255 34.7872633 -0.13862972 40.93327332 -0.147995 C47.28896747 -0.15906639 53.64431219 -0.1934718 59.9998827 -0.23316669 C64.88031679 -0.25928125 69.76066695 -0.26768222 74.64116478 -0.27127647 C76.98436025 -0.27615518 79.32755165 -0.28780543 81.67067909 -0.30631447 C84.94827284 -0.33059719 88.22495356 -0.32976051 91.50260925 -0.32279968 C92.47266907 -0.33560974 93.44272888 -0.3484198 94.44218445 -0.36161804 C98.75762953 -0.32816987 101.10725012 -0.26872063 104.83065796 2.07145691 C106.49464546 3.85340335 107.80877782 5.39782928 108.98771667 7.51826477 C109.35542175 8.16360168 109.72312683 8.8089386 110.10197449 9.47383118 C110.48708191 10.17040833 110.87218933 10.86698547 111.26896667 11.58467102 C112.14683099 13.12377078 113.02715454 14.66146976 113.90959167 16.19795227 C114.37300964 17.00700012 114.83642761 17.81604797 115.31388855 18.64961243 C117.79620374 22.91036483 120.40917529 27.08871322 123.01896667 31.27217102 C127.64457377 38.70530266 132.22633233 46.16303607 136.76896667 53.64717102 C141.23487944 61.00199423 145.73048795 68.33690212 150.26896667 75.64717102 C154.74295113 82.8544666 159.1775901 90.08432596 163.58146667 97.33467102 C171.25791511 109.97136849 179.01119834 122.56028469 186.76896667 135.14717102 C195.0300464 148.55067406 203.27892106 161.96067491 211.451828 175.41816711 C214.67370811 180.71887315 217.91016688 186.01026131 221.16349792 191.29170227 C221.53240143 191.89058258 221.90130493 192.48946289 222.28138733 193.10649109 C224.08755961 196.03766854 225.8952381 198.96790808 227.70451355 201.89717102 C228.35097839 202.94517883 228.99744324 203.99318665 229.66349792 205.07295227 C230.23946716 206.00534729 230.8154364 206.93774231 231.40885925 207.89839172 C232.76896667 210.14717102 232.76896667 210.14717102 233.76896667 212.14717102 C233.7652795 211.07888187 233.76159233 210.01059273 233.75779343 208.90993118 C233.66906813 182.93829495 233.60329836 156.96667832 233.56171799 130.99492264 C233.54107652 118.43526581 233.51292559 105.87570898 233.46720886 93.31611633 C233.42738968 82.37153678 233.4015454 71.42702965 233.3926127 60.48237967 C233.38738963 54.68510969 233.37508051 48.8880469 233.34604645 43.0908432 C233.31895516 37.63751873 233.31050899 32.18448736 233.31653595 26.73110199 C233.3154329 24.72674468 233.30744179 22.72237786 233.29214478 20.71807861 C233.27231525 17.98658026 233.27700166 15.25619628 233.28794861 12.52467346 C233.27629724 11.72700758 233.26464588 10.9293417 233.25264144 10.10750413 C233.29071182 6.60596252 233.4897226 4.53631031 235.5571022 1.65532303 C238.96831374 -0.67059956 242.43694856 -0.40970669 246.42131042 -0.3704071 C247.29329071 -0.37741638 248.165271 -0.38442566 249.06367493 -0.39164734 C251.94492982 -0.40924704 254.82520186 -0.39759763 257.70646667 -0.38407898 C259.70899138 -0.38677333 261.71151481 -0.39065527 263.71403503 -0.39567566 C267.91053221 -0.40157339 272.10668878 -0.39299882 276.30314636 -0.37431335 C281.68372712 -0.35152377 287.06350981 -0.36464536 292.44406128 -0.38860321 C296.57904581 -0.4030537 300.71384096 -0.39845861 304.84883118 -0.38809204 C306.83277989 -0.38542269 308.81674577 -0.38870183 310.80067444 -0.39801025 C313.57312089 -0.40816343 316.34427295 -0.39269221 319.11662292 -0.3704071 C320.3479747 -0.38255249 320.3479747 -0.38255249 321.60420227 -0.39494324 C324.98140187 -0.34462244 327.22520933 -0.25758688 329.97943449 1.79258204 C332.28488018 4.82598768 332.27010462 6.53950992 332.27233124 10.32852936 C332.28276223 11.60546614 332.29319322 12.88240293 332.3039403 14.19803476 C332.29529175 15.61805348 332.28626511 17.03806993 332.27690125 18.45808411 C332.28150855 19.96424383 332.28786031 21.47039907 332.29581022 22.97654486 C332.31255039 27.12148128 332.30423608 31.26605061 332.29186535 35.41098857 C332.28283626 39.87868316 332.29677391 44.34631344 332.30778503 48.81399536 C332.3255978 57.56858811 332.32171802 66.32304391 332.31013447 75.07764208 C332.30111125 82.19089232 332.29987133 89.30410409 332.30422974 96.4173584 C332.30484267 97.4286684 332.3054556 98.4399784 332.30608711 99.48193416 C332.30736597 101.53621011 332.30866282 103.59048605 332.30997747 105.64476198 C332.32139135 124.92046868 332.30825691 144.19609936 332.28677601 163.47179359 C332.2689043 180.02133899 332.27200818 196.57077218 332.29045105 213.12031555 C332.31184351 232.32571909 332.32029263 251.53105596 332.308002 270.73646975 C332.30672776 272.7833077 332.30547028 274.83014567 332.30422974 276.87698364 C332.30330408 278.38771981 332.30330408 278.38771981 332.30235973 279.92897591 C332.29890195 287.03600018 332.30474437 294.14298226 332.31414795 301.25 C332.32535128 309.90778463 332.32236305 318.56542415 332.30102497 327.2231921 C332.29049205 331.64292826 332.28643071 336.06242223 332.29962158 340.48215675 C332.31150518 344.52493377 332.3050502 348.56724319 332.28371137 352.60997754 C332.27922809 354.07559441 332.28155011 355.54125045 332.29121453 357.00684232 C332.30331195 358.99313891 332.28855658 360.97954552 332.27233124 362.96581268 C332.27168183 364.07090888 332.27103242 365.17600507 332.27036333 366.31458902 C331.65196541 369.80815605 330.52743816 370.98691841 327.76896667 373.14717102 C325.65091801 373.6533289 325.65091801 373.6533289 323.33538818 373.66183472 C322.45362915 373.67455917 321.57187012 373.68728363 320.66339111 373.70039368 C319.7037999 373.6938678 318.74420868 373.68734192 317.75553894 373.68061829 C316.73886139 373.68923386 315.72218384 373.69784943 314.67469788 373.70672607 C311.31133115 373.72944328 307.94879378 373.72263608 304.58537292 373.71357727 C302.24893953 373.71881047 299.91250825 373.72508583 297.57608032 373.73236084 C292.67762822 373.74277586 287.7794664 373.7381878 282.88102722 373.72358704 C276.60143731 373.70640246 270.32276263 373.72988572 264.04327488 373.76507664 C259.21769132 373.78703036 254.3923274 373.7856139 249.56670952 373.77731133 C247.25143874 373.77649061 244.93615203 373.78337677 242.62092781 373.79808235 C239.383975 373.81548891 236.14867503 373.80101631 232.91178894 373.77827454 C231.95422195 373.78996674 230.99665497 373.80165894 230.0100708 373.81370544 C225.40429161 373.74781946 223.43068443 373.67340853 219.72250366 370.72444153 C216.44349625 366.39849881 216.44349625 366.39849881 215.25334167 364.48701477 C214.81578552 363.79043762 214.37822937 363.09386047 213.92741394 362.37617493 C213.46262634 361.61997864 212.99783875 360.86378235 212.51896667 360.08467102 C212.01228455 359.27175598 211.50560242 358.45884094 210.98356628 357.62129211 C205.62880365 348.99660968 200.37815023 340.30692229 195.12174988 331.62202454 C190.85137985 324.56702518 186.55568349 317.52893938 182.20646667 310.52217102 C181.69277527 309.6945929 181.17908386 308.86701477 180.64982605 308.01435852 C179.86962097 306.75752258 179.86962097 306.75752258 179.07365417 305.47529602 C169.58625923 290.19165067 160.18609502 274.85452515 150.84733582 259.47969055 C146.49135857 252.31542562 142.08521127 245.18338382 137.6627655 238.06001282 C133.66304855 231.61020429 129.70817001 225.13408807 125.76896667 218.64717102 C120.82869202 210.51332767 115.84999323 202.40484549 110.83268738 194.3183136 C106.19003167 186.8343441 101.57059356 179.33624822 96.95646667 171.83467102 C96.59554932 171.2479361 96.23463196 170.66120117 95.86277771 170.0566864 C93.83112349 166.75375058 91.79986491 163.45057172 89.76896667 160.14717102 C89.68594742 174.76573518 89.82762963 189.37786119 90.02287292 203.99482727 C90.04767949 205.88710991 90.0724493 207.77939304 90.09718323 209.67167664 C90.20036219 217.51943396 90.30463893 225.36716833 90.41716003 233.21479797 C90.48661058 238.0717588 90.5508391 242.92876479 90.61166191 247.78584099 C90.63562929 249.62023503 90.6615468 251.45460472 90.68950081 253.28894234 C90.72817116 255.83808304 90.7601846 258.38722807 90.79069519 260.93647766 C90.8036412 261.68293549 90.81658722 262.42939331 90.82992554 263.19847107 C90.87123426 267.29811073 90.57514593 271.12658665 89.76896667 275.14717102 C85.82651933 276.37068916 82.82439062 277.23332808 78.70646667 276.89717102 C70.08686906 271.76209159 65.224748 259.33320941 60.19474792 250.87373352 C56.52750542 244.72064208 52.77877393 238.61902005 49.01896667 232.52217102 C48.34567322 231.42993225 47.67237976 230.33769348 46.97868347 229.21235657 C45.60020145 226.97703768 44.22137442 224.74193152 42.84220886 222.5070343 C39.43977577 216.99310541 36.04109727 211.47686809 32.64396667 205.95967102 C31.98130798 204.88354553 31.31864929 203.80742004 30.63591003 202.69868469 C26.26254413 195.59055528 21.91450027 188.46744578 17.58146667 181.33467102 C11.9706007 172.09850674 6.30599413 162.89672584 0.60881042 153.71357727 C0.13427429 152.94803528 -0.34026184 152.18249329 -0.82917786 151.39375305 C-1.77069739 149.88489503 -2.71972108 148.38069591 -3.67585754 146.88105774 C-4.12590149 146.17352356 -4.57594543 145.46598938 -5.03962708 144.73701477 C-5.43851135 144.11560608 -5.83739563 143.49419739 -6.24836731 142.85395813 C-8.20784854 139.45054614 -8.35813703 136.60068768 -8.36474609 132.76412964 C-8.36901108 131.6467038 -8.37327606 130.52927795 -8.37767029 129.37799072 C-8.3772171 128.15141251 -8.37676392 126.92483429 -8.376297 125.66108704 C-8.37965561 124.36984924 -8.38301422 123.07861145 -8.38647461 121.74824524 C-8.39531389 118.20487416 -8.39765268 114.66152722 -8.3982904 111.11814618 C-8.39923969 108.16082947 -8.40291819 105.20351839 -8.40646249 102.24620384 C-8.4146066 95.26974925 -8.41704675 88.29330756 -8.41633606 81.31684875 C-8.4157351 74.11809862 -8.42629055 66.91942339 -8.44207972 59.72069222 C-8.45515037 53.54142356 -8.46052016 47.36217941 -8.45988065 41.18289703 C-8.45962554 37.49172231 -8.46248374 33.80061416 -8.4730587 30.1094532 C-8.48452786 25.99379977 -8.4799958 21.87831449 -8.47395325 17.76264954 C-8.47957275 16.53809555 -8.48519226 15.31354156 -8.49098206 14.05187988 C-8.48678757 12.93163422 -8.48259308 11.81138855 -8.47827148 10.65719604 C-8.47881625 9.68399194 -8.47936102 8.71078783 -8.47992229 7.70809269 C-8.21899076 5.02326004 -7.68823136 3.40362767 -6.23103333 1.14717102 C-3.9160422 -0.01032454 -2.57711307 0.01424109 0 0 Z " fill="#3650A1" transform="translate(138.2310333251953,71.85282897949219)"/>
<path d="M0 0 C1.91232422 -0.02126953 1.91232422 -0.02126953 3.86328125 -0.04296875 C7.6875 0.1875 7.6875 0.1875 11.29296875 1.26171875 C15.05643879 2.28811967 16.90637794 1.94557337 20.6875 1.1875 C24.06216023 0.98209848 27.43229274 0.95718097 30.8125 0.9375 C32.15248047 0.9065625 32.15248047 0.9065625 33.51953125 0.875 C40.01738678 0.83614885 40.01738678 0.83614885 43.2578125 2.53515625 C45.09967502 4.66386621 45.3887532 6.42409209 45.6875 9.1875 C46.3475 9.1875 47.0075 9.1875 47.6875 9.1875 C47.831875 8.40375 47.97625 7.62 48.125 6.8125 C48.6875 4.1875 48.6875 4.1875 49.6875 2.1875 C54.00387492 0.74870836 58.16592583 0.96297366 62.6875 0.9375 C63.60273438 0.916875 64.51796875 0.89625 65.4609375 0.875 C66.34007812 0.86984375 67.21921875 0.8646875 68.125 0.859375 C68.92808594 0.8500293 69.73117187 0.84068359 70.55859375 0.83105469 C73.22566962 1.27760638 74.05985247 2.06334532 75.6875 4.1875 C76.73726964 7.33680893 76.78881595 9.57564456 76.75 12.875 C76.74097656 13.86886719 76.73195313 14.86273438 76.72265625 15.88671875 C76.70525391 17.02560547 76.70525391 17.02560547 76.6875 18.1875 C77.3475 18.1875 78.0075 18.1875 78.6875 18.1875 C78.79707031 17.60742188 78.90664063 17.02734375 79.01953125 16.4296875 C81.39742366 4.71421756 81.39742366 4.71421756 86.6875 1.1875 C88.72460938 0.94458008 88.72460938 0.94458008 91.03125 0.95703125 C92.28228516 0.95993164 92.28228516 0.95993164 93.55859375 0.96289062 C94.42613281 0.97513672 95.29367187 0.98738281 96.1875 1 C97.48880859 1.0009668 97.48880859 1.0009668 98.81640625 1.00195312 C105.26542152 1.04680717 105.26542152 1.04680717 108.6875 2.1875 C110.375 5.75 110.375 5.75 111.6875 9.1875 C112.3990625 7.4859375 112.3990625 7.4859375 113.125 5.75 C114.6875 2.1875 114.6875 2.1875 115.6875 1.1875 C119.09598088 0.90756006 122.51889446 0.95565992 125.9375 0.9375 C126.89269531 0.916875 127.84789062 0.89625 128.83203125 0.875 C137.54817502 0.82650963 137.54817502 0.82650963 141.6875 4.1875 C142.25138428 3.69999268 142.81526855 3.21248535 143.39624023 2.71020508 C146.0030055 0.97782416 147.25975162 0.81268159 150.34765625 0.82421875 C151.6615332 0.82518555 151.6615332 0.82518555 153.00195312 0.82617188 C154.36223633 0.8503418 154.36223633 0.8503418 155.75 0.875 C156.66072266 0.87177734 157.57144531 0.86855469 158.50976562 0.86523438 C165.28650107 0.92016738 165.28650107 0.92016738 168.6875 3.1875 C170.04370134 8.50798218 169.46555434 12.06059484 167.6875 17.1875 C165.6738122 20.55953341 163.48969119 23.76503895 161.26953125 27.00390625 C159.37836954 30.80957734 159.35764825 32.19270911 160.6875 36.1875 C161.96983912 38.27502881 163.33098152 40.31536288 164.75 42.3125 C168.42715576 47.82182465 169.49702061 52.20886679 169.1640625 58.82421875 C168.6875 61.1875 168.6875 61.1875 166.6875 63.1875 C159.4237354 65.76179129 149.7651782 65.01857128 142.6875 62.1875 C142.0275 61.5275 141.3675 60.8675 140.6875 60.1875 C140.295625 60.661875 139.90375 61.13625 139.5 61.625 C134.57359283 65.87190273 125.84984501 64.3716429 119.75 64.375 C118.58275391 64.38724609 117.41550781 64.39949219 116.21289062 64.41210938 C115.08173828 64.41404297 113.95058594 64.41597656 112.78515625 64.41796875 C111.75914307 64.42207764 110.73312988 64.42618652 109.67602539 64.43041992 C106.36071719 64.16093772 103.74386066 63.49791429 100.6875 62.1875 C97.6875 57.3875 97.6875 57.3875 97.6875 54.1875 C96.6975 54.1875 95.7075 54.1875 94.6875 54.1875 C94.39875 55.30125 94.11 56.415 93.8125 57.5625 C92.6875 61.1875 92.6875 61.1875 90.6875 63.1875 C85.15898367 64.67640173 79.49398196 64.37158154 73.8125 64.375 C72.74902344 64.38724609 71.68554688 64.39949219 70.58984375 64.41210938 C64.88746368 64.42273493 60.06582273 64.12584138 54.6875 62.1875 C54.3575 60.2075 54.0275 58.2275 53.6875 56.1875 C49.0675 56.1875 44.4475 56.1875 39.6875 56.1875 C39.3575 58.1675 39.0275 60.1475 38.6875 62.1875 C30.42369232 65.12574273 22.14143489 64.58597192 13.5625 63.30859375 C11.45863062 63.05450531 11.45863062 63.05450531 8.6875 64.1875 C-2.53588469 65.3302341 -12.34046921 64.76069086 -22.3125 59.1875 C-22.59351563 59.83203125 -22.87453125 60.4765625 -23.1640625 61.140625 C-24.3125 63.1875 -24.3125 63.1875 -26.6875 63.9375 C-40.56210379 64.89436923 -40.56210379 64.89436923 -46.625 63.0625 C-51.03882893 62.01515076 -53.01006252 62.89676875 -57.3125 64.1875 C-63.68417698 64.58907628 -69.97290386 64.29252368 -76.27734375 63.30859375 C-78.37373564 63.09468888 -78.37373564 63.09468888 -80.6300354 63.67085266 C-83.24840267 64.17515474 -85.60499521 64.32065844 -88.26708984 64.33276367 C-89.22513519 64.33914352 -90.18318054 64.34552338 -91.17025757 64.35209656 C-92.70633163 64.35376579 -92.70633163 64.35376579 -94.2734375 64.35546875 C-95.33736725 64.35879715 -96.401297 64.36212555 -97.49746704 64.36555481 C-99.74505176 64.37061058 -101.99264397 64.37296355 -104.24023438 64.37280273 C-107.66809533 64.37498763 -111.09563351 64.39315355 -114.5234375 64.41210938 C-116.7109364 64.41504393 -118.89843683 64.41702831 -121.0859375 64.41796875 C-122.61593887 64.42874702 -122.61593887 64.42874702 -124.17684937 64.43974304 C-129.59696821 64.42245087 -134.23153424 64.15503205 -139.3125 62.1875 C-140.75 60.0625 -140.75 60.0625 -141.3125 58.1875 C-141.9725 58.1875 -142.6325 58.1875 -143.3125 58.1875 C-143.35375 58.80625 -143.395 59.425 -143.4375 60.0625 C-144.3125 62.1875 -144.3125 62.1875 -146.6875 63.4375 C-153.30394971 64.80642063 -161.19423568 65.48195002 -167.3125 62.1875 C-169.03669295 58.7507847 -169.56424005 55.92833638 -169.57128906 52.109375 C-169.58074554 50.63259277 -169.58074554 50.63259277 -169.59039307 49.12597656 C-169.5863446 48.0737793 -169.58229614 47.02158203 -169.578125 45.9375 C-169.58003845 44.84663086 -169.5819519 43.75576172 -169.58392334 42.63183594 C-169.58528244 40.32877369 -169.58160521 38.02570371 -169.57324219 35.72265625 C-169.56253903 32.20034555 -169.57314704 28.67854487 -169.5859375 25.15625 C-169.58461586 22.91666554 -169.58205336 20.6770814 -169.578125 18.4375 C-169.58217346 17.38530273 -169.58622192 16.33310547 -169.59039307 15.24902344 C-169.58408875 14.26450195 -169.57778442 13.27998047 -169.57128906 12.265625 C-169.56969788 11.40356445 -169.56810669 10.54150391 -169.56646729 9.65332031 C-169.27685462 6.84141168 -168.56225045 4.71795746 -167.3125 2.1875 C-163.80541173 0.43395586 -159.80038251 1.00285716 -155.9375 1 C-155.07382813 0.98775391 -154.21015625 0.97550781 -153.3203125 0.96289062 C-152.485 0.96095703 -151.6496875 0.95902344 -150.7890625 0.95703125 C-149.6455835 0.95086792 -149.6455835 0.95086792 -148.47900391 0.94458008 C-144.90573849 1.34523357 -142.82875667 2.67124333 -140.3125 5.1875 C-139.53573158 4.21302162 -139.53573158 4.21302162 -138.74327087 3.21885681 C-135.50568324 0.51325598 -133.60679908 0.68635326 -129.42016602 0.68579102 C-128.39258179 0.67768654 -128.39258179 0.67768654 -127.34423828 0.66941833 C-125.08451847 0.65693308 -122.82607352 0.67342063 -120.56640625 0.69140625 C-118.99226312 0.69125124 -117.4181196 0.68976188 -115.84397888 0.68699646 C-112.54612335 0.68561251 -109.24870274 0.69816793 -105.95092773 0.72094727 C-101.72961489 0.74930893 -97.50902585 0.74660105 -93.28765965 0.73385715 C-90.03706208 0.72689166 -86.78663092 0.73469952 -83.53605461 0.74711418 C-81.97997616 0.75162189 -80.4238798 0.75197143 -78.86779976 0.74804878 C-76.68957235 0.74512851 -74.5123311 0.76168157 -72.33422852 0.78344727 C-70.47701927 0.79155174 -70.47701927 0.79155174 -68.58229065 0.79981995 C-65.07469429 1.21569524 -63.15938618 2.15055346 -60.3125 4.1875 C-60.3125 3.5275 -60.3125 2.8675 -60.3125 2.1875 C-57.05778133 0.56014067 -53.51030619 0.96123958 -49.9375 0.9375 C-49.16921875 0.916875 -48.4009375 0.89625 -47.609375 0.875 C-41.90218424 0.83550387 -41.90218424 0.83550387 -38.7734375 2.703125 C-38.05027344 3.43789063 -38.05027344 3.43789063 -37.3125 4.1875 C-36.75691406 3.69781738 -36.20132813 3.20813477 -35.62890625 2.70361328 C-32.88169796 0.90553535 -31.49787021 0.84777325 -28.25 0.9296875 C-27.28835938 0.94386719 -26.32671875 0.95804687 -25.3359375 0.97265625 C-24.33820313 1.00230469 -23.34046875 1.03195312 -22.3125 1.0625 C-20.33342519 1.10596805 -18.35425161 1.14519652 -16.375 1.1796875 C-15.06208984 1.21618408 -15.06208984 1.21618408 -13.72265625 1.25341797 C-9.08648582 1.12661833 -4.73542671 0.02379611 0 0 Z M114.6875 18.1875 C116.3688917 24.67457154 118.21812327 30.9552635 120.6875 37.1875 C122.35371425 36.0229799 122.35371425 36.0229799 123.6875 34.1875 C123.5142082 29.89130756 121.49551086 26.90795925 119.1875 23.375 C118.5584375 22.39917969 117.929375 21.42335938 117.28125 20.41796875 C116.49234375 19.31388672 116.49234375 19.31388672 115.6875 18.1875 C115.3575 18.1875 115.0275 18.1875 114.6875 18.1875 Z " fill="#F6F9FC" transform="translate(299.3125,464.8125)"/>
<path d="M0 0 C2.5688752 2.75945931 4.29726393 5.90513161 6.125 9.1875 C7.25245838 11.10815851 8.3800678 13.02872835 9.5078125 14.94921875 C10.08176758 15.94743652 10.65572266 16.9456543 11.24707031 17.97412109 C14.0814849 22.86684176 17.0470441 27.67826128 20 32.5 C21.18010214 34.44115424 22.35979078 36.38255992 23.5390625 38.32421875 C27.31625145 44.52929965 31.13822759 50.70608609 34.96704102 56.87939453 C45.06161635 73.15646063 55.10789326 89.46396796 65.03588867 105.84326172 C67.74424223 110.30975187 70.46913318 114.76327581 73.24609375 119.1875 C73.75422607 120.0021875 74.2623584 120.816875 74.78588867 121.65625 C75.72566582 123.16064564 76.67190399 124.66103531 77.6262207 126.15625 C78.04347412 126.8265625 78.46072754 127.496875 78.890625 128.1875 C79.25188477 128.75855469 79.61314453 129.32960938 79.98535156 129.91796875 C82.71227901 135.51355038 83.29153186 140.98256725 83.23046875 147.1171875 C83.23055435 147.88391785 83.23063995 148.65064819 83.23072815 149.44061279 C83.22746384 151.91892696 83.20866043 154.39677847 83.1875 156.875 C83.17794918 158.583821 83.16850976 160.29264262 83.15917969 162.00146484 C83.13108628 166.22313711 83.08520289 170.44437304 83.02996826 174.66577148 C83.00218392 176.82989447 82.97934494 178.9940135 82.95751953 181.15820312 C82.91359925 184.64828085 82.84015006 188.13584911 82.75 191.625 C82.73606201 192.63546387 82.72212402 193.64592773 82.70776367 194.68701172 C82.65906128 196.06783936 82.65906128 196.06783936 82.609375 197.4765625 C82.58842773 198.26111816 82.56748047 199.04567383 82.54589844 199.85400391 C81.74867064 202.98800765 80.57963528 204.03957562 78 206 C75.05065484 206.38429812 72.47810908 206.52712606 69.53125 206.48583984 C68.67877686 206.48963654 67.82630371 206.49343323 66.94799805 206.49734497 C64.13162377 206.50475115 61.31628251 206.48336728 58.5 206.4609375 C56.54231894 206.458553 54.58463557 206.45764777 52.62695312 206.4581604 C48.5245938 206.45503227 44.42258392 206.43846598 40.3203125 206.41162109 C35.06098014 206.37764135 29.80203181 206.36999254 24.54260254 206.37151146 C20.50028821 206.37096767 16.45805788 206.35999909 12.41577148 206.34550858 C10.47648759 206.33914284 8.53719417 206.3352022 6.59790039 206.33372116 C3.8880186 206.3293858 1.17854425 206.31187968 -1.53125 206.29052734 C-2.73454956 206.2918869 -2.73454956 206.2918869 -3.9621582 206.29327393 C-11.10100537 206.21100273 -11.10100537 206.21100273 -14 204 C-15.22605465 200.32183604 -15.14148045 196.93434518 -15.13371277 193.10461426 C-15.13597833 192.29154076 -15.13824388 191.47846726 -15.14057809 190.64075518 C-15.14692555 187.90697352 -15.14608825 185.17324135 -15.14526367 182.43945312 C-15.14825465 180.48331132 -15.15165704 178.5271701 -15.15544128 176.57102966 C-15.1642906 171.25092447 -15.16661976 165.93083534 -15.16725707 160.6107235 C-15.16820531 156.17454307 -15.17188253 151.73836642 -15.17542917 147.30218744 C-15.18357688 136.840291 -15.18601307 126.37840316 -15.18530273 115.91650391 C-15.1847015 105.11070792 -15.19526167 94.30496178 -15.2110464 83.49917841 C-15.224103 74.23205406 -15.22948744 64.96494604 -15.22884732 55.69781256 C-15.22859183 50.15835157 -15.23147142 44.61893489 -15.24202538 39.07948303 C-15.25167506 33.87240408 -15.25180715 28.66541209 -15.24450874 23.45833015 C-15.24345907 21.54386837 -15.24584833 19.62940126 -15.2518692 17.71494865 C-15.25953805 15.10832397 -15.25497849 12.50200345 -15.24723816 9.89538574 C-15.25238172 9.13187191 -15.25752529 8.36835809 -15.26282471 7.58170748 C-15.23812798 3.83692341 -15.13255075 2.19882613 -13 -1 C-8.61574914 -2.67633121 -4.15077503 -2.04685647 0 0 Z " fill="#E62333" transform="translate(145,239)"/>
<path d="M0 0 C0.88742386 -0.0071553 1.77484772 -0.01431061 2.68916321 -0.02168274 C3.66529572 -0.02437164 4.64142822 -0.02706055 5.6471405 -0.02983093 C7.18634911 -0.03968773 7.18634911 -0.03968773 8.75665283 -0.04974365 C12.16310188 -0.06950536 15.56950679 -0.0811452 18.97599792 -0.09111023 C20.71806298 -0.09722352 20.71806298 -0.09722352 22.49532127 -0.10346031 C28.64130349 -0.12433255 34.7872633 -0.13862972 40.93327332 -0.147995 C47.28896747 -0.15906639 53.64431219 -0.1934718 59.9998827 -0.23316669 C64.88031679 -0.25928125 69.76066695 -0.26768222 74.64116478 -0.27127647 C76.98436025 -0.27615518 79.32755165 -0.28780543 81.67067909 -0.30631447 C84.94827284 -0.33059719 88.22495356 -0.32976051 91.50260925 -0.32279968 C92.47266907 -0.33560974 93.44272888 -0.3484198 94.44218445 -0.36161804 C98.75762953 -0.32816987 101.10725012 -0.26872063 104.83065796 2.07145691 C106.49464546 3.85340335 107.80877782 5.39782928 108.98771667 7.51826477 C109.35542175 8.16360168 109.72312683 8.8089386 110.10197449 9.47383118 C110.48708191 10.17040833 110.87218933 10.86698547 111.26896667 11.58467102 C112.14683099 13.12377078 113.02715454 14.66146976 113.90959167 16.19795227 C114.37300964 17.00700012 114.83642761 17.81604797 115.31388855 18.64961243 C117.79620374 22.91036483 120.40917529 27.08871322 123.01896667 31.27217102 C127.64457377 38.70530266 132.22633233 46.16303607 136.76896667 53.64717102 C141.23487944 61.00199423 145.73048795 68.33690212 150.26896667 75.64717102 C154.74295113 82.8544666 159.1775901 90.08432596 163.58146667 97.33467102 C171.25791511 109.97136849 179.01119834 122.56028469 186.76896667 135.14717102 C195.0300464 148.55067406 203.27892106 161.96067491 211.451828 175.41816711 C214.67370811 180.71887315 217.91016688 186.01026131 221.16349792 191.29170227 C221.53240143 191.89058258 221.90130493 192.48946289 222.28138733 193.10649109 C224.08755961 196.03766854 225.8952381 198.96790808 227.70451355 201.89717102 C228.35097839 202.94517883 228.99744324 203.99318665 229.66349792 205.07295227 C230.23946716 206.00534729 230.8154364 206.93774231 231.40885925 207.89839172 C232.76896667 210.14717102 232.76896667 210.14717102 233.76896667 212.14717102 C233.7652795 211.07888187 233.76159233 210.01059273 233.75779343 208.90993118 C233.66906813 182.93829495 233.60329836 156.96667832 233.56171799 130.99492264 C233.54107652 118.43526581 233.51292559 105.87570898 233.46720886 93.31611633 C233.42738968 82.37153678 233.4015454 71.42702965 233.3926127 60.48237967 C233.38738963 54.68510969 233.37508051 48.8880469 233.34604645 43.0908432 C233.31895516 37.63751873 233.31050899 32.18448736 233.31653595 26.73110199 C233.3154329 24.72674468 233.30744179 22.72237786 233.29214478 20.71807861 C233.27231525 17.98658026 233.27700166 15.25619628 233.28794861 12.52467346 C233.27629724 11.72700758 233.26464588 10.9293417 233.25264144 10.10750413 C233.29071182 6.60596252 233.4897226 4.53631031 235.5571022 1.65532303 C238.96831374 -0.67059956 242.43694856 -0.40970669 246.42131042 -0.3704071 C247.29329071 -0.37741638 248.165271 -0.38442566 249.06367493 -0.39164734 C251.94492982 -0.40924704 254.82520186 -0.39759763 257.70646667 -0.38407898 C259.70899138 -0.38677333 261.71151481 -0.39065527 263.71403503 -0.39567566 C267.91053221 -0.40157339 272.10668878 -0.39299882 276.30314636 -0.37431335 C281.68372712 -0.35152377 287.06350981 -0.36464536 292.44406128 -0.38860321 C296.57904581 -0.4030537 300.71384096 -0.39845861 304.84883118 -0.38809204 C306.83277989 -0.38542269 308.81674577 -0.38870183 310.80067444 -0.39801025 C313.57312089 -0.40816343 316.34427295 -0.39269221 319.11662292 -0.3704071 C320.3479747 -0.38255249 320.3479747 -0.38255249 321.60420227 -0.39494324 C324.98140187 -0.34462244 327.22520933 -0.25758688 329.97943449 1.79258204 C332.28488018 4.82598768 332.27010462 6.53950992 332.27233124 10.32852936 C332.28276223 11.60546614 332.29319322 12.88240293 332.3039403 14.19803476 C332.29529175 15.61805348 332.28626511 17.03806993 332.27690125 18.45808411 C332.28150855 19.96424383 332.28786031 21.47039907 332.29581022 22.97654486 C332.31255039 27.12148128 332.30423608 31.26605061 332.29186535 35.41098857 C332.28283626 39.87868316 332.29677391 44.34631344 332.30778503 48.81399536 C332.3255978 57.56858811 332.32171802 66.32304391 332.31013447 75.07764208 C332.30111125 82.19089232 332.29987133 89.30410409 332.30422974 96.4173584 C332.30484267 97.4286684 332.3054556 98.4399784 332.30608711 99.48193416 C332.30736597 101.53621011 332.30866282 103.59048605 332.30997747 105.64476198 C332.32139135 124.92046868 332.30825691 144.19609936 332.28677601 163.47179359 C332.2689043 180.02133899 332.27200818 196.57077218 332.29045105 213.12031555 C332.31184351 232.32571909 332.32029263 251.53105596 332.308002 270.73646975 C332.30672776 272.7833077 332.30547028 274.83014567 332.30422974 276.87698364 C332.30330408 278.38771981 332.30330408 278.38771981 332.30235973 279.92897591 C332.29890195 287.03600018 332.30474437 294.14298226 332.31414795 301.25 C332.32535128 309.90778463 332.32236305 318.56542415 332.30102497 327.2231921 C332.29049205 331.64292826 332.28643071 336.06242223 332.29962158 340.48215675 C332.31150518 344.52493377 332.3050502 348.56724319 332.28371137 352.60997754 C332.27922809 354.07559441 332.28155011 355.54125045 332.29121453 357.00684232 C332.30331195 358.99313891 332.28855658 360.97954552 332.27233124 362.96581268 C332.27168183 364.07090888 332.27103242 365.17600507 332.27036333 366.31458902 C331.65196541 369.80815605 330.52743816 370.98691841 327.76896667 373.14717102 C325.65091801 373.6533289 325.65091801 373.6533289 323.33538818 373.66183472 C322.45362915 373.67455917 321.57187012 373.68728363 320.66339111 373.70039368 C319.7037999 373.6938678 318.74420868 373.68734192 317.75553894 373.68061829 C316.73886139 373.68923386 315.72218384 373.69784943 314.67469788 373.70672607 C311.31133115 373.72944328 307.94879378 373.72263608 304.58537292 373.71357727 C302.24893953 373.71881047 299.91250825 373.72508583 297.57608032 373.73236084 C292.67762822 373.74277586 287.7794664 373.7381878 282.88102722 373.72358704 C276.60143731 373.70640246 270.32276263 373.72988572 264.04327488 373.76507664 C259.21769132 373.78703036 254.3923274 373.7856139 249.56670952 373.77731133 C247.25143874 373.77649061 244.93615203 373.78337677 242.62092781 373.79808235 C239.383975 373.81548891 236.14867503 373.80101631 232.91178894 373.77827454 C231.95422195 373.78996674 230.99665497 373.80165894 230.0100708 373.81370544 C225.40429161 373.74781946 223.43068443 373.67340853 219.72250366 370.72444153 C216.44349625 366.39849881 216.44349625 366.39849881 215.25334167 364.48701477 C214.81578552 363.79043762 214.37822937 363.09386047 213.92741394 362.37617493 C213.46262634 361.61997864 212.99783875 360.86378235 212.51896667 360.08467102 C212.01228455 359.27175598 211.50560242 358.45884094 210.98356628 357.62129211 C205.62880365 348.99660968 200.37815023 340.30692229 195.12174988 331.62202454 C190.85137985 324.56702518 186.55568349 317.52893938 182.20646667 310.52217102 C181.69277527 309.6945929 181.17908386 308.86701477 180.64982605 308.01435852 C179.86962097 306.75752258 179.86962097 306.75752258 179.07365417 305.47529602 C169.58625923 290.19165067 160.18609502 274.85452515 150.84733582 259.47969055 C146.49135857 252.31542562 142.08521127 245.18338382 137.6627655 238.06001282 C133.66304855 231.61020429 129.70817001 225.13408807 125.76896667 218.64717102 C120.82869202 210.51332767 115.84999323 202.40484549 110.83268738 194.3183136 C106.19003167 186.8343441 101.57059356 179.33624822 96.95646667 171.83467102 C96.59554932 171.2479361 96.23463196 170.66120117 95.86277771 170.0566864 C93.83112349 166.75375058 91.79986491 163.45057172 89.76896667 160.14717102 C89.68594742 174.76573518 89.82762963 189.37786119 90.02287292 203.99482727 C90.04767949 205.88710991 90.0724493 207.77939304 90.09718323 209.67167664 C90.20036219 217.51943396 90.30463893 225.36716833 90.41716003 233.21479797 C90.48661058 238.0717588 90.5508391 242.92876479 90.61166191 247.78584099 C90.63562929 249.62023503 90.6615468 251.45460472 90.68950081 253.28894234 C90.72817116 255.83808304 90.7601846 258.38722807 90.79069519 260.93647766 C90.8036412 261.68293549 90.81658722 262.42939331 90.82992554 263.19847107 C90.87123426 267.29811073 90.57514593 271.12658665 89.76896667 275.14717102 C85.82651933 276.37068916 82.82439062 277.23332808 78.70646667 276.89717102 C70.08686906 271.76209159 65.224748 259.33320941 60.19474792 250.87373352 C56.52750542 244.72064208 52.77877393 238.61902005 49.01896667 232.52217102 C48.34567322 231.42993225 47.67237976 230.33769348 46.97868347 229.21235657 C45.60020145 226.97703768 44.22137442 224.74193152 42.84220886 222.5070343 C39.43977577 216.99310541 36.04109727 211.47686809 32.64396667 205.95967102 C31.98130798 204.88354553 31.31864929 203.80742004 30.63591003 202.69868469 C26.26254413 195.59055528 21.91450027 188.46744578 17.58146667 181.33467102 C11.9706007 172.09850674 6.30599413 162.89672584 0.60881042 153.71357727 C0.13427429 152.94803528 -0.34026184 152.18249329 -0.82917786 151.39375305 C-1.77069739 149.88489503 -2.71972108 148.38069591 -3.67585754 146.88105774 C-4.12590149 146.17352356 -4.57594543 145.46598938 -5.03962708 144.73701477 C-5.43851135 144.11560608 -5.83739563 143.49419739 -6.24836731 142.85395813 C-8.20784854 139.45054614 -8.35813703 136.60068768 -8.36474609 132.76412964 C-8.36901108 131.6467038 -8.37327606 130.52927795 -8.37767029 129.37799072 C-8.3772171 128.15141251 -8.37676392 126.92483429 -8.376297 125.66108704 C-8.37965561 124.36984924 -8.38301422 123.07861145 -8.38647461 121.74824524 C-8.39531389 118.20487416 -8.39765268 114.66152722 -8.3982904 111.11814618 C-8.39923969 108.16082947 -8.40291819 105.20351839 -8.40646249 102.24620384 C-8.4146066 95.26974925 -8.41704675 88.29330756 -8.41633606 81.31684875 C-8.4157351 74.11809862 -8.42629055 66.91942339 -8.44207972 59.72069222 C-8.45515037 53.54142356 -8.46052016 47.36217941 -8.45988065 41.18289703 C-8.45962554 37.49172231 -8.46248374 33.80061416 -8.4730587 30.1094532 C-8.48452786 25.99379977 -8.4799958 21.87831449 -8.47395325 17.76264954 C-8.47957275 16.53809555 -8.48519226 15.31354156 -8.49098206 14.05187988 C-8.48678757 12.93163422 -8.48259308 11.81138855 -8.47827148 10.65719604 C-8.47881625 9.68399194 -8.47936102 8.71078783 -8.47992229 7.70809269 C-8.21899076 5.02326004 -7.68823136 3.40362767 -6.23103333 1.14717102 C-3.9160422 -0.01032454 -2.57711307 0.01424109 0 0 Z M-1.23103333 7.14717102 C-1.37141704 23.68077604 -1.4771083 40.21418667 -1.54190636 56.74824429 C-1.5727978 64.42593794 -1.61488706 72.10326052 -1.68367004 79.78071594 C-1.74361772 86.47519869 -1.78221673 93.16941259 -1.79556429 99.86415631 C-1.80336245 103.40661705 -1.82158836 106.94830895 -1.86541367 110.49052238 C-1.91402892 114.45230505 -1.91496332 118.41334694 -1.91218567 122.3754425 C-1.93375732 123.53997955 -1.95532898 124.7045166 -1.97755432 125.90434265 C-1.91793149 133.77925237 -0.08006048 138.04790923 4.76896667 144.14717102 C5.68466095 145.60413474 6.58200413 147.07295164 7.45256042 148.55732727 C7.89728699 149.30691711 8.34201355 150.05650696 8.80021667 150.82881165 C9.26427917 151.61449524 9.72834167 152.40017883 10.20646667 153.20967102 C14.7940838 160.91990285 19.4950226 168.551014 24.26896667 176.14717102 C29.39487811 184.30784543 34.42467633 192.51592455 39.35978699 200.79316711 C44.46234766 209.33884995 49.71761968 217.78765276 54.96818542 226.24287415 C64.00371663 240.81536319 73.01151526 255.40546115 81.76896667 270.14717102 C82.42896667 269.81717102 83.08896667 269.48717102 83.76896667 269.14717102 C83.73138245 267.61189758 83.73138245 267.61189758 83.69303894 266.04560852 C82.94845749 235.06126169 82.54691779 204.07563812 82.20646667 173.08467102 C82.18981398 171.56915649 82.18981398 171.56915649 82.17282486 170.02302551 C82.03444522 157.39778001 81.89993198 144.77249553 81.76896667 132.14717102 C82.42896667 132.14717102 83.08896667 132.14717102 83.76896667 132.14717102 C83.99326355 132.79299133 84.21756042 133.43881165 84.44865417 134.10420227 C86.24383306 138.2416116 88.55222659 141.98602559 90.89396667 145.83467102 C91.41676208 146.69971252 91.9395575 147.56475403 92.47819519 148.45600891 C100.59289968 161.85218021 108.82145751 175.18005961 117.08146667 188.48701477 C123.64041673 199.05421207 130.12789129 209.66238734 136.57133484 220.30027771 C141.02937268 227.65879841 145.51615167 234.9959868 150.10050964 242.27656555 C154.26697577 248.90750427 158.31920804 255.60747956 162.38249207 262.30195618 C166.35135714 268.83493041 170.35870677 275.342532 174.39396667 281.83467102 C178.64337809 288.67358761 182.82849243 295.54678915 186.95646667 302.45967102 C191.26929609 309.68056772 195.66545857 316.84058339 200.14396667 323.95967102 C202.0762617 327.03350649 203.98929874 330.11864058 205.89396667 333.20967102 C206.71779846 334.54590515 206.71779846 334.54590515 207.55827332 335.90913391 C208.60317908 337.60534518 209.64679456 339.30235252 210.68864441 341.0004425 C215.91488397 349.47654173 221.35408786 357.77872195 226.76896667 366.14717102 C259.10896667 366.14717102 291.44896667 366.14717102 324.76896667 366.14717102 C324.76896667 247.67717102 324.76896667 129.20717102 324.76896667 7.14717102 C297.04896667 7.14717102 269.32896667 7.14717102 240.76896667 7.14717102 C240.57488999 63.04125716 240.9556831 118.8877591 241.76896667 174.77217102 C241.78091411 175.59420517 241.79286154 176.41623932 241.80517101 177.26318359 C242.11490061 198.55802403 242.43598706 219.85268128 242.76896667 241.14717102 C242.10896667 241.14717102 241.44896667 241.14717102 240.76896667 241.14717102 C240.54338074 240.4949054 240.3177948 239.84263977 240.08537292 239.17060852 C238.32497355 235.12743608 236.03673101 231.50877311 233.70646667 227.77217102 C232.7085332 226.15661758 231.71114532 224.54072702 230.71427917 222.92451477 C230.21702332 222.11997864 229.71976746 221.3154425 229.20744324 220.48652649 C226.47243732 216.03866046 223.80600645 211.54998122 221.13224792 207.06513977 C218.07593866 201.971291 214.94612998 196.92219777 211.8283844 191.86582947 C210.14028331 189.12727872 208.4547429 186.3871533 206.76896667 183.64717102 C206.10896667 182.57467102 205.44896667 181.50217102 204.76896667 180.39717102 C183.05021668 145.10420227 183.05021668 145.10420227 181.18986511 142.08100891 C179.85993088 139.9199503 178.52984246 137.75898657 177.19963074 135.59809875 C173.66195186 129.85097197 170.12681437 124.10231349 166.59709167 118.35029602 C160.02353443 107.64391682 153.44519567 96.94453111 146.66056824 86.37007141 C144.45280513 82.90928615 142.34641786 79.42998884 140.37834167 75.82685852 C137.37841771 70.35474776 134.04023933 65.10775029 130.70646667 59.83467102 C125.83558855 52.08894124 121.0214552 44.31635196 116.33146667 36.45967102 C115.59935974 35.23377258 115.59935974 35.23377258 114.85246277 33.98310852 C113.92218498 32.42490119 112.99200443 30.86663579 112.06193542 29.30830383 C110.16701508 26.14103894 108.25674686 22.98356338 106.33146667 19.83467102 C105.75525574 18.88978821 105.1790448 17.9449054 104.58537292 16.97138977 C103.98595886 16.03939758 103.3865448 15.1074054 102.76896667 14.14717102 C102.46151174 13.56006316 102.1540568 12.9729553 101.83728504 12.3680563 C100.19017331 9.5458252 98.94342975 7.51332025 95.73323631 6.51251411 C93.16866156 6.28394493 90.68740389 6.28113137 88.1134491 6.35249329 C86.66394867 6.35096001 86.66394867 6.35096001 85.18516541 6.34939575 C81.99712861 6.35426537 78.81197057 6.4086787 75.62443542 6.46357727 C73.41199305 6.47663564 71.19953041 6.48659868 68.98706055 6.49359131 C63.16847181 6.52029756 57.35110947 6.58904415 51.53300476 6.66651917 C45.59424938 6.73817178 39.6552955 6.77010725 33.7162323 6.80537415 C22.0666054 6.88041092 10.41788808 6.99985767 -1.23103333 7.14717102 Z " fill="#F9FCFD" transform="translate(138.2310333251953,71.85282897949219)"/>
<path d="M0 0 C2.5688752 2.75945931 4.29726393 5.90513161 6.125 9.1875 C7.25245838 11.10815851 8.3800678 13.02872835 9.5078125 14.94921875 C10.08176758 15.94743652 10.65572266 16.9456543 11.24707031 17.97412109 C14.0814849 22.86684176 17.0470441 27.67826128 20 32.5 C21.18010214 34.44115424 22.35979078 36.38255992 23.5390625 38.32421875 C27.31625145 44.52929965 31.13822759 50.70608609 34.96704102 56.87939453 C45.06161635 73.15646063 55.10789326 89.46396796 65.03588867 105.84326172 C67.74424223 110.30975187 70.46913318 114.76327581 73.24609375 119.1875 C73.75422607 120.0021875 74.2623584 120.816875 74.78588867 121.65625 C75.72566582 123.16064564 76.67190399 124.66103531 77.6262207 126.15625 C78.04347412 126.8265625 78.46072754 127.496875 78.890625 128.1875 C79.25188477 128.75855469 79.61314453 129.32960938 79.98535156 129.91796875 C82.71227901 135.51355038 83.29153186 140.98256725 83.23046875 147.1171875 C83.23055435 147.88391785 83.23063995 148.65064819 83.23072815 149.44061279 C83.22746384 151.91892696 83.20866043 154.39677847 83.1875 156.875 C83.17794918 158.583821 83.16850976 160.29264262 83.15917969 162.00146484 C83.13108628 166.22313711 83.08520289 170.44437304 83.02996826 174.66577148 C83.00218392 176.82989447 82.97934494 178.9940135 82.95751953 181.15820312 C82.91359925 184.64828085 82.84015006 188.13584911 82.75 191.625 C82.73606201 192.63546387 82.72212402 193.64592773 82.70776367 194.68701172 C82.65906128 196.06783936 82.65906128 196.06783936 82.609375 197.4765625 C82.58842773 198.26111816 82.56748047 199.04567383 82.54589844 199.85400391 C81.74867064 202.98800765 80.57963528 204.03957562 78 206 C75.05065484 206.38429812 72.47810908 206.52712606 69.53125 206.48583984 C68.67877686 206.48963654 67.82630371 206.49343323 66.94799805 206.49734497 C64.13162377 206.50475115 61.31628251 206.48336728 58.5 206.4609375 C56.54231894 206.458553 54.58463557 206.45764777 52.62695312 206.4581604 C48.5245938 206.45503227 44.42258392 206.43846598 40.3203125 206.41162109 C35.06098014 206.37764135 29.80203181 206.36999254 24.54260254 206.37151146 C20.50028821 206.37096767 16.45805788 206.35999909 12.41577148 206.34550858 C10.47648759 206.33914284 8.53719417 206.3352022 6.59790039 206.33372116 C3.8880186 206.3293858 1.17854425 206.31187968 -1.53125 206.29052734 C-2.73454956 206.2918869 -2.73454956 206.2918869 -3.9621582 206.29327393 C-11.10100537 206.21100273 -11.10100537 206.21100273 -14 204 C-15.22605465 200.32183604 -15.14148045 196.93434518 -15.13371277 193.10461426 C-15.13597833 192.29154076 -15.13824388 191.47846726 -15.14057809 190.64075518 C-15.14692555 187.90697352 -15.14608825 185.17324135 -15.14526367 182.43945312 C-15.14825465 180.48331132 -15.15165704 178.5271701 -15.15544128 176.57102966 C-15.1642906 171.25092447 -15.16661976 165.93083534 -15.16725707 160.6107235 C-15.16820531 156.17454307 -15.17188253 151.73836642 -15.17542917 147.30218744 C-15.18357688 136.840291 -15.18601307 126.37840316 -15.18530273 115.91650391 C-15.1847015 105.11070792 -15.19526167 94.30496178 -15.2110464 83.49917841 C-15.224103 74.23205406 -15.22948744 64.96494604 -15.22884732 55.69781256 C-15.22859183 50.15835157 -15.23147142 44.61893489 -15.24202538 39.07948303 C-15.25167506 33.87240408 -15.25180715 28.66541209 -15.24450874 23.45833015 C-15.24345907 21.54386837 -15.24584833 19.62940126 -15.2518692 17.71494865 C-15.25953805 15.10832397 -15.25497849 12.50200345 -15.24723816 9.89538574 C-15.25238172 9.13187191 -15.25752529 8.36835809 -15.26282471 7.58170748 C-15.23812798 3.83692341 -15.13255075 2.19882613 -13 -1 C-8.61574914 -2.67633121 -4.15077503 -2.04685647 0 0 Z M-8 4 C-8.02332594 29.27718598 -8.04097767 54.55437035 -8.05181217 79.8315649 C-8.05697578 91.56731971 -8.06401971 103.30306784 -8.07543945 115.03881836 C-8.08538432 125.26371835 -8.09185295 135.48861351 -8.09408849 145.7135182 C-8.09539594 151.13110519 -8.09848391 156.54867834 -8.10573006 161.96626091 C-8.11248716 167.05918322 -8.1146176 172.15208592 -8.11310768 177.24501228 C-8.11338415 179.11999747 -8.1153911 180.99498327 -8.11920547 182.8699646 C-8.12413789 185.41825272 -8.12299997 187.9664656 -8.12025452 190.51475525 C-8.12316736 191.26668638 -8.1260802 192.0186175 -8.12908131 192.79333442 C-8.42127254 196.18335779 -8.42127254 196.18335779 -7 199 C-4.44410112 199.09506052 -1.91532028 199.12556761 0.64086914 199.11352539 C1.44080795 199.11367142 2.24074677 199.11381744 3.06492615 199.1139679 C5.72169665 199.11326855 8.37839793 199.10547518 11.03515625 199.09765625 C12.87218691 199.09579215 14.70921806 199.09436821 16.54624939 199.09336853 C21.39109662 199.08954275 26.23591408 199.07971196 31.08074951 199.06866455 C36.02062578 199.05845172 40.96050685 199.05387119 45.90039062 199.04882812 C55.60027353 199.03808974 65.30013429 199.0210126 75 199 C75.25772945 191.35843597 75.45172848 183.71733498 75.56993389 176.07238197 C75.62674622 172.51997353 75.70342745 168.97058927 75.82983398 165.41992188 C76.40697199 148.75674486 76.26145699 135.40509368 65.42196655 121.83178711 C63.25032296 119.03426088 61.51454482 116.05742616 59.70703125 113.01171875 C58.40914912 110.90346423 57.11097933 108.79538676 55.8125 106.6875 C54.50651042 104.56640625 53.20052083 102.4453125 51.89453125 100.32421875 C51.25950684 99.29337158 50.62448242 98.26252441 49.97021484 97.20043945 C48.59428321 94.96536042 47.21949216 92.72961344 45.84619141 90.49291992 C45.48974045 89.91270584 45.13328949 89.33249176 44.76603699 88.73469543 C43.77459203 87.12070289 42.78364242 85.50640609 41.79272461 83.89208984 C40.13803987 81.22269104 38.45396144 78.57563259 36.75 75.9375 C33.52313367 70.89278364 30.44487743 65.76597141 27.375 60.625 C20.44945907 49.03122832 13.32813173 37.5624517 6.19335938 26.09667969 C4.3983749 23.21113222 2.6054094 20.32433709 0.8125 17.4375 C0.25957275 16.55070557 -0.29335449 15.66391113 -0.86303711 14.75024414 C-1.37616455 13.92387451 -1.88929199 13.09750488 -2.41796875 12.24609375 C-2.86938232 11.52091553 -3.3207959 10.7957373 -3.78588867 10.04858398 C-4.95750075 8.07170948 -6.0000992 6.06820821 -7 4 C-7.33 4 -7.66 4 -8 4 Z " fill="#FEFAFA" transform="translate(145,239)"/>
<path d="M0 0 C4.29 0 8.58 0 13 0 C13.83882619 4.39485008 14.67126887 8.79074537 15.5 13.1875 C15.73847656 14.43337891 15.97695312 15.67925781 16.22265625 16.96289062 C16.44824219 18.16494141 16.67382812 19.36699219 16.90625 20.60546875 C17.11572266 21.71043701 17.32519531 22.81540527 17.54101562 23.95385742 C17.95453206 26.6982428 18.09009749 29.23175475 18 32 C18.66 32 19.32 32 20 32 C19.96261719 31.16984375 19.92523438 30.3396875 19.88671875 29.484375 C20.01420043 25.56321443 20.81099245 22.01783382 21.8125 18.25 C21.99264648 17.55132812 22.17279297 16.85265625 22.35839844 16.1328125 C23.77091587 10.71274561 25.32925609 5.3463805 27 0 C30.3 0 33.6 0 37 0 C37.17128418 0.73637695 37.34256836 1.47275391 37.51904297 2.23144531 C38.2991839 5.57219736 39.0870032 8.91109262 39.875 12.25 C40.14441406 13.40886719 40.41382813 14.56773437 40.69140625 15.76171875 C41.08779297 17.43427734 41.08779297 17.43427734 41.4921875 19.140625 C41.73308105 20.16704102 41.97397461 21.19345703 42.22216797 22.25097656 C42.98998611 25.29131059 42.98998611 25.29131059 45 29 C46.98 19.43 48.96 9.86 51 0 C55.29 0 59.58 0 64 0 C61.87933968 9.70290951 59.7060978 19.39302415 57.4375 29.0625 C57.24003174 29.91739014 57.04256348 30.77228027 56.83911133 31.65307617 C55.52112089 37.22509914 53.8793444 42.59075656 52 48 C47.38 48 42.76 48 38 48 C37.1582293 44.62690453 36.32635166 41.2518749 35.5 37.875 C35.26152344 36.92367187 35.02304688 35.97234375 34.77734375 34.9921875 C33.62214067 30.23935199 32.66783388 25.93266691 33 21 C32.34 21 31.68 21 31 21 C30.87625 21.96292969 30.7525 22.92585938 30.625 23.91796875 C29.97894173 28.43468954 29.00083508 32.86313534 28 37.3125 C27.82210937 38.12267578 27.64421875 38.93285156 27.4609375 39.76757812 C26.12676222 45.74647556 26.12676222 45.74647556 25 48 C20.38 48 15.76 48 11 48 C9.43055649 41.48620231 7.86404873 34.97170845 6.30029297 28.45654297 C5.76757751 26.23889955 5.23405128 24.02145074 4.69970703 21.80419922 C3.93310207 18.62257529 3.16938751 15.44026965 2.40625 12.2578125 C2.16563843 11.26194122 1.92502686 10.26606995 1.67712402 9.24002075 C1.45689575 8.31921722 1.23666748 7.3984137 1.00976562 6.44970703 C0.81435181 5.6369632 0.61893799 4.82421936 0.41760254 3.98684692 C0 2 0 2 0 0 Z " fill="#3B539E" transform="translate(218,473)"/>
<path d="M0 0 C4.62 0 9.24 0 14 0 C22 22.05405405 22 22.05405405 22 27 C22.66 27 23.32 27 24 27 C24.09152344 26.06027344 24.18304688 25.12054688 24.27734375 24.15234375 C25.00396397 19.06600223 26.81374189 14.37245053 28.5625 9.5625 C29.0565332 8.17901367 29.0565332 8.17901367 29.56054688 6.76757812 C30.36782647 4.5095352 31.18108727 2.25384435 32 0 C34.14576637 -0.02685938 36.29162645 -0.04633088 38.4375 -0.0625 C39.63246094 -0.07410156 40.82742188 -0.08570313 42.05859375 -0.09765625 C45 0 45 0 46 1 C46.30379368 3.8701161 46.54869523 6.7238911 46.75390625 9.6015625 C46.85166603 10.9063002 46.85166603 10.9063002 46.95140076 12.23739624 C47.08884662 14.08502335 47.22403744 15.93281936 47.35717773 17.78076172 C47.56015769 20.59255304 47.77068428 23.40369985 47.98242188 26.21484375 C48.11503613 28.01038328 48.24721132 29.80595531 48.37890625 31.6015625 C48.44139053 32.43724762 48.50387482 33.27293274 48.56825256 34.13394165 C48.89886333 38.77057671 49.06195243 43.35161922 49 48 C45.04 48 41.08 48 37 48 C36.01 34.635 36.01 34.635 35 21 C33.06877657 26.83319224 33.06877657 26.83319224 31.14086914 32.66748047 C30.89973389 33.39338379 30.65859863 34.11928711 30.41015625 34.8671875 C30.16402588 35.61081543 29.91789551 36.35444336 29.66430664 37.12060547 C29 39 29 39 28 41 C24.37 41 20.74 41 17 41 C15.02 34.73 13.04 28.46 11 22 C10.34 30.58 9.68 39.16 9 48 C5.04 48 1.08 48 -3 48 C-3.20069995 37.6639527 -2.4108601 27.53232679 -1.5 17.25 C-1.35500148 15.57035277 -1.21046693 13.89066542 -1.06640625 12.2109375 C-0.71627673 8.14014339 -0.35990074 4.06994138 0 0 Z " fill="#3B559E" transform="translate(323,473)"/>
<path d="M0 0 C12 0 12 0 14.52392578 1.95605469 C14.9929834 2.85227539 15.46204102 3.74849609 15.9453125 4.671875 C16.48414063 5.64640625 17.02296875 6.6209375 17.578125 7.625 C18.08859375 8.65625 18.5990625 9.6875 19.125 10.75 C19.67414063 11.76578125 20.22328125 12.7815625 20.7890625 13.828125 C22.2402025 16.53122892 23.63412721 19.25307203 25 22 C25.66 23.32 26.32 24.64 27 26 C27.33 17.42 27.66 8.84 28 0 C31.96 0 35.92 0 40 0 C40 15.84 40 31.68 40 48 C28 48 28 48 25.359375 45.6484375 C24.82828125 44.56820312 24.2971875 43.48796875 23.75 42.375 C23.29850586 41.51322144 23.29850586 41.51322144 22.83789062 40.6340332 C22.19794331 39.41137098 21.57588526 38.17920275 20.97070312 36.93896484 C19.6535699 34.3080111 18.17939507 31.78034842 16.69433594 29.24145508 C15.10510309 26.5083774 13.5565776 23.75180683 12 21 C11.67 29.91 11.34 38.82 11 48 C7.37 48 3.74 48 0 48 C0 32.16 0 16.32 0 0 Z " fill="#3B549D" transform="translate(138,473)"/>
<path d="M0 0 C4.29 0 8.58 0 13 0 C16.41690685 9.51986479 19.78134217 19.05561319 23.0769043 28.61816406 C23.5748786 30.06134746 24.07426919 31.5040428 24.57495117 32.94628906 C25.30945006 35.06213725 26.0399639 37.1793221 26.76953125 39.296875 C27.41305542 41.15844238 27.41305542 41.15844238 28.06958008 43.05761719 C29 46 29 46 29 48 C25.04 48 21.08 48 17 48 C16.01 45.03 15.02 42.06 14 39 C9.05 38.67 4.1 38.34 -1 38 C-1.309375 39.464375 -1.61875 40.92875 -1.9375 42.4375 C-2.875 46.875 -2.875 46.875 -4 48 C-6.01964199 48.07244053 -8.04167124 48.08377188 -10.0625 48.0625 C-11.16722656 48.05347656 -12.27195312 48.04445313 -13.41015625 48.03515625 C-14.69212891 48.01775391 -14.69212891 48.01775391 -16 48 C-13.13348401 38.00341355 -9.69581256 28.20527612 -6.3125 18.375 C-5.69969381 16.58990415 -5.0870621 14.8047484 -4.47460938 13.01953125 C-2.98508514 8.67899368 -1.49319692 4.33927542 0 0 Z " fill="#3D559E" transform="translate(389,473)"/>
<path d="M0 0 C4.62 0 9.24 0 14 0 C16.31 4.62 18.62 9.24 21 14 C23.35337223 10.86217036 24.99684205 8.22270281 26.6875 4.75 C27.450625 3.1825 28.21375 1.615 29 0 C33.62 0 38.24 0 43 0 C41.54702664 3.63243341 40.51780816 5.94007843 38.36328125 8.99609375 C37.62174805 10.08180664 37.62174805 10.08180664 36.86523438 11.18945312 C35.82809787 12.69101806 34.78114136 14.18584642 33.72460938 15.67382812 C30.82383741 19.95203798 30.82383741 19.95203798 29.7890625 24.921875 C31.62960366 29.60041188 34.29361684 33.63227754 37.0625 37.8125 C38.18005623 39.52625536 39.29603364 41.24104169 40.41015625 42.95703125 C40.90652588 43.70960205 41.40289551 44.46217285 41.91430664 45.23754883 C43 47 43 47 43 48 C38.38 48 33.76 48 29 48 C26.69 43.38 24.38 38.76 22 34 C19.05685608 37.61508882 19.05685608 37.61508882 17.8515625 40.578125 C16.48801553 43.54839929 15.32457624 45.68409755 13 48 C8.55579154 48.87826024 4.47101656 48.59702001 0 48 C3.57903327 41.2221238 7.36636749 34.78244964 11.77734375 28.5078125 C13.30144772 25.3816951 12.93629375 24.29723591 12 21 C10.80620213 18.67605545 10.80620213 18.67605545 9.27734375 16.42578125 C8.73916016 15.59369141 8.20097656 14.76160156 7.64648438 13.90429688 C7.08251953 13.04900391 6.51855469 12.19371094 5.9375 11.3125 C4.81764857 9.60285167 3.70155864 7.89073159 2.58984375 6.17578125 C2.09347412 5.42208252 1.59710449 4.66838379 1.08569336 3.8918457 C0 2 0 2 0 0 Z " fill="#3C549D" transform="translate(419,473)"/>
<path d="M0 0 C0 4.67325155 -1.07242637 6.82359047 -3 11 C-5.28476878 10.4922736 -7.28415942 9.87613564 -9.4375 8.9375 C-13.35610192 7.50386515 -16.07145308 7.69048436 -20 9 C-18.94758109 12.27180573 -17.97333688 13.01510572 -14.91796875 14.74609375 C-13.68004973 15.32202399 -12.43626535 15.88548168 -11.1875 16.4375 C-5.74988131 18.85232544 -0.77175223 21.45649554 2 27 C2.55604279 31.5577278 2.40693381 35.10135451 0.5 39.3125 C-4.33470302 44.50980575 -8.912844 46.23154712 -16 46.5 C-22.43673533 46.28815808 -27.34706283 44.65293717 -32 40 C-31.71713004 36.03982057 -29.22249334 33.15450667 -27 30 C-26.25556641 30.433125 -26.25556641 30.433125 -25.49609375 30.875 C-20.68992145 33.501523 -17.4662716 34.45552263 -12 34 C-11.67 32.68 -11.34 31.36 -11 30 C-12.175625 29.4225 -13.35125 28.845 -14.5625 28.25 C-16.04270522 27.50205178 -17.52186596 26.75203311 -19 26 C-19.63164062 25.68804687 -20.26328125 25.37609375 -20.9140625 25.0546875 C-25.38614257 22.7102931 -28.36104071 20.31829702 -31 16 C-31.93586166 10.95948195 -31.57343628 7.16811095 -29.3125 2.5625 C-20.79297537 -6.87805432 -10.45192258 -4.79760381 0 0 Z " fill="#3D559F" transform="translate(314,476)"/>
<path d="M0 0 C9.57 0 19.14 0 29 0 C29 3.3 29 6.6 29 10 C23.06 10 17.12 10 11 10 C11 12.97 11 15.94 11 19 C15.95 19 20.9 19 26 19 C26 22.3 26 25.6 26 29 C21.05 29 16.1 29 11 29 C11 31.97 11 34.94 11 38 C17.27 38 23.54 38 30 38 C30 41.3 30 44.6 30 48 C20.1 48 10.2 48 0 48 C0 32.16 0 16.32 0 0 Z " fill="#38529C" transform="translate(186,473)"/>
<path d="M0 0 C2.70608417 1.35304209 2.96183047 2.80966544 4.125 5.5625 C4.47820312 6.38878906 4.83140625 7.21507812 5.1953125 8.06640625 C5.46085938 8.70449219 5.72640625 9.34257812 6 10 C5.34 10 4.68 10 4 10 C4 9.34 4 8.68 4 8 C3.34 8 2.68 8 2 8 C2.33 69.05 2.66 130.1 3 193 C29.07 193.33 55.14 193.66 82 194 C82 189.71 82 185.42 82 181 C82.33 181 82.66 181 83 181 C83 185.62 83 190.24 83 195 C72.32580302 195.02312328 61.65161194 195.04091501 50.97739506 195.05181217 C46.02146078 195.05704103 41.06554358 195.06413874 36.10961914 195.07543945 C31.33101164 195.08626822 26.55242062 195.09227681 21.7738018 195.09487724 C19.94646381 195.09673151 18.11912676 195.10035216 16.29179573 195.10573006 C13.74146671 195.11294036 11.19120663 195.11399095 8.64086914 195.11352539 C7.87770386 195.11712067 7.11453857 195.12071594 6.32824707 195.12442017 C1.11405216 195.11405216 1.11405216 195.11405216 0 194 C-0.09773112 191.49586483 -0.12995681 189.01933809 -0.12025452 186.51475525 C-0.12110894 185.72169167 -0.12196337 184.92862808 -0.12284368 184.11153227 C-0.1245009 181.43362604 -0.11897319 178.75578139 -0.11352539 176.07788086 C-0.11324354 174.16642763 -0.1134012 172.25497429 -0.1139679 170.34352112 C-0.11425597 165.13712541 -0.10835761 159.93075252 -0.10139394 154.72436213 C-0.09516208 149.28975841 -0.09455674 143.85515423 -0.09336853 138.42054749 C-0.09025472 128.12161242 -0.08204066 117.82268792 -0.07201904 107.52375752 C-0.06085945 95.80207243 -0.05534784 84.08038685 -0.05032361 72.35869777 C-0.03985808 48.23912598 -0.02225768 24.11956358 0 0 Z " fill="#D5505F" transform="translate(137,243)"/>
<path d="M0 0 C0.66 0.33 1.32 0.66 2 1 C1.99777939 1.99144012 1.99555878 2.98288025 1.99327087 4.00436401 C1.96591703 16.62789997 1.94820444 29.25143911 1.9375 41.875 C1.93664398 42.87739716 1.93578796 43.87979431 1.93490601 44.91256714 C1.91122143 76.28768366 2.09839775 107.63575155 3 139 C2.01 138.67 1.02 138.34 0 138 C-1.03990671 133.74460118 -1.13552919 129.62601097 -1.11352539 125.2722168 C-1.11367142 124.51070816 -1.11381744 123.74919952 -1.1139679 122.96461487 C-1.11327387 120.45945338 -1.1055054 117.95436718 -1.09765625 115.44921875 C-1.09579026 113.70758607 -1.09436721 111.96595286 -1.09336853 110.22431946 C-1.08955762 105.64914491 -1.07973953 101.0740023 -1.06866455 96.49884033 C-1.05841975 91.82670524 -1.05386434 87.15456497 -1.04882812 82.48242188 C-1.03811596 73.32160058 -1.02105668 64.16080295 -1 55 C-1.33 55 -1.66 55 -2 55 C-2 52.36 -2 49.72 -2 47 C-1.67 47 -1.34 47 -1 47 C-0.67 31.49 -0.34 15.98 0 0 Z " fill="#3C5192" transform="translate(219,203)"/>
<path d="M0 0 C2.53605069 2.53605069 2.79250373 4.46876556 3.625 7.9375 C3.88539063 8.99839844 4.14578125 10.05929687 4.4140625 11.15234375 C5 14 5 14 5 17 C2.03 17 -0.94 17 -4 17 C-2.75471089 11.30724979 -1.43747278 5.6472145 0 0 Z " fill="#DDECF9" transform="translate(395,485)"/>
<path d="M0 0 C8.91 0 17.82 0 27 0 C27 2.97 27 5.94 27 9 C21.39 9 15.78 9 10 9 C12.7586336 6.2413664 14.93919983 6.67782208 18.7109375 6.5390625 C21.64055735 6.06103314 21.64055735 6.06103314 25 2 C16.75 1.67 8.5 1.34 0 1 C0 0.67 0 0.34 0 0 Z " fill="#364E8E" transform="translate(188,474)"/>
<path d="M0 0 C0.66 0.33 1.32 0.66 2 1 C1.67 19.48 1.34 37.96 1 57 C0.01 56.34 -0.98 55.68 -2 55 C-2.40843923 52.28796348 -2.13336867 49.7562858 -2 47 C-1.67 47 -1.34 47 -1 47 C-0.67 31.49 -0.34 15.98 0 0 Z " fill="#657DB6" transform="translate(219,203)"/>
<path d="M0 0 C0.33 0 0.66 0 1 0 C1.33 16.5 1.66 33 2 50 C1.01 49.67 0.02 49.34 -1 49 C-1.6875 46.9375 -1.6875 46.9375 -2 45 C-1.34 45 -0.68 45 0 45 C0 30.15 0 15.3 0 0 Z " fill="#6D7BA8" transform="translate(220,292)"/>
<path d="M0 0 C4.29 0 8.58 0 13 0 C12.01 4.62 11.02 9.24 10 14 C9.34 14 8.68 14 8 14 C8.55450162 9.96005961 9.19955576 6.00222119 10 2 C6.7 2.66 3.4 3.32 0 4 C0 2.68 0 1.36 0 0 Z " fill="#50629A" transform="translate(269,473)"/>
<path d="M0 0 C4.62 0 9.24 0 14 0 C14 0.66 14 1.32 14 2 C12.14375 2.1546875 12.14375 2.1546875 10.25 2.3125 C6.7031688 2.75742052 4.59334442 3.40665558 2 6 C1.34 6.99 0.68 7.98 0 9 C0 6.03 0 3.06 0 0 Z " fill="#53679F" transform="translate(323,473)"/>
<path d="M0 0 C1.32 0.99 2.64 1.98 4 3 C3.83628906 3.53109375 3.67257812 4.0621875 3.50390625 4.609375 C2.88643623 7.53876764 2.90498075 10.25822936 2.9375 13.25 C2.95103516 14.86648438 2.95103516 14.86648438 2.96484375 16.515625 C2.97644531 17.33546875 2.98804688 18.1553125 3 19 C0.49358977 17.11345467 0.02120919 16.11755953 -0.546875 12.96875 C-0.61390625 11.8240625 -0.6809375 10.679375 -0.75 9.5 C-0.82734375 8.3553125 -0.9046875 7.210625 -0.984375 6.03125 C-1 3 -1 3 0 0 Z " fill="#D8E2F5" transform="translate(281,475)"/>
<path d="M0 0 C2.14576637 -0.02685938 4.29162645 -0.04633088 6.4375 -0.0625 C7.63246094 -0.07410156 8.82742188 -0.08570313 10.05859375 -0.09765625 C13 0 13 0 14 1 C14.14115161 3.67058851 14.04247107 6.32432238 14 9 C13.67 9 13.34 9 13 9 C13 7.02 13 5.04 13 3 C11.783125 3.020625 10.56625 3.04125 9.3125 3.0625 C6.08022678 3.06824116 3.15065259 2.78766315 0 2 C0 1.34 0 0.68 0 0 Z " fill="#5C67A8" transform="translate(355,473)"/>
<path d="M0 0 C4.62 0 9.24 0 14 0 C13.67 0.99 13.34 1.98 13 3 C10.36 3 7.72 3 5 3 C5 4.65 5 6.3 5 8 C2.74754119 5.31158141 1.11786042 3.35358125 0 0 Z " fill="#5464A1" transform="translate(419,473)"/>
<path d="M0 0 C4.875 2.75 4.875 2.75 6 5 C4.73392393 5.53229326 3.46189588 6.05044544 2.1875 6.5625 C1.47980469 6.85253906 0.77210938 7.14257812 0.04296875 7.44140625 C-2 8 -2 8 -5 7 C-3.35 4.69 -1.7 2.38 0 0 Z " fill="#445D98" transform="translate(287,506)"/>
<path d="M0 0 C0.66 0.33 1.32 0.66 2 1 C1.67 2.65 1.34 4.3 1 6 C2.98 6 4.96 6 7 6 C7 6.99 7 7.98 7 9 C4.03 9 1.06 9 -2 9 C-1.34 6.03 -0.68 3.06 0 0 Z " fill="#D6E4F2" transform="translate(393,493)"/>
<path d="M0 0 C4.95 0 9.9 0 15 0 C15 3.3 15 6.6 15 10 C14.67 10 14.34 10 14 10 C14 8.02 14 6.04 14 4 C12.35 4 10.7 4 9 4 C9.66 3.67 10.32 3.34 11 3 C11 2.34 11 1.68 11 1 C7.37 1 3.74 1 0 1 C0 0.67 0 0.34 0 0 Z " fill="#4B5FA2" transform="translate(197,492)"/>
<path d="M0 0 C0.66 0 1.32 0 2 0 C2.33 3.3 2.66 6.6 3 10 C1.35 10.33 -0.3 10.66 -2 11 C-1 3.57142857 -1 3.57142857 0 0 Z " fill="#D2E2F6" transform="translate(249,494)"/>
<path d="M0 0 C1.85683215 3.71366429 2.51111356 6.2158891 3.125 10.25 C3.29257812 11.32765625 3.46015625 12.4053125 3.6328125 13.515625 C3.75398438 14.33546875 3.87515625 15.1553125 4 16 C3.01 16 2.02 16 1 16 C0.67 10.72 0.34 5.44 0 0 Z " fill="#5B6EA5" transform="translate(256,480)"/>
<path d="M0 0 C0.66 0.99 1.32 1.98 2 3 C1.01 3.33 0.02 3.66 -1 4 C-1.0272415 5.41655793 -1.04650467 6.83327045 -1.0625 8.25 C-1.07410156 9.03890625 -1.08570313 9.8278125 -1.09765625 10.640625 C-1.00385306 12.90691002 -0.63241063 14.8288895 0 17 C-0.66 17 -1.32 17 -2 17 C-3.8382537 13.32349261 -3.37884188 9.02203801 -3 5 C-1.5 1.875 -1.5 1.875 0 0 Z " fill="#49599C" transform="translate(286,477)"/>
<path d="M0 0 C1.32 0 2.64 0 4 0 C5.25664978 2.90600261 6 4.79604584 6 8 C6.99 8.33 7.98 8.66 9 9 C8.67 9.99 8.34 10.98 8 12 C4.78119883 8.2064129 2.3836813 4.34170523 0 0 Z " fill="#4A5AA0" transform="translate(312,352)"/>
<path d="M0 0 C0.66 0.33 1.32 0.66 2 1 C1.67 4.3 1.34 7.6 1 11 C0.01 11.33 -0.98 11.66 -2 12 C-1.34 8.04 -0.68 4.08 0 0 Z " fill="#5365A4" transform="translate(266,488)"/>
<path d="M0 0 C2.54131358 2.30283254 4.07110295 4.67313793 5.6875 7.6875 C6.12449219 8.49574219 6.56148437 9.30398438 7.01171875 10.13671875 C7.33785156 10.75160156 7.66398438 11.36648438 8 12 C6 12 6 12 4.5 10.5625 C4.005 10.046875 3.51 9.53125 3 9 C2.34 8.67 1.68 8.34 1 8 C0.40644386 5.35139573 0.25790731 2.70802678 0 0 Z " fill="#D43C43" transform="translate(185,322)"/>
<path d="M0 0 C2.9244745 2.63202705 5.02154932 5.60837026 7 9 C6.67 9.99 6.34 10.98 6 12 C4.68 11.67 3.36 11.34 2 11 C1.855625 9.9275 1.71125 8.855 1.5625 7.75 C1.16250558 5.08337051 0.72408076 2.58600271 0 0 Z " fill="#D63B42" transform="translate(169,296)"/>
<path d="M0 0 C0.66 0.33 1.32 0.66 2 1 C2 1.99 2 2.98 2 4 C4.64 4 7.28 4 10 4 C10 4.33 10 4.66 10 5 C5.71 5 1.42 5 -3 5 C-2.01 3.35 -1.02 1.7 0 0 Z " fill="#455A91" transform="translate(422,516)"/>
<path d="M0 0 C0.66 1.32 1.32 2.64 2 4 C0.71937515 5.7074998 -0.61767557 7.37373596 -2 9 C-2.66 9 -3.32 9 -4 9 C-4.33 8.01 -4.66 7.02 -5 6 C-4.01 5.67 -3.02 5.34 -2 5 C-0.78130071 2.49552484 -0.78130071 2.49552484 0 0 Z " fill="#E3F1F8" transform="translate(314,513)"/>
<path d="M0 0 C4.95 0 9.9 0 15 0 C15.33 1.65 15.66 3.3 16 5 C15.34 5 14.68 5 14 5 C13.67 4.01 13.34 3.02 13 2 C8.71 1.67 4.42 1.34 0 1 C0 0.67 0 0.34 0 0 Z " fill="#D5E4FB" transform="translate(388,511)"/>
<path d="M0 0 C1.32 0.33 2.64 0.66 4 1 C4 1.66 4 2.32 4 3 C3.34 3 2.68 3 2 3 C1.67 5.31 1.34 7.62 1 10 C0.67 10 0.34 10 0 10 C0 8.02 0 6.04 0 4 C-0.66 4 -1.32 4 -2 4 C-1.34 2.68 -0.68 1.36 0 0 Z " fill="#4B5F9D" transform="translate(386,508)"/>
<path d="M0 0 C1.65 0 3.3 0 5 0 C4.34 3.3 3.68 6.6 3 10 C1.19669467 6.39338934 0.53400897 3.91606575 0 0 Z " fill="#D0DFF6" transform="translate(260,496)"/>
<path d="M0 0 C0.33 0 0.66 0 1 0 C1.33 5.94 1.66 11.88 2 18 C0.68 18 -0.64 18 -2 18 C-1.34 17.67 -0.68 17.34 0 17 C0 11.39 0 5.78 0 0 Z " fill="#495DA1" transform="translate(381,296)"/>
<path d="M0 0 C2.91843445 2.626591 4.94517315 5.66976339 7 9 C7 9.66 7 10.32 7 11 C3.66428571 9.88809524 3.41582921 9.53679327 1.8125 6.625 C1.46832031 6.01914062 1.12414062 5.41328125 0.76953125 4.7890625 C0 3 0 3 0 0 Z " fill="#DDEEF9" transform="translate(317,361)"/>
<path d="M0 0 C0.66 0 1.32 0 2 0 C4.27678571 6.96428571 4.27678571 6.96428571 3 11 C2.30034557 9.73581754 1.61565237 8.46334598 0.9375 7.1875 C0.55464844 6.47980469 0.17179687 5.77210938 -0.22265625 5.04296875 C-1 3 -1 3 0 0 Z " fill="#43559A" transform="translate(292,314)"/>
<path d="M0 0 C2.95183101 2.95183101 3.08663988 5.95511947 4 10 C2.68 9.67 1.36 9.34 0 9 C0 6.03 0 3.06 0 0 Z " fill="#C3DAF5" transform="translate(333,493)"/>
<path d="M0 0 C1 3 1 3 -0.4375 6.1875 C-1.2109375 7.5796875 -1.2109375 7.5796875 -2 9 C-2.66 9 -3.32 9 -4 9 C-3.67 6.36 -3.34 3.72 -3 1 C-2.01 0.67 -1.02 0.34 0 0 Z " fill="#4C5BAB" transform="translate(271,477)"/>
<path d="M0 0 C2.34058637 2.12780579 3.70700306 4.11562221 5 7 C3.35 7 1.7 7 0 7 C-1.125 2.25 -1.125 2.25 0 0 Z " fill="#485E99" transform="translate(457,514)"/>
<path d="M0 0 C0.99 0.33 1.98 0.66 3 1 C1.515 4.96 1.515 4.96 0 9 C-0.33 9 -0.66 9 -1 9 C-1.09765625 2.84765625 -1.09765625 2.84765625 -1 1 C-0.67 0.67 -0.34 0.34 0 0 Z " fill="#E5F3FB" transform="translate(375,507)"/>
<path d="M0 0 C0.66 0 1.32 0 2 0 C1.67 3.3 1.34 6.6 1 10 C-1.56687367 6.1496895 -0.83288724 4.41430237 0 0 Z " fill="#E9F7FD" transform="translate(321,478)"/>
<path d="M0 0 C0.66 0 1.32 0 2 0 C2.93423645 3.01031744 3.04449911 3.86650268 2 7 C1.01 6.67 0.02 6.34 -1 6 C-0.67 4.02 -0.34 2.04 0 0 Z " fill="#E8F4FC" transform="translate(279,484)"/>
<path d="M0 0 C2.84383123 1.2748209 5.13754018 2.45137078 7 5 C6.6875 7.1875 6.6875 7.1875 6 9 C3.59927045 6.11912454 1.52708963 3.43595166 0 0 Z " fill="#4F5D9B" transform="translate(196,302)"/>
<path d="M0 0 C0.33 0 0.66 0 1 0 C1 2.31 1 4.62 1 7 C-0.98 7.99 -0.98 7.99 -3 9 C-2.01 6.03 -1.02 3.06 0 0 Z " fill="#B6C5EE" transform="translate(358,493)"/>
<path d="M0 0 C0.33 0 0.66 0 1 0 C1.33 2.31 1.66 4.62 2 7 C1.01 7.495 1.01 7.495 0 8 C-0.99 7.67 -1.98 7.34 -3 7 C-2.67 6.01 -2.34 5.02 -2 4 C-1.34 4 -0.68 4 0 4 C0 2.68 0 1.36 0 0 Z " fill="#EFF7FB" transform="translate(397,492)"/>
<path d="M0 0 C2 2 2 2 2.1953125 4.1640625 C2.16050781 5.38222656 2.16050781 5.38222656 2.125 6.625 C2.10695312 7.44226563 2.08890625 8.25953125 2.0703125 9.1015625 C2.04710937 9.72804688 2.02390625 10.35453125 2 11 C0.22575769 7.66152773 -0.57998612 4.78012495 -1 1 C-0.67 0.67 -0.34 0.34 0 0 Z " fill="#445C98" transform="translate(223,489)"/>
<path d="M0 0 C0.33 0 0.66 0 1 0 C1.25 7.625 1.25 7.625 -1 11 C-2.60080151 6.99799622 -1.29279692 3.95443764 0 0 Z " fill="#4E639B" transform="translate(244,476)"/>
<path d="M0 0 C0.99 0 1.98 0 3 0 C3.99 1.98 4.98 3.96 6 6 C5.34 6.66 4.68 7.32 4 8 C2.68 5.36 1.36 2.72 0 0 Z " fill="#4961A0" transform="translate(186,285)"/>
<path d="M0 0 C1.32 0.33 2.64 0.66 4 1 C4.33 2.65 4.66 4.3 5 6 C4.01 6.495 4.01 6.495 3 7 C0 2.25 0 2.25 0 0 Z " fill="#E2F0F4" transform="translate(260,117)"/>
<path d="M0 0 C0.33 0 0.66 0 1 0 C1 2.31 1 4.62 1 7 C0.01 7.495 0.01 7.495 -1 8 C-1.66 7.34 -2.32 6.68 -3 6 C-2.01 4.02 -1.02 2.04 0 0 Z " fill="#4B5BA2" transform="translate(447,475)"/>
<path d="M0 0 C3.875 1.875 3.875 1.875 5 3 C5.04063832 4.66617115 5.042721 6.33388095 5 8 C2.74754119 5.31158141 1.11786042 3.35358125 0 0 Z " fill="#FDDCDB" transform="translate(176,306)"/>
<path d="M0 0 C2.475 0.495 2.475 0.495 5 1 C4.67 2.65 4.34 4.3 4 6 C0 1.125 0 1.125 0 0 Z " fill="#FEE9E0" transform="translate(152,267)"/>
</svg>
