<?xml version="1.0" encoding="UTF-8"?>
<!DOCTYPE svg PUBLIC "-//W3C//DTD SVG 1.1//EN" "http://www.w3.org/Graphics/SVG/1.1/DTD/svg11.dtd">
<svg xmlns="http://www.w3.org/2000/svg" version="1.1" viewBox="0 0 3840 2160" style="shape-rendering:geometricPrecision; text-rendering:geometricPrecision; image-rendering:optimizeQuality; fill-rule:evenodd; clip-rule:evenodd" xmlns:xlink="http://www.w3.org/1999/xlink">
<g><path style="opacity:0.975" fill="#000000" d="M 249.5,811.5 C 269.147,810.107 286.814,815.273 302.5,827C 317.498,842.441 321.998,860.608 316,881.5C 309.794,904.038 295.294,918.205 272.5,924C 266.694,925.003 261.194,925.836 256,926.5C 255.167,949.507 255.334,972.507 256.5,995.5C 267.351,1004.09 278.018,1012.93 288.5,1022C 277.667,1030.83 266.833,1039.67 256,1048.5C 255.333,1079.83 255.333,1111.17 256,1142.5C 280.954,1124.55 299.62,1101.55 312,1073.5C 313.919,1118.74 298.085,1156.57 264.5,1187C 209.86,1225.46 153.86,1227.46 96.5,1193C 52.8743,1161.42 30.8743,1118.42 30.5,1064C 33.6238,1007.26 58.9571,963.595 106.5,933C 120.293,924.292 135.126,918.126 151,914.5C 151.5,914.833 152,915.167 152.5,915.5C 141.615,922.547 131.449,930.547 122,939.5C 112.049,950.746 104.716,963.413 100,977.5C 134.425,961.705 168.925,946.038 203.5,930.5C 204.667,980.163 204.833,1029.83 204,1079.5C 175.912,1094.13 147.745,1108.63 119.5,1123C 156.99,1162.81 200.324,1170.47 249.5,1146C 250.829,1113.57 250.829,1081.07 249.5,1048.5C 238.649,1039.91 227.982,1031.07 217.5,1022C 228.426,1012.95 239.259,1003.79 250,994.5C 250.5,971.502 250.667,948.502 250.5,925.5C 241.414,924.583 232.414,923.083 223.5,921C 185.124,911.156 146.79,901.156 108.5,891C 98.8036,888.754 89.137,889.754 79.5,894C 67.9622,903.611 64.7956,915.444 70,929.5C 71.7632,932.02 73.7632,934.353 76,936.5C 76.6877,937.332 76.521,937.998 75.5,938.5C 54.3997,929.675 43.733,913.675 43.5,890.5C 47.0119,854.147 66.6786,831.981 102.5,824C 113.897,821.893 125.23,822.226 136.5,825C 169.34,834.058 202.007,843.724 234.5,854C 245.035,857.317 255.702,857.984 266.5,856C 280.323,850.202 283.823,840.702 277,827.5C 272.345,822.087 266.512,818.587 259.5,817C 253.814,816.108 248.147,815.108 242.5,814C 244.927,813.098 247.26,812.264 249.5,811.5 Z M 136.5,965.5 C 137.833,988.824 138.5,1012.49 138.5,1036.5C 138.333,1060.17 138.167,1083.83 138,1107.5C 130.911,1111.29 123.745,1114.96 116.5,1118.5C 86.4468,1077.42 79.7801,1032.76 96.5,984.5C 109.894,978.135 123.227,971.802 136.5,965.5 Z"/></g>
<g><path style="opacity:0.978" fill="#000000" d="M 2895.5,811.5 C 2919.74,809.72 2939.91,817.72 2956,835.5C 2967.6,857.986 2966.6,879.986 2953,901.5C 2939.42,917.459 2922.42,925.792 2902,926.5C 2901.33,949.5 2901.33,972.5 2902,995.5C 2912.83,1004.33 2923.67,1013.17 2934.5,1022C 2923.67,1030.83 2912.83,1039.67 2902,1048.5C 2901.33,1079.83 2901.33,1111.17 2902,1142.5C 2926.95,1124.55 2945.62,1101.55 2958,1073.5C 2959.72,1118.22 2944.22,1155.72 2911.5,1186C 2857.34,1225.05 2801.34,1227.72 2743.5,1194C 2699.44,1162.38 2677.1,1119.22 2676.5,1064.5C 2676.69,1029.14 2687.86,997.809 2710,970.5C 2731.09,944.531 2757.59,926.364 2789.5,916C 2792.49,915.132 2795.49,914.799 2798.5,915C 2787.36,922.661 2776.86,931.161 2767,940.5C 2758.32,951.196 2751.15,962.863 2745.5,975.5C 2746,975.833 2746.5,976.167 2747,976.5C 2781.13,961.432 2815.13,946.099 2849,930.5C 2849.83,980.503 2849.67,1030.5 2848.5,1080.5C 2820.83,1094.67 2793.17,1108.83 2765.5,1123C 2795.4,1156.3 2832.07,1166.96 2875.5,1155C 2882.4,1152.55 2889.07,1149.55 2895.5,1146C 2896.66,1113.9 2896.83,1081.74 2896,1049.5C 2884.86,1040.68 2874.02,1031.51 2863.5,1022C 2874.02,1012.49 2884.86,1003.32 2896,994.5C 2896.5,971.502 2896.67,948.502 2896.5,925.5C 2888.74,924.985 2881.08,923.819 2873.5,922C 2835.04,912.468 2796.7,902.468 2758.5,892C 2752.15,890.77 2745.98,889.937 2740,889.5C 2723.33,891.333 2714.17,900.667 2712.5,917.5C 2713.01,925.186 2716.18,931.519 2722,936.5C 2722.69,937.332 2722.52,937.998 2721.5,938.5C 2700.39,929.646 2689.72,913.646 2689.5,890.5C 2691.41,860.164 2706.41,839.331 2734.5,828C 2751.59,821.483 2768.92,820.817 2786.5,826C 2819.17,835.667 2851.83,845.333 2884.5,855C 2896.17,858.978 2907.5,858.312 2918.5,853C 2929.1,843.075 2929.1,833.075 2918.5,823C 2916.33,821.414 2914,820.08 2911.5,819C 2903.95,816.823 2896.28,815.156 2888.5,814C 2890.93,813.098 2893.26,812.264 2895.5,811.5 Z M 2782.5,965.5 C 2783.83,988.824 2784.5,1012.49 2784.5,1036.5C 2784.33,1060.17 2784.17,1083.83 2784,1107.5C 2776.91,1111.29 2769.74,1114.96 2762.5,1118.5C 2733.85,1079.71 2726.35,1037.05 2740,990.5C 2740.64,987.888 2741.81,985.554 2743.5,983.5C 2756.71,977.725 2769.71,971.725 2782.5,965.5 Z"/></g>
<g><path style="opacity:0.989" fill="#000000" d="M 2446.5,825.5 C 2447.33,931.333 2447.83,1037.33 2448,1143.5C 2454.35,1151.18 2461.35,1158.18 2469,1164.5C 2473.99,1160.18 2478.99,1155.85 2484,1151.5C 2485.17,1152.67 2486.33,1153.83 2487.5,1155C 2465.98,1174.02 2444.31,1192.85 2422.5,1211.5C 2408.17,1198.17 2393.83,1184.83 2379.5,1171.5C 2373.52,1176.31 2367.69,1181.31 2362,1186.5C 2361.36,1185.03 2360.53,1183.7 2359.5,1182.5C 2369.16,1173.68 2378.99,1165.01 2389,1156.5C 2389.67,1074.83 2389.67,993.167 2389,911.5C 2388.57,901.139 2384.73,892.306 2377.5,885C 2374.64,883.601 2371.64,882.601 2368.5,882C 2394.68,863.303 2420.68,844.47 2446.5,825.5 Z"/></g>
<g><path style="opacity:0.974" fill="#000000" d="M 1104.5,827.5 C 1106.96,829.052 1108.46,831.385 1109,834.5C 1114.76,863.886 1105.6,887.386 1081.5,905C 1071.22,910.814 1060.22,914.314 1048.5,915.5C 1048.67,1014.83 1048.5,1114.17 1048,1213.5C 1042.16,1216.37 1037.49,1215.04 1034,1209.5C 981.667,1113.17 929.333,1016.83 877,920.5C 876.5,989.166 876.333,1057.83 876.5,1126.5C 901.814,1130.51 923.148,1141.85 940.5,1160.5C 946.156,1154.68 951.656,1148.68 957,1142.5C 958.167,1143.67 959.333,1144.83 960.5,1146C 939.62,1168.71 918.953,1191.54 898.5,1214.5C 890.241,1205.07 880.241,1198.23 868.5,1194C 848.943,1188.86 835.776,1195.69 829,1214.5C 828.439,1230.3 835.605,1241.13 850.5,1247C 855.396,1248.71 860.396,1250.05 865.5,1251C 836.277,1256.3 813.777,1246.47 798,1221.5C 785.912,1191.35 791.745,1165.18 815.5,1143C 832.174,1131 850.84,1125.5 871.5,1126.5C 871.5,1096.5 871.5,1066.5 871.5,1036.5C 860.502,1034.06 851.002,1036.73 843,1044.5C 838.634,1054.74 841.134,1062.9 850.5,1069C 832.158,1067.01 819.991,1057.17 814,1039.5C 806.447,1009.77 816.947,989.602 845.5,979C 854.026,976.758 862.693,975.592 871.5,975.5C 871.978,953.409 871.478,931.409 870,909.5C 865.534,901.704 859.7,895.204 852.5,890C 838.432,884.616 828.932,889.116 824,903.5C 822.966,907.654 821.632,911.654 820,915.5C 814.966,891.665 819.966,870.331 835,851.5C 854.643,833.398 876.477,830.232 900.5,842C 911.364,848.565 919.864,857.398 926,868.5C 965,939.833 1004,1011.17 1043,1082.5C 1043.5,1026.83 1043.67,971.168 1043.5,915.5C 1022.89,914.773 1005.39,907.106 991,892.5C 984.98,899.019 979.147,905.685 973.5,912.5C 970.305,911.123 969.805,909.123 972,906.5C 992,883.833 1012,861.167 1032,838.5C 1046.33,854.277 1063.83,859.777 1084.5,855C 1096.33,849.658 1103,840.491 1104.5,827.5 Z"/></g>
<g><path style="opacity:0.981" fill="#000000" d="M 408.5,831.5 C 410.33,889.158 411.164,947.158 411,1005.5C 430.667,988.5 450.333,971.5 470,954.5C 485.05,971.428 500.216,988.261 515.5,1005C 516.5,1005.67 517.5,1005.67 518.5,1005C 524.321,1000.26 530.321,995.757 536.5,991.5C 537.845,992.347 538.845,993.513 539.5,995C 532.577,1000.05 525.744,1005.21 519,1010.5C 518.856,1066.84 518.189,1123.18 517,1179.5C 509.107,1233.72 477.774,1262.72 423,1266.5C 415.914,1266.35 409.081,1265.18 402.5,1263C 431.742,1255.09 449.242,1236.26 455,1206.5C 456.576,1196.89 457.576,1187.23 458,1177.5C 458.667,1128.5 458.667,1079.5 458,1030.5C 448.426,1019.02 439.093,1007.35 430,995.5C 424.26,1000.62 418.426,1005.62 412.5,1010.5C 411.821,1028.87 411.154,1047.2 410.5,1065.5C 410.581,1091.47 410.748,1118.81 411,1147.5C 416.348,1153.01 421.848,1158.35 427.5,1163.5C 432.524,1159.31 437.69,1155.31 443,1151.5C 443.956,1152.58 444.789,1153.75 445.5,1155C 423.573,1173.44 401.24,1191.27 378.5,1208.5C 363.909,1196.08 349.743,1183.08 336,1169.5C 331.077,1173.05 326.244,1176.71 321.5,1180.5C 320.167,1179.83 319.167,1178.83 318.5,1177.5C 328.537,1169.39 338.704,1161.39 349,1153.5C 349.667,1069.83 349.667,986.167 349,902.5C 346.526,896.026 342.026,891.526 335.5,889C 360.02,869.97 384.353,850.803 408.5,831.5 Z"/></g>
<g><path style="opacity:0.977" fill="#000000" d="M 1897.5,842.5 C 1900.14,842.954 1902.47,844.121 1904.5,846C 1918.33,858.5 1932.17,871 1946,883.5C 1953.15,876.93 1960.48,870.597 1968,864.5C 1968.47,865.931 1969.3,867.097 1970.5,868C 1963,874.833 1955.5,881.667 1948,888.5C 1947.67,983.167 1947.33,1077.83 1947,1172.5C 1945.45,1195.03 1933.95,1209.53 1912.5,1216C 1895.78,1219.44 1879.12,1219.11 1862.5,1215C 1842.06,1209.06 1821.39,1204.06 1800.5,1200C 1782.57,1196.88 1764.57,1196.21 1746.5,1198C 1731.9,1199.37 1721.4,1206.54 1715,1219.5C 1711.2,1237.74 1718.37,1248.91 1736.5,1253C 1746.2,1253.65 1755.86,1253.31 1765.5,1252C 1801.36,1245.13 1837.36,1239.13 1873.5,1234C 1904.66,1229.04 1928.83,1239.54 1946,1265.5C 1956.05,1300.57 1944.55,1325.73 1911.5,1341C 1905.09,1343.94 1898.42,1345.6 1891.5,1346C 1905.76,1337.01 1910.59,1324.51 1906,1308.5C 1904.01,1304.51 1900.84,1302.01 1896.5,1301C 1886.13,1300.23 1875.8,1300.57 1865.5,1302C 1835.88,1307.92 1806.22,1313.59 1776.5,1319C 1758.69,1321.52 1741.02,1320.86 1723.5,1317C 1700.97,1308.11 1687.47,1291.61 1683,1267.5C 1678.78,1238.43 1689.62,1216.93 1715.5,1203C 1718.71,1201.23 1722.05,1199.73 1725.5,1198.5C 1726.67,1150.84 1726.83,1103.17 1726,1055.5C 1717.89,1052.78 1710.05,1053.61 1702.5,1058C 1696.94,1062.58 1695.11,1068.41 1697,1075.5C 1699.5,1080 1703,1083.5 1707.5,1086C 1691.31,1086.16 1680.14,1078.66 1674,1063.5C 1665.27,1030.8 1677.1,1009.3 1709.5,999C 1715.11,997.731 1720.78,996.898 1726.5,996.5C 1726.96,963.459 1726.46,930.459 1725,897.5C 1719.54,881.465 1709.04,876.631 1693.5,883C 1686.27,889.616 1681.77,897.783 1680,907.5C 1678.39,893.009 1682.05,880.009 1691,868.5C 1714.06,841.85 1741.23,836.684 1772.5,853C 1785.79,862.735 1792.95,875.901 1794,892.5C 1794.5,993.166 1794.67,1093.83 1794.5,1194.5C 1807.01,1195.94 1819.34,1198.27 1831.5,1201.5C 1831.5,1082.83 1831.5,964.167 1831.5,845.5C 1833.17,845.5 1834.83,845.5 1836.5,845.5C 1836.33,861.17 1836.5,876.837 1837,892.5C 1857.65,876.346 1877.81,859.68 1897.5,842.5 Z M 1849.5,888.5 C 1860.26,896.321 1870.42,904.988 1880,914.5C 1880.67,943.833 1880.67,973.167 1880,1002.5C 1865.34,1016.13 1851.01,1015.79 1837,1001.5C 1836.33,967.167 1836.33,932.833 1837,898.5C 1841.33,895.268 1845.49,891.934 1849.5,888.5 Z M 1836.5,1009.5 C 1851,1021.45 1865.5,1021.45 1880,1009.5C 1880.67,1022.83 1880.67,1036.17 1880,1049.5C 1865.67,1037.5 1851.33,1037.5 1837,1049.5C 1836.5,1036.17 1836.33,1022.84 1836.5,1009.5 Z M 1853.5,1046.5 C 1863.9,1045.8 1872.73,1049.13 1880,1056.5C 1880.67,1095.83 1880.67,1135.17 1880,1174.5C 1874.24,1197.07 1859.74,1206.74 1836.5,1203.5C 1836.33,1154.5 1836.5,1105.5 1837,1056.5C 1841.92,1052.05 1847.42,1048.71 1853.5,1046.5 Z"/></g>
<g><path style="opacity:0.969" fill="#000000" d="M 3030.5,865.5 C 3043.64,878.145 3055.97,891.645 3067.5,906C 3053.03,920.132 3038.2,933.965 3023,947.5C 3010.83,934 2998.67,920.5 2986.5,907C 3001.67,893.666 3016.33,879.833 3030.5,865.5 Z"/></g>
<g><path style="opacity:0.982" fill="#000000" d="M 1305.5,907.5 C 1307.53,907.338 1309.53,907.505 1311.5,908C 1291.38,923.598 1290.38,940.265 1308.5,958C 1320.96,965.981 1332.79,974.814 1344,984.5C 1348.59,989.673 1351.59,995.673 1353,1002.5C 1353.33,1049.83 1353.67,1097.17 1354,1144.5C 1365.47,1154.56 1377.47,1163.9 1390,1172.5C 1392.66,1170.51 1395.32,1168.51 1398,1166.5C 1398.67,1117.83 1398.67,1069.17 1398,1020.5C 1391.65,1014.32 1385.49,1007.99 1379.5,1001.5C 1395.86,985.641 1412.69,970.308 1430,955.5C 1445.2,969.704 1460.7,983.538 1476.5,997C 1470.67,1003.5 1464.83,1010 1459,1016.5C 1458.33,1059.5 1458.33,1102.5 1459,1145.5C 1473.26,1157.05 1487.43,1168.71 1501.5,1180.5C 1503.8,1179.36 1505.97,1178.03 1508,1176.5C 1508.67,1124.5 1508.67,1072.5 1508,1020.5C 1501.7,1015.2 1495.7,1009.53 1490,1003.5C 1489.33,1002.83 1489.33,1002.17 1490,1001.5C 1506.67,986.167 1523.33,970.833 1540,955.5C 1555.67,968.5 1571.33,981.5 1587,994.5C 1592.83,989.333 1598.67,984.167 1604.5,979C 1607,978.833 1608.17,980 1608,982.5C 1594.65,994.686 1581.15,1006.69 1567.5,1018.5C 1566.83,1061.17 1566.17,1103.83 1565.5,1146.5C 1529.5,1168.83 1493.5,1191.17 1457.5,1213.5C 1439.14,1198.64 1420.64,1183.98 1402,1169.5C 1383.67,1184.17 1365.33,1198.83 1347,1213.5C 1330.31,1199.31 1313.48,1185.31 1296.5,1171.5C 1288.86,1176.64 1281.36,1181.97 1274,1187.5C 1273.36,1186.03 1272.53,1184.7 1271.5,1183.5C 1278.91,1177.71 1286.41,1172.05 1294,1166.5C 1294.67,1125.17 1294.67,1083.83 1294,1042.5C 1293.61,1033.72 1290.94,1025.72 1286,1018.5C 1278.69,1010.86 1271.02,1003.52 1263,996.5C 1253.44,983.738 1250.11,969.404 1253,953.5C 1261.77,928.056 1279.27,912.723 1305.5,907.5 Z"/></g>
<g><path style="opacity:0.971" fill="#000000" d="M 3797.5,943.5 C 3798.38,943.369 3799.04,943.702 3799.5,944.5C 3805.32,960.451 3804.48,976.117 3797,991.5C 3788.9,1007.37 3779.07,1022.04 3767.5,1035.5C 3780.35,1046.85 3793.52,1057.85 3807,1068.5C 3807.83,1097.17 3807.67,1125.84 3806.5,1154.5C 3774.84,1171.52 3744.5,1190.52 3715.5,1211.5C 3708.83,1203.67 3700.83,1197.51 3691.5,1193C 3678.31,1188.69 3668.48,1192.52 3662,1204.5C 3661.45,1212.67 3664.61,1219.17 3671.5,1224C 3674.68,1226.09 3678.02,1227.92 3681.5,1229.5C 3663.2,1229.25 3649.7,1220.92 3641,1204.5C 3632.87,1184.67 3635.2,1166 3648,1148.5C 3658.76,1135.07 3670.26,1122.24 3682.5,1110C 3670.03,1099.2 3657.87,1088.04 3646,1076.5C 3645.17,1054.16 3645.33,1031.83 3646.5,1009.5C 3678.41,993.304 3708.91,974.971 3738,954.5C 3746.23,965.362 3757.06,971.695 3770.5,973.5C 3789.49,972.193 3798.49,962.193 3797.5,943.5 Z M 3786.5,1000.5 C 3779.4,1013.11 3770.9,1024.78 3761,1035.5C 3749.44,1047.73 3737.27,1059.23 3724.5,1070C 3722.02,1069.25 3719.69,1067.92 3717.5,1066C 3712.05,1061.51 3706.88,1056.68 3702,1051.5C 3701.33,1029.83 3701.33,1008.17 3702,986.5C 3711.31,1002.4 3724.81,1012.9 3742.5,1018C 3760.18,1019.66 3774.85,1013.82 3786.5,1000.5 Z M 3649.5,1158.5 C 3651.01,1154.16 3653.17,1150.16 3656,1146.5C 3660.62,1140.21 3665.62,1134.21 3671,1128.5C 3689.5,1110.67 3708,1092.83 3726.5,1075C 3727.91,1074.68 3729.24,1075.02 3730.5,1076C 3737.33,1082.17 3744.17,1088.33 3751,1094.5C 3751.67,1122.17 3751.67,1149.83 3751,1177.5C 3740.59,1151.75 3721.59,1137.42 3694,1134.5C 3675.61,1136.11 3660.78,1144.11 3649.5,1158.5 Z"/></g>
<g><path style="opacity:0.977" fill="#000000" d="M 2521.5,953.5 C 2544.63,976.133 2567.79,976.133 2591,953.5C 2589.55,971.502 2583.55,987.835 2573,1002.5C 2556.44,1020.93 2536.61,1025.43 2513.5,1016C 2506.38,1012.94 2499.71,1009.11 2493.5,1004.5C 2491.56,1006.28 2490.22,1008.45 2489.5,1011C 2522.62,1061.4 2555.62,1111.9 2588.5,1162.5C 2589,1163.52 2589.67,1163.69 2590.5,1163C 2596.5,1157.67 2602.5,1152.33 2608.5,1147C 2610.39,1146.69 2611.72,1147.52 2612.5,1149.5C 2589.79,1170.38 2566.63,1190.71 2543,1210.5C 2511.59,1160.7 2480.43,1110.7 2449.5,1060.5C 2473.77,1024.95 2497.77,989.282 2521.5,953.5 Z"/></g>
<g><path style="opacity:0.976" fill="#000000" d="M 2096.5,955.5 C 2118.29,974.124 2139.96,992.958 2161.5,1012C 2168.25,1008.29 2174.25,1003.29 2179.5,997C 2181.39,996.691 2182.72,997.525 2183.5,999.5C 2178.48,1005.35 2172.98,1010.68 2167,1015.5C 2166.67,1060.83 2166.33,1106.17 2166,1151.5C 2129.86,1170.83 2094.36,1191.17 2059.5,1212.5C 2039.15,1194.98 2018.65,1177.65 1998,1160.5C 1992.83,1165 1987.67,1169.5 1982.5,1174C 1980.81,1173.81 1979.48,1172.81 1978.5,1171C 1984,1166.17 1989.5,1161.33 1995,1156.5C 1995.33,1107.83 1995.67,1059.17 1996,1010.5C 2030.57,993.804 2064.07,975.47 2096.5,955.5 Z M 2055.5,987.5 C 2072.21,1003.28 2089.04,1018.94 2106,1034.5C 2106.67,1082.83 2106.67,1131.17 2106,1179.5C 2089.33,1164.17 2072.67,1148.83 2056,1133.5C 2055.5,1084.83 2055.33,1036.17 2055.5,987.5 Z"/></g>
<g><path style="opacity:0.977" fill="#000000" d="M 673.5,956.5 C 689.836,984.203 705.836,1012.2 721.5,1040.5C 690.896,1064.14 659.896,1087.31 628.5,1110C 627.359,1115.75 627.193,1121.58 628,1127.5C 643.049,1142.38 658.549,1156.72 674.5,1170.5C 692.833,1156 711.167,1141.5 729.5,1127C 733.824,1126.95 734.49,1128.62 731.5,1132C 697.394,1158.47 663.56,1185.31 630,1212.5C 610.8,1194.3 591.3,1176.46 571.5,1159C 570.833,1158.33 570.167,1158.33 569.5,1159C 563.958,1164.21 558.125,1169.04 552,1173.5C 550.764,1172.6 549.93,1171.43 549.5,1170C 555.354,1164.48 561.521,1159.31 568,1154.5C 568.167,1108.5 568.667,1062.5 569.5,1016.5C 605.498,998.434 640.164,978.434 673.5,956.5 Z M 627.5,990.5 C 643.014,1017.02 658.681,1043.52 674.5,1070C 659,1081.5 643.5,1093 628,1104.5C 627.5,1066.5 627.333,1028.5 627.5,990.5 Z"/></g>
<g><path style="opacity:0.977" fill="#000000" d="M 1202.5,956.5 C 1218.84,984.203 1234.84,1012.2 1250.5,1040.5C 1219.9,1064.14 1188.9,1087.31 1157.5,1110C 1156.36,1115.75 1156.19,1121.58 1157,1127.5C 1172.05,1142.38 1187.55,1156.72 1203.5,1170.5C 1221.83,1156 1240.17,1141.5 1258.5,1127C 1262.82,1126.95 1263.49,1128.62 1260.5,1132C 1226.76,1158.95 1192.92,1185.79 1159,1212.5C 1139.63,1194.13 1119.97,1176.13 1100,1158.5C 1093.67,1163.5 1087.33,1168.5 1081,1173.5C 1079.76,1172.6 1078.93,1171.43 1078.5,1170C 1084.35,1164.48 1090.52,1159.31 1097,1154.5C 1097.17,1108.5 1097.67,1062.5 1098.5,1016.5C 1134.5,998.434 1169.16,978.434 1202.5,956.5 Z M 1156.5,990.5 C 1172.52,1016.69 1188.19,1043.19 1203.5,1070C 1188,1081.5 1172.5,1093 1157,1104.5C 1156.5,1066.5 1156.33,1028.5 1156.5,990.5 Z"/></g>
<g><path style="opacity:0.976" fill="#000000" d="M 3565.5,956.5 C 3582.31,984.109 3598.64,1012.11 3614.5,1040.5C 3583.9,1064.14 3552.9,1087.31 3521.5,1110C 3520.36,1115.75 3520.19,1121.58 3521,1127.5C 3536.04,1142.21 3551.38,1156.55 3567,1170.5C 3585.71,1155.45 3604.71,1140.78 3624,1126.5C 3625.3,1127.1 3626.13,1128.1 3626.5,1129.5C 3592.31,1157.52 3557.81,1185.18 3523,1212.5C 3503.8,1194.3 3484.3,1176.46 3464.5,1159C 3463.83,1158.33 3463.17,1158.33 3462.5,1159C 3456.93,1164.4 3450.93,1169.24 3444.5,1173.5C 3443.62,1172.24 3442.62,1171.07 3441.5,1170C 3448,1164.83 3454.5,1159.67 3461,1154.5C 3461.17,1108.5 3461.67,1062.5 3462.5,1016.5C 3498.04,998.24 3532.38,978.24 3565.5,956.5 Z M 3520.5,990.5 C 3536.01,1017.02 3551.68,1043.52 3567.5,1070C 3552,1081.5 3536.5,1093 3521,1104.5C 3520.5,1066.5 3520.33,1028.5 3520.5,990.5 Z"/></g>
<g><path style="opacity:0.977" fill="#000000" d="M 2247.5,957.5 C 2250.04,958.468 2252.21,960.135 2254,962.5C 2263.76,975.017 2273.76,987.35 2284,999.5C 2296.65,985.682 2309.82,972.348 2323.5,959.5C 2340.8,974.828 2357.3,974.162 2373,957.5C 2375.04,984.092 2365.21,1004.93 2343.5,1020C 2321.18,1029.29 2302.68,1024.12 2288,1004.5C 2287.33,1052.5 2287.33,1100.5 2288,1148.5C 2296,1155.83 2304,1163.17 2312,1170.5C 2318.44,1163.69 2325.6,1158.19 2333.5,1154C 2334.36,1154.69 2335.02,1155.52 2335.5,1156.5C 2314.02,1175.07 2292.35,1193.4 2270.5,1211.5C 2253.85,1196.68 2237.35,1181.68 2221,1166.5C 2215.2,1171.3 2209.7,1176.47 2204.5,1182C 2202.09,1182.78 2200.43,1181.95 2199.5,1179.5C 2208.2,1171.39 2217.03,1163.39 2226,1155.5C 2226.67,1113.17 2226.67,1070.83 2226,1028.5C 2219.33,1019.83 2212.67,1011.17 2206,1002.5C 2200.5,1007.33 2195,1012.17 2189.5,1017C 2187.61,1017.31 2186.28,1016.48 2185.5,1014.5C 2206.21,995.45 2226.88,976.45 2247.5,957.5 Z"/></g>
<g><path style="opacity:0.979" fill="#000000" d="M 3349.5,957.5 C 3351.37,957.859 3352.87,958.859 3354,960.5C 3367,975.5 3380,990.5 3393,1005.5C 3400.26,1000.12 3407.42,994.621 3414.5,989C 3416.39,988.691 3417.72,989.525 3418.5,991.5C 3410.4,997.54 3402.74,1004.04 3395.5,1011C 3396.83,1052.33 3396.83,1093.67 3395.5,1135C 3402.57,1144.74 3410.4,1153.91 3419,1162.5C 3424.3,1158.2 3429.3,1153.53 3434,1148.5C 3435.17,1149.67 3436.33,1150.83 3437.5,1152C 3416.62,1171.88 3395.46,1191.38 3374,1210.5C 3358.06,1193.46 3342.22,1176.29 3326.5,1159C 3330,1155.5 3333.5,1152 3337,1148.5C 3337.67,1110.83 3337.67,1073.17 3337,1035.5C 3326.33,1023.5 3315.67,1011.5 3305,999.5C 3301.33,1002.5 3297.67,1005.5 3294,1008.5C 3293.33,1054.5 3293.33,1100.5 3294,1146.5C 3299.13,1152.64 3304.63,1158.47 3310.5,1164C 3295.5,1179 3280.5,1194 3265.5,1209C 3264.83,1209.67 3264.17,1209.67 3263.5,1209C 3249.13,1193.63 3235.13,1177.96 3221.5,1162C 3225.7,1158.13 3229.53,1153.97 3233,1149.5C 3233.67,1111.83 3233.67,1074.17 3233,1036.5C 3222.67,1024.17 3212.33,1011.83 3202,999.5C 3198.93,1002.29 3195.76,1004.95 3192.5,1007.5C 3191.33,1053.83 3191.17,1100.16 3192,1146.5C 3198.21,1152.38 3204.04,1158.54 3209.5,1165C 3194.69,1180.97 3179.36,1196.47 3163.5,1211.5C 3148.14,1194.6 3133.14,1177.43 3118.5,1160C 3123.46,1155.37 3128.13,1150.37 3132.5,1145C 3132.41,1108.2 3132.41,1071.37 3132.5,1034.5C 3123.18,1023.18 3113.51,1012.18 3103.5,1001.5C 3097.35,1006.48 3091.35,1011.65 3085.5,1017C 3083,1017.17 3081.83,1016 3082,1013.5C 3102.69,995.313 3123.52,977.313 3144.5,959.5C 3158.49,974.994 3172.99,989.994 3188,1004.5C 3207.51,989.742 3226.85,974.742 3246,959.5C 3249.29,961.782 3252.29,964.449 3255,967.5C 3266.34,980.342 3277.84,993.009 3289.5,1005.5C 3309.83,989.826 3329.83,973.826 3349.5,957.5 Z"/></g>
<g><path style="opacity:0.975" fill="#000000" d="M 3012.5,958.5 C 3027.79,974.966 3042.62,991.966 3057,1009.5C 3063.38,1003.08 3070.22,997.584 3077.5,993C 3078.36,993.689 3079.02,994.522 3079.5,995.5C 3073.16,1001.84 3066.49,1007.84 3059.5,1013.5C 3058.33,1055.83 3058.17,1098.16 3059,1140.5C 3067,1149.83 3075,1159.17 3083,1168.5C 3088.5,1163.67 3094,1158.83 3099.5,1154C 3101.39,1153.69 3102.72,1154.52 3103.5,1156.5C 3083.82,1174.84 3063.82,1192.84 3043.5,1210.5C 3029.68,1195.17 3016.01,1179.67 3002.5,1164C 3001.83,1163.33 3001.17,1163.33 3000.5,1164C 2995.17,1168.67 2989.83,1173.33 2984.5,1178C 2981.33,1178.83 2980.17,1177.67 2981,1174.5C 2986.33,1169.83 2991.67,1165.17 2997,1160.5C 2997.67,1116.83 2997.67,1073.17 2997,1029.5C 2988.83,1019.83 2980.67,1010.17 2972.5,1000.5C 2967.09,1005.29 2961.59,1009.95 2956,1014.5C 2954.98,1013.65 2954.14,1012.65 2953.5,1011.5C 2972.89,993.441 2992.55,975.774 3012.5,958.5 Z"/></g>
</svg>
