<?xml version="1.0" encoding="UTF-8"?>
<!DOCTYPE svg PUBLIC "-//W3C//DTD SVG 1.1//EN" "http://www.w3.org/Graphics/SVG/1.1/DTD/svg11.dtd">
<svg xmlns="http://www.w3.org/2000/svg" version="1.1" viewBox="0 0 2560 459" style="shape-rendering:geometricPrecision; text-rendering:geometricPrecision; image-rendering:optimizeQuality; fill-rule:evenodd; clip-rule:evenodd" xmlns:xlink="http://www.w3.org/1999/xlink">
<g><path style="opacity:0.992" fill="#cf1b22" d="M 499.5,-0.5 C 513.833,-0.5 528.167,-0.5 542.5,-0.5C 619.91,8.47067 679.743,45.4707 722,110.5C 758.107,173.237 764.44,238.903 741,307.5C 709.203,384.621 652.703,433.121 571.5,453C 558.454,455.587 545.454,457.42 532.5,458.5C 524.5,458.5 516.5,458.5 508.5,458.5C 424.225,451.628 360.059,412.295 316,340.5C 282.57,277.907 277.903,213.24 302,146.5C 331.343,76.157 382.51,29.9904 455.5,8C 470.12,4.17505 484.787,1.34172 499.5,-0.5 Z M 510.5,65.5 C 577.697,64.8362 627.864,93.5028 661,151.5C 681.448,192.695 685.115,235.362 672,279.5C 648.67,343.755 603.17,380.922 535.5,391C 463.814,393.753 411.314,363.587 378,300.5C 350.913,236.792 358.246,177.458 400,122.5C 429.277,88.7784 466.111,69.7784 510.5,65.5 Z"/></g>
<g><path style="opacity:0.992" fill="#cf1b22" d="M 1881.5,-0.5 C 1896.83,-0.5 1912.17,-0.5 1927.5,-0.5C 1970.57,4.08074 2009.91,18.7474 2045.5,43.5C 2045.83,44.5 2046.17,45.5 2046.5,46.5C 2045.2,69.8636 2043.54,93.1969 2041.5,116.5C 1982.51,66.8689 1916.18,53.7023 1842.5,77C 1787.34,102.197 1755.84,145.03 1748,205.5C 1742.77,246.802 1750.44,285.469 1771,321.5C 1801.45,367.568 1844.45,391.234 1900,392.5C 1954.02,390.972 2001.02,372.305 2041,336.5C 2041.67,363.833 2041.67,391.167 2041,418.5C 2007.48,442.062 1970.31,455.395 1929.5,458.5C 1913.5,458.5 1897.5,458.5 1881.5,458.5C 1804.71,451.544 1745.55,415.877 1704,351.5C 1674.21,298.282 1664.87,241.615 1676,181.5C 1691.98,106.994 1734.14,53.1611 1802.5,20C 1827.85,8.91356 1854.18,2.08023 1881.5,-0.5 Z"/></g>
<g><path style="opacity:0.992" fill="#cf1b22" d="M 2307.5,-0.5 C 2321.83,-0.5 2336.17,-0.5 2350.5,-0.5C 2431.59,9.10898 2493.09,48.7756 2535,118.5C 2546.07,139.551 2554.24,161.551 2559.5,184.5C 2559.5,213.833 2559.5,243.167 2559.5,272.5C 2541.12,351.047 2495.12,406.88 2421.5,440C 2395.7,450.457 2369.03,456.624 2341.5,458.5C 2333.17,458.5 2324.83,458.5 2316.5,458.5C 2226.86,450.62 2160.69,407.287 2118,328.5C 2096.59,283.224 2090.26,235.891 2099,186.5C 2120.42,94.0833 2176.58,34.25 2267.5,7C 2280.83,3.72528 2294.17,1.22528 2307.5,-0.5 Z M 2319.5,65.5 C 2392.08,65.6854 2443.91,98.3521 2475,163.5C 2499.26,227.931 2489.59,286.598 2446,339.5C 2395.1,390.763 2335.6,403.93 2267.5,379C 2211.5,351.867 2179.33,307.367 2171,245.5C 2166.86,182.517 2189.69,132.017 2239.5,94C 2263.77,77.632 2290.44,68.132 2319.5,65.5 Z"/></g>
<g><path style="opacity:0.994" fill="#ce1b22" d="M -0.5,9.5 C 44.5012,9.33334 89.5012,9.50001 134.5,10C 215.221,9.8904 257.221,50.0571 260.5,130.5C 261.49,167.66 248.824,199.16 222.5,225C 208.051,236.389 191.717,243.722 173.5,247C 157.934,249.476 142.267,250.809 126.5,251C 106.503,251.5 86.5028,251.667 66.5,251.5C 66.5,316.833 66.5,382.167 66.5,447.5C 44.1667,447.5 21.8333,447.5 -0.5,447.5C -0.5,301.5 -0.5,155.5 -0.5,9.5 Z M 71.5,71.5 C 96.4151,70.2703 121.082,72.1037 145.5,77C 174.294,84.8654 187.961,103.865 186.5,134C 188.156,154.094 180.823,169.76 164.5,181C 153.37,186.027 141.703,189.027 129.5,190C 110.203,191.65 90.8698,192.483 71.5,192.5C 71.5,152.167 71.5,111.833 71.5,71.5 Z"/></g>
<g><path style="opacity:0.996" fill="#cf1b23" d="M 817.5,9.5 C 841.5,9.5 865.5,9.5 889.5,9.5C 889.5,133.833 889.5,258.167 889.5,382.5C 942.167,382.5 994.833,382.5 1047.5,382.5C 1047.5,404.167 1047.5,425.833 1047.5,447.5C 970.833,447.5 894.167,447.5 817.5,447.5C 817.5,301.5 817.5,155.5 817.5,9.5 Z"/></g>
<g><path style="opacity:0.997" fill="#ce1c22" d="M 1087.5,9.5 C 1111.5,9.5 1135.5,9.5 1159.5,9.5C 1159.5,155.5 1159.5,301.5 1159.5,447.5C 1135.5,447.5 1111.5,447.5 1087.5,447.5C 1087.5,301.5 1087.5,155.5 1087.5,9.5 Z"/></g>
<g><path style="opacity:0.996" fill="#ce1b23" d="M 1196.5,9.5 C 1297.5,9.5 1398.5,9.5 1499.5,9.5C 1499.5,29.8333 1499.5,50.1667 1499.5,70.5C 1461.17,70.5 1422.83,70.5 1384.5,70.5C 1384.5,196.167 1384.5,321.833 1384.5,447.5C 1360.5,447.5 1336.5,447.5 1312.5,447.5C 1312.5,321.833 1312.5,196.167 1312.5,70.5C 1273.83,70.5 1235.17,70.5 1196.5,70.5C 1196.5,50.1667 1196.5,29.8333 1196.5,9.5 Z"/></g>
<g><path style="opacity:0.996" fill="#cf1c23" d="M 1535.5,9.5 C 1559.5,9.5 1583.5,9.5 1607.5,9.5C 1607.5,155.5 1607.5,301.5 1607.5,447.5C 1583.5,447.5 1559.5,447.5 1535.5,447.5C 1535.5,301.5 1535.5,155.5 1535.5,9.5 Z"/></g>
</svg>
