<?xml version="1.0" encoding="UTF-8"?>
<svg version="1.1" xmlns="http://www.w3.org/2000/svg" viewBox="0 0 1024 337">
<path d="M0 0 C1.88417623 1.88417623 1.14546089 5.14410398 1.15821838 7.65003967 C1.16315636 8.3532651 1.16809434 9.05649053 1.17318195 9.78102583 C1.18863061 12.15487734 1.19693737 14.52870167 1.20532227 16.90258789 C1.21489501 18.59729759 1.22490473 20.29200487 1.23532104 21.98670959 C1.2624416 26.60219025 1.28341232 31.2176812 1.30332303 35.83319783 C1.32513864 40.65122321 1.3525489 45.46921659 1.37937927 50.28721619 C1.4293662 59.41740177 1.47428269 68.54760507 1.51740164 77.67782539 C1.56672285 88.06944948 1.62165989 98.46104148 1.67708123 108.85263455 C1.79099334 130.23505981 1.89781218 151.6175157 2 173 C2.85464844 173.27714844 3.70929688 173.55429687 4.58984375 173.83984375 C5.69457031 174.20207031 6.79929687 174.56429687 7.9375 174.9375 C9.03964844 175.29714844 10.14179687 175.65679687 11.27734375 176.02734375 C14 177 14 177 15 178 C15.04080783 179.99958364 15.04254356 182.00045254 15 184 C8.49075141 184.86353432 1.98022662 185.71690782 -4.53125 186.56347656 C-6.74281423 186.85219421 -8.95408453 187.14317328 -11.16503906 187.43652344 C-14.35666107 187.85957883 -17.54927771 188.27428998 -20.7421875 188.6875 C-21.71864227 188.81874268 -22.69509705 188.94998535 -23.70114136 189.08520508 C-29.836597 189.86908395 -35.81634464 190.15924932 -42 190 C-43.10228696 185.59085217 -43.07654536 181.51617599 -43 177 C-43.57105469 177.51949219 -44.14210938 178.03898438 -44.73046875 178.57421875 C-55.5845028 187.9097234 -67.78005309 191.81916976 -82 191 C-94.73365512 189.45948123 -105.64950473 183.78632703 -114 174 C-124.48643847 159.93282645 -127.40507554 141.88586619 -127.3125 124.75 C-127.30758545 123.66170898 -127.3026709 122.57341797 -127.29760742 121.45214844 C-127.02080578 102.28895777 -122.55396578 84.94264549 -109.625 70.3125 C-108.75875 69.549375 -107.8925 68.78625 -107 68 C-106.08347656 67.17048828 -106.08347656 67.17048828 -105.1484375 66.32421875 C-92.59737774 55.66722801 -77.22428916 53.85374948 -61.34765625 53.63671875 C-55.47788599 54.12718473 -49.73938415 55.67552674 -44 57 C-44 44.13 -44 31.26 -44 18 C-45.65 17.67 -47.3 17.34 -49 17 C-50.61240394 16.50525603 -52.21727681 15.98511393 -53.8125 15.4375 C-54.60269531 15.16808594 -55.39289063 14.89867187 -56.20703125 14.62109375 C-56.79871094 14.41613281 -57.39039063 14.21117187 -58 14 C-58 12.35 -58 10.7 -58 9 C-51.00407681 7.64472917 -44.00328135 6.31669044 -37 5 C-35.81277344 4.77554199 -34.62554688 4.55108398 -33.40234375 4.31982422 C-29.68650375 3.62090636 -25.96858246 2.93416222 -22.25 2.25 C-21.0734082 2.02739502 -19.89681641 1.80479004 -18.68457031 1.57543945 C-12.35283283 0.42294025 -6.43835515 -0.35020342 0 0 Z M-70.125 69.5 C-84.13976547 89.23807283 -82.17074227 123.77477674 -78.68359375 146.3984375 C-76.61179575 157.31385325 -73.44166419 165.41926102 -64.1875 172 C-58.36867485 173.82551377 -53.10393835 173.84895758 -47.4375 171.5625 C-45.14278259 170.21401488 -45.14278259 170.21401488 -44 169 C-43.89612523 167.66635752 -43.86040307 166.32731476 -43.85282898 164.98965454 C-43.84567368 164.12595749 -43.83851837 163.26226044 -43.83114624 162.37239075 C-43.82845734 161.41757309 -43.82576843 160.46275543 -43.82299805 159.47900391 C-43.81642685 158.47905899 -43.80985565 157.47911407 -43.80308533 156.4488678 C-43.78330042 153.12476538 -43.77167906 149.8007082 -43.76171875 146.4765625 C-43.75764322 145.34487011 -43.7535677 144.21317772 -43.74936867 143.04719162 C-43.72848715 137.05913219 -43.71419366 131.07109582 -43.70483398 125.08300781 C-43.69375674 118.88290347 -43.65934736 112.68315677 -43.61966228 106.48317909 C-43.59357878 101.72892568 -43.58514958 96.97475859 -43.58155251 92.22043991 C-43.57666622 89.93420365 -43.56499474 87.64797175 -43.54651451 85.36180496 C-43.52229581 82.16750595 -43.52305642 78.9741469 -43.5300293 75.77978516 C-43.51081421 74.35363136 -43.51081421 74.35363136 -43.49121094 72.89866638 C-43.38299167 67.97219317 -43.38299167 67.97219317 -45.84187317 63.95126343 C-55.51533028 59.6873778 -63.36465335 61.4279443 -70.125 69.5 Z " fill="#111111" transform="translate(661,146)"/>
<path d="M0 0 C0.77274261 0.00149048 1.54548523 0.00298096 2.34164429 0.0045166 C14.11735789 0.04535529 25.42964104 0.64534388 36.9375 3.3125 C37.62650391 3.45171875 38.31550781 3.5909375 39.02539062 3.734375 C47.68452657 5.48730224 47.68452657 5.48730224 50.9375 7.3125 C53.11729829 12.95109058 53.20287916 18.1929623 53.1328125 24.18359375 C53.1299826 25.105923 53.12715271 26.02825226 53.12423706 26.97853088 C53.11310974 29.90249013 53.08801912 32.82613451 53.0625 35.75 C53.05246057 37.74153201 53.0433364 39.73306886 53.03515625 41.72460938 C53.01319483 46.5873595 52.97871673 51.4498765 52.9375 56.3125 C50.08666992 56.47802734 50.08666992 56.47802734 46.9375 56.3125 C45.00967817 54.17328036 43.69956279 52.37462687 42.25 49.9375 C41.61989014 48.93722778 41.61989014 48.93722778 40.97705078 47.91674805 C39.60728135 45.72880267 38.27088771 43.52277895 36.9375 41.3125 C36.00220595 39.78460259 35.0660013 38.25726224 34.12890625 36.73046875 C33.18992712 35.19542079 32.25112466 33.66026474 31.3125 32.125 C30.6172522 30.98913452 30.6172522 30.98913452 29.90795898 29.83032227 C27.83539039 26.43974853 25.77867324 23.04479279 23.78125 19.609375 C19.8906074 13.03886721 19.8906074 13.03886721 13.625 9.0625 C3.75365337 6.90473576 -6.97696162 7.56333724 -15.6875 12.875 C-29.2501697 22.68076294 -33.81880985 39.6415446 -36.61083984 55.40917969 C-38.27003322 66.26694116 -38.37739652 76.97633167 -38.3125 87.9375 C-38.30939819 88.8665918 -38.30629639 89.79568359 -38.30310059 90.75292969 C-38.7393374 132.21203088 -38.7393374 132.21203088 -21.0625 168.3125 C-14.81075661 173.36710104 -8.03208809 175.08060879 -0.0625 174.3125 C1.5292573 174.00247274 3.11561559 173.66343451 4.6953125 173.296875 C5.49340332 173.11350586 6.29149414 172.93013672 7.11376953 172.74121094 C8.01651611 172.52899902 8.01651611 172.52899902 8.9375 172.3125 C9.28639901 164.2545943 9.55218455 156.19987982 9.71468258 148.13626957 C9.79271826 144.39077168 9.89830645 140.65046606 10.0690918 136.90795898 C11.57526449 121.33738089 11.57526449 121.33738089 7.41680908 107.15936279 C4.26339182 104.46111581 1.10241122 103.09666579 -2.81420898 101.83764648 C-3.88614502 101.33434814 -4.95808105 100.8310498 -6.0625 100.3125 C-6.0625 98.0025 -6.0625 95.6925 -6.0625 93.3125 C20.0075 93.3125 46.0775 93.3125 72.9375 93.3125 C72.9375 100.3125 72.9375 100.3125 71.43359375 101.94921875 C70.75425781 102.29597656 70.07492188 102.64273438 69.375 103 C68.38306641 103.53173828 68.38306641 103.53173828 67.37109375 104.07421875 C64.9375 105.3125 64.9375 105.3125 61.34179688 106.49047852 C59.37614232 107.50317323 59.37614232 107.50317323 57.9375 109.3125 C56.8391919 114.06963476 56.9824349 118.84677044 57.03515625 123.703125 C57.02577009 125.13232698 57.0133116 126.56151181 56.99790955 127.99066162 C56.96567842 131.74587392 56.97512646 135.49986528 56.99328613 139.25512695 C57.00444316 143.08949148 56.97614178 146.92354315 56.95117188 150.7578125 C56.90801931 158.27629064 56.9088997 165.7939161 56.9375 173.3125 C39.02671632 178.74639734 39.02671632 178.74639734 30.9375 180.0625 C30.27878906 180.17464844 29.62007813 180.28679687 28.94140625 180.40234375 C26.94316507 180.73343634 24.94312481 181.0297903 22.9375 181.3125 C22.29159912 181.40821289 21.64569824 181.50392578 20.98022461 181.60253906 C13.51997308 182.58076027 6.01158626 182.55609107 -1.5 182.5625 C-2.2111496 182.56317474 -2.92229919 182.56384949 -3.65499878 182.56454468 C-28.7640425 182.52674315 -53.95024712 177.8485319 -72.75390625 159.84765625 C-86.82996176 144.39019427 -95.09312568 123.95511593 -95.30078125 103.046875 C-95.308853 102.2546051 -95.31692474 101.46233521 -95.32524109 100.64605713 C-95.3390279 98.968487 -95.34977404 97.29088946 -95.35766602 95.61328125 C-95.36907659 93.93415832 -95.38935046 92.25506843 -95.41918945 90.57617188 C-95.83720767 66.98032791 -90.62376209 45.53740155 -75.0625 27.3125 C-74.52238281 26.66023438 -73.98226562 26.00796875 -73.42578125 25.3359375 C-55.22393344 5.25430188 -25.71072112 -0.12233546 0 0 Z " fill="#111111" transform="translate(95.0625,153.6875)"/>
<path d="M0 0 C0.33 23.43 0.66 46.86 1 71 C5.62 68.03 10.24 65.06 15 62 C24.49481003 58.12295257 32.15441782 56.56224616 42.375 56.4375 C43.72948242 56.41514282 43.72948242 56.41514282 45.11132812 56.39233398 C53.33567134 56.51980225 60.66752232 58.62771406 66.875 64.1875 C78.19363666 76.57393257 76.16516322 95.18106187 75.80007744 110.74211121 C75.70619916 115.04901553 75.65614766 119.35653434 75.59960938 123.6640625 C75.52743025 129.10737659 75.44150628 134.54919597 75.30053711 139.99121094 C75.18673722 144.42948261 75.12196242 148.86609179 75.09016609 153.30567932 C75.06925306 154.98685822 75.03051414 156.66791735 74.97326469 158.34825134 C74.80642517 163.39762792 74.74668625 168.08359021 76 173 C78.9776359 176.11135856 81.98604726 177.56163362 86 179 C87 180 87 180 87 185 C65.22 185 43.44 185 21 185 C20.67 183.68 20.34 182.36 20 181 C22.68327638 177.45807517 25.97228759 175.75117931 30 174 C30.66 174 31.32 174 32 174 C31.93875851 162.62968999 31.86163011 151.25960894 31.76428509 139.88954735 C31.71958032 134.60981145 31.68032429 129.33015274 31.65356445 124.05029297 C31.62753274 118.95379502 31.58713094 113.85759408 31.53681374 108.76128006 C31.52014419 106.81809817 31.50863046 104.87486491 31.50238609 102.93162155 C31.49274605 100.20719098 31.46468781 97.4835204 31.43237305 94.75927734 C31.43380814 93.95798401 31.43524323 93.15669067 31.4367218 92.33111572 C31.35579102 87.49847555 30.61639616 84.21136873 28 80 C24.39035976 76.62323978 20.71732615 75.85724944 15.875 75.6875 C9.96455747 75.81245767 9.96455747 75.81245767 1 80 C0.67 111.02 0.34 142.04 0 174 C2.97 174.99 2.97 174.99 6 176 C8.0340906 177.28072371 10.04402816 178.60287726 12 180 C11.67 181.65 11.34 183.3 11 185 C-10.78 185 -32.56 185 -55 185 C-55 183.02 -55 181.04 -55 179 C-53.21118264 177.99491199 -51.41885304 176.99607264 -49.625 176 C-48.62726563 175.443125 -47.62953125 174.88625 -46.6015625 174.3125 C-44 173 -44 173 -42 173 C-42.33 122.18 -42.66 71.36 -43 19 C-47.89933237 16.53976814 -47.89933237 16.53976814 -52.875 14.3125 C-54.421875 13.6628125 -54.421875 13.6628125 -56 13 C-56 11.68 -56 10.36 -56 9 C-47.71652784 7.12614339 -39.40160773 5.46246691 -31.06225586 3.85839844 C-29.396806 3.53633664 -27.73208292 3.21049338 -26.06811523 2.88085938 C-23.63170587 2.39852575 -21.19317994 1.92854299 -18.75390625 1.4609375 C-18.02442276 1.31409515 -17.29493927 1.16725281 -16.54335022 1.01596069 C-10.77544004 -0.06863993 -6.1071258 0 0 0 Z " fill="#111111" transform="translate(403,0)"/>
<path d="M0 0 C0 4.95 0 9.9 0 15 C1.32 13.989375 2.64 12.97875 4 11.9375 C19.46844209 1.12716832 36.32253809 -2.66280542 55 -1 C62.93042442 0.59151049 69.44510726 4.11481721 74.2421875 10.70703125 C81.01230982 22.44355717 79.26585811 38.36671733 79.1953125 51.39453125 C79.19157485 53.43861247 79.18873144 55.48269551 79.18673706 57.52677917 C79.17915979 62.86468595 79.1595631 68.20248108 79.1373291 73.54034424 C79.11674233 79.00409435 79.1077081 84.46786278 79.09765625 89.93164062 C79.07631076 100.62114236 79.04224753 111.31056184 79 122 C79.92039062 122.29390625 80.84078125 122.5878125 81.7890625 122.890625 C85.44638899 124.15422685 88.05560074 125.47622921 91 128 C91 129.98 91 131.96 91 134 C68.23 134 45.46 134 22 134 C22 131.69 22 129.38 22 127 C23.62249941 126.16180842 25.24808497 125.3295884 26.875 124.5 C28.23238281 123.80390625 28.23238281 123.80390625 29.6171875 123.09375 C32 122 32 122 34 122 C33.93876887 109.97777945 33.86164787 97.95577563 33.76428509 85.93379021 C33.71957304 80.35138266 33.68031858 74.76904823 33.65356445 69.18652344 C33.62754006 63.79826053 33.58714334 58.41027888 33.53681374 53.02219009 C33.52013926 50.96736273 33.50862861 48.9124867 33.50238609 46.85760117 C33.4927515 43.97752198 33.46469937 41.09816332 33.43237305 38.21826172 C33.43380814 37.37021469 33.43524323 36.52216766 33.4367218 35.64842224 C33.35821322 30.69698996 32.70584628 27.30665446 30 23 C25.8579961 19.12522216 21.87915617 18.7170662 16.296875 18.76953125 C11.38768931 19.26211961 6.41238687 20.79380656 2 23 C1.67 55.34 1.34 87.68 1 121 C3.74429049 122.09771619 6.4913185 123.18896866 9.25 124.25 C12 126 12 126 12.9375 129.125 C12.958125 130.07375 12.97875 131.0225 13 132 C12 133 12 133 9.29820251 133.12025452 C8.09241043 133.11803391 6.88661835 133.11581329 5.64428711 133.11352539 C4.98089828 133.11367142 4.31750946 133.11381744 3.63401794 133.1139679 C1.43176044 133.11326881 -0.77041345 133.10547665 -2.97265625 133.09765625 C-4.49580336 133.09579206 -6.01895107 133.09436816 -7.542099 133.09336853 C-11.55837651 133.08954346 -15.57461808 133.07971328 -19.59088135 133.06866455 C-23.68623366 133.05845019 -27.78159176 133.05387086 -31.87695312 133.04882812 C-39.91798528 133.038091 -47.95898817 133.02101472 -56 133 C-56.33 131.02 -56.66 129.04 -57 127 C-53.04550451 124.48350287 -49.42529065 122.89655314 -45 121 C-44.67 87.34 -44.34 53.68 -44 19 C-46.31 18.67 -48.62 18.34 -51 18 C-53.45241507 17.16522732 -55.64713 16.10440837 -58 15 C-58 13.02 -58 11.04 -58 9 C-49.67201857 7.30608095 -41.33745168 5.64661924 -33 4 C-31.76668945 3.75459473 -30.53337891 3.50918945 -29.26269531 3.25634766 C-25.61474475 2.53450693 -21.96415595 1.82782813 -18.3125 1.125 C-17.17385498 0.8978833 -16.03520996 0.6707666 -14.86206055 0.43676758 C-13.25391479 0.13162231 -13.25391479 0.13162231 -11.61328125 -0.1796875 C-10.67266846 -0.36257324 -9.73205566 -0.54545898 -8.76293945 -0.73388672 C-6 -1 -6 -1 0 0 Z " fill="#111111" transform="translate(933,200)"/>
<path d="M0 0 C1.54478842 1.54478842 1.13097098 2.98354474 1.13803101 5.13528442 C1.14348434 6.02685745 1.14893768 6.91843048 1.15455627 7.83702087 C1.1555986 8.82295731 1.15664093 9.80889374 1.15771484 10.82470703 C1.16279556 11.85724106 1.16787628 12.88977509 1.17311096 13.95359802 C1.18384245 16.20496893 1.19245164 18.45635069 1.19923019 20.70773697 C1.21098403 24.27192063 1.23042941 27.83598119 1.25234985 31.40011597 C1.31407241 41.53721003 1.36797062 51.67429347 1.40136719 61.81152344 C1.42232401 68.0049057 1.45764177 74.19806709 1.50212479 80.39132309 C1.51628351 82.75235262 1.52500693 85.11342127 1.52817917 87.47449112 C1.53309289 90.78287046 1.55626571 94.09066536 1.58349609 97.39892578 C1.58048996 98.37271683 1.57748383 99.34650787 1.5743866 100.34980774 C1.64332582 105.99578272 2.29860009 110.00827494 5 115 C8.10198918 117.90811486 10.804226 118.9023858 15.0625 119.25 C20.78182776 118.88686808 26.38479688 117.87114689 31.11737061 114.48504639 C33.83090253 110.90321943 33.52823623 107.50473121 33.45410156 103.19238281 C33.45468567 102.30422379 33.45526978 101.41606476 33.45587158 100.50099182 C33.45308686 97.56797073 33.42197651 94.63596836 33.390625 91.703125 C33.38316399 89.66860509 33.3774704 87.634078 33.37347412 85.59954834 C33.35820681 80.24656305 33.31891528 74.89401238 33.2746582 69.54119873 C33.23372932 64.07830688 33.21546818 58.61534475 33.1953125 53.15234375 C33.15242231 42.43470495 33.08415748 31.71738863 33 21 C32.16855469 20.66226563 31.33710938 20.32453125 30.48046875 19.9765625 C29.39378906 19.53054687 28.30710937 19.08453125 27.1875 18.625 C26.10855469 18.18414062 25.02960938 17.74328125 23.91796875 17.2890625 C21 16 21 16 18 14 C18.33 12.35 18.66 10.7 19 9 C29.58232627 6.99806013 40.16890529 5.02143198 50.77612305 3.15527344 C52.31723317 2.88210282 53.85759255 2.60466676 55.3972168 2.32324219 C57.67065675 1.90828514 59.94620559 1.50743978 62.22265625 1.109375 C62.90191666 0.9823822 63.58117706 0.8553894 64.28102112 0.72454834 C69.07380146 -0.09216563 71.90388378 0.2719834 77 1 C77.33 39.94 77.66 78.88 78 119 C81.96 120.65 85.92 122.3 90 124 C90.33 125.65 90.66 127.3 91 129 C88.82850676 131.17149324 84.2189921 130.83047881 81.20703125 131.19140625 C80.30941574 131.30097153 79.41180023 131.4105368 78.48698425 131.52342224 C76.57468857 131.75513197 74.66210472 131.98447348 72.74926758 132.21166992 C69.8687535 132.55577988 66.99010311 132.91315637 64.11132812 133.27148438 C53.98419982 134.50098336 44.21465653 135.2760718 34 135 C33.67 130.38 33.34 125.76 33 121 C31.576875 122.051875 30.15375 123.10375 28.6875 124.1875 C15.74700472 133.18405219 0.74055783 137.96765372 -15.03515625 135.53125 C-24.77157495 133.46333806 -32.09255138 129.35293774 -37.78515625 121.07421875 C-42.48626692 113.04756355 -43.15673378 104.63168851 -43.11352539 95.49438477 C-43.11367142 94.67406265 -43.11381744 93.85374054 -43.1139679 93.00856018 C-43.11327584 90.31948119 -43.10551679 87.63047302 -43.09765625 84.94140625 C-43.09578956 83.06811053 -43.09436684 81.19481433 -43.09336853 79.32151794 C-43.08956315 74.40771114 -43.07974988 69.49393422 -43.06866455 64.58013916 C-43.05840776 59.55928959 -43.05386179 54.53843516 -43.04882812 49.51757812 C-43.03812574 39.67837234 -43.02107322 29.83918866 -43 20 C-43.60835693 19.80301514 -44.21671387 19.60603027 -44.84350586 19.40307617 C-45.64667236 19.13986572 -46.44983887 18.87665527 -47.27734375 18.60546875 C-48.07132568 18.34660889 -48.86530762 18.08774902 -49.68334961 17.82104492 C-52.5919473 16.79020774 -55.28554319 15.46163059 -58 14 C-58 12.35 -58 10.7 -58 9 C-51.91992621 7.60421927 -45.82842777 6.36918167 -39.6875 5.2734375 C-38.83373779 5.12089508 -37.97997559 4.96835266 -37.1003418 4.81118774 C-35.30896674 4.49240765 -33.51737814 4.17482545 -31.72558594 3.85839844 C-29.90790963 3.53602303 -28.09084615 3.21017311 -26.27441406 2.88085938 C-23.62173797 2.39994807 -20.96740962 1.92934228 -18.3125 1.4609375 C-17.51223389 1.31409515 -16.71196777 1.16725281 -15.88745117 1.01596069 C-10.52019957 0.08541184 -5.45018698 -0.21059972 0 0 Z " fill="#121212" transform="translate(217,201)"/>
<path d="M0 0 C1.06098372 0.00092179 2.12196745 0.00184359 3.2151022 0.00279331 C4.42811504 0.00141865 5.64112789 0.00004398 6.8908987 -0.00137234 C8.24737478 0.00216727 9.60385061 0.00580208 10.96032619 0.00952244 C12.37917485 0.00980431 13.79802365 0.00964658 15.21687222 0.00907993 C19.08033881 0.00879194 22.94377463 0.01468892 26.80723405 0.02165389 C30.84047653 0.02788716 34.87371965 0.02849121 38.90696621 0.0296793 C46.54970549 0.03279269 54.19243053 0.04100619 61.83516353 0.05102879 C70.53393099 0.06218967 79.23269911 0.06770031 87.93147194 0.07272422 C105.83033965 0.0831888 123.72919408 0.1007884 141.6280508 0.12304783 C141.91661259 5.47563863 142.20128555 10.82841784 142.48254299 16.18139744 C142.57851063 17.9978588 142.67549319 19.81426687 142.77355862 21.63061619 C143.81734044 40.9885086 143.81734044 40.9885086 143.6280508 50.12304783 C140.9639883 50.54101658 140.9639883 50.54101658 137.6280508 50.12304783 C135.50947914 47.91385879 133.94521021 45.94367047 132.2530508 43.43554783 C131.21715031 41.97589274 130.17928076 40.5176337 129.13976955 39.06054783 C128.58337795 38.27035252 128.02698635 37.4801572 127.4537344 36.66601658 C124.10581757 32.00275078 120.57067154 27.48109002 117.0655508 22.93554783 C115.70723654 21.17341468 114.35160374 19.40921006 112.99914455 17.64257908 C112.42091946 16.89081394 111.84269436 16.13904881 111.24694729 15.36450291 C109.57061947 13.04353085 108.10107167 10.57808261 106.6280508 8.12304783 C99.6980508 7.62804783 99.6980508 7.62804783 92.6280508 7.12304783 C92.9580508 52.99304783 93.2880508 98.86304783 93.6280508 146.12304783 C99.2380508 149.09304783 104.8480508 152.06304783 110.6280508 155.12304783 C110.6280508 157.10304783 110.6280508 159.08304783 110.6280508 161.12304783 C83.2380508 161.12304783 55.8480508 161.12304783 27.6280508 161.12304783 C27.6280508 159.14304783 27.6280508 157.16304783 27.6280508 155.12304783 C29.56945705 153.29492283 29.56945705 153.29492283 32.1905508 151.87304783 C33.03746487 151.39351658 33.88437893 150.91398533 34.75695705 150.41992283 C37.6280508 149.12304783 37.6280508 149.12304783 44.6280508 147.12304783 C44.6280508 100.92304783 44.6280508 54.72304783 44.6280508 7.12304783 C33.25886582 5.79562846 33.25886582 5.79562846 28.7452383 10.56836033 C27.6246139 12.09984702 26.54503954 13.66201188 25.5030508 15.24804783 C24.62785793 16.47297947 24.62785793 16.47297947 23.7349844 17.7226572 C21.99725496 20.16683114 20.31207573 22.64170109 18.6280508 25.12304783 C17.26103366 27.05311542 15.88021537 28.97257322 14.49743557 30.89135838 C13.28417041 32.5797417 12.08664154 34.27849137 10.88976955 35.97851658 C3.504157 46.24694163 3.504157 46.24694163 -0.3719492 50.12304783 C-2.03812035 50.16368615 -3.70583014 50.16576883 -5.3719492 50.12304783 C-5.11209299 43.16274072 -4.84485797 36.20274558 -4.57238865 29.24292088 C-4.480501 26.87319522 -4.39032898 24.5034024 -4.30188084 22.13354588 C-4.17475828 18.73532566 -4.04155105 15.33739144 -3.90710545 11.93945408 C-3.86851917 10.87280018 -3.8299329 9.80614628 -3.79017735 8.70716953 C-3.75021137 7.72622822 -3.7102454 6.7452869 -3.66906834 5.73462009 C-3.63575916 4.86636097 -3.60244999 3.99810184 -3.56813145 3.10353184 C-3.27932583 0.18800357 -2.94505344 0.15277833 0 0 Z " fill="#111111" transform="translate(204.37194919586182,23.876952171325684)"/>
<path d="M0 0 C9.14645087 9.43589552 10.07908805 22.03731598 10.04345703 34.5246582 C10.04608551 35.68742027 10.04608551 35.68742027 10.04876709 36.87367249 C10.05312233 39.40278446 10.05027162 41.93182498 10.046875 44.4609375 C10.04754952 46.23211175 10.04852077 48.00328591 10.04977417 49.77445984 C10.05124226 53.47017303 10.04912397 57.16586192 10.04443359 60.86157227 C10.03871587 65.59717633 10.04203381 70.33272396 10.04800606 75.068326 C10.05161787 78.71856614 10.05047058 82.36879288 10.04787827 86.01903343 C10.0472118 87.76573887 10.04802763 89.51244554 10.05035782 91.25914955 C10.05289678 93.69534163 10.0490271 96.13144173 10.04345703 98.56762695 C10.04548126 99.28716553 10.04750549 100.0067041 10.04959106 100.74804688 C10.03560114 104.05039265 9.93500844 107.06471634 8.9140625 110.22265625 C9.68492187 110.35542969 10.45578125 110.48820312 11.25 110.625 C12.25289063 110.80160156 13.25578125 110.97820312 14.2890625 111.16015625 C15.78566406 111.42119141 15.78566406 111.42119141 17.3125 111.6875 C19.9140625 112.22265625 19.9140625 112.22265625 21.9140625 113.22265625 C21.7421875 115.58203125 21.7421875 115.58203125 20.9140625 118.22265625 C18.5859375 119.55078125 18.5859375 119.55078125 15.6640625 120.47265625 C14.71015625 120.7871875 13.75625 121.10171875 12.7734375 121.42578125 C0.76522978 124.77233094 -13.91126634 125.26694864 -25.0859375 119.22265625 C-28.91424893 116.75020512 -31.04748462 114.29956201 -33.0859375 110.22265625 C-33.0859375 109.56265625 -33.0859375 108.90265625 -33.0859375 108.22265625 C-33.7046875 108.90328125 -34.3234375 109.58390625 -34.9609375 110.28515625 C-44.62927936 119.84455905 -54.15589423 123.46567211 -67.5234375 123.66015625 C-79.12461739 123.55904196 -87.41592471 121.10429031 -95.91796875 112.83203125 C-102.52206347 104.88331904 -104.31527163 95.35158025 -104.0859375 85.22265625 C-103.24556468 76.22048078 -99.87592681 67.43064648 -93.0859375 61.22265625 C-78.53900214 49.66764377 -53.64018728 44.22265625 -35.0859375 44.22265625 C-35.18047575 40.25704584 -35.28677214 36.29193035 -35.40332031 32.3269043 C-35.45979848 30.32551896 -35.50733518 28.32388767 -35.5546875 26.32226562 C-35.86993155 15.89294161 -36.33924177 6.63129462 -43.0859375 -1.77734375 C-46.89160059 -5.24721303 -51.42625104 -5.48615007 -56.3671875 -6.15234375 C-60.96984874 -5.51749392 -62.862807 -2.34166741 -65.61230469 1.17480469 C-67.34205491 3.46154068 -69.02963896 5.77508798 -70.7109375 8.09765625 C-71.32122803 8.92885986 -71.93151855 9.76006348 -72.56030273 10.61645508 C-75.51392273 14.64558847 -78.42800755 18.69566983 -81.26953125 22.8046875 C-81.7579248 23.50029785 -82.24631836 24.1959082 -82.74951172 24.91259766 C-83.66247728 26.21624237 -84.56197625 27.5294527 -85.44580078 28.85302734 C-86.68359375 30.609375 -86.68359375 30.609375 -89.0859375 33.22265625 C-90.7359375 33.22265625 -92.3859375 33.22265625 -94.0859375 33.22265625 C-94.0859375 21.01265625 -94.0859375 8.80265625 -94.0859375 -3.77734375 C-85.07759077 -7.15547378 -85.07759077 -7.15547378 -81.24609375 -7.91015625 C-80.41013672 -8.07644531 -79.57417969 -8.24273437 -78.71289062 -8.4140625 C-77.86662109 -8.57519531 -77.02035156 -8.73632812 -76.1484375 -8.90234375 C-75.30603516 -9.07121094 -74.46363281 -9.24007812 -73.59570312 -9.4140625 C-50.22659685 -13.98354132 -19.37012767 -16.50450953 0 0 Z M-55.0859375 57.22265625 C-60.60690457 63.93734593 -61.45527985 71.15425381 -61.3984375 79.53515625 C-61.39424805 80.37385254 -61.39005859 81.21254883 -61.38574219 82.07666016 C-61.23418489 90.38812693 -60.33394481 98.1639825 -54.0859375 104.22265625 C-51.23150115 105.91729004 -49.02412766 106.53953011 -45.7109375 106.59765625 C-44.61652344 106.64019531 -44.61652344 106.64019531 -43.5 106.68359375 C-39.70091325 105.95820178 -37.9426684 104.88845505 -35.0859375 102.22265625 C-34.21895412 98.37965763 -34.38907686 94.59766265 -34.5 90.67578125 C-34.50848969 89.54944275 -34.51697937 88.42310425 -34.52572632 87.26263428 C-34.55931436 83.66500213 -34.63461082 80.06961095 -34.7109375 76.47265625 C-34.74102979 74.03388653 -34.76840686 71.59508169 -34.79296875 69.15625 C-34.85912354 63.17762077 -34.95952817 57.20029858 -35.0859375 51.22265625 C-42.35335802 51.22265625 -49.23741922 52.92578568 -55.0859375 57.22265625 Z " fill="#111111" transform="translate(411.0859375,212.77734375)"/>
<path d="M0 0 C6.72672353 6.40218862 9.92209863 13.74707024 10.15821838 23.0559845 C10.17876586 24.6776497 10.19411624 26.29938593 10.20532227 27.92114258 C10.21522186 28.80944763 10.22512146 29.69775269 10.23532104 30.61297607 C10.26683085 33.54013431 10.29165181 36.46730875 10.31640625 39.39453125 C10.33698486 41.42763178 10.35798157 43.46072812 10.37937927 45.49382019 C10.43450622 50.83833415 10.4839568 56.18288612 10.53222656 61.52746582 C10.58251012 66.98383965 10.63816038 72.44015845 10.69335938 77.89648438 C10.80082624 88.59760921 10.90229661 99.29878188 11 110 C14.63 110.99 18.26 111.98 22 113 C22.495 115.475 22.495 115.475 23 118 C8.63852269 124.29460495 -6.46134255 126.90321124 -21.53515625 121.13671875 C-26.63546793 118.78459403 -29.49396104 116.01207791 -32 111 C-32 110.34 -32 109.68 -32 109 C-32.70125 109.60328125 -33.4025 110.2065625 -34.125 110.828125 C-46.45366492 121.21368512 -56.71292179 125.2001005 -73 124 C-81.96207615 122.69142692 -89.70907656 119.91197814 -95.78125 112.9609375 C-102.81623565 103.20161917 -104.11532839 92.83000005 -103 81 C-100.85621202 71.31056281 -96.22459551 63.9436193 -88.0625 58.3125 C-73.19439942 49.61643587 -51.32642243 45 -34 45 C-34.18942763 40.6427796 -34.40206271 36.28744618 -34.63476562 31.93237305 C-34.71056209 30.45578717 -34.78039313 28.97888089 -34.84375 27.50170898 C-35.27075618 12.6015648 -35.27075618 12.6015648 -42.00585938 -0.2265625 C-44.0769111 -2.0683989 -45.63774967 -2.9339194 -48.25 -3.8125 C-48.95640625 -4.06644531 -49.6628125 -4.32039062 -50.390625 -4.58203125 C-54.1322086 -5.18135677 -57.43825249 -5.31823468 -61 -4 C-63.42955308 -1.80231768 -65.03248849 0.79056687 -66.75 3.5625 C-67.77353746 5.11233382 -68.7996513 6.66046873 -69.828125 8.20703125 C-70.34697266 9.00061035 -70.86582031 9.79418945 -71.40039062 10.61181641 C-73.9587477 14.43139041 -76.72174998 18.08881696 -79.5 21.75 C-80.23814941 22.73141968 -80.23814941 22.73141968 -80.99121094 23.73266602 C-83.60611352 27.20070538 -86.26756123 30.62311812 -89 34 C-90.65 33.67 -92.3 33.34 -94 33 C-94.0246826 28.05208706 -94.04285166 23.1042098 -94.05493164 18.15625 C-94.05996653 16.47232438 -94.06679481 14.78840314 -94.07543945 13.10449219 C-94.08754196 10.68683797 -94.09323668 8.26924144 -94.09765625 5.8515625 C-94.10281754 5.0963028 -94.10797882 4.34104309 -94.11329651 3.56289673 C-94.11387171 -1.77225659 -94.11387171 -1.77225659 -93 -4 C-89.36799285 -5.31587597 -85.56772755 -6.10639697 -81.8125 -7 C-80.69294922 -7.2676416 -79.57339844 -7.5352832 -78.41992188 -7.81103516 C-54.07972881 -13.36754567 -20.6879574 -17.15786943 0 0 Z M-55 58 C-62.14476118 67.84818432 -61.86084481 79.69140528 -60.25 91.3125 C-59.12273006 97.48450282 -56.92934486 101.92793251 -52 106 C-46.79792242 107.73402586 -42.5443588 107.64582277 -37.5625 105.5625 C-35.15246512 104.23099846 -35.15246512 104.23099846 -34 103 C-33.90666295 101.40389018 -33.88254628 99.80366572 -33.88647461 98.20483398 C-33.88658791 96.67335976 -33.88658791 96.67335976 -33.88670349 95.11094666 C-33.89186478 94.0005452 -33.89702606 92.89014374 -33.90234375 91.74609375 C-33.9037587 90.61551041 -33.90517365 89.48492706 -33.90663147 88.32008362 C-33.91224981 84.69252935 -33.92480542 81.06503576 -33.9375 77.4375 C-33.94251264 74.98502693 -33.94707595 72.5325529 -33.95117188 70.08007812 C-33.9622252 64.05336455 -33.97898116 58.02668661 -34 52 C-41.59975968 52 -48.88774179 53.38462135 -55 58 Z " fill="#111111" transform="translate(850,212)"/>
<path d="M0 0 C4.22924916 3.99234101 7.00430601 8.59466467 9.625 13.75 C10.00527344 14.48605469 10.38554688 15.22210938 10.77734375 15.98046875 C13.20609608 21.30539366 14.36255446 26.76986047 15.375 32.5 C15.50285889 33.20189453 15.63071777 33.90378906 15.76245117 34.62695312 C16.91633329 41.84419748 16.625 48.17933387 16.625 55.75 C-8.125 55.75 -32.875 55.75 -58.375 55.75 C-56.20772702 70.92091086 -54.2398152 82.7004641 -42.375 92.75 C-32.45426453 99.04864877 -20.85493953 100.7426851 -9.32617188 98.31933594 C-2.51312671 96.39779595 3.58904354 93.37157387 9.625 89.75 C10.615 89.75 11.605 89.75 12.625 89.75 C13.15214106 92.76223461 13.09882988 94.92209945 11.55859375 97.61328125 C2.19468655 109.32403237 -12.92697884 116.15358154 -27.44921875 118.43359375 C-44.61074743 120.28951341 -64.05435186 117.96892281 -78.1875 107.375 C-79.59618373 106.1816726 -80.99292547 104.97404663 -82.375 103.75 C-82.97828125 103.27433594 -83.5815625 102.79867187 -84.203125 102.30859375 C-93.79249718 94.03668036 -99.38611403 79.04910446 -100.375 66.75 C-101.62419668 45.7093995 -100.81556688 24.79291874 -86.53588867 7.95239258 C-65.54773961 -15.51264135 -24.90490707 -19.88640414 0 0 Z M-49.375 0.75 C-57.01952643 12.85978719 -59.59499903 26.54893285 -59.4375 40.6875 C-59.43298828 41.46673828 -59.42847656 42.24597656 -59.42382812 43.04882812 C-59.41216908 44.94925268 -59.39423877 46.84963706 -59.375 48.75 C-47.36482801 48.21031448 -35.36654715 47.61574918 -23.375 46.75 C-22.13667927 19.65246831 -22.13667927 19.65246831 -33.8125 -3.875 C-40.53123337 -7.480174 -44.92442305 -4.60272093 -49.375 0.75 Z " fill="#111111" transform="translate(585.375,70.25)"/>
<path d="M0 0 C0.33 10.89 0.66 21.78 1 33 C2.32 29.04 3.64 25.08 5 21 C9.09078946 13.00869037 14.11575298 5.88932847 22.39453125 1.82421875 C25.34260077 0.89162104 28.04345603 0.54805662 31.125 0.3125 C32.67574219 0.18294922 32.67574219 0.18294922 34.2578125 0.05078125 C37 0 37 0 40 1 C40 14.2 40 27.4 40 41 C33.4 41 26.8 41 20 41 C13.39597826 42.22091158 8.17328593 43.53068563 2 46 C2 70.42 2 94.84 2 120 C5.63 121.98 9.26 123.96 13 126 C13 128.31 13 130.62 13 133 C-9.77 133 -32.54 133 -56 133 C-56 127 -56 127 -54.390625 125.35546875 C-53.68421875 124.97003906 -52.9778125 124.58460938 -52.25 124.1875 C-51.55390625 123.78917969 -50.8578125 123.39085937 -50.140625 122.98046875 C-48 122 -48 122 -44 121 C-44 87.01 -44 53.02 -44 18 C-48.29 17.01 -52.58 16.02 -57 15 C-57.66 13.68 -58.32 12.36 -59 11 C-56.72317768 8.72317768 -55.88392115 8.59765918 -52.79736328 8.05444336 C-51.92951202 7.8976561 -51.06166077 7.74086884 -50.16751099 7.57933044 C-48.75814774 7.33703453 -48.75814774 7.33703453 -47.3203125 7.08984375 C-46.35600311 6.91747696 -45.39169373 6.74511017 -44.39816284 6.56752014 C-41.30837748 6.01672417 -38.21681019 5.47680271 -35.125 4.9375 C-32.04076436 4.39238934 -28.95692865 3.84507934 -25.8732605 3.29676819 C-23.95271821 2.95605975 -22.03176957 2.61763231 -20.11038208 2.28172302 C-18.79914871 2.05127037 -18.79914871 2.05127037 -17.46142578 1.81616211 C-16.69468536 1.68229599 -15.92794495 1.54842987 -15.13796997 1.4105072 C-9.47270316 0.32273101 -6.33289795 0 0 0 Z " fill="#111111" transform="translate(492,201)"/>
<path d="M0 0 C1.61923608 1.61923608 1.14173699 3.39883909 1.15821838 5.63795471 C1.1680072 6.64061371 1.17779602 7.64327271 1.18788147 8.67631531 C1.19651466 10.34002922 1.19651466 10.34002922 1.20532227 12.03735352 C1.21522186 13.19817444 1.22512146 14.35899536 1.23532104 15.55499268 C1.26704695 19.41294273 1.29173716 23.27090513 1.31640625 27.12890625 C1.33696622 29.79549089 1.35791366 32.46206964 1.37937927 35.12864685 C1.42935633 41.4432553 1.47427649 47.7578893 1.51740164 54.07254785 C1.56673127 61.25988912 1.62166519 68.44718408 1.67708123 75.6344806 C1.79097819 90.42294336 1.89760155 105.21145308 2 120 C5.63 121.98 9.26 123.96 13 126 C13 128.31 13 130.62 13 133 C-9.77 133 -32.54 133 -56 133 C-56 130.69 -56 128.38 -56 126 C-54.37750059 125.16180842 -52.75191503 124.3295884 -51.125 123.5 C-49.76761719 122.80390625 -49.76761719 122.80390625 -48.3828125 122.09375 C-46 121 -46 121 -44 121 C-44 87.67 -44 54.34 -44 20 C-46.97 19.01 -49.94 18.02 -53 17 C-55.02081924 16.04276983 -57.03120677 15.06011943 -59 14 C-59 12.35 -59 10.7 -59 9 C-46.56364006 6.45137216 -34.11699735 3.94987124 -21.625 1.6875 C-20.7187085 1.51637695 -19.81241699 1.34525391 -18.87866211 1.16894531 C-12.59635902 0.05625534 -6.3812828 -0.47022288 0 0 Z " fill="#111111" transform="translate(737,201)"/>
<path d="M0 0 C5.28861641 4.58606958 8.49634579 9.26724932 9.24609375 16.3125 C9.55304387 22.4142964 8.67804843 27.0515393 5 32 C0.22259687 37.05666678 -4.18011899 40.60751521 -11.26953125 41.3359375 C-19.54371997 41.4271634 -25.58428015 41.17810264 -31.7421875 35.3515625 C-37.15425274 29.42159628 -38.53213493 24.11522264 -38.375 16.140625 C-37.68435548 10.3564771 -35.47232445 5.49581446 -31.35546875 1.33984375 C-22.00348006 -5.90108655 -9.96910477 -5.88933912 0 0 Z " fill="#111111" transform="translate(729,150)"/>
</svg>
