<?xml version="1.0" encoding="UTF-8"?>
<!DOCTYPE svg PUBLIC "-//W3C//DTD SVG 1.1//EN" "http://www.w3.org/Graphics/SVG/1.1/DTD/svg11.dtd">
<svg xmlns="http://www.w3.org/2000/svg" version="1.1" viewBox="0 0 2560 399" style="shape-rendering:geometricPrecision; text-rendering:geometricPrecision; image-rendering:optimizeQuality; fill-rule:evenodd; clip-rule:evenodd" xmlns:xlink="http://www.w3.org/1999/xlink">
<g><path style="opacity:0.978" fill="#221e1f" d="M 569.5,4.5 C 570.978,4.23798 572.311,4.57131 573.5,5.5C 567.86,9.64039 562.693,14.3071 558,19.5C 552.509,29.7016 552.176,40.035 557,50.5C 561.333,55.5 565.667,60.5 570,65.5C 573.922,71.9322 576.255,78.9322 577,86.5C 577.333,93.5 577.667,100.5 578,107.5C 592.333,92.5 606.667,77.5 621,62.5C 636.014,77.6807 651.181,92.6807 666.5,107.5C 681.154,92.6785 695.654,77.6785 710,62.5C 723.695,76.5294 737.695,90.196 752,103.5C 752.667,150.167 752.667,196.833 752,243.5C 726.738,266.884 701.571,290.384 676.5,314C 675.5,314.667 674.5,314.667 673.5,314C 656.962,299.126 640.128,284.626 623,270.5C 609.62,285.043 596.453,299.71 583.5,314.5C 565.187,299.354 547.02,284.021 529,268.5C 528.5,243.836 528.333,219.169 528.5,194.5C 522.305,194.107 516.305,194.941 510.5,197C 506.764,199.659 504.431,203.159 503.5,207.5C 502.5,207.5 501.5,207.5 500.5,207.5C 497.466,194.77 498.633,182.437 504,170.5C 509.954,162.105 518.12,157.772 528.5,157.5C 528.667,134.831 528.5,112.164 528,89.5C 522.907,82.3199 518.574,74.6533 515,66.5C 513.209,53.0911 516.875,41.4244 526,31.5C 538.533,19.3176 553.033,10.3176 569.5,4.5 Z M 536.5,27.5 C 537.043,27.56 537.376,27.8933 537.5,28.5C 528.977,39.9546 526.144,52.6213 529,66.5C 533.889,71.7288 537.555,77.7288 540,84.5C 540.5,108.831 540.667,133.164 540.5,157.5C 538.167,157.5 535.833,157.5 533.5,157.5C 533.667,133.831 533.5,110.164 533,86.5C 530.411,80.9839 527.078,75.9839 523,71.5C 517.85,60.6662 518.85,50.3329 526,40.5C 529.508,36.1361 533.008,31.8028 536.5,27.5 Z M 599.5,92.5 C 610.11,101.939 620.61,111.605 631,121.5C 631.333,168.167 631.667,214.833 632,261.5C 647.667,275.167 663.333,288.833 679,302.5C 678.873,305.141 677.373,306.808 674.5,307.5C 657.852,293.353 641.352,279.02 625,264.5C 624.667,217.833 624.333,171.167 624,124.5C 614.804,114.97 605.304,105.803 595.5,97C 597.041,95.6288 598.375,94.1288 599.5,92.5 Z M 688.5,92.5 C 698.374,99.8659 707.541,108.199 716,117.5C 716.667,168.167 716.667,218.833 716,269.5C 714,271.5 712,273.5 710,275.5C 709.667,223.5 709.333,171.5 709,119.5C 701.03,112.531 693.364,105.198 686,97.5C 686.058,95.5646 686.891,93.8979 688.5,92.5 Z M 591.5,100.5 C 600.798,109.298 609.965,118.298 619,127.5C 619.667,173.833 619.667,220.167 619,266.5C 615.962,269.203 613.295,272.203 611,275.5C 599.706,266.542 588.706,257.209 578,247.5C 577.333,203.167 577.333,158.833 578,114.5C 582.703,109.965 587.203,105.298 591.5,100.5 Z M 680.5,101.5 C 688.442,108.27 696.276,115.27 704,122.5C 704.667,174.5 704.667,226.5 704,278.5C 692.333,268.167 680.667,257.833 669,247.5C 668.333,202.833 668.333,158.167 669,113.5C 673.037,109.631 676.87,105.631 680.5,101.5 Z M 515.5,183.5 C 523.833,183.5 532.167,183.5 540.5,183.5C 540.333,209.835 540.5,236.169 541,262.5C 556.779,275.311 572.279,288.477 587.5,302C 585.641,303.558 584.141,305.391 583,307.5C 566.372,293.874 550.039,279.874 534,265.5C 533.5,240.169 533.333,214.836 533.5,189.5C 525.012,188.989 516.679,189.822 508.5,192C 507.534,193.678 506.201,194.345 504.5,194C 506.772,188.892 510.438,185.392 515.5,183.5 Z"/></g>
<g><path style="opacity:0.986" fill="#221e1f" d="M 233.5,58.5 C 235.328,91.1515 236.161,124.151 236,157.5C 246.702,146.466 257.036,135.133 267,123.5C 278.167,133.333 289.333,143.167 300.5,153C 303.436,152.107 305.936,150.274 308,147.5C 309.167,148.667 310.333,149.833 311.5,151C 309.372,154.13 306.872,156.963 304,159.5C 303.667,206.167 303.333,252.833 303,299.5C 297.149,322.026 283.649,338.193 262.5,348C 254.268,351.633 245.768,354.466 237,356.5C 235.72,356.387 234.887,355.72 234.5,354.5C 249.778,346.286 258.944,333.619 262,316.5C 262.667,269.5 262.667,222.5 262,175.5C 255.667,169.833 249.333,164.167 243,158.5C 240.667,160.833 238.333,163.167 236,165.5C 235.333,200.5 235.333,235.5 236,270.5C 239.522,273.266 242.855,276.266 246,279.5C 246.667,280.5 246.667,281.5 246,282.5C 235.988,293.344 225.821,304.011 215.5,314.5C 204.649,304.481 193.649,294.648 182.5,285C 181.196,284.196 180.529,283.029 180.5,281.5C 184.08,276.414 188.246,271.747 193,267.5C 193.333,212.167 193.667,156.833 194,101.5C 207.004,86.9965 220.171,72.6632 233.5,58.5 Z M 204.5,97.5 C 205.665,155.999 205.832,214.665 205,273.5C 202.447,275.716 200.28,278.216 198.5,281C 204.654,288.488 211.488,295.321 219,301.5C 218.95,303.752 217.784,305.418 215.5,306.5C 206.126,298.157 196.792,289.824 187.5,281.5C 191.151,277.348 194.984,273.348 199,269.5C 199.333,213.833 199.667,158.167 200,102.5C 201.707,100.963 203.207,99.2959 204.5,97.5 Z M 264.5,329.5 C 265.329,325.514 266.163,321.514 267,317.5C 267.667,269.167 267.667,220.833 267,172.5C 259.883,166.684 253.05,160.518 246.5,154C 248,152.5 249.5,151 251,149.5C 258.371,156.54 266.038,163.206 274,169.5C 274.667,216.167 274.667,262.833 274,309.5C 273.214,317.402 270.047,324.069 264.5,329.5 Z"/></g>
<g><path style="opacity:0.978" fill="#221e1f" d="M 1082.5,58.5 C 1084.33,91.1515 1085.16,124.151 1085,157.5C 1095.7,146.466 1106.04,135.133 1116,123.5C 1127.35,133.687 1138.85,143.687 1150.5,153.5C 1152.82,151.684 1154.98,149.684 1157,147.5C 1158.17,148.667 1159.33,149.833 1160.5,151C 1158.35,154.115 1155.85,156.948 1153,159.5C 1152.67,205.833 1152.33,252.167 1152,298.5C 1148.11,316.465 1138.61,330.632 1123.5,341C 1112.01,348.49 1099.51,353.657 1086,356.5C 1084.72,356.387 1083.89,355.72 1083.5,354.5C 1099.09,346.066 1108.26,333.066 1111,315.5C 1111.67,268.833 1111.67,222.167 1111,175.5C 1104.67,169.833 1098.33,164.167 1092,158.5C 1089.67,160.833 1087.33,163.167 1085,165.5C 1084.33,200.5 1084.33,235.5 1085,270.5C 1088.14,273.734 1091.48,276.734 1095,279.5C 1095.67,280.5 1095.67,281.5 1095,282.5C 1084.99,293.344 1074.82,304.011 1064.5,314.5C 1053.98,304.814 1043.32,295.314 1032.5,286C 1030.88,284.883 1029.88,283.383 1029.5,281.5C 1033.08,276.414 1037.25,271.747 1042,267.5C 1042.33,211.833 1042.67,156.167 1043,100.5C 1056.37,86.6305 1069.54,72.6305 1082.5,58.5 Z M 1053.5,97.5 C 1054.67,155.999 1054.83,214.665 1054,273.5C 1051.45,275.716 1049.28,278.216 1047.5,281C 1053.65,288.488 1060.49,295.321 1068,301.5C 1067.95,303.752 1066.78,305.418 1064.5,306.5C 1054.75,298.626 1045.42,290.293 1036.5,281.5C 1040.15,277.348 1043.98,273.348 1048,269.5C 1048.33,213.833 1048.67,158.167 1049,102.5C 1050.71,100.963 1052.21,99.2959 1053.5,97.5 Z M 1113.5,329.5 C 1114.49,325.211 1115.32,320.878 1116,316.5C 1116.83,268.497 1116.67,220.497 1115.5,172.5C 1108.83,166.5 1102.17,160.5 1095.5,154.5C 1096.54,152.625 1098.04,151.292 1100,150.5C 1107.66,156.82 1115.32,163.153 1123,169.5C 1123.67,215.833 1123.67,262.167 1123,308.5C 1122.41,316.796 1119.25,323.796 1113.5,329.5 Z"/></g>
<g><path style="opacity:0.977" fill="#221e1f" d="M 70.5,62.5 C 78.7657,63.0659 86.7657,64.8993 94.5,68C 106.93,74.2155 119.597,79.8822 132.5,85C 146.478,89.747 160.145,88.747 173.5,82C 178.716,78.2852 183.049,73.7852 186.5,68.5C 189.148,98.9093 175.815,117.909 146.5,125.5C 146.333,171.168 146.5,216.835 147,262.5C 165.183,251.472 177.683,235.805 184.5,215.5C 185.881,216 186.547,217 186.5,218.5C 183.016,254.328 167.016,282.828 138.5,304C 112.652,318.39 85.9851,320.056 58.5,309C 29.7862,294.931 12.2862,272.097 6,240.5C -2.50216,198.675 8.99784,163.508 40.5,135C 50.5476,126.618 60.881,118.618 71.5,111C 57.7066,106.856 44.3733,108.189 31.5,115C 20.7382,122.359 15.0716,132.526 14.5,145.5C 13.1667,145.5 11.8333,145.5 10.5,145.5C 9.11137,123.718 14.278,103.718 26,85.5C 37.3867,71.0573 52.22,63.3907 70.5,62.5 Z M 24.5,113.5 C 33.028,101.73 44.6947,95.3969 59.5,94.5C 67.0279,95.0486 74.3612,96.5486 81.5,99C 98.1662,106.889 115.666,111.723 134,113.5C 153.741,113.632 169.074,105.632 180,89.5C 174.338,107.807 161.838,118.307 142.5,121C 134.452,121.775 126.452,121.442 118.5,120C 106.227,116.798 94.2268,112.798 82.5,108C 62.1295,100.585 42.7961,102.418 24.5,113.5 Z M 76.5,112.5 C 89.5678,116.356 102.568,120.522 115.5,125C 98.1419,134.009 81.1419,143.509 64.5,153.5C 65.0831,155.002 65.9164,156.335 67,157.5C 70,155.833 73,154.167 76,152.5C 76.8332,185.505 76.6666,218.505 75.5,251.5C 72.6612,253.42 69.6612,255.087 66.5,256.5C 52.5131,243.193 44.3465,226.86 42,207.5C 39.1136,182.932 43.7802,159.932 56,138.5C 62.1189,129.258 68.9522,120.591 76.5,112.5 Z M 119.5,125.5 C 126.791,126.392 134.124,126.726 141.5,126.5C 141.833,172.838 141.5,219.171 140.5,265.5C 116.656,275.807 93.6563,274.307 71.5,261C 87.2526,252.04 103.086,243.207 119,234.5C 119.5,198.168 119.667,161.835 119.5,125.5 Z M 38.5,144.5 C 10.2959,182.371 7.12921,222.371 29,264.5C 50.4436,295.8 79.9436,308.3 117.5,302C 128.676,298.747 138.676,293.414 147.5,286C 152.669,281.663 157.669,277.163 162.5,272.5C 142.389,303.383 114.055,315.55 77.5,309C 40.556,299.052 18.3893,275.218 11,237.5C 3.60482,201.381 12.7715,170.381 38.5,144.5 Z M 86.5,146.5 C 87.6641,179.331 87.8308,212.331 87,245.5C 85.3333,246.5 83.6667,247.5 82,248.5C 81.3333,215.5 81.3333,182.5 82,149.5C 83.6516,148.601 85.1516,147.601 86.5,146.5 Z"/></g>
<g><path style="opacity:0.973" fill="#221e1f" d="M 1206.5,62.5 C 1217.59,71.4211 1228.26,80.9211 1238.5,91C 1228.99,101.344 1219.32,111.511 1209.5,121.5C 1199,112.161 1188.66,102.661 1178.5,93C 1187.72,82.7252 1197.05,72.5585 1206.5,62.5 Z M 1189.5,88.5 C 1197.74,94.5585 1205.57,101.225 1213,108.5C 1212.63,110.92 1211.3,112.92 1209,114.5C 1201.36,107.865 1194.03,100.865 1187,93.5C 1187.06,91.5646 1187.89,89.8979 1189.5,88.5 Z"/></g>
<g><path style="opacity:0.974" fill="#221e1f" d="M 2064.5,62.5 C 2076.4,73.0423 2088.23,83.7089 2100,94.5C 2100.33,105.5 2100.67,116.5 2101,127.5C 2103.33,125.167 2105.67,122.833 2108,120.5C 2108.5,106.171 2108.67,91.8372 2108.5,77.5C 2110.17,77.5 2111.83,77.5 2113.5,77.5C 2113.33,89.8378 2113.5,102.171 2114,114.5C 2130,97.1667 2146,79.8333 2162,62.5C 2176.33,75.5 2190.67,88.5 2205,101.5C 2205.67,156.167 2205.67,210.833 2205,265.5C 2183.26,281.955 2161.42,298.288 2139.5,314.5C 2135.68,311.182 2132.02,307.682 2128.5,304C 2124.15,300.577 2119.32,298.077 2114,296.5C 2113.5,320.831 2113.33,345.164 2113.5,369.5C 2107.57,367.096 2102.57,363.262 2098.5,358C 2097.5,357.333 2096.5,357.333 2095.5,358C 2081.95,371.386 2067.95,384.219 2053.5,396.5C 2052.67,362.838 2052.17,329.172 2052,295.5C 2036.98,300.034 2023.81,307.701 2012.5,318.5C 2012.25,297.494 2020.25,280.327 2036.5,267C 2041.47,263.679 2046.81,261.179 2052.5,259.5C 2052.5,235.5 2052.5,211.5 2052.5,187.5C 2046.74,187.149 2041.07,187.649 2035.5,189C 2030.28,192.715 2025.95,197.215 2022.5,202.5C 2021.91,202.291 2021.41,201.957 2021,201.5C 2019.04,192.491 2019.04,183.491 2021,174.5C 2026.25,159.625 2036.75,152.292 2052.5,152.5C 2052.67,139.163 2052.5,125.829 2052,112.5C 2047,108.167 2042,103.833 2037,99.5C 2034.65,102.017 2032.15,104.35 2029.5,106.5C 2028.17,105.833 2027.17,104.833 2026.5,103.5C 2039.19,89.8131 2051.86,76.1464 2064.5,62.5 Z M 2045.5,90.5 C 2051.79,95.6239 2057.96,100.957 2064,106.5C 2064.5,121.83 2064.67,137.163 2064.5,152.5C 2062.17,152.5 2059.83,152.5 2057.5,152.5C 2057.67,138.163 2057.5,123.829 2057,109.5C 2052,105.167 2047,100.833 2042,96.5C 2041.33,95.8333 2041.33,95.1667 2042,94.5C 2043.38,93.2949 2044.54,91.9616 2045.5,90.5 Z M 2143.5,90.5 C 2152.13,97.9595 2160.63,105.626 2169,113.5C 2169.67,170.833 2169.67,228.167 2169,285.5C 2167.03,286.64 2165.19,287.973 2163.5,289.5C 2162.67,232.17 2162.17,174.836 2162,117.5C 2154.86,110.269 2147.52,103.269 2140,96.5C 2139.33,95.8333 2139.33,95.1667 2140,94.5C 2141.38,93.2949 2142.54,91.9616 2143.5,90.5 Z M 2134.5,100.5 C 2142.4,106.224 2149.9,112.557 2157,119.5C 2157.67,171.167 2157.67,222.833 2157,274.5C 2145.14,262.263 2130.64,255.93 2113.5,255.5C 2113.33,211.499 2113.5,167.499 2114,123.5C 2121.04,115.962 2127.87,108.296 2134.5,100.5 Z M 2107.5,129.5 C 2108.67,205.999 2108.83,282.666 2108,359.5C 2105.67,357.167 2103.33,354.833 2101,352.5C 2100.33,280.5 2100.33,208.5 2101,136.5C 2103.37,134.297 2105.54,131.963 2107.5,129.5 Z M 2038.5,174.5 C 2047.17,174.5 2055.83,174.5 2064.5,174.5C 2064.67,242.501 2064.5,310.501 2064,378.5C 2062,380.5 2060,382.5 2058,384.5C 2057.5,316.834 2057.33,249.167 2057.5,181.5C 2050.44,181.212 2043.44,181.712 2036.5,183C 2031.64,184.505 2027.81,187.338 2025,191.5C 2025.58,182.753 2030.08,177.087 2038.5,174.5 Z M 2022.5,303.5 C 2029.27,292.246 2039.11,284.912 2052,281.5C 2052.5,284.482 2052.66,287.482 2052.5,290.5C 2041.43,292.517 2031.43,296.851 2022.5,303.5 Z M 2113.5,281.5 C 2126.57,283.454 2137.41,289.454 2146,299.5C 2146.67,300.5 2146.67,301.5 2146,302.5C 2144.23,303.304 2142.73,304.471 2141.5,306C 2140.5,306.667 2139.5,306.667 2138.5,306C 2132.21,298.211 2124.21,293.044 2114.5,290.5C 2113.52,287.572 2113.18,284.572 2113.5,281.5 Z"/></g>
<g><path style="opacity:0.985" fill="#221e1f" d="M 1609.5,64.5 C 1611.49,86.475 1612.16,108.808 1611.5,131.5C 1621.85,131.168 1632.19,131.501 1642.5,132.5C 1638.36,139.136 1634.03,145.636 1629.5,152C 1623.51,152.499 1617.51,152.666 1611.5,152.5C 1611.17,190.173 1611.5,227.839 1612.5,265.5C 1619.09,270.379 1625.59,275.379 1632,280.5C 1633.79,277.705 1635.96,275.205 1638.5,273C 1640.91,272.221 1642.57,273.054 1643.5,275.5C 1631.45,288.715 1619.28,301.715 1607,314.5C 1595.89,306.395 1585.06,297.895 1574.5,289C 1573.83,288.333 1573.17,288.333 1572.5,289C 1570.32,291.35 1567.98,293.517 1565.5,295.5C 1563.95,294.788 1562.95,293.622 1562.5,292C 1564.61,288.882 1567.11,286.048 1570,283.5C 1570.5,239.835 1570.67,196.168 1570.5,152.5C 1563.17,152.5 1555.83,152.5 1548.5,152.5C 1548.49,150.692 1548.99,149.025 1550,147.5C 1553.69,142.638 1557.19,137.638 1560.5,132.5C 1563.77,131.513 1567.1,131.18 1570.5,131.5C 1570.33,122.827 1570.5,114.16 1571,105.5C 1584.04,91.9638 1596.87,78.2972 1609.5,64.5 Z M 1581.5,102.5 C 1582.49,111.986 1582.83,121.652 1582.5,131.5C 1580.17,131.5 1577.83,131.5 1575.5,131.5C 1575.33,124.159 1575.5,116.826 1576,109.5C 1577.67,107.004 1579.5,104.671 1581.5,102.5 Z M 1575.5,152.5 C 1577.83,152.5 1580.17,152.5 1582.5,152.5C 1582.33,195.168 1582.5,237.835 1583,280.5C 1592.5,288 1602,295.5 1611.5,303C 1609.98,304.685 1608.32,306.185 1606.5,307.5C 1596.19,299.691 1586.02,291.691 1576,283.5C 1575.5,239.835 1575.33,196.168 1575.5,152.5 Z"/></g>
<g><path style="opacity:0.992" fill="#221f1f" d="M 2524.5,64.5 C 2525.5,64.5 2526.5,64.5 2527.5,64.5C 2527.5,86.8333 2527.5,109.167 2527.5,131.5C 2537.5,131.5 2547.5,131.5 2557.5,131.5C 2554.55,138.73 2550.55,145.397 2545.5,151.5C 2539.54,152.496 2533.54,152.829 2527.5,152.5C 2527.33,190.168 2527.5,227.835 2528,265.5C 2534.33,270.5 2540.67,275.5 2547,280.5C 2549.68,277.65 2552.52,274.984 2555.5,272.5C 2556.83,273.167 2557.83,274.167 2558.5,275.5C 2547.21,289.127 2535.21,302.127 2522.5,314.5C 2511.5,306 2500.5,297.5 2489.5,289C 2488.83,288.333 2488.17,288.333 2487.5,289C 2485.29,291.043 2483.29,293.209 2481.5,295.5C 2480.02,294.52 2478.69,293.353 2477.5,292C 2480.12,289.261 2482.62,286.427 2485,283.5C 2485.5,239.835 2485.67,196.168 2485.5,152.5C 2478.14,152.831 2470.8,152.497 2463.5,151.5C 2467.64,144.864 2471.97,138.364 2476.5,132C 2479.48,131.502 2482.48,131.335 2485.5,131.5C 2485.33,123.16 2485.5,114.827 2486,106.5C 2499.41,92.9297 2512.24,78.9297 2524.5,64.5 Z M 2496.5,103.5 C 2497.49,112.652 2497.83,121.985 2497.5,131.5C 2495.5,131.5 2493.5,131.5 2491.5,131.5C 2491.33,123.826 2491.5,116.159 2492,108.5C 2493.71,106.963 2495.21,105.296 2496.5,103.5 Z M 2491.5,152.5 C 2493.5,152.5 2495.5,152.5 2497.5,152.5C 2497.33,194.835 2497.5,237.168 2498,279.5C 2507.59,287.047 2517.09,294.713 2526.5,302.5C 2525.19,304.316 2523.69,305.983 2522,307.5C 2512.31,299.642 2502.48,291.976 2492.5,284.5C 2491.5,240.505 2491.17,196.505 2491.5,152.5 Z"/></g>
<g><path style="opacity:0.97" fill="#221e1f" d="M 837.5,123.5 C 851.223,133.043 864.556,143.21 877.5,154C 880.785,152.91 883.452,150.743 885.5,147.5C 886.981,148.48 888.315,149.647 889.5,151C 886.882,153.739 884.382,156.573 882,159.5C 881.333,194.167 881.333,228.833 882,263.5C 888.262,269.05 894.428,274.717 900.5,280.5C 902.139,278.194 904.139,276.194 906.5,274.5C 908.23,275.026 909.564,276.026 910.5,277.5C 899.171,290.162 887.504,302.495 875.5,314.5C 864.021,303.932 852.355,293.598 840.5,283.5C 829.833,293.833 819.167,304.167 808.5,314.5C 796.018,303.853 783.685,293.019 771.5,282C 770.5,281.333 769.5,281.333 768.5,282C 765.892,286.284 763.225,286.451 760.5,282.5C 762.483,280.016 764.65,277.683 767,275.5C 767.333,241.833 767.667,208.167 768,174.5C 791.145,157.357 814.312,140.357 837.5,123.5 Z M 819.5,143.5 C 830.125,151.619 840.625,159.953 851,168.5C 851.333,204.5 851.667,240.5 852,276.5C 861.202,285.371 870.702,293.871 880.5,302C 878.983,303.685 877.316,305.185 875.5,306.5C 865.427,297.382 855.261,288.382 845,279.5C 844.667,243.5 844.333,207.5 844,171.5C 834.076,163.787 824.242,155.954 814.5,148C 816.24,146.483 817.906,144.983 819.5,143.5 Z M 808.5,151.5 C 819.055,158.542 829.221,166.208 839,174.5C 839.667,208.167 839.667,241.833 839,275.5C 837.316,277.351 835.483,279.018 833.5,280.5C 825.426,273.382 817.26,266.382 809,259.5C 808.5,223.502 808.333,187.502 808.5,151.5 Z M 777.5,173.5 C 779.328,206.485 780.161,239.818 780,273.5C 790.667,282.833 801.333,292.167 812,301.5C 811.628,303.92 810.295,305.92 808,307.5C 796.333,297.167 784.667,286.833 773,276.5C 772.333,243.5 772.333,210.5 773,177.5C 774.667,176.267 776.167,174.933 777.5,173.5 Z"/></g>
<g><path style="opacity:0.964" fill="#221e1f" d="M 977.5,124.5 C 982.258,126.742 986.925,129.242 991.5,132C 1004.69,135.228 1016.85,133.062 1028,125.5C 1029.06,125.63 1029.89,126.13 1030.5,127C 1015.71,148.08 1001.04,169.246 986.5,190.5C 998.815,191.499 1011.15,191.832 1023.5,191.5C 1023.83,218.841 1023.5,246.175 1022.5,273.5C 1003.36,286.806 984.361,300.306 965.5,314C 964.5,314.667 963.5,314.667 962.5,314C 949.714,300.374 934.381,296.374 916.5,302C 910.295,304.879 904.628,308.546 899.5,313C 898.551,313.617 897.718,313.451 897,312.5C 897.126,309.902 898.126,307.569 900,305.5C 915.5,283.333 931,261.167 946.5,239C 936.172,238.5 925.839,238.334 915.5,238.5C 915.333,214.831 915.5,191.164 916,167.5C 936.829,153.514 957.329,139.18 977.5,124.5 Z M 966.5,138.5 C 970.829,142.668 975.829,145.834 981.5,148C 989.946,148.733 998.28,148.4 1006.5,147C 995.281,155.732 982.948,157.732 969.5,153C 966.061,150.861 962.894,148.361 960,145.5C 959.333,144.833 959.333,144.167 960,143.5C 962.352,141.97 964.519,140.303 966.5,138.5 Z M 957.5,151.5 C 962.362,155.099 967.695,157.933 973.5,160C 979.5,160.667 985.5,160.667 991.5,160C 995.805,159.097 999.639,157.263 1003,154.5C 1003.17,154.833 1003.33,155.167 1003.5,155.5C 992.471,171.363 981.638,187.363 971,203.5C 966.599,204.467 962.099,204.8 957.5,204.5C 957.5,186.833 957.5,169.167 957.5,151.5 Z M 926.5,166.5 C 927.497,185.993 927.83,205.66 927.5,225.5C 936.839,225.334 946.173,225.5 955.5,226C 953.595,227.815 951.928,229.815 950.5,232C 940.506,232.5 930.506,232.666 920.5,232.5C 920.167,211.823 920.5,191.156 921.5,170.5C 923.21,169.113 924.877,167.779 926.5,166.5 Z M 970.5,213.5 C 978.5,213.5 986.5,213.5 994.5,213.5C 994.667,238.169 994.5,262.836 994,287.5C 992,288.833 990,290.167 988,291.5C 987.5,267.836 987.333,244.169 987.5,220.5C 980.468,220.83 973.468,220.497 966.5,219.5C 967.844,217.471 969.177,215.471 970.5,213.5 Z M 921.5,285.5 C 934.566,265.718 947.899,246.051 961.5,226.5C 968.468,225.503 975.468,225.17 982.5,225.5C 982.667,246.503 982.5,267.503 982,288.5C 970.392,276.842 956.559,273.008 940.5,277C 933.878,279.313 927.545,282.147 921.5,285.5 Z M 936.5,288.5 C 950.763,286.916 962.43,291.583 971.5,302.5C 969.445,304.555 967.112,306.221 964.5,307.5C 951.648,295.492 936.648,291.326 919.5,295C 925.02,292.11 930.686,289.943 936.5,288.5 Z"/></g>
<g><path style="opacity:0.96" fill="#221e1f" d="M 1194.5,123.5 C 1204.57,131.397 1214.24,139.897 1223.5,149C 1224.5,149.667 1225.5,149.667 1226.5,149C 1228.01,146.154 1230.18,143.987 1233,142.5C 1234.62,142.954 1235.79,143.954 1236.5,145.5C 1233.48,148.686 1230.65,152.02 1228,155.5C 1227.17,192.171 1227.33,228.838 1228.5,265.5C 1233.83,270.5 1239.17,275.5 1244.5,280.5C 1247.48,278.016 1250.32,275.35 1253,272.5C 1254.17,273.667 1255.33,274.833 1256.5,276C 1245.02,289.312 1233.02,302.145 1220.5,314.5C 1209.76,304.716 1198.93,295.049 1188,285.5C 1185.79,287.373 1183.96,289.54 1182.5,292C 1180.09,292.779 1178.43,291.946 1177.5,289.5C 1179.43,286.062 1181.93,283.062 1185,280.5C 1185.67,244.167 1185.67,207.833 1185,171.5C 1180.61,166.611 1175.78,162.278 1170.5,158.5C 1168.5,160.5 1166.5,162.5 1164.5,164.5C 1162.95,163.788 1161.95,162.622 1161.5,161C 1172.15,148.206 1183.15,135.706 1194.5,123.5 Z M 1177.5,149.5 C 1178.55,149.351 1179.55,149.517 1180.5,150C 1185.7,155.533 1191.2,160.7 1197,165.5C 1197.17,203.171 1197.67,240.838 1198.5,278.5C 1207.15,285.982 1215.65,293.648 1224,301.5C 1223.9,303.956 1222.57,305.622 1220,306.5C 1210.05,298.217 1200.38,289.55 1191,280.5C 1190.67,243.167 1190.33,205.833 1190,168.5C 1184.53,164.033 1179.37,159.2 1174.5,154C 1176.14,152.871 1177.14,151.371 1177.5,149.5 Z"/></g>
<g><path style="opacity:0.964" fill="#221e1f" d="M 1281.5,123.5 C 1293.25,133.475 1304.75,143.808 1316,154.5C 1316.33,156.167 1316.67,157.833 1317,159.5C 1328.33,147.5 1339.67,135.5 1351,123.5C 1361.8,132.63 1372.3,142.13 1382.5,152C 1383.5,152.667 1384.5,152.667 1385.5,152C 1387.38,149.778 1389.55,147.944 1392,146.5C 1394.25,147.063 1395.25,148.397 1395,150.5C 1392.7,153.797 1390.04,156.797 1387,159.5C 1386.33,194.833 1386.33,230.167 1387,265.5C 1392.52,270.268 1397.86,275.268 1403,280.5C 1405.68,277.65 1408.52,274.984 1411.5,272.5C 1413.05,273.212 1414.05,274.378 1414.5,276C 1403.21,288.955 1391.55,301.622 1379.5,314C 1378.83,314.667 1378.17,314.667 1377.5,314C 1367.09,304.383 1356.59,294.883 1346,285.5C 1345.67,248.833 1345.33,212.167 1345,175.5C 1338.68,170.017 1332.52,164.351 1326.5,158.5C 1322.81,161.353 1319.65,164.686 1317,168.5C 1316.33,202.167 1316.33,235.833 1317,269.5C 1320.33,272.833 1323.67,276.167 1327,279.5C 1327.67,280.833 1327.67,282.167 1327,283.5C 1317.28,294.262 1307.12,304.595 1296.5,314.5C 1285.15,303.982 1273.65,293.648 1262,283.5C 1261.58,281.212 1262.25,279.212 1264,277.5C 1267.33,274.167 1270.67,270.833 1274,267.5C 1274.67,235.833 1274.67,204.167 1274,172.5C 1268.48,167.732 1263.14,162.732 1258,157.5C 1255.65,160.017 1253.15,162.35 1250.5,164.5C 1249.17,163.833 1248.17,162.833 1247.5,161.5C 1258.48,148.515 1269.82,135.849 1281.5,123.5 Z M 1265.5,148.5 C 1272.46,154.291 1279.3,160.291 1286,166.5C 1286.67,202.167 1286.67,237.833 1286,273.5C 1284.18,276.313 1282.01,278.813 1279.5,281C 1286.47,288.297 1293.8,295.297 1301.5,302C 1299.98,303.685 1298.32,305.185 1296.5,306.5C 1287.13,298.157 1277.79,289.824 1268.5,281.5C 1271.82,277.682 1275.32,274.015 1279,270.5C 1279.67,236.833 1279.67,203.167 1279,169.5C 1273.47,163.634 1267.64,158.134 1261.5,153C 1263.04,151.629 1264.37,150.129 1265.5,148.5 Z M 1333.5,149.5 C 1334.55,149.351 1335.55,149.517 1336.5,150C 1342.98,156.399 1349.64,162.566 1356.5,168.5C 1357.33,205.495 1357.83,242.495 1358,279.5C 1366.2,287.372 1374.7,294.872 1383.5,302C 1381.67,303.833 1379.83,305.667 1378,307.5C 1369,299.167 1360,290.833 1351,282.5C 1350.67,245.833 1350.33,209.167 1350,172.5C 1343.67,166.833 1337.33,161.167 1331,155.5C 1330.97,153.213 1331.81,151.213 1333.5,149.5 Z"/></g>
<g><path style="opacity:0.977" fill="#221e1f" d="M 1492.5,123.5 C 1506.39,133.21 1519.89,143.544 1533,154.5C 1535.35,152.317 1537.52,149.984 1539.5,147.5C 1540.98,148.48 1542.31,149.647 1543.5,151C 1541.37,154.13 1538.87,156.963 1536,159.5C 1535.33,204.167 1535.33,248.833 1536,293.5C 1537.66,300.49 1540.66,306.824 1545,312.5C 1547.66,320.867 1546.32,328.534 1541,335.5C 1538.2,339.299 1535.04,342.799 1531.5,346C 1516.53,358.152 1501.19,369.819 1485.5,381C 1484.5,381.667 1483.5,381.667 1482.5,381C 1476.4,373.126 1468.73,367.46 1459.5,364C 1451.82,362.58 1444.15,362.914 1436.5,365C 1427.57,367.551 1419.07,371.051 1411,375.5C 1409.94,375.37 1409.11,374.87 1408.5,374C 1425.69,354.314 1442.69,334.481 1459.5,314.5C 1448.42,304.457 1436.75,295.123 1424.5,286.5C 1422.13,288.704 1419.63,290.704 1417,292.5C 1415.57,292.07 1414.4,291.236 1413.5,290C 1415.63,286.87 1418.13,284.037 1421,281.5C 1421.33,245.833 1421.67,210.167 1422,174.5C 1445.68,157.637 1469.18,140.637 1492.5,123.5 Z M 1526.5,338.5 C 1526.7,332.96 1525.2,327.96 1522,323.5C 1515.15,318.071 1508.48,312.404 1502,306.5C 1501.33,304.5 1500.67,302.5 1500,300.5C 1499.83,257.163 1499.33,213.829 1498.5,170.5C 1488.47,163.146 1478.8,155.313 1469.5,147C 1471.34,145.818 1473.18,144.651 1475,143.5C 1485.32,151.82 1495.66,160.153 1506,168.5C 1506.33,211.167 1506.67,253.833 1507,296.5C 1507.77,300.049 1509.11,303.382 1511,306.5C 1517,311.167 1522.33,316.5 1527,322.5C 1528.14,325.419 1528.97,328.419 1529.5,331.5C 1529.45,334.36 1528.45,336.693 1526.5,338.5 Z M 1463.5,151.5 C 1473.88,158.784 1484.04,166.451 1494,174.5C 1494.67,207.833 1494.67,241.167 1494,274.5C 1491.99,277.846 1489.32,280.512 1486,282.5C 1478.5,277.08 1471.17,271.414 1464,265.5C 1463.5,227.501 1463.33,189.501 1463.5,151.5 Z M 1432.5,173.5 C 1433.33,208.331 1433.83,243.331 1434,278.5C 1445,286.833 1456,295.167 1467,303.5C 1467.2,306.425 1465.86,308.425 1463,309.5C 1450.72,300.226 1438.72,290.56 1427,280.5C 1426.33,246.5 1426.33,212.5 1427,178.5C 1428.81,176.7 1430.65,175.033 1432.5,173.5 Z M 1436.5,350.5 C 1455.08,327.744 1474.25,305.411 1494,283.5C 1490.86,300.492 1496.69,312.992 1511.5,321C 1522.92,329.345 1524.42,339.178 1516,350.5C 1514,352.5 1512,354.5 1510,356.5C 1494.25,342.02 1476.08,337.52 1455.5,343C 1448.92,344.959 1442.59,347.459 1436.5,350.5 Z M 1433.5,360.5 C 1454.91,348.59 1473.91,351.59 1490.5,369.5C 1489.11,371.89 1487.11,373.557 1484.5,374.5C 1480.32,370.481 1475.98,366.647 1471.5,363C 1459.25,356.554 1446.58,355.721 1433.5,360.5 Z"/></g>
<g><path style="opacity:0.978" fill="#231e1f" d="M 1718.5,123.5 C 1732.8,134.658 1747.14,145.825 1761.5,157C 1764.78,155.763 1767.61,153.597 1770,150.5C 1771.35,151.685 1772.52,153.019 1773.5,154.5C 1771.18,157.317 1768.68,159.984 1766,162.5C 1765.67,197.833 1765.33,233.167 1765,268.5C 1744.27,284.234 1723.27,299.568 1702,314.5C 1685.78,303.618 1670.11,291.951 1655,279.5C 1652.98,281.684 1650.82,283.684 1648.5,285.5C 1646.05,284.573 1645.22,282.906 1646,280.5C 1647.67,278.833 1649.33,277.167 1651,275.5C 1651.33,240.833 1651.67,206.167 1652,171.5C 1674.32,155.601 1696.49,139.601 1718.5,123.5 Z M 1701.5,142.5 C 1713.1,150.759 1724.43,159.426 1735.5,168.5C 1736.83,206.833 1736.83,245.167 1735.5,283.5C 1733.81,285.027 1731.97,286.36 1730,287.5C 1729.67,249.167 1729.33,210.833 1729,172.5C 1717.89,164.362 1707.06,155.862 1696.5,147C 1698.06,145.264 1699.73,143.764 1701.5,142.5 Z M 1693.5,152.5 C 1703.88,159.784 1714.04,167.451 1724,175.5C 1724.67,212.167 1724.67,248.833 1724,285.5C 1714.18,277.591 1704.18,269.924 1694,262.5C 1693.5,225.835 1693.33,189.168 1693.5,152.5 Z M 1662.5,170.5 C 1663.17,204.002 1663.83,237.669 1664.5,271.5C 1678.83,282.333 1693.17,293.167 1707.5,304C 1705.36,305.308 1703.36,306.808 1701.5,308.5C 1687.35,297.258 1673.01,286.258 1658.5,275.5C 1657.33,241.838 1657.17,208.172 1658,174.5C 1659.4,172.93 1660.9,171.596 1662.5,170.5 Z"/></g>
<g><path style="opacity:0.977" fill="#221e1f" d="M 1810.5,123.5 C 1822.13,133.291 1833.63,143.291 1845,153.5C 1845.33,155.833 1845.67,158.167 1846,160.5C 1857.67,148.167 1869.33,135.833 1881,123.5C 1891.7,133.869 1902.7,143.869 1914,153.5C 1916.17,151.333 1918.33,149.167 1920.5,147C 1923.52,146.364 1925.02,147.53 1925,150.5C 1922.33,153.167 1919.67,155.833 1917,158.5C 1916.33,194.167 1916.33,229.833 1917,265.5C 1922.03,270.867 1927.37,275.867 1933,280.5C 1935.28,278.093 1937.45,275.593 1939.5,273C 1941.91,272.221 1943.57,273.054 1944.5,275.5C 1932.65,288.184 1920.98,301.017 1909.5,314C 1908.5,314.667 1907.5,314.667 1906.5,314C 1896.33,304.5 1886.17,295 1876,285.5C 1875.67,248.833 1875.33,212.167 1875,175.5C 1868.67,169.833 1862.33,164.167 1856,158.5C 1852.67,161.833 1849.33,165.167 1846,168.5C 1845.33,202.167 1845.33,235.833 1846,269.5C 1849.37,273.203 1853.03,276.536 1857,279.5C 1857.67,280.5 1857.67,281.5 1857,282.5C 1846.96,293.536 1836.63,304.203 1826,314.5C 1814.05,304.215 1802.38,293.548 1791,282.5C 1790.33,281.833 1790.33,281.167 1791,280.5C 1795.7,276.134 1800.03,271.467 1804,266.5C 1804.67,235.167 1804.67,203.833 1804,172.5C 1798.33,167.5 1792.67,162.5 1787,157.5C 1785.54,159.96 1783.71,162.127 1781.5,164C 1779.09,164.779 1777.43,163.946 1776.5,161.5C 1788.23,149.111 1799.56,136.445 1810.5,123.5 Z M 1794.5,149.5 C 1795.55,149.351 1796.55,149.517 1797.5,150C 1803.36,156.199 1809.53,162.032 1816,167.5C 1816.67,202.833 1816.67,238.167 1816,273.5C 1813.32,276.016 1810.82,278.683 1808.5,281.5C 1815.34,288.176 1822.51,294.51 1830,300.5C 1830.09,303.462 1828.76,305.796 1826,307.5C 1816.66,298.988 1807.49,290.322 1798.5,281.5C 1801.82,277.682 1805.32,274.015 1809,270.5C 1809.67,236.833 1809.67,203.167 1809,169.5C 1803.02,164.351 1797.18,159.018 1791.5,153.5C 1792.52,152.148 1793.52,150.815 1794.5,149.5 Z M 1863.5,149.5 C 1871.4,155.224 1878.9,161.557 1886,168.5C 1886.17,205.505 1886.67,242.505 1887.5,279.5C 1895.98,286.815 1904.32,294.315 1912.5,302C 1911.38,304.124 1909.88,305.957 1908,307.5C 1899,299.167 1890,290.833 1881,282.5C 1880.83,245.829 1880.33,209.162 1879.5,172.5C 1872.83,166.5 1866.17,160.5 1859.5,154.5C 1860.86,152.814 1862.19,151.148 1863.5,149.5 Z"/></g>
<g><path style="opacity:0.972" fill="#221e1f" d="M 2288.5,123.5 C 2302.8,134.658 2317.14,145.825 2331.5,157C 2334.78,155.763 2337.61,153.597 2340,150.5C 2341.35,151.685 2342.52,153.019 2343.5,154.5C 2340.81,157.354 2338.31,160.354 2336,163.5C 2335.67,198.5 2335.33,233.5 2335,268.5C 2314.27,284.234 2293.27,299.568 2272,314.5C 2255.99,303.326 2240.33,291.659 2225,279.5C 2223,281.5 2221,283.5 2219,285.5C 2217.65,284.315 2216.48,282.981 2215.5,281.5C 2217.48,279.016 2219.65,276.683 2222,274.5C 2222.17,239.829 2222.67,205.162 2223.5,170.5C 2245.41,155.057 2267.08,139.39 2288.5,123.5 Z M 2271.5,142.5 C 2283.1,150.759 2294.43,159.426 2305.5,168.5C 2306.67,206.829 2306.83,245.162 2306,283.5C 2304.03,284.64 2302.19,285.973 2300.5,287.5C 2299.67,249.171 2299.17,210.838 2299,172.5C 2288.26,163.879 2277.42,155.379 2266.5,147C 2268.06,145.264 2269.73,143.764 2271.5,142.5 Z M 2263.5,151.5 C 2273.79,159.286 2283.96,167.286 2294,175.5C 2294.83,211.838 2294.67,248.171 2293.5,284.5C 2283.81,276.974 2273.97,269.641 2264,262.5C 2263.5,225.502 2263.33,188.502 2263.5,151.5 Z M 2233.5,169.5 C 2234.33,203.331 2234.83,237.331 2235,271.5C 2249.17,282.333 2263.33,293.167 2277.5,304C 2275.76,305.62 2273.93,307.12 2272,308.5C 2257.15,297.409 2242.49,286.075 2228,274.5C 2227.33,241.167 2227.33,207.833 2228,174.5C 2229.81,172.7 2231.65,171.033 2233.5,169.5 Z"/></g>
<g><path style="opacity:0.974" fill="#221e1f" d="M 393.5,123.5 C 406.392,143.601 419.059,163.935 431.5,184.5C 409.141,201.359 386.641,218.026 364,234.5C 363.333,240.833 363.333,247.167 364,253.5C 375.955,262.453 387.622,271.787 399,281.5C 405.5,274.333 412,267.167 418.5,260C 420.906,259.221 422.573,260.054 423.5,262.5C 407.845,280.655 391.345,297.988 374,314.5C 357.678,301.514 341.344,288.514 325,275.5C 323.188,278.28 321.021,280.78 318.5,283C 315.53,283.022 314.364,281.522 315,278.5C 317.333,276.167 319.667,273.833 322,271.5C 322.333,239.5 322.667,207.5 323,175.5C 346.657,158.268 370.157,140.934 393.5,123.5 Z M 372.5,145.5 C 383.85,162.348 394.85,179.514 405.5,197C 403.391,198.141 401.558,199.641 400,201.5C 389.042,184.418 378.208,167.251 367.5,150C 369.24,148.483 370.906,146.983 372.5,145.5 Z M 363.5,153.5 C 373.986,170.172 384.319,187.005 394.5,204C 394.241,205.261 393.574,206.261 392.5,207C 383,213.833 373.5,220.667 364,227.5C 363.5,202.836 363.333,178.169 363.5,153.5 Z M 333.5,173.5 C 334.167,205.003 334.833,236.669 335.5,268.5C 349.978,279.81 364.311,291.31 378.5,303C 376.983,304.685 375.316,306.185 373.5,307.5C 358.188,295.356 343.022,283.023 328,270.5C 327.333,239.833 327.333,209.167 328,178.5C 330.191,177.167 332.024,175.5 333.5,173.5 Z"/></g>
<g><path style="opacity:0.972" fill="#221e1f" d="M 2414.5,124.5 C 2418.82,125.962 2422.82,128.128 2426.5,131C 2439.99,135.457 2452.65,133.791 2464.5,126C 2465.64,125.251 2466.64,125.417 2467.5,126.5C 2453.03,148.137 2438.36,169.637 2423.5,191C 2436.16,191.5 2448.83,191.667 2461.5,191.5C 2461.67,218.502 2461.5,245.502 2461,272.5C 2441.25,286.623 2421.42,300.623 2401.5,314.5C 2379.95,294.919 2358.12,294.586 2336,313.5C 2335.08,312.953 2334.24,312.287 2333.5,311.5C 2350.29,287.42 2366.96,263.254 2383.5,239C 2373.51,238.5 2363.51,238.334 2353.5,238.5C 2353.33,214.831 2353.5,191.164 2354,167.5C 2374.35,153.304 2394.51,138.97 2414.5,124.5 Z M 2403.5,138.5 C 2406.23,139.713 2408.56,141.546 2410.5,144C 2413.38,145.608 2416.38,146.941 2419.5,148C 2427.63,148.716 2435.63,148.383 2443.5,147C 2430.96,156.561 2417.63,157.895 2403.5,151C 2401.17,148.667 2398.83,146.333 2396.5,144C 2399.02,142.303 2401.35,140.47 2403.5,138.5 Z M 2440.5,155.5 C 2429.89,171.869 2418.89,188.036 2407.5,204C 2403.18,204.499 2398.85,204.666 2394.5,204.5C 2394.33,186.497 2394.5,168.497 2395,150.5C 2404.41,159.523 2415.58,162.689 2428.5,160C 2432.62,158.771 2436.62,157.271 2440.5,155.5 Z M 2363.5,166.5 C 2365.49,185.805 2366.15,205.472 2365.5,225.5C 2374.51,225.334 2383.51,225.5 2392.5,226C 2391.36,227.973 2390.03,229.807 2388.5,231.5C 2378.52,232.499 2368.52,232.832 2358.5,232.5C 2358.33,211.831 2358.5,191.164 2359,170.5C 2360.67,169.267 2362.17,167.933 2363.5,166.5 Z M 2407.5,213.5 C 2415.5,213.5 2423.5,213.5 2431.5,213.5C 2431.67,238.169 2431.5,262.836 2431,287.5C 2429.26,288.956 2427.42,290.289 2425.5,291.5C 2424.5,267.843 2424.17,244.176 2424.5,220.5C 2417.49,220.666 2410.49,220.5 2403.5,220C 2405.09,217.931 2406.42,215.764 2407.5,213.5 Z M 2399.5,225.5 C 2406.17,225.5 2412.83,225.5 2419.5,225.5C 2419.67,246.503 2419.5,267.503 2419,288.5C 2406.4,275.975 2391.56,272.475 2374.5,278C 2368.54,280.486 2362.87,283.153 2357.5,286C 2371.72,265.953 2385.72,245.787 2399.5,225.5 Z M 2359.5,294.5 C 2377.96,284.603 2394.62,287.103 2409.5,302C 2407.09,304.285 2404.59,306.451 2402,308.5C 2390.49,296.238 2376.32,291.571 2359.5,294.5 Z"/></g>
</svg>
