<?xml version="1.0" encoding="UTF-8"?>
<!DOCTYPE svg PUBLIC "-//W3C//DTD SVG 1.1//EN" "http://www.w3.org/Graphics/SVG/1.1/DTD/svg11.dtd">
<svg xmlns="http://www.w3.org/2000/svg" version="1.1" viewBox="0 0 2560 217" style="shape-rendering:geometricPrecision; text-rendering:geometricPrecision; image-rendering:optimizeQuality; fill-rule:evenodd; clip-rule:evenodd" xmlns:xlink="http://www.w3.org/1999/xlink">
<g><path style="opacity:0.959" fill="#1b1b20" d="M 1009.5,-0.5 C 1014.5,-0.5 1019.5,-0.5 1024.5,-0.5C 1031.69,2.65813 1038.69,6.3248 1045.5,10.5C 1050.23,9.40754 1052.89,6.40754 1053.5,1.5C 1055.05,0.548109 1056.71,0.214775 1058.5,0.5C 1058.5,24.5 1058.5,48.5 1058.5,72.5C 1056.17,72.5 1053.83,72.5 1051.5,72.5C 1050.27,58.5073 1047.43,44.8406 1043,31.5C 1038.99,18.6499 1030.49,10.9833 1017.5,8.5C 1008.29,8.87342 1002.45,13.5401 1000,22.5C 997.481,34.9092 999.481,46.5759 1006,57.5C 1010.18,63.8619 1014.85,69.8619 1020,75.5C 1031.07,85.8966 1041.4,96.8966 1051,108.5C 1070.97,135.607 1073.64,164.273 1059,194.5C 1051.08,206.205 1040.25,213.539 1026.5,216.5C 1021.83,216.5 1017.17,216.5 1012.5,216.5C 1004.27,213.052 996.271,209.052 988.5,204.5C 982.997,206.012 979.997,209.678 979.5,215.5C 977.833,215.5 976.167,215.5 974.5,215.5C 974.5,191.5 974.5,167.5 974.5,143.5C 976.833,143.5 979.167,143.5 981.5,143.5C 982.292,162.706 987.792,180.372 998,196.5C 1011.91,211.433 1025.24,211.099 1038,195.5C 1044.49,179.543 1043.83,163.877 1036,148.5C 1032.72,142.892 1029.06,137.558 1025,132.5C 1012.63,119.8 1000.63,106.8 989,93.5C 970.872,70.4799 968.205,45.8133 981,19.5C 987.891,8.98285 997.391,2.31619 1009.5,-0.5 Z"/></g>
<g><path style="opacity:0.972" fill="#1b1b20" d="M 1858.5,-0.5 C 1864.83,-0.5 1871.17,-0.5 1877.5,-0.5C 1888.14,2.59094 1896.98,8.59094 1904,17.5C 1915.02,34.5498 1921.68,53.2164 1924,73.5C 1927.48,98.8816 1927.14,124.215 1923,149.5C 1920.3,171.628 1911.47,190.794 1896.5,207C 1890.62,211.273 1884.29,214.439 1877.5,216.5C 1871.5,216.5 1865.5,216.5 1859.5,216.5C 1842,210.17 1829.83,198.17 1823,180.5C 1814.47,157.118 1810.3,132.951 1810.5,108C 1810.3,82.7226 1814.46,58.2226 1823,34.5C 1829.47,17.1976 1841.3,5.53097 1858.5,-0.5 Z M 1863.5,8.5 C 1872.11,7.05673 1878.61,10.0567 1883,17.5C 1888.6,36.0568 1891.26,55.0568 1891,74.5C 1891.67,95.8333 1891.67,117.167 1891,138.5C 1890.77,153.934 1889.44,169.267 1887,184.5C 1886.03,192.947 1882.53,200.114 1876.5,206C 1863.86,210.429 1855.69,206.263 1852,193.5C 1848.02,175.397 1846.02,157.064 1846,138.5C 1844.76,104.425 1845.76,70.425 1849,36.5C 1849.93,28.7131 1852.26,21.3798 1856,14.5C 1858.11,11.8792 1860.61,9.87922 1863.5,8.5 Z"/></g>
<g><path style="opacity:0.965" fill="#1c1c20" d="M -0.5,0.5 C 37.1667,0.5 74.8333,0.5 112.5,0.5C 112.5,24.5 112.5,48.5 112.5,72.5C 110.167,72.5 107.833,72.5 105.5,72.5C 105.471,53.1807 101.304,34.8474 93,17.5C 87.5391,10.522 80.3725,7.52198 71.5,8.5C 71.3333,70.1676 71.5,131.834 72,193.5C 71.6933,198.098 73.1933,201.931 76.5,205C 81.0119,206.795 85.6786,207.961 90.5,208.5C 90.5,210.833 90.5,213.167 90.5,215.5C 67.8333,215.5 45.1667,215.5 22.5,215.5C 22.5,213.167 22.5,210.833 22.5,208.5C 27.0373,208.116 31.3707,206.949 35.5,205C 37.4875,203.681 38.6541,201.848 39,199.5C 39.5,135.834 39.6667,72.1675 39.5,8.5C 26.4089,7.96457 17.9089,13.9646 14,26.5C 9.39344,40.8053 6.72677,55.472 6,70.5C 4.24583,72.25 2.07917,72.9167 -0.5,72.5C -0.5,48.5 -0.5,24.5 -0.5,0.5 Z"/></g>
<g><path style="opacity:0.969" fill="#1b1b20" d="M 118.5,0.5 C 140.167,0.5 161.833,0.5 183.5,0.5C 183.5,2.83333 183.5,5.16667 183.5,7.5C 178.963,7.88445 174.629,9.05111 170.5,11C 168.683,12.7998 167.516,14.9664 167,17.5C 166.5,45.1647 166.333,72.8313 166.5,100.5C 181.833,100.5 197.167,100.5 212.5,100.5C 212.667,72.498 212.5,44.498 212,16.5C 211.208,14.4127 210.041,12.5793 208.5,11C 204.673,9.21028 200.673,8.04361 196.5,7.5C 196.5,5.16667 196.5,2.83333 196.5,0.5C 217.833,0.5 239.167,0.5 260.5,0.5C 260.5,2.83333 260.5,5.16667 260.5,7.5C 256.327,8.04361 252.327,9.21028 248.5,11C 246.396,13.0424 245.229,15.5424 245,18.5C 244.333,77.8333 244.333,137.167 245,196.5C 246.971,204.423 252.138,208.423 260.5,208.5C 260.5,210.833 260.5,213.167 260.5,215.5C 239.167,215.5 217.833,215.5 196.5,215.5C 196.5,213.167 196.5,210.833 196.5,208.5C 200.741,208.152 204.741,206.985 208.5,205C 210.317,203.2 211.484,201.034 212,198.5C 212.5,168.835 212.667,139.169 212.5,109.5C 197.167,109.5 181.833,109.5 166.5,109.5C 166.333,138.835 166.5,168.169 167,197.5C 167.272,200.432 168.438,202.932 170.5,205C 174.629,206.949 178.963,208.116 183.5,208.5C 183.5,210.833 183.5,213.167 183.5,215.5C 161.833,215.5 140.167,215.5 118.5,215.5C 118.5,213.167 118.5,210.833 118.5,208.5C 123.227,208.07 127.56,206.57 131.5,204C 132.863,202.055 133.697,199.888 134,197.5C 134.667,137.5 134.667,77.5 134,17.5C 133.484,14.9664 132.317,12.7998 130.5,11C 126.673,9.21028 122.673,8.04361 118.5,7.5C 118.5,5.16667 118.5,2.83333 118.5,0.5 Z"/></g>
<g><path style="opacity:0.961" fill="#1b1b20" d="M 266.5,0.5 C 302.5,0.5 338.5,0.5 374.5,0.5C 374.5,24.5 374.5,48.5 374.5,72.5C 372.167,72.5 369.833,72.5 367.5,72.5C 366.59,59.2938 364.423,46.2938 361,33.5C 358.134,22.9782 351.967,15.1449 342.5,10C 333.212,8.72438 323.879,8.22438 314.5,8.5C 314.5,38.8333 314.5,69.1667 314.5,99.5C 328.003,101.844 336.503,96.5108 340,83.5C 341.764,76.2465 343.098,68.9132 344,61.5C 346.041,60.5769 348.208,60.2436 350.5,60.5C 350.5,89.5 350.5,118.5 350.5,147.5C 348.208,147.756 346.041,147.423 344,146.5C 343.698,135.038 341.365,124.038 337,113.5C 335.048,111.106 332.548,109.606 329.5,109C 324.511,108.501 319.511,108.334 314.5,108.5C 314.5,141.167 314.5,173.833 314.5,206.5C 323.839,206.666 333.173,206.5 342.5,206C 353.77,202.058 360.936,194.225 364,182.5C 367.423,169.705 369.59,156.705 370.5,143.5C 372.833,143.5 375.167,143.5 377.5,143.5C 377.5,167.5 377.5,191.5 377.5,215.5C 340.5,215.5 303.5,215.5 266.5,215.5C 266.5,213.167 266.5,210.833 266.5,208.5C 270.673,207.956 274.673,206.79 278.5,205C 280.317,203.2 281.484,201.034 282,198.5C 282.667,138.167 282.667,77.8333 282,17.5C 281.496,13.9798 279.663,11.4798 276.5,10C 273.232,8.84969 269.899,8.01636 266.5,7.5C 266.5,5.16667 266.5,2.83333 266.5,0.5 Z"/></g>
<g><path style="opacity:0.964" fill="#1b1b20" d="M 421.5,0.5 C 442.167,0.5 462.833,0.5 483.5,0.5C 483.5,2.83333 483.5,5.16667 483.5,7.5C 479.495,7.55653 475.995,8.88986 473,11.5C 471.445,16.3822 471.112,21.3822 472,26.5C 480.128,66.1394 488.128,105.806 496,145.5C 502.21,114.739 508.044,83.9054 513.5,53C 511.219,39.7101 508.386,26.5434 505,13.5C 502.647,9.57139 499.147,7.57139 494.5,7.5C 494.5,5.16667 494.5,2.83333 494.5,0.5C 514.833,0.5 535.167,0.5 555.5,0.5C 555.5,2.83333 555.5,5.16667 555.5,7.5C 551.264,7.55902 547.264,8.55902 543.5,10.5C 541.112,13.1951 540.112,16.3618 540.5,20C 548.029,61.9766 556.195,103.81 565,145.5C 573.801,104.665 581.634,63.6649 588.5,22.5C 589.246,11.9121 584.246,6.91209 573.5,7.5C 573.5,5.16667 573.5,2.83333 573.5,0.5C 588.167,0.5 602.833,0.5 617.5,0.5C 617.5,2.83333 617.5,5.16667 617.5,7.5C 609.164,7.99966 603.997,12.333 602,20.5C 588.101,85.1633 574.267,149.83 560.5,214.5C 556.285,215.798 552.118,215.798 548,214.5C 538.945,168.958 529.278,123.625 519,78.5C 510.305,124.143 501.805,169.81 493.5,215.5C 488.352,216.074 483.518,215.407 479,213.5C 465.667,150.833 452.333,88.1667 439,25.5C 438.094,20.8738 436.427,16.5404 434,12.5C 430.428,9.36463 426.262,7.69796 421.5,7.5C 421.5,5.16667 421.5,2.83333 421.5,0.5 Z"/></g>
<g><path style="opacity:0.961" fill="#1b1b20" d="M 642.5,-0.5 C 646.833,-0.5 651.167,-0.5 655.5,-0.5C 669.153,62.4472 682.653,125.447 696,188.5C 696.899,193.764 698.565,198.764 701,203.5C 702.214,205.049 703.714,206.215 705.5,207C 711.379,208.223 716.879,207.389 722,204.5C 722.862,202.913 723.529,201.246 724,199.5C 724.667,138.5 724.667,77.5 724,16.5C 723.654,14.1523 722.487,12.3189 720.5,11C 716.693,9.11924 712.693,7.95258 708.5,7.5C 708.5,5.16667 708.5,2.83333 708.5,0.5C 730.5,0.5 752.5,0.5 774.5,0.5C 774.5,2.83333 774.5,5.16667 774.5,7.5C 769.267,8.22485 764.267,9.72485 759.5,12C 758.044,14.2658 757.21,16.7658 757,19.5C 756.5,81.8324 756.333,144.166 756.5,206.5C 765.016,207.115 773.349,206.282 781.5,204C 790.713,197.094 796.546,187.928 799,176.5C 801.625,165.62 803.459,154.62 804.5,143.5C 806.833,143.5 809.167,143.5 811.5,143.5C 811.5,167.5 811.5,191.5 811.5,215.5C 756.167,215.5 700.833,215.5 645.5,215.5C 645.5,213.167 645.5,210.833 645.5,208.5C 649.884,207.99 654.218,207.157 658.5,206C 660.667,205.167 662.167,203.667 663,201.5C 663.667,197.833 663.667,194.167 663,190.5C 660.766,179.499 658.6,168.499 656.5,157.5C 644.167,157.5 631.833,157.5 619.5,157.5C 618.196,166.188 616.696,174.855 615,183.5C 613.371,189.867 613.371,196.201 615,202.5C 618.93,206.532 623.763,208.532 629.5,208.5C 629.5,210.833 629.5,213.167 629.5,215.5C 614.5,215.5 599.5,215.5 584.5,215.5C 584.5,213.167 584.5,210.833 584.5,208.5C 594.846,206.986 600.68,200.986 602,190.5C 615.567,126.829 629.067,63.1621 642.5,-0.5 Z M 637.5,65.5 C 643.528,92.9709 649.195,120.638 654.5,148.5C 643.495,148.667 632.495,148.5 621.5,148C 627.149,120.59 632.482,93.0895 637.5,65.5 Z"/></g>
<g><path style="opacity:0.945" fill="#1b1b21" d="M 817.5,0.5 C 839.167,0.5 860.833,0.5 882.5,0.5C 882.5,2.83333 882.5,5.16667 882.5,7.5C 878.812,8.17174 875.145,9.00507 871.5,10C 869,11.1667 867.167,13 866,15.5C 865.5,79.1658 865.333,142.832 865.5,206.5C 879.034,209.566 890.2,205.9 899,195.5C 907.555,179.284 912.055,161.95 912.5,143.5C 914.833,143.5 917.167,143.5 919.5,143.5C 919.5,167.5 919.5,191.5 919.5,215.5C 885.5,215.5 851.5,215.5 817.5,215.5C 817.5,213.167 817.5,210.833 817.5,208.5C 823.716,208.165 828.55,205.498 832,200.5C 832.667,138.833 832.667,77.1667 832,15.5C 828.595,10.3784 823.762,7.7117 817.5,7.5C 817.5,5.16667 817.5,2.83333 817.5,0.5 Z"/></g>
<g><path style="opacity:0.961" fill="#1b1b20" d="M 1067.5,0.5 C 1105.17,0.5 1142.83,0.5 1180.5,0.5C 1180.5,24.5 1180.5,48.5 1180.5,72.5C 1178.17,72.5 1175.83,72.5 1173.5,72.5C 1173.52,54.4369 1170.02,37.1036 1163,20.5C 1157.98,11.9074 1150.48,7.90744 1140.5,8.5C 1140.33,72.1675 1140.5,135.834 1141,199.5C 1141.35,201.848 1142.51,203.681 1144.5,205C 1148.63,206.949 1152.96,208.116 1157.5,208.5C 1157.5,210.833 1157.5,213.167 1157.5,215.5C 1135.17,215.5 1112.83,215.5 1090.5,215.5C 1090.5,213.167 1090.5,210.833 1090.5,208.5C 1094.26,208.143 1097.93,207.31 1101.5,206C 1104,204.833 1105.83,203 1107,200.5C 1107.5,136.501 1107.67,72.5009 1107.5,8.5C 1097.52,7.90744 1090.02,11.9074 1085,20.5C 1077.98,37.1036 1074.48,54.4369 1074.5,72.5C 1072.17,72.5 1069.83,72.5 1067.5,72.5C 1067.5,48.5 1067.5,24.5 1067.5,0.5 Z"/></g>
<g><path style="opacity:0.964" fill="#1b1b20" d="M 1296.5,216.5 C 1292.17,216.5 1287.83,216.5 1283.5,216.5C 1272.78,213.61 1266.28,206.61 1264,195.5C 1262.35,188.256 1261.35,180.923 1261,173.5C 1260.39,158.164 1259.72,142.831 1259,127.5C 1259.17,120.652 1256.67,115.152 1251.5,111C 1245.84,110.501 1240.18,110.334 1234.5,110.5C 1234.33,139.835 1234.5,169.169 1235,198.5C 1235.52,201.034 1236.68,203.2 1238.5,205C 1242.23,207.099 1246.23,208.266 1250.5,208.5C 1250.5,210.833 1250.5,213.167 1250.5,215.5C 1229.17,215.5 1207.83,215.5 1186.5,215.5C 1186.5,213.167 1186.5,210.833 1186.5,208.5C 1190.67,207.956 1194.67,206.79 1198.5,205C 1200.04,203.421 1201.21,201.587 1202,199.5C 1202.67,138.5 1202.67,77.5 1202,16.5C 1201.21,14.4127 1200.04,12.5793 1198.5,11C 1194.67,9.21028 1190.67,8.04361 1186.5,7.5C 1186.5,5.16667 1186.5,2.83333 1186.5,0.5C 1210.87,0.0601661 1235.2,0.560166 1259.5,2C 1291.16,10.7727 1304.66,31.6061 1300,64.5C 1295.45,84.8883 1283.28,98.5549 1263.5,105.5C 1275.12,108.046 1283.29,114.712 1288,125.5C 1289.97,131.361 1291.3,137.361 1292,143.5C 1293.36,163.242 1295.2,182.908 1297.5,202.5C 1298.24,203.287 1299.08,203.953 1300,204.5C 1302.04,203.421 1303.38,201.754 1304,199.5C 1305.27,192.897 1305.77,186.23 1305.5,179.5C 1308.17,179.5 1310.83,179.5 1313.5,179.5C 1313.5,188.348 1312.33,197.015 1310,205.5C 1307.38,211.628 1302.88,215.294 1296.5,216.5 Z M 1234.5,8.5 C 1250.81,6.56191 1260.65,13.5619 1264,29.5C 1266.91,46.7732 1267.25,64.1065 1265,81.5C 1261.85,98.5094 1251.68,105.176 1234.5,101.5C 1234.5,70.5 1234.5,39.5 1234.5,8.5 Z"/></g>
<g><path style="opacity:0.96" fill="#1b1b21" d="M 1363.5,108.5 C 1363.44,107.957 1363.11,107.624 1362.5,107.5C 1361.17,140.664 1361.17,173.664 1362.5,206.5C 1371.84,206.666 1381.17,206.5 1390.5,206C 1398.05,203.978 1403.55,199.478 1407,192.5C 1413.46,177.526 1417.13,161.859 1418,145.5C 1420.11,143.709 1422.61,143.042 1425.5,143.5C 1425.5,167.5 1425.5,191.5 1425.5,215.5C 1388.17,215.5 1350.83,215.5 1313.5,215.5C 1313.5,213.167 1313.5,210.833 1313.5,208.5C 1317.67,207.956 1321.67,206.79 1325.5,205C 1327.49,203.681 1328.65,201.848 1329,199.5C 1329.67,138.5 1329.67,77.5 1329,16.5C 1328.26,13.4265 1326.43,11.2598 1323.5,10C 1319.27,8.58769 1314.94,7.75436 1310.5,7.5C 1310.5,5.16667 1310.5,2.83333 1310.5,0.5C 1347.5,0.5 1384.5,0.5 1421.5,0.5C 1421.5,24.5 1421.5,48.5 1421.5,72.5C 1419.21,72.7564 1417.04,72.4231 1415,71.5C 1414.29,53.2141 1409.96,35.8807 1402,19.5C 1398.66,15.1531 1394.5,11.9864 1389.5,10C 1380.55,8.69288 1371.55,8.19288 1362.5,8.5C 1362.5,38.8333 1362.5,69.1667 1362.5,99.5C 1376.94,101.89 1385.44,95.8896 1388,81.5C 1389.38,74.5258 1390.55,67.5258 1391.5,60.5C 1393.83,60.5 1396.17,60.5 1398.5,60.5C 1398.5,89.5 1398.5,118.5 1398.5,147.5C 1396.17,147.5 1393.83,147.5 1391.5,147.5C 1391.05,136.143 1388.89,125.143 1385,114.5C 1383.06,111.894 1380.56,110.061 1377.5,109C 1372.85,108.501 1368.18,108.334 1363.5,108.5 Z"/></g>
<g><path style="opacity:0.96" fill="#1b1b21" d="M 1480.5,108.5 C 1480.44,107.957 1480.11,107.624 1479.5,107.5C 1478.17,140.664 1478.17,173.664 1479.5,206.5C 1488.84,206.666 1498.17,206.5 1507.5,206C 1518.09,202.04 1524.92,194.54 1528,183.5C 1531.54,171.065 1533.87,158.398 1535,145.5C 1537.11,143.709 1539.61,143.042 1542.5,143.5C 1542.5,167.5 1542.5,191.5 1542.5,215.5C 1505.17,215.5 1467.83,215.5 1430.5,215.5C 1430.5,213.167 1430.5,210.833 1430.5,208.5C 1434.67,207.956 1438.67,206.79 1442.5,205C 1444.49,203.681 1445.65,201.848 1446,199.5C 1446.67,138.5 1446.67,77.5 1446,16.5C 1445.65,14.1523 1444.49,12.3189 1442.5,11C 1438.69,9.11924 1434.69,7.95258 1430.5,7.5C 1430.5,5.16667 1430.5,2.83333 1430.5,0.5C 1466.5,0.5 1502.5,0.5 1538.5,0.5C 1538.5,24.5 1538.5,48.5 1538.5,72.5C 1536.21,72.7564 1534.04,72.4231 1532,71.5C 1531.09,55.2966 1527.76,39.6299 1522,24.5C 1519.08,17.2417 1513.91,12.4084 1506.5,10C 1497.55,8.69288 1488.55,8.19288 1479.5,8.5C 1479.5,38.8333 1479.5,69.1667 1479.5,99.5C 1493.94,101.89 1502.44,95.8896 1505,81.5C 1506.38,74.5258 1507.55,67.5258 1508.5,60.5C 1510.83,60.5 1513.17,60.5 1515.5,60.5C 1515.5,89.5 1515.5,118.5 1515.5,147.5C 1513.17,147.5 1510.83,147.5 1508.5,147.5C 1508.05,136.143 1505.89,125.143 1502,114.5C 1500.06,111.894 1497.56,110.061 1494.5,109C 1489.85,108.501 1485.18,108.334 1480.5,108.5 Z"/></g>
<g><path style="opacity:0.964" fill="#1c1c20" d="M 1547.5,0.5 C 1585.5,0.5 1623.5,0.5 1661.5,0.5C 1661.5,24.5 1661.5,48.5 1661.5,72.5C 1659.17,72.5 1656.83,72.5 1654.5,72.5C 1654.31,54.0126 1650.48,36.3459 1643,19.5C 1637.85,11.1764 1630.35,7.5097 1620.5,8.5C 1620.33,71.1676 1620.5,133.834 1621,196.5C 1620.81,200.232 1622.31,203.066 1625.5,205C 1630.01,206.795 1634.68,207.961 1639.5,208.5C 1639.5,210.833 1639.5,213.167 1639.5,215.5C 1616.83,215.5 1594.17,215.5 1571.5,215.5C 1571.5,213.167 1571.5,210.833 1571.5,208.5C 1576.04,208.116 1580.37,206.949 1584.5,205C 1586.04,203.421 1587.21,201.587 1588,199.5C 1588.5,135.834 1588.67,72.1675 1588.5,8.5C 1575.43,7.95694 1566.93,13.9569 1563,26.5C 1558.33,41.4997 1555.5,56.8331 1554.5,72.5C 1552.17,72.5 1549.83,72.5 1547.5,72.5C 1547.5,48.5 1547.5,24.5 1547.5,0.5 Z"/></g>
<g><path style="opacity:0.971" fill="#1b1b20" d="M 1755.5,216.5 C 1750.5,216.5 1745.5,216.5 1740.5,216.5C 1717.63,209.391 1707.8,193.724 1711,169.5C 1714.2,157.994 1721.7,152.494 1733.5,153C 1743.98,156.444 1747.81,163.611 1745,174.5C 1742.07,181.219 1737.24,186.052 1730.5,189C 1727.28,192.112 1726.78,195.612 1729,199.5C 1736.8,208.809 1745.47,209.809 1755,202.5C 1757.74,197.867 1759.41,192.867 1760,187.5C 1760.67,130.167 1760.67,72.8333 1760,15.5C 1758.83,13 1757,11.1667 1754.5,10C 1750.93,8.69048 1747.26,7.85715 1743.5,7.5C 1743.5,5.16667 1743.5,2.83333 1743.5,0.5C 1765.17,0.5 1786.83,0.5 1808.5,0.5C 1808.5,2.83333 1808.5,5.16667 1808.5,7.5C 1803.6,7.80379 1799.27,9.47046 1795.5,12.5C 1794.9,13.7946 1794.4,15.1279 1794,16.5C 1793.67,68.8333 1793.33,121.167 1793,173.5C 1790.54,196.778 1778.04,211.112 1755.5,216.5 Z"/></g>
<g><path style="opacity:0.959" fill="#1b1b20" d="M 2164.5,216.5 C 2159.83,216.5 2155.17,216.5 2150.5,216.5C 2140.81,213.301 2134.64,206.634 2132,196.5C 2130.57,190.574 2129.57,184.574 2129,178.5C 2128.23,162.504 2127.56,146.504 2127,130.5C 2127.19,111.639 2118.02,104.973 2099.5,110.5C 2099.33,140.502 2099.5,170.502 2100,200.5C 2103.24,205.873 2108.08,208.54 2114.5,208.5C 2114.5,210.833 2114.5,213.167 2114.5,215.5C 2093.5,215.5 2072.5,215.5 2051.5,215.5C 2051.5,213.167 2051.5,210.833 2051.5,208.5C 2057.35,208.158 2062.18,205.824 2066,201.5C 2066.33,199.833 2066.67,198.167 2067,196.5C 2067.67,137.833 2067.67,79.1667 2067,20.5C 2067.37,14.7304 2064.87,10.8971 2059.5,9C 2054.5,8.33333 2049.5,8.33333 2044.5,9C 2038.79,11.5667 2035.96,16.0667 2036,22.5C 2035.97,75.861 2035.3,129.194 2034,182.5C 2030.83,200.829 2020.33,212.162 2002.5,216.5C 1995.17,216.5 1987.83,216.5 1980.5,216.5C 1960.85,212.346 1949.01,200.346 1945,180.5C 1943.7,125.528 1943.03,70.5275 1943,15.5C 1939.6,10.3784 1934.76,7.7117 1928.5,7.5C 1928.5,5.16667 1928.5,2.83333 1928.5,0.5C 1950.5,0.5 1972.5,0.5 1994.5,0.5C 1994.5,2.83333 1994.5,5.16667 1994.5,7.5C 1990.41,7.88393 1986.41,8.71727 1982.5,10C 1980,11.1667 1978.17,13 1977,15.5C 1976.33,70.8333 1976.33,126.167 1977,181.5C 1978.91,201.078 1989.41,208.578 2008.5,204C 2015.38,201.416 2019.88,196.583 2022,189.5C 2023.64,183.608 2024.64,177.608 2025,171.5C 2025.67,123.167 2025.67,74.8333 2025,26.5C 2026.24,13.5741 2020.41,7.24079 2007.5,7.5C 2007.5,5.16667 2007.5,2.83333 2007.5,0.5C 2045.5,0.333346 2083.5,0.500013 2121.5,1C 2147.26,4.10003 2162.76,18.2667 2168,43.5C 2171.56,74.0807 2159.06,94.7474 2130.5,105.5C 2141.7,107.548 2149.86,113.548 2155,123.5C 2157.56,130.628 2159.23,137.962 2160,145.5C 2161.24,164.554 2162.91,183.554 2165,202.5C 2167.28,205.064 2169.28,204.73 2171,201.5C 2172.93,194.302 2173.77,186.969 2173.5,179.5C 2175.83,179.5 2178.17,179.5 2180.5,179.5C 2180.81,187.228 2180.31,194.895 2179,202.5C 2177.55,205.912 2175.71,209.079 2173.5,212C 2170.56,213.801 2167.56,215.301 2164.5,216.5 Z M 2099.5,8.5 C 2119.71,6.20884 2130.88,15.2088 2133,35.5C 2135,50.1667 2135,64.8333 2133,79.5C 2130.11,98.889 2118.94,106.222 2099.5,101.5C 2099.5,70.5 2099.5,39.5 2099.5,8.5 Z"/></g>
<g><path style="opacity:0.949" fill="#1c1b20" d="M 2180.5,0.5 C 2195.74,0.175822 2210.91,0.509156 2226,1.5C 2243.67,46.1667 2261.33,90.8333 2279,135.5C 2279.67,98.5 2279.67,61.5 2279,24.5C 2279.12,18.8537 2276.96,14.3537 2272.5,11C 2267.98,9.20254 2263.31,8.03588 2258.5,7.5C 2258.5,5.16667 2258.5,2.83333 2258.5,0.5C 2274.5,0.5 2290.5,0.5 2306.5,0.5C 2306.5,2.83333 2306.5,5.16667 2306.5,7.5C 2297.12,7.71672 2291.62,12.3834 2290,21.5C 2289.5,86.1658 2289.33,150.832 2289.5,215.5C 2284.57,215.803 2279.74,215.469 2275,214.5C 2252.67,159.5 2230.33,104.5 2208,49.5C 2207.33,95.8333 2207.33,142.167 2208,188.5C 2207.9,201.569 2214.4,208.235 2227.5,208.5C 2227.5,210.833 2227.5,213.167 2227.5,215.5C 2212.17,215.5 2196.83,215.5 2181.5,215.5C 2181.5,213.167 2181.5,210.833 2181.5,208.5C 2190.96,208.535 2196.13,203.869 2197,194.5C 2197.67,137.833 2197.67,81.1667 2197,24.5C 2194.67,18.5126 2191.17,13.346 2186.5,9C 2184.56,8.18701 2182.56,7.68701 2180.5,7.5C 2180.5,5.16667 2180.5,2.83333 2180.5,0.5 Z"/></g>
<g><path style="opacity:0.964" fill="#1b1b20" d="M 2354.5,-0.5 C 2358.83,-0.5 2363.17,-0.5 2367.5,-0.5C 2380.85,60.7514 2394.02,122.085 2407,183.5C 2408.36,189.589 2410.02,195.589 2412,201.5C 2413.17,204 2415,205.833 2417.5,207C 2421.5,207.667 2425.5,207.667 2429.5,207C 2432.94,205.612 2435.11,203.112 2436,199.5C 2436.67,138.833 2436.67,78.1667 2436,17.5C 2435.48,14.9664 2434.32,12.7998 2432.5,11C 2428.67,9.21028 2424.67,8.04361 2420.5,7.5C 2420.5,5.16667 2420.5,2.83333 2420.5,0.5C 2442.5,0.5 2464.5,0.5 2486.5,0.5C 2486.5,2.83333 2486.5,5.16667 2486.5,7.5C 2481.18,7.93021 2476.18,9.43021 2471.5,12C 2470.14,13.9449 2469.3,16.1116 2469,18.5C 2468.5,81.1658 2468.33,143.832 2468.5,206.5C 2490.66,210.177 2504.49,201.177 2510,179.5C 2513.08,168.36 2515.08,157.027 2516,145.5C 2518.11,143.709 2520.61,143.042 2523.5,143.5C 2523.5,167.5 2523.5,191.5 2523.5,215.5C 2468.17,215.5 2412.83,215.5 2357.5,215.5C 2357.5,213.167 2357.5,210.833 2357.5,208.5C 2362.67,208.034 2367.67,206.867 2372.5,205C 2374.76,203.221 2376.1,200.887 2376.5,198C 2374.15,184.764 2371.49,171.597 2368.5,158.5C 2356.51,157.334 2344.51,157.167 2332.5,158C 2329.4,170.153 2327.07,182.486 2325.5,195C 2326.32,204.638 2331.65,209.138 2341.5,208.5C 2341.5,210.833 2341.5,213.167 2341.5,215.5C 2326.5,215.5 2311.5,215.5 2296.5,215.5C 2296.5,213.167 2296.5,210.833 2296.5,208.5C 2306.38,207.127 2312.21,201.46 2314,191.5C 2327.69,127.527 2341.19,63.5275 2354.5,-0.5 Z M 2349.5,65.5 C 2355.53,92.9723 2361.2,120.639 2366.5,148.5C 2355.49,148.667 2344.49,148.5 2333.5,148C 2339.41,120.637 2344.74,93.1366 2349.5,65.5 Z"/></g>
<g><path style="opacity:0.086" fill="#161623" d="M 1363.5,108.5 C 1362.5,140.996 1362.17,173.662 1362.5,206.5C 1361.17,173.664 1361.17,140.664 1362.5,107.5C 1363.11,107.624 1363.44,107.957 1363.5,108.5 Z"/></g>
<g><path style="opacity:0.082" fill="#171724" d="M 1480.5,108.5 C 1479.5,140.996 1479.17,173.662 1479.5,206.5C 1478.17,173.664 1478.17,140.664 1479.5,107.5C 1480.11,107.624 1480.44,107.957 1480.5,108.5 Z"/></g>
<g><path style="opacity:0.954" fill="#1c1b20" d="M 2559.5,195.5 C 2559.5,199.5 2559.5,203.5 2559.5,207.5C 2556.8,211.684 2553.13,214.684 2548.5,216.5C 2546.5,216.5 2544.5,216.5 2542.5,216.5C 2532.26,211.299 2529.43,203.299 2534,192.5C 2539.83,185.93 2546.66,184.763 2554.5,189C 2556.55,190.965 2558.22,193.132 2559.5,195.5 Z"/></g>
</svg>
