<?xml version="1.0" encoding="UTF-8"?>
<!DOCTYPE svg PUBLIC "-//W3C//DTD SVG 1.1//EN" "http://www.w3.org/Graphics/SVG/1.1/DTD/svg11.dtd">
<svg xmlns="http://www.w3.org/2000/svg" version="1.1" viewBox="0 0 2560 416" style="shape-rendering:geometricPrecision; text-rendering:geometricPrecision; image-rendering:optimizeQuality; fill-rule:evenodd; clip-rule:evenodd" xmlns:xlink="http://www.w3.org/1999/xlink">
<g><path style="opacity:0.987" fill="#7d2efe" d="M 534.5,-0.5 C 561.833,-0.5 589.167,-0.5 616.5,-0.5C 616.333,39.8347 616.5,80.168 617,120.5C 642.418,95.2118 672.252,88.3785 706.5,100C 729.289,109.697 744.123,126.53 751,150.5C 752.846,157.065 754.18,163.731 755,170.5C 755.5,223.832 755.667,277.166 755.5,330.5C 728.167,330.5 700.833,330.5 673.5,330.5C 673.667,284.832 673.5,239.165 673,193.5C 667.023,173.927 654.19,167.094 634.5,173C 625.088,178.432 619.588,186.599 618,197.5C 617.5,241.832 617.333,286.165 617.5,330.5C 589.833,330.5 562.167,330.5 534.5,330.5C 534.5,220.167 534.5,109.833 534.5,-0.5 Z"/></g>
<g><path style="opacity:0.992" fill="#7c2dfe" d="M 1398.5,-0.5 C 1431.17,-0.5 1463.83,-0.5 1496.5,-0.5C 1467.28,68.611 1438.61,137.944 1410.5,207.5C 1378.16,207.667 1345.83,207.5 1313.5,207C 1341.98,137.884 1370.31,68.7173 1398.5,-0.5 Z"/></g>
<g><path style="opacity:0.983" fill="#000000" d="M 1853.5,93.5 C 1902.58,91.7857 1940.08,111.452 1966,152.5C 1979.08,176.993 1983.75,202.993 1980,230.5C 1927.24,231.497 1874.4,231.831 1821.5,231.5C 1823.85,248.716 1833.18,260.216 1849.5,266C 1865.76,270.778 1881.1,268.778 1895.5,260C 1900.39,255.931 1905.06,251.764 1909.5,247.5C 1931.24,255.872 1952.57,265.039 1973.5,275C 1956.99,307.461 1930.65,327.128 1894.5,334C 1858.18,340.838 1823.85,335.505 1791.5,318C 1756.37,293.583 1738.7,259.749 1738.5,216.5C 1739.2,169.57 1759.2,133.736 1798.5,109C 1815.89,100.031 1834.22,94.8641 1853.5,93.5 Z M 1853.5,152.5 C 1879.38,150.392 1894.38,162.059 1898.5,187.5C 1873.17,187.5 1847.83,187.5 1822.5,187.5C 1825.48,169.198 1835.81,157.531 1853.5,152.5 Z"/></g>
<g><path style="opacity:0.991" fill="#7c2dfe" d="M 364.5,94.5 C 389.976,93.7079 411.809,102.041 430,119.5C 430.5,113.175 430.666,106.842 430.5,100.5C 456.833,100.5 483.167,100.5 509.5,100.5C 509.415,104.849 509.082,109.182 508.5,113.5C 509.555,132.65 510.222,151.817 510.5,171C 509.777,223.831 509.277,276.664 509,329.5C 482.908,330.495 456.741,330.828 430.5,330.5C 430.666,324.158 430.5,317.825 430,311.5C 408.277,332.396 382.443,340.229 352.5,335C 317.921,328.635 292.088,310.135 275,279.5C 253.518,234.973 254.518,190.973 278,147.5C 298.131,115.682 326.964,98.0156 364.5,94.5 Z M 376.5,169.5 C 401.849,166.246 419.349,176.246 429,199.5C 435.014,219.78 430.514,237.28 415.5,252C 397.469,264.448 378.802,265.448 359.5,255C 341.401,240.134 335.567,221.3 342,198.5C 348.259,182.394 359.759,172.727 376.5,169.5 Z"/></g>
<g><path style="opacity:0.988" fill="#000000" d="M 1630.5,94.5 C 1675.49,93.987 1702.99,115.654 1713,159.5C 1713.83,164.143 1714.5,168.81 1715,173.5C 1715.5,225.832 1715.67,278.166 1715.5,330.5C 1688.17,330.5 1660.83,330.5 1633.5,330.5C 1633.97,283.8 1633.47,237.133 1632,190.5C 1623.11,170.399 1608.94,165.566 1589.5,176C 1583.18,181.804 1579.35,188.97 1578,197.5C 1576.54,241.804 1576.04,286.137 1576.5,330.5C 1549.5,330.5 1522.5,330.5 1495.5,330.5C 1495.5,253.833 1495.5,177.167 1495.5,100.5C 1522.5,100.5 1549.5,100.5 1576.5,100.5C 1576.33,107.175 1576.5,113.842 1577,120.5C 1591.45,104.69 1609.29,96.0229 1630.5,94.5 Z"/></g>
<g><path style="opacity:0.98" fill="#000000" d="M 2559.5,244.5 C 2559.5,252.833 2559.5,261.167 2559.5,269.5C 2554.02,295.824 2539.02,314.657 2514.5,326C 2490.32,335.242 2465.32,338.576 2439.5,336C 2406.59,333.81 2376.59,323.477 2349.5,305C 2361.03,285.482 2372.53,265.982 2384,246.5C 2410.61,262.693 2439.44,270.193 2470.5,269C 2483.37,265.313 2485.37,258.646 2476.5,249C 2456.28,243.289 2435.95,237.955 2415.5,233C 2400.05,228.363 2386.55,220.53 2375,209.5C 2363.49,194.809 2359.16,178.142 2362,159.5C 2370.26,129.242 2389.42,109.409 2419.5,100C 2467.47,88.9378 2512.8,95.7711 2555.5,120.5C 2556.61,121.723 2556.78,123.056 2556,124.5C 2547.17,142.833 2538.33,161.167 2529.5,179.5C 2528.83,179.833 2528.17,180.167 2527.5,180.5C 2509.02,171.507 2489.69,165.007 2469.5,161C 2461.77,160.144 2454.1,160.477 2446.5,162C 2440.26,166.613 2439.93,171.613 2445.5,177C 2448.17,178.333 2450.83,179.667 2453.5,181C 2472.11,184.988 2490.44,189.988 2508.5,196C 2526.21,202.254 2540.71,212.754 2552,227.5C 2555.11,233.032 2557.61,238.699 2559.5,244.5 Z"/></g>
<g><path style="opacity:0.993" fill="#7c2dfe" d="M 888.5,94.5 C 931.52,93.6562 966.687,109.656 994,142.5C 1019.83,181.444 1024.16,222.777 1007,266.5C 989.598,302.143 961.431,324.31 922.5,333C 879.883,341.845 841.883,332.512 808.5,305C 771.235,265.423 761.735,219.923 780,168.5C 801.429,122.239 837.596,97.5724 888.5,94.5 Z M 884.5,170.5 C 913.14,167.391 930.974,179.725 938,207.5C 940.192,242.641 923.692,260.475 888.5,261C 868.674,257.509 856.174,246.009 851,226.5C 846.131,197.864 857.298,179.197 884.5,170.5 Z"/></g>
<g><path style="opacity:0.993" fill="#7c2dfe" d="M 1147.5,94.5 C 1190.66,93.9995 1225.82,110.333 1253,143.5C 1277.96,181.505 1282.29,221.838 1266,264.5C 1248.15,302.869 1218.32,326.036 1176.5,334C 1137.26,340.689 1101.92,332.022 1070.5,308C 1037.67,277.19 1024.51,239.357 1031,194.5C 1041.55,143.862 1071.72,111.696 1121.5,98C 1130.26,96.4074 1138.93,95.2407 1147.5,94.5 Z M 1142.5,170.5 C 1178.07,168.24 1196.24,184.907 1197,220.5C 1192.09,248.74 1175.25,262.24 1146.5,261C 1127.88,258.054 1115.72,247.554 1110,229.5C 1103.33,199.773 1114.16,180.106 1142.5,170.5 Z"/></g>
<g><path style="opacity:0.993" fill="#7c2dfe" d="M -0.5,100.5 C 28.8409,100.167 58.1742,100.5 87.5,101.5C 104.382,144.986 121.549,188.319 139,231.5C 156.371,187.928 173.871,144.428 191.5,101C 219.831,100.5 248.165,100.333 276.5,100.5C 275.85,107.145 274.017,113.478 271,119.5C 229.924,218.236 188.757,316.903 147.5,415.5C 118.833,415.5 90.1667,415.5 61.5,415.5C 61.7366,412.353 62.5699,409.353 64,406.5C 75.0546,381.725 85.5546,356.725 95.5,331.5C 64.0024,255.185 32.0024,179.185 -0.5,103.5C -0.5,102.5 -0.5,101.5 -0.5,100.5 Z"/></g>
<g><path style="opacity:0.983" fill="#000000" d="M 1979.5,100.5 C 2008.17,100.333 2036.84,100.5 2065.5,101C 2076.95,139.312 2088.78,177.478 2101,215.5C 2113.61,177.179 2126.11,138.846 2138.5,100.5C 2159.74,100.173 2180.91,100.506 2202,101.5C 2214.67,139.5 2227.33,177.5 2240,215.5C 2251.6,177.525 2263.1,139.525 2274.5,101.5C 2302.49,100.5 2330.49,100.167 2358.5,100.5C 2332.84,177.151 2307.18,253.818 2281.5,330.5C 2257.14,330.616 2232.81,329.949 2208.5,328.5C 2195.43,289.463 2182.27,250.463 2169,211.5C 2155.86,251.092 2143.02,290.759 2130.5,330.5C 2105.93,330.078 2081.43,329.411 2057,328.5C 2030.86,252.576 2005.03,176.576 1979.5,100.5 Z"/></g>
<g><path style="opacity:0.99" fill="#7c2dfe" d="M 1329.5,226.5 C 1359.17,223.734 1379.34,236.067 1390,263.5C 1396.38,291.044 1387.88,312.544 1364.5,328C 1343.69,337.783 1323.69,336.449 1304.5,324C 1286.72,308.659 1280.55,289.493 1286,266.5C 1293.1,244.897 1307.6,231.564 1329.5,226.5 Z"/></g>
</svg>
